<?xml version="1.0" encoding="UTF-8" standalone="no"?>
<!DOCTYPE svg PUBLIC "-//W3C//DTD SVG 1.1//EN" "http://www.w3.org/Graphics/SVG/1.1/DTD/svg11.dtd">
<svg width="100%" height="100%" viewBox="0 0 200 100" version="1.1" xmlns="http://www.w3.org/2000/svg" xmlns:xlink="http://www.w3.org/1999/xlink" xml:space="preserve" xmlns:serif="http://www.serif.com/" style="fill-rule:evenodd;clip-rule:evenodd;stroke-linejoin:round;stroke-miterlimit:1.41421;">
    <g id="rnn-cell" transform="matrix(1,0,0,1,-186,-246)">
        <g transform="matrix(2.43902,0,0,1,-1374.98,-97)">
            <path d="M722,353C722,347.481 720.163,343 717.9,343L644.1,343C641.837,343 640,347.481 640,353L640,433C640,438.519 641.837,443 644.1,443L717.9,443C720.163,443 722,438.519 722,433L722,353Z" style="fill:rgb(106,208,255);"/>
            <path d="M717.953,343.001L718.006,343.003L718.058,343.007L718.111,343.013L718.163,343.02L718.215,343.029L718.267,343.04L718.319,343.052L718.371,343.065L718.422,343.08L718.473,343.097L718.524,343.115L718.575,343.135L718.625,343.156L718.676,343.179L718.726,343.203L718.776,343.229L718.825,343.256L718.875,343.285L718.924,343.315L718.973,343.347L719.022,343.38L719.07,343.414L719.119,343.45L719.167,343.487L719.214,343.526L719.262,343.566L719.309,343.607L719.356,343.65L719.403,343.694L719.449,343.74L719.495,343.786L719.541,343.834L719.587,343.884L719.632,343.935L719.677,343.987L719.722,344.04L719.766,344.095L719.81,344.151L719.854,344.208L719.897,344.266L719.94,344.326L719.983,344.387L720.025,344.449L720.067,344.512L720.109,344.576L720.151,344.642L720.192,344.709L720.232,344.777L720.273,344.846L720.313,344.916L720.352,344.988L720.392,345.06L720.431,345.134L720.469,345.209L720.507,345.285L720.545,345.362L720.583,345.44L720.62,345.519L720.656,345.599L720.692,345.68L720.728,345.763L720.764,345.846L720.799,345.93L720.833,346.016L720.867,346.102L720.901,346.189L720.934,346.278L720.967,346.367L721,346.457L721.032,346.548L721.063,346.641L721.094,346.734L721.125,346.828L721.155,346.923L721.185,347.018L721.214,347.115L721.243,347.213L721.272,347.311L721.299,347.411L721.327,347.511L721.354,347.612L721.38,347.714L721.406,347.816L721.432,347.92L721.456,348.024L721.481,348.129L721.505,348.235L721.528,348.342L721.551,348.449L721.574,348.557L721.595,348.666L721.617,348.776L721.638,348.886L721.658,348.997L721.678,349.109L721.697,349.222L721.715,349.335L721.734,349.449L721.751,349.563L721.768,349.678L721.784,349.794L721.8,349.911L721.816,350.028L721.83,350.145L721.844,350.264L721.858,350.383L721.871,350.502L721.883,350.622L721.895,350.743L721.906,350.864L721.917,350.986L721.927,351.108L721.936,351.231L721.945,351.354L721.953,351.478L721.96,351.602L721.967,351.727L721.973,351.852L721.979,351.978L721.984,352.104L721.988,352.231L721.992,352.358L721.995,352.486L721.997,352.614L721.999,352.742L722,352.871L722,353L722,433L722,433.129L721.999,433.258L721.997,433.386L721.995,433.514L721.992,433.642L721.988,433.769L721.984,433.896L721.979,434.022L721.973,434.148L721.967,434.273L721.96,434.398L721.953,434.522L721.945,434.646L721.936,434.769L721.927,434.892L721.917,435.014L721.906,435.136L721.895,435.257L721.883,435.378L721.871,435.498L721.858,435.617L721.844,435.736L721.83,435.855L721.816,435.972L721.8,436.089L721.784,436.206L721.768,436.322L721.751,436.437L721.734,436.551L721.715,436.665L721.697,436.778L721.678,436.891L721.658,437.003L721.638,437.114L721.617,437.224L721.595,437.334L721.574,437.443L721.551,437.551L721.528,437.658L721.505,437.765L721.481,437.871L721.456,437.976L721.432,438.08L721.406,438.184L721.38,438.286L721.354,438.388L721.327,438.489L721.299,438.589L721.272,438.689L721.243,438.787L721.214,438.885L721.185,438.982L721.155,439.077L721.125,439.172L721.094,439.266L721.063,439.359L721.032,439.452L721,439.543L720.967,439.633L720.934,439.722L720.901,439.811L720.867,439.898L720.833,439.984L720.799,440.07L720.764,440.154L720.728,440.237L720.692,440.32L720.656,440.401L720.62,440.481L720.583,440.56L720.545,440.638L720.507,440.715L720.469,440.791L720.431,440.866L720.392,440.94L720.352,441.012L720.313,441.084L720.273,441.154L720.232,441.223L720.192,441.291L720.151,441.358L720.109,441.424L720.067,441.488L720.025,441.551L719.983,441.613L719.94,441.674L719.897,441.734L719.854,441.792L719.81,441.849L719.766,441.905L719.722,441.96L719.677,442.013L719.632,442.065L719.587,442.116L719.541,442.166L719.495,442.214L719.449,442.26L719.403,442.306L719.356,442.35L719.309,442.393L719.262,442.434L719.214,442.474L719.167,442.513L719.119,442.55L719.07,442.586L719.022,442.62L718.973,442.653L718.924,442.685L718.875,442.715L718.825,442.744L718.776,442.771L718.726,442.797L718.676,442.821L718.625,442.844L718.575,442.865L718.524,442.885L718.473,442.903L718.422,442.92L718.371,442.935L718.319,442.948L718.267,442.96L718.215,442.971L718.163,442.98L718.111,442.987L718.058,442.993L718.006,442.997L717.953,442.999L717.9,443L644.1,443L644.047,442.999L643.994,442.997L643.942,442.993L643.889,442.987L643.837,442.98L643.785,442.971L643.733,442.96L643.681,442.948L643.629,442.935L643.578,442.92L643.527,442.903L643.476,442.885L643.425,442.865L643.375,442.844L643.324,442.821L643.274,442.797L643.224,442.771L643.175,442.744L643.125,442.715L643.076,442.685L643.027,442.653L642.978,442.62L642.93,442.586L642.881,442.55L642.833,442.513L642.786,442.474L642.738,442.434L642.691,442.393L642.644,442.35L642.597,442.306L642.551,442.26L642.505,442.214L642.459,442.166L642.413,442.116L642.368,442.065L642.323,442.013L642.278,441.96L642.234,441.905L642.19,441.849L642.146,441.792L642.103,441.734L642.06,441.674L642.017,441.613L641.975,441.551L641.933,441.488L641.891,441.424L641.849,441.358L641.808,441.291L641.768,441.223L641.727,441.154L641.687,441.084L641.648,441.012L641.608,440.94L641.569,440.866L641.531,440.791L641.493,440.715L641.455,440.638L641.417,440.56L641.38,440.481L641.344,440.401L641.308,440.32L641.272,440.237L641.236,440.154L641.201,440.07L641.167,439.984L641.133,439.898L641.099,439.811L641.066,439.722L641.033,439.633L641,439.543L640.968,439.452L640.937,439.359L640.906,439.266L640.875,439.172L640.845,439.077L640.815,438.982L640.786,438.885L640.757,438.787L640.728,438.689L640.701,438.589L640.673,438.489L640.646,438.388L640.62,438.286L640.594,438.184L640.568,438.08L640.544,437.976L640.519,437.871L640.495,437.765L640.472,437.658L640.449,437.551L640.426,437.443L640.405,437.334L640.383,437.224L640.362,437.114L640.342,437.003L640.322,436.891L640.303,436.778L640.285,436.665L640.266,436.551L640.249,436.437L640.232,436.322L640.216,436.206L640.2,436.089L640.184,435.972L640.17,435.855L640.156,435.736L640.142,435.617L640.129,435.498L640.117,435.378L640.105,435.257L640.094,435.136L640.083,435.014L640.073,434.892L640.064,434.769L640.055,434.646L640.047,434.522L640.04,434.398L640.033,434.273L640.027,434.148L640.021,434.022L640.016,433.896L640.012,433.769L640.008,433.642L640.005,433.514L640.003,433.386L640.001,433.258L640,433.129L640,433L640,353L640,352.871L640.001,352.742L640.003,352.614L640.005,352.486L640.008,352.358L640.012,352.231L640.016,352.104L640.021,351.978L640.027,351.852L640.033,351.727L640.04,351.602L640.047,351.478L640.055,351.354L640.064,351.231L640.073,351.108L640.083,350.986L640.094,350.864L640.105,350.743L640.117,350.622L640.129,350.502L640.142,350.383L640.156,350.264L640.17,350.145L640.184,350.028L640.2,349.911L640.216,349.794L640.232,349.678L640.249,349.563L640.266,349.449L640.285,349.335L640.303,349.222L640.322,349.109L640.342,348.997L640.362,348.886L640.383,348.776L640.405,348.666L640.426,348.557L640.449,348.449L640.472,348.342L640.495,348.235L640.519,348.129L640.544,348.024L640.568,347.92L640.594,347.816L640.62,347.714L640.646,347.612L640.673,347.511L640.701,347.411L640.728,347.311L640.757,347.213L640.786,347.115L640.815,347.018L640.845,346.923L640.875,346.828L640.906,346.734L640.937,346.641L640.968,346.548L641,346.457L641.033,346.367L641.066,346.278L641.099,346.189L641.133,346.102L641.167,346.016L641.201,345.93L641.236,345.846L641.272,345.763L641.308,345.68L641.344,345.599L641.38,345.519L641.417,345.44L641.455,345.362L641.493,345.285L641.531,345.209L641.569,345.134L641.608,345.06L641.648,344.988L641.687,344.916L641.727,344.846L641.768,344.777L641.808,344.709L641.849,344.642L641.891,344.576L641.933,344.512L641.975,344.449L642.017,344.387L642.06,344.326L642.103,344.266L642.146,344.208L642.19,344.151L642.234,344.095L642.278,344.04L642.323,343.987L642.368,343.935L642.413,343.884L642.459,343.834L642.505,343.786L642.551,343.74L642.597,343.694L642.644,343.65L642.691,343.607L642.738,343.566L642.786,343.526L642.833,343.487L642.881,343.45L642.93,343.414L642.978,343.38L643.027,343.347L643.076,343.315L643.125,343.285L643.175,343.256L643.224,343.229L643.274,343.203L643.324,343.179L643.375,343.156L643.425,343.135L643.476,343.115L643.527,343.097L643.578,343.08L643.629,343.065L643.681,343.052L643.733,343.04L643.785,343.029L643.837,343.02L643.889,343.013L643.942,343.007L643.994,343.003L644.047,343.001L644.1,343L717.9,343L717.953,343.001ZM644.105,347L644.068,347.001L644.036,347.002L644.004,347.005L643.972,347.008L643.941,347.012L643.909,347.018L643.878,347.024L643.847,347.031L643.816,347.039L643.785,347.048L643.754,347.058L643.724,347.069L643.694,347.081L643.663,347.094L643.633,347.108L643.603,347.122L643.573,347.137L643.544,347.154L643.514,347.171L643.485,347.189L643.456,347.208L643.427,347.227L643.398,347.248L643.369,347.269L643.34,347.291L643.312,347.314L643.283,347.338L643.255,347.363L643.227,347.389L643.199,347.415L643.172,347.442L643.144,347.47L643.117,347.499L643.089,347.528L643.062,347.559L643.035,347.59L643.009,347.622L642.982,347.654L642.956,347.688L642.93,347.722L642.904,347.757L642.878,347.793L642.852,347.829L642.827,347.867L642.801,347.905L642.776,347.943L642.751,347.983L642.727,348.023L642.702,348.064L642.678,348.105L642.654,348.148L642.63,348.191L642.606,348.234L642.583,348.279L642.56,348.324L642.537,348.37L642.514,348.416L642.491,348.463L642.469,348.511L642.447,348.559L642.425,348.608L642.404,348.658L642.382,348.708L642.361,348.759L642.34,348.81L642.32,348.862L642.299,348.915L642.279,348.968L642.259,349.022L642.24,349.076L642.221,349.131L642.202,349.187L642.183,349.243L642.164,349.3L642.146,349.357L642.128,349.414L642.111,349.473L642.093,349.531L642.076,349.591L642.059,349.65L642.043,349.711L642.027,349.771L642.011,349.832L641.995,349.894L641.98,349.956L641.965,350.019L641.95,350.082L641.936,350.145L641.922,350.209L641.908,350.273L641.895,350.338L641.882,350.403L641.869,350.469L641.857,350.535L641.845,350.601L641.833,350.668L641.821,350.735L641.81,350.803L641.799,350.871L641.789,350.939L641.779,351.008L641.769,351.077L641.759,351.147L641.75,351.217L641.742,351.287L641.733,351.357L641.725,351.428L641.717,351.5L641.71,351.571L641.703,351.643L641.696,351.716L641.69,351.788L641.684,351.862L641.679,351.935L641.673,352.009L641.668,352.083L641.664,352.157L641.66,352.232L641.656,352.307L641.653,352.383L641.65,352.459L641.647,352.535L641.645,352.612L641.643,352.688L641.642,352.766L641.641,352.844L641.64,352.922L641.64,353.013L641.64,432.987L641.64,433.078L641.641,433.156L641.642,433.234L641.643,433.312L641.645,433.388L641.647,433.465L641.65,433.541L641.653,433.617L641.656,433.693L641.66,433.768L641.664,433.843L641.668,433.917L641.673,433.991L641.679,434.065L641.684,434.138L641.69,434.212L641.696,434.284L641.703,434.357L641.71,434.429L641.717,434.5L641.725,434.572L641.733,434.643L641.742,434.713L641.75,434.783L641.759,434.853L641.769,434.923L641.779,434.992L641.789,435.061L641.799,435.129L641.81,435.197L641.821,435.264L641.833,435.332L641.845,435.399L641.857,435.465L641.869,435.531L641.882,435.597L641.895,435.662L641.908,435.727L641.922,435.791L641.936,435.855L641.95,435.918L641.965,435.981L641.98,436.044L641.995,436.106L642.011,436.168L642.027,436.229L642.043,436.289L642.059,436.35L642.076,436.409L642.093,436.469L642.111,436.527L642.128,436.586L642.146,436.643L642.164,436.7L642.183,436.757L642.202,436.813L642.221,436.869L642.24,436.924L642.259,436.978L642.279,437.032L642.299,437.085L642.32,437.138L642.34,437.19L642.361,437.241L642.382,437.292L642.404,437.342L642.425,437.392L642.447,437.441L642.469,437.489L642.491,437.537L642.514,437.584L642.537,437.63L642.56,437.676L642.583,437.721L642.606,437.766L642.63,437.809L642.654,437.852L642.678,437.895L642.702,437.936L642.727,437.977L642.751,438.017L642.776,438.057L642.801,438.095L642.827,438.133L642.852,438.171L642.878,438.207L642.903,438.243L642.93,438.278L642.956,438.312L642.982,438.346L643.009,438.378L643.035,438.41L643.062,438.441L643.089,438.472L643.117,438.501L643.144,438.53L643.172,438.558L643.199,438.585L643.227,438.611L643.255,438.637L643.283,438.662L643.312,438.686L643.34,438.709L643.369,438.731L643.398,438.752L643.427,438.773L643.456,438.792L643.485,438.811L643.514,438.829L643.544,438.846L643.573,438.863L643.603,438.878L643.633,438.892L643.663,438.906L643.694,438.919L643.724,438.931L643.754,438.942L643.785,438.952L643.816,438.961L643.847,438.969L643.878,438.976L643.909,438.982L643.941,438.988L643.972,438.992L644.004,438.995L644.036,438.998L644.068,438.999L644.105,439L717.895,439L717.932,438.999L717.964,438.998L717.996,438.995L718.028,438.992L718.059,438.988L718.091,438.982L718.122,438.976L718.153,438.969L718.184,438.961L718.215,438.952L718.246,438.942L718.276,438.931L718.306,438.919L718.337,438.906L718.367,438.892L718.397,438.878L718.427,438.863L718.456,438.846L718.486,438.829L718.515,438.811L718.544,438.792L718.573,438.773L718.602,438.752L718.631,438.731L718.66,438.709L718.688,438.685L718.717,438.662L718.745,438.637L718.773,438.611L718.801,438.585L718.829,438.558L718.856,438.53L718.883,438.501L718.911,438.472L718.938,438.441L718.965,438.41L718.991,438.378L719.018,438.346L719.044,438.312L719.07,438.278L719.096,438.243L719.122,438.207L719.148,438.171L719.173,438.133L719.199,438.095L719.224,438.057L719.249,438.017L719.273,437.977L719.298,437.936L719.322,437.895L719.346,437.852L719.37,437.809L719.394,437.765L719.417,437.721L719.44,437.676L719.463,437.63L719.486,437.584L719.509,437.537L719.531,437.489L719.553,437.441L719.575,437.392L719.596,437.342L719.618,437.292L719.639,437.241L719.66,437.19L719.68,437.138L719.701,437.085L719.721,437.032L719.741,436.978L719.76,436.924L719.779,436.869L719.798,436.813L719.817,436.757L719.836,436.7L719.854,436.643L719.872,436.586L719.889,436.527L719.907,436.469L719.924,436.409L719.941,436.35L719.957,436.29L719.973,436.229L719.989,436.168L720.005,436.106L720.02,436.044L720.035,435.981L720.05,435.918L720.064,435.855L720.078,435.791L720.092,435.726L720.105,435.662L720.118,435.596L720.131,435.531L720.143,435.465L720.155,435.398L720.167,435.332L720.179,435.265L720.19,435.197L720.201,435.129L720.211,435.061L720.221,434.992L720.231,434.923L720.241,434.853L720.25,434.783L720.258,434.713L720.267,434.642L720.275,434.572L720.283,434.5L720.29,434.428L720.297,434.357L720.304,434.284L720.31,434.212L720.316,434.138L720.321,434.065L720.327,433.991L720.332,433.917L720.336,433.843L720.34,433.768L720.344,433.692L720.347,433.617L720.35,433.541L720.353,433.465L720.355,433.389L720.357,433.311L720.358,433.234L720.359,433.156L720.36,433.079L720.36,432.987L720.36,353.013L720.36,352.921L720.359,352.844L720.358,352.766L720.357,352.689L720.355,352.611L720.353,352.535L720.35,352.459L720.347,352.383L720.344,352.308L720.34,352.232L720.336,352.157L720.332,352.083L720.327,352.009L720.321,351.935L720.316,351.862L720.31,351.788L720.304,351.716L720.297,351.643L720.29,351.572L720.283,351.5L720.275,351.428L720.267,351.358L720.258,351.287L720.25,351.217L720.241,351.147L720.231,351.077L720.221,351.008L720.211,350.939L720.201,350.871L720.19,350.803L720.179,350.735L720.167,350.668L720.155,350.602L720.143,350.535L720.131,350.469L720.118,350.404L720.105,350.338L720.092,350.274L720.078,350.209L720.064,350.145L720.05,350.082L720.035,350.019L720.02,349.956L720.005,349.894L719.989,349.832L719.973,349.771L719.957,349.71L719.941,349.65L719.924,349.591L719.907,349.531L719.889,349.473L719.872,349.414L719.854,349.357L719.836,349.3L719.817,349.243L719.798,349.187L719.779,349.131L719.76,349.076L719.741,349.022L719.721,348.968L719.701,348.915L719.68,348.862L719.66,348.81L719.639,348.759L719.618,348.708L719.596,348.658L719.575,348.608L719.553,348.559L719.531,348.511L719.509,348.463L719.486,348.416L719.463,348.37L719.44,348.324L719.417,348.279L719.394,348.235L719.37,348.191L719.346,348.148L719.322,348.105L719.298,348.064L719.273,348.023L719.249,347.983L719.224,347.943L719.199,347.905L719.173,347.867L719.148,347.83L719.122,347.793L719.096,347.757L719.07,347.722L719.044,347.688L719.018,347.654L718.991,347.622L718.965,347.59L718.938,347.559L718.911,347.528L718.883,347.499L718.856,347.47L718.828,347.442L718.801,347.415L718.773,347.389L718.745,347.363L718.717,347.338L718.688,347.314L718.66,347.291L718.631,347.269L718.602,347.248L718.573,347.227L718.544,347.208L718.515,347.189L718.486,347.171L718.456,347.154L718.427,347.137L718.397,347.122L718.367,347.108L718.337,347.094L718.306,347.081L718.276,347.069L718.246,347.058L718.215,347.048L718.184,347.039L718.153,347.031L718.122,347.024L718.091,347.018L718.059,347.012L718.028,347.008L717.996,347.005L717.964,347.002L717.932,347.001L717.895,347L644.105,347Z" style="fill:rgb(46,58,65);"/>
        </g>
        <g transform="matrix(1,0,0,1,-24.2155,35.3579)">
            <text x="289.588px" y="284.114px" style="font-family:'SourceSansPro-Bold', 'Source Sans Pro', sans-serif;font-weight:700;font-size:72px;fill:rgb(46,58,65);">A</text>
        </g>
    </g>
</svg>
