<?xml version="1.0" encoding="UTF-8" standalone="no"?>
<!DOCTYPE svg PUBLIC "-//W3C//DTD SVG 1.1//EN" "http://www.w3.org/Graphics/SVG/1.1/DTD/svg11.dtd">
<svg width="100%" height="100%" viewBox="0 0 510 250" version="1.1" xmlns="http://www.w3.org/2000/svg" xmlns:xlink="http://www.w3.org/1999/xlink" xml:space="preserve" xmlns:serif="http://www.serif.com/" style="fill-rule:evenodd;clip-rule:evenodd;stroke-linejoin:round;stroke-miterlimit:1.5;">
    <g id="cell-bg" transform="matrix(5.4878,0,0,2.5,-3512.2,-857.5)">
        <path d="M722,347C722,344.792 721.183,343 720.178,343L641.822,343C640.817,343 640,344.792 640,347L640,439C640,441.208 640.817,443 641.822,443L720.178,443C721.183,443 722,441.208 722,439L722,347Z" style="fill:rgb(106,208,255);"/>
        <path d="M720.201,343L720.225,343.001L720.248,343.003L720.271,343.005L720.295,343.008L720.318,343.012L720.341,343.016L720.364,343.021L720.387,343.026L720.41,343.032L720.432,343.039L720.455,343.046L720.478,343.054L720.5,343.063L720.523,343.072L720.545,343.081L720.567,343.092L720.589,343.103L720.611,343.114L720.633,343.126L720.655,343.139L720.676,343.152L720.698,343.166L720.719,343.18L720.741,343.195L720.762,343.21L720.783,343.226L720.804,343.243L720.825,343.26L720.846,343.278L720.866,343.296L720.887,343.315L720.907,343.334L720.927,343.354L720.948,343.374L720.967,343.395L720.987,343.416L721.007,343.438L721.027,343.46L721.046,343.483L721.065,343.506L721.085,343.53L721.104,343.555L721.122,343.579L721.141,343.605L721.16,343.631L721.178,343.657L721.196,343.684L721.214,343.711L721.232,343.738L721.25,343.767L721.268,343.795L721.285,343.824L721.303,343.854L721.32,343.884L721.337,343.914L721.353,343.945L721.37,343.976L721.386,344.008L721.403,344.04L721.419,344.072L721.435,344.105L721.45,344.138L721.466,344.172L721.481,344.206L721.497,344.241L721.512,344.276L721.526,344.311L721.541,344.347L721.555,344.383L721.57,344.419L721.584,344.456L721.598,344.493L721.611,344.531L721.625,344.569L721.638,344.607L721.651,344.646L721.664,344.685L721.676,344.724L721.689,344.764L721.701,344.804L721.713,344.845L721.725,344.885L721.736,344.927L721.747,344.968L721.758,345.01L721.769,345.052L721.78,345.094L721.79,345.137L721.801,345.18L721.81,345.223L721.82,345.266L721.83,345.31L721.839,345.354L721.848,345.399L721.857,345.444L721.865,345.489L721.874,345.534L721.882,345.579L721.889,345.625L721.897,345.671L721.904,345.718L721.911,345.764L721.918,345.811L721.925,345.858L721.931,345.905L721.937,345.953L721.943,346.001L721.948,346.049L721.953,346.097L721.958,346.146L721.963,346.194L721.967,346.243L721.972,346.292L721.975,346.342L721.979,346.391L721.982,346.441L721.985,346.491L721.988,346.541L721.991,346.591L721.993,346.642L721.995,346.692L721.996,346.743L721.998,346.794L721.999,346.845L721.999,346.897L722,346.948L722,347L722,439L722,439.052L721.999,439.103L721.999,439.155L721.998,439.206L721.996,439.257L721.995,439.308L721.993,439.358L721.991,439.409L721.988,439.459L721.985,439.509L721.982,439.559L721.979,439.609L721.975,439.658L721.972,439.708L721.967,439.757L721.963,439.806L721.958,439.854L721.953,439.903L721.948,439.951L721.943,439.999L721.937,440.047L721.931,440.095L721.925,440.142L721.918,440.189L721.911,440.236L721.904,440.282L721.897,440.329L721.889,440.375L721.882,440.421L721.874,440.466L721.865,440.511L721.857,440.556L721.848,440.601L721.839,440.646L721.83,440.69L721.82,440.734L721.81,440.777L721.801,440.82L721.79,440.863L721.78,440.906L721.769,440.948L721.758,440.99L721.747,441.032L721.736,441.073L721.725,441.115L721.713,441.155L721.701,441.196L721.689,441.236L721.676,441.276L721.664,441.315L721.651,441.354L721.638,441.393L721.625,441.431L721.611,441.469L721.598,441.507L721.584,441.544L721.57,441.581L721.555,441.617L721.541,441.653L721.526,441.689L721.512,441.724L721.497,441.759L721.481,441.794L721.466,441.828L721.45,441.862L721.435,441.895L721.419,441.928L721.403,441.96L721.386,441.992L721.37,442.024L721.353,442.055L721.337,442.086L721.32,442.116L721.303,442.146L721.285,442.176L721.268,442.205L721.25,442.233L721.232,442.262L721.214,442.289L721.196,442.316L721.178,442.343L721.16,442.369L721.141,442.395L721.122,442.421L721.104,442.445L721.085,442.47L721.065,442.494L721.046,442.517L721.027,442.54L721.007,442.562L720.987,442.584L720.967,442.605L720.948,442.626L720.927,442.646L720.907,442.666L720.887,442.685L720.866,442.704L720.846,442.722L720.825,442.74L720.804,442.757L720.783,442.774L720.762,442.79L720.741,442.805L720.719,442.82L720.698,442.834L720.676,442.848L720.655,442.861L720.633,442.874L720.611,442.886L720.589,442.897L720.567,442.908L720.545,442.919L720.523,442.928L720.5,442.937L720.478,442.946L720.455,442.954L720.432,442.961L720.41,442.968L720.387,442.974L720.364,442.979L720.341,442.984L720.318,442.988L720.295,442.992L720.271,442.995L720.248,442.997L720.225,442.999L720.201,443L720.178,443L641.822,443L641.799,443L641.775,442.999L641.752,442.997L641.729,442.995L641.705,442.992L641.682,442.988L641.659,442.984L641.636,442.979L641.613,442.974L641.59,442.968L641.568,442.961L641.545,442.954L641.522,442.946L641.5,442.937L641.477,442.928L641.455,442.919L641.433,442.908L641.411,442.897L641.389,442.886L641.367,442.874L641.345,442.861L641.324,442.848L641.302,442.834L641.281,442.82L641.259,442.805L641.238,442.79L641.217,442.774L641.196,442.757L641.175,442.74L641.154,442.722L641.134,442.704L641.113,442.685L641.093,442.666L641.073,442.646L641.052,442.626L641.033,442.605L641.013,442.584L640.993,442.562L640.973,442.54L640.954,442.517L640.935,442.494L640.915,442.47L640.896,442.445L640.878,442.421L640.859,442.395L640.84,442.369L640.822,442.343L640.804,442.316L640.786,442.289L640.768,442.262L640.75,442.233L640.732,442.205L640.715,442.176L640.697,442.146L640.68,442.116L640.663,442.086L640.647,442.055L640.63,442.024L640.614,441.992L640.597,441.96L640.581,441.928L640.565,441.895L640.55,441.862L640.534,441.828L640.519,441.794L640.503,441.759L640.488,441.724L640.474,441.689L640.459,441.653L640.445,441.617L640.43,441.581L640.416,441.544L640.402,441.507L640.389,441.469L640.375,441.431L640.362,441.393L640.349,441.354L640.336,441.315L640.324,441.276L640.311,441.236L640.299,441.196L640.287,441.155L640.275,441.115L640.264,441.073L640.253,441.032L640.242,440.99L640.231,440.948L640.22,440.906L640.21,440.863L640.199,440.82L640.19,440.777L640.18,440.734L640.17,440.69L640.161,440.646L640.152,440.601L640.143,440.556L640.135,440.511L640.126,440.466L640.118,440.421L640.111,440.375L640.103,440.329L640.096,440.282L640.089,440.236L640.082,440.189L640.075,440.142L640.069,440.095L640.063,440.047L640.057,439.999L640.052,439.951L640.047,439.903L640.042,439.854L640.037,439.806L640.033,439.757L640.028,439.708L640.025,439.658L640.021,439.609L640.018,439.559L640.015,439.509L640.012,439.459L640.009,439.409L640.007,439.358L640.005,439.308L640.004,439.257L640.002,439.206L640.001,439.155L640.001,439.103L640,439.052L640,439L640,347L640,346.948L640.001,346.897L640.001,346.845L640.002,346.794L640.004,346.743L640.005,346.692L640.007,346.642L640.009,346.591L640.012,346.541L640.015,346.491L640.018,346.441L640.021,346.391L640.025,346.342L640.028,346.292L640.033,346.243L640.037,346.194L640.042,346.146L640.047,346.097L640.052,346.049L640.057,346.001L640.063,345.953L640.069,345.905L640.075,345.858L640.082,345.811L640.089,345.764L640.096,345.718L640.103,345.671L640.111,345.625L640.118,345.579L640.126,345.534L640.135,345.489L640.143,345.444L640.152,345.399L640.161,345.354L640.17,345.31L640.18,345.266L640.19,345.223L640.199,345.18L640.21,345.137L640.22,345.094L640.231,345.052L640.242,345.01L640.253,344.968L640.264,344.927L640.275,344.885L640.287,344.845L640.299,344.804L640.311,344.764L640.324,344.724L640.336,344.685L640.349,344.646L640.362,344.607L640.375,344.569L640.389,344.531L640.402,344.493L640.416,344.456L640.43,344.419L640.445,344.383L640.459,344.347L640.474,344.311L640.488,344.276L640.503,344.241L640.519,344.206L640.534,344.172L640.55,344.138L640.565,344.105L640.581,344.072L640.597,344.04L640.614,344.008L640.63,343.976L640.647,343.945L640.663,343.914L640.68,343.884L640.697,343.854L640.715,343.824L640.732,343.795L640.75,343.767L640.768,343.738L640.786,343.711L640.804,343.684L640.822,343.657L640.84,343.631L640.859,343.605L640.878,343.579L640.896,343.555L640.915,343.53L640.935,343.506L640.954,343.483L640.973,343.46L640.993,343.438L641.013,343.416L641.033,343.395L641.052,343.374L641.073,343.354L641.093,343.334L641.113,343.315L641.134,343.296L641.154,343.278L641.175,343.26L641.196,343.243L641.217,343.226L641.238,343.21L641.259,343.195L641.281,343.18L641.302,343.166L641.324,343.152L641.345,343.139L641.367,343.126L641.389,343.114L641.411,343.103L641.433,343.092L641.455,343.081L641.477,343.072L641.5,343.063L641.522,343.054L641.545,343.046L641.568,343.039L641.59,343.032L641.613,343.026L641.636,343.021L641.659,343.016L641.682,343.012L641.705,343.008L641.729,343.005L641.752,343.003L641.775,343.001L641.799,343L641.822,343L720.178,343L720.201,343ZM641.825,344.6L641.808,344.6L641.794,344.601L641.78,344.602L641.765,344.603L641.751,344.605L641.737,344.607L641.724,344.61L641.71,344.612L641.696,344.616L641.682,344.619L641.669,344.623L641.655,344.628L641.642,344.632L641.628,344.638L641.615,344.643L641.601,344.649L641.588,344.655L641.575,344.661L641.562,344.668L641.549,344.675L641.536,344.683L641.523,344.691L641.51,344.699L641.497,344.708L641.485,344.717L641.472,344.726L641.459,344.735L641.447,344.745L641.434,344.755L641.422,344.766L641.41,344.777L641.397,344.788L641.385,344.8L641.373,344.811L641.361,344.823L641.349,344.836L641.337,344.849L641.325,344.862L641.314,344.875L641.302,344.889L641.29,344.903L641.279,344.917L641.268,344.932L641.256,344.947L641.245,344.962L641.234,344.977L641.223,344.993L641.212,345.009L641.201,345.026L641.19,345.042L641.179,345.059L641.169,345.076L641.158,345.094L641.148,345.112L641.138,345.13L641.127,345.148L641.117,345.166L641.107,345.185L641.097,345.204L641.088,345.224L641.078,345.243L641.068,345.263L641.059,345.283L641.049,345.304L641.04,345.324L641.031,345.345L641.022,345.366L641.013,345.387L641.004,345.409L640.995,345.431L640.987,345.453L640.978,345.475L640.97,345.497L640.962,345.52L640.954,345.543L640.946,345.566L640.938,345.589L640.93,345.613L640.923,345.636L640.915,345.66L640.908,345.684L640.901,345.708L640.894,345.733L640.887,345.758L640.88,345.782L640.873,345.808L640.867,345.833L640.86,345.858L640.854,345.884L640.848,345.909L640.842,345.935L640.836,345.961L640.831,345.988L640.825,346.014L640.82,346.041L640.815,346.067L640.809,346.094L640.805,346.121L640.8,346.148L640.795,346.176L640.791,346.203L640.786,346.231L640.782,346.259L640.778,346.287L640.774,346.315L640.77,346.343L640.767,346.371L640.763,346.4L640.76,346.429L640.757,346.457L640.754,346.486L640.751,346.515L640.748,346.545L640.746,346.574L640.744,346.603L640.742,346.633L640.74,346.663L640.738,346.693L640.736,346.723L640.735,346.753L640.733,346.783L640.732,346.814L640.731,346.845L640.73,346.875L640.73,346.906L640.729,346.937L640.729,346.969L640.729,347.005L640.729,438.995L640.729,439.031L640.729,439.063L640.73,439.094L640.73,439.125L640.731,439.155L640.732,439.186L640.733,439.217L640.735,439.247L640.736,439.277L640.738,439.307L640.74,439.337L640.742,439.367L640.744,439.397L640.746,439.426L640.748,439.455L640.751,439.485L640.754,439.514L640.757,439.543L640.76,439.571L640.763,439.6L640.767,439.629L640.77,439.657L640.774,439.685L640.778,439.713L640.782,439.741L640.786,439.769L640.791,439.797L640.795,439.824L640.8,439.852L640.804,439.879L640.809,439.906L640.815,439.933L640.82,439.959L640.825,439.986L640.831,440.012L640.836,440.039L640.842,440.065L640.848,440.091L640.854,440.116L640.86,440.142L640.867,440.167L640.873,440.193L640.88,440.218L640.887,440.242L640.894,440.267L640.901,440.291L640.908,440.316L640.915,440.34L640.923,440.364L640.93,440.387L640.938,440.411L640.946,440.434L640.954,440.457L640.962,440.48L640.97,440.503L640.978,440.525L640.987,440.547L640.995,440.569L641.004,440.591L641.013,440.613L641.022,440.634L641.031,440.655L641.04,440.676L641.049,440.697L641.059,440.717L641.068,440.737L641.078,440.757L641.088,440.776L641.097,440.796L641.107,440.815L641.117,440.834L641.127,440.852L641.138,440.87L641.148,440.889L641.158,440.906L641.169,440.924L641.18,440.941L641.19,440.958L641.201,440.974L641.212,440.991L641.223,441.007L641.234,441.023L641.245,441.038L641.256,441.053L641.268,441.068L641.279,441.083L641.29,441.097L641.302,441.111L641.314,441.125L641.325,441.138L641.337,441.151L641.349,441.164L641.361,441.177L641.373,441.189L641.385,441.2L641.397,441.212L641.41,441.223L641.422,441.234L641.434,441.245L641.447,441.255L641.459,441.265L641.472,441.274L641.485,441.283L641.497,441.292L641.51,441.301L641.523,441.309L641.536,441.317L641.549,441.325L641.562,441.332L641.575,441.339L641.588,441.345L641.601,441.351L641.615,441.357L641.628,441.362L641.642,441.368L641.655,441.372L641.669,441.377L641.682,441.381L641.696,441.384L641.71,441.388L641.724,441.39L641.737,441.393L641.751,441.395L641.765,441.397L641.78,441.398L641.794,441.399L641.808,441.4L641.825,441.4L720.175,441.4L720.192,441.4L720.206,441.399L720.22,441.398L720.235,441.397L720.249,441.395L720.263,441.393L720.276,441.39L720.29,441.388L720.304,441.384L720.318,441.381L720.331,441.377L720.345,441.372L720.358,441.368L720.372,441.362L720.385,441.357L720.399,441.351L720.412,441.345L720.425,441.339L720.438,441.332L720.451,441.324L720.464,441.317L720.477,441.309L720.49,441.301L720.503,441.292L720.516,441.283L720.528,441.274L720.541,441.265L720.553,441.255L720.566,441.245L720.578,441.234L720.59,441.223L720.603,441.212L720.615,441.2L720.627,441.189L720.639,441.177L720.651,441.164L720.663,441.151L720.675,441.138L720.686,441.125L720.698,441.111L720.71,441.097L720.721,441.083L720.732,441.068L720.744,441.053L720.755,441.038L720.766,441.023L720.777,441.007L720.788,440.991L720.799,440.974L720.81,440.958L720.821,440.941L720.831,440.924L720.842,440.906L720.852,440.889L720.862,440.871L720.873,440.852L720.883,440.833L720.893,440.815L720.903,440.796L720.912,440.776L720.922,440.757L720.932,440.737L720.941,440.717L720.951,440.697L720.96,440.676L720.969,440.655L720.978,440.634L720.987,440.613L720.996,440.591L721.004,440.57L721.013,440.547L721.022,440.525L721.03,440.503L721.038,440.48L721.046,440.457L721.054,440.434L721.062,440.411L721.07,440.387L721.077,440.364L721.085,440.34L721.092,440.316L721.099,440.291L721.106,440.267L721.113,440.242L721.12,440.218L721.127,440.193L721.133,440.167L721.14,440.142L721.146,440.116L721.152,440.091L721.158,440.065L721.164,440.039L721.169,440.013L721.175,439.986L721.18,439.959L721.185,439.932L721.191,439.906L721.195,439.879L721.2,439.852L721.205,439.824L721.209,439.797L721.214,439.769L721.218,439.741L721.222,439.713L721.226,439.685L721.23,439.657L721.233,439.628L721.237,439.6L721.24,439.571L721.243,439.543L721.246,439.514L721.249,439.485L721.252,439.455L721.254,439.426L721.256,439.397L721.258,439.367L721.26,439.337L721.262,439.307L721.264,439.277L721.265,439.247L721.267,439.217L721.268,439.186L721.269,439.155L721.27,439.124L721.27,439.094L721.271,439.063L721.271,439.031L721.271,438.995L721.271,347.005L721.271,346.969L721.271,346.937L721.27,346.906L721.27,346.876L721.269,346.845L721.268,346.814L721.267,346.783L721.265,346.753L721.264,346.723L721.262,346.693L721.26,346.663L721.258,346.633L721.256,346.603L721.254,346.574L721.252,346.545L721.249,346.515L721.246,346.486L721.243,346.457L721.24,346.428L721.237,346.4L721.233,346.372L721.23,346.343L721.226,346.315L721.222,346.287L721.218,346.259L721.214,346.231L721.209,346.203L721.205,346.176L721.2,346.148L721.195,346.121L721.191,346.094L721.185,346.068L721.18,346.041L721.175,346.014L721.169,345.988L721.164,345.961L721.158,345.935L721.152,345.909L721.146,345.884L721.14,345.858L721.133,345.833L721.127,345.807L721.12,345.782L721.113,345.758L721.106,345.733L721.099,345.709L721.092,345.684L721.085,345.66L721.077,345.636L721.07,345.613L721.062,345.589L721.054,345.566L721.046,345.543L721.038,345.52L721.03,345.497L721.022,345.475L721.013,345.453L721.004,345.43L720.996,345.409L720.987,345.387L720.978,345.366L720.969,345.345L720.96,345.324L720.951,345.303L720.941,345.283L720.932,345.263L720.922,345.243L720.912,345.224L720.903,345.204L720.893,345.185L720.883,345.167L720.873,345.148L720.862,345.129L720.852,345.112L720.842,345.094L720.831,345.076L720.821,345.059L720.81,345.042L720.799,345.026L720.788,345.009L720.777,344.993L720.766,344.977L720.755,344.962L720.744,344.947L720.732,344.932L720.721,344.917L720.71,344.903L720.698,344.889L720.686,344.875L720.675,344.862L720.663,344.849L720.651,344.836L720.639,344.823L720.627,344.811L720.615,344.8L720.603,344.788L720.59,344.777L720.578,344.766L720.566,344.755L720.553,344.745L720.541,344.735L720.528,344.726L720.515,344.717L720.503,344.708L720.49,344.699L720.477,344.691L720.464,344.683L720.451,344.676L720.438,344.668L720.425,344.661L720.412,344.655L720.399,344.649L720.385,344.643L720.372,344.638L720.358,344.632L720.345,344.628L720.331,344.623L720.318,344.619L720.304,344.616L720.29,344.612L720.276,344.61L720.263,344.607L720.249,344.605L720.235,344.603L720.22,344.602L720.206,344.601L720.192,344.6L720.175,344.6L641.825,344.6Z" style="fill:rgb(46,58,65);"/>
    </g>
    <g id="input-tanh" transform="matrix(4.29268,0,0,2,-241.637,-424)">
        <g id="module-vector-transfer" transform="matrix(3.85523e-18,-0.135135,0.0503686,6.61971e-18,93.0909,314.716)">
            <path d="M157,319.25L157,300.75L187.584,300.75L181.664,273L231,310L181.664,347L187.584,319.25L157,319.25Z" style="fill:rgb(46,58,65);"/>
            <path d="M181.664,347L187.584,319.25L157,319.25L157,300.75L187.584,300.75L181.664,273L231,310L181.664,347ZM200.845,308.959L200.581,309.599L200.397,310L200.581,310.401L200.845,311.041L202.233,310L200.845,308.959Z" style="fill:rgb(46,58,65);"/>
        </g>
        <g transform="matrix(0.226904,0,0,0.5,43.8863,-154.5)">
            <path d="M285.667,896C285.667,896 285.667,912.042 285.667,923C285.667,928.523 281.07,933 275.4,933C243.75,933 147.916,933 116.267,933C110.597,933 106,937.477 106,943C106,957.592 106,983 106,983" style="fill:none;stroke:rgb(46,58,65);stroke-width:4.05px;"/>
        </g>
    </g>
    <g id="state-tanh" transform="matrix(4.29268,0,0,2,-241.637,-424)">
        <g transform="matrix(0.226904,0,0,-0.5,43.8863,703.5)">
            <path d="M54.667,933L172.733,933C178.403,933 183,928.523 183,923C183,895.727 183,820.273 183,793C183,787.477 187.597,783 193.267,783C212.938,783 255.729,783 275.4,783C281.07,783 285.667,787.477 285.667,793C285.667,803.958 285.667,820 285.667,820" style="fill:none;stroke:rgb(46,58,65);stroke-width:4.05px;"/>
        </g>
        <g id="module-vector-transfer1" serif:id="module-vector-transfer" transform="matrix(3.85523e-18,-0.135135,0.0503686,6.61971e-18,93.0909,314.716)">
            <path d="M157,319.25L157,300.75L187.584,300.75L181.664,273L231,310L181.664,347L187.584,319.25L157,319.25Z" style="fill:rgb(46,58,65);"/>
            <path d="M181.664,347L187.584,319.25L157,319.25L157,300.75L187.584,300.75L181.664,273L231,310L181.664,347ZM200.845,308.959L200.581,309.599L200.397,310L200.581,310.401L200.845,311.041L202.233,310L200.845,308.959Z" style="fill:rgb(46,58,65);"/>
        </g>
    </g>
    <g id="state-output" transform="matrix(4.29268,0,0,2,-241.637,-424)">
        <g transform="matrix(0.188882,-5.46104e-17,1.54815e-17,0.202703,131.465,174.162)">
            <path d="M157,314.933L157,305.067L205.84,305.067L194,273L231,310L194,347L205.84,314.933L157,314.933Z" style="fill:rgb(46,58,65);"/>
            <path d="M231,310L194,347L205.84,314.933L157,314.933L157,305.067L205.84,305.067L194,273L231,310ZM210.207,300.477L210.369,301.154L210.504,301.854L210.613,302.572L210.694,303.305L210.747,304.048L210.771,304.798L210.767,305.548L210.735,306.296L210.674,307.037L210.585,307.766L210.469,308.48L210.326,309.174L210.157,309.844L210.109,310L210.157,310.156L210.326,310.826L210.469,311.52L210.585,312.234L210.674,312.963L210.735,313.704L210.767,314.452L210.771,315.202L210.747,315.952L210.694,316.695L210.613,317.428L210.504,318.146L210.369,318.846L210.207,319.523L210.111,319.858L219.969,310L210.111,300.142L210.207,300.477Z" style="fill:rgb(46,58,65);"/>
        </g>
        <g transform="matrix(0.226904,0,0,-0.5,43.8863,703.5)">
            <path d="M285.667,876C285.667,876 285.667,906.651 285.667,923C285.667,928.523 290.263,933 295.933,933C340.708,933 516.667,933 516.667,933" style="fill:none;stroke:rgb(46,58,65);stroke-width:4.05px;"/>
        </g>
    </g>
    <g transform="matrix(0.974026,0,0,1,-53.2468,-783)">
        <g id="cell-output">
            <path d="M465.333,783C465.333,783 465.333,808.408 465.333,823C465.333,828.523 460.737,833 455.067,833C423.417,833 327.583,833 295.933,833C290.263,833 285.667,837.477 285.667,843C285.667,859.349 285.667,890 285.667,890" style="fill:none;stroke:rgb(46,58,65);stroke-width:4.05px;"/>
        </g>
    </g>
    <g id="tanh" transform="matrix(2.14634,0,0,1.09793,-35.5,-166.5)">
        <g transform="matrix(1.08211,0,0,1.05771,-140.026,-676.391)">
            <path d="M257.06,882.75C257.06,878.473 255.324,875 253.185,875L229.935,875C227.796,875 226.06,878.473 226.06,882.75L226.06,898.25C226.06,902.527 227.796,906 229.935,906L253.185,906C255.324,906 257.06,902.527 257.06,898.25L257.06,882.75Z" style="fill:rgb(252,77,154);"/>
            <path d="M253.235,875.001L253.285,875.003L253.335,875.006L253.384,875.01L253.434,875.016L253.483,875.023L253.532,875.031L253.581,875.04L253.63,875.051L253.678,875.062L253.727,875.075L253.775,875.089L253.823,875.105L253.871,875.121L253.918,875.139L253.966,875.158L254.013,875.178L254.06,875.199L254.106,875.221L254.153,875.244L254.199,875.269L254.245,875.294L254.291,875.321L254.337,875.349L254.382,875.378L254.427,875.407L254.472,875.439L254.517,875.471L254.561,875.504L254.605,875.538L254.649,875.573L254.693,875.609L254.736,875.647L254.779,875.685L254.822,875.724L254.864,875.765L254.907,875.806L254.948,875.848L254.99,875.892L255.031,875.936L255.072,875.981L255.113,876.027L255.154,876.075L255.194,876.123L255.233,876.172L255.273,876.222L255.312,876.273L255.351,876.324L255.389,876.377L255.428,876.431L255.465,876.485L255.503,876.54L255.54,876.597L255.577,876.654L255.613,876.712L255.649,876.771L255.685,876.83L255.72,876.891L255.755,876.952L255.79,877.014L255.824,877.077L255.858,877.141L255.891,877.206L255.925,877.271L255.957,877.337L255.989,877.404L256.021,877.472L256.053,877.54L256.084,877.609L256.115,877.679L256.145,877.75L256.175,877.821L256.204,877.894L256.233,877.966L256.262,878.04L256.29,878.114L256.317,878.189L256.345,878.265L256.371,878.341L256.398,878.418L256.424,878.496L256.449,878.574L256.474,878.653L256.499,878.733L256.523,878.813L256.546,878.894L256.569,878.975L256.592,879.057L256.614,879.14L256.636,879.223L256.657,879.307L256.678,879.391L256.698,879.476L256.717,879.562L256.737,879.648L256.755,879.735L256.773,879.822L256.791,879.909L256.808,879.998L256.825,880.086L256.841,880.176L256.856,880.265L256.871,880.356L256.886,880.446L256.9,880.538L256.913,880.629L256.926,880.722L256.938,880.814L256.95,880.907L256.961,881.001L256.971,881.095L256.981,881.189L256.991,881.284L256.999,881.379L257.008,881.474L257.015,881.57L257.022,881.667L257.029,881.764L257.035,881.861L257.04,881.958L257.045,882.056L257.049,882.154L257.052,882.253L257.055,882.351L257.057,882.451L257.059,882.55L257.06,882.65L257.06,882.75L257.06,898.25L257.06,898.35L257.059,898.45L257.057,898.549L257.055,898.649L257.052,898.747L257.049,898.846L257.045,898.944L257.04,899.042L257.035,899.139L257.029,899.236L257.022,899.333L257.015,899.43L257.008,899.526L256.999,899.621L256.991,899.716L256.981,899.811L256.971,899.905L256.961,899.999L256.95,900.093L256.938,900.186L256.926,900.278L256.913,900.371L256.9,900.462L256.886,900.554L256.871,900.644L256.856,900.735L256.841,900.824L256.825,900.914L256.808,901.002L256.791,901.091L256.773,901.178L256.755,901.265L256.737,901.352L256.717,901.438L256.698,901.524L256.678,901.609L256.657,901.693L256.636,901.777L256.614,901.86L256.592,901.943L256.569,902.025L256.546,902.106L256.523,902.187L256.499,902.267L256.474,902.347L256.449,902.426L256.424,902.504L256.398,902.582L256.371,902.659L256.345,902.735L256.317,902.811L256.29,902.886L256.262,902.96L256.233,903.034L256.204,903.106L256.175,903.179L256.145,903.25L256.115,903.321L256.084,903.391L256.053,903.46L256.021,903.528L255.989,903.596L255.957,903.663L255.925,903.729L255.891,903.794L255.858,903.859L255.824,903.923L255.79,903.986L255.755,904.048L255.72,904.109L255.685,904.17L255.649,904.229L255.613,904.288L255.577,904.346L255.54,904.403L255.503,904.46L255.465,904.515L255.428,904.569L255.389,904.623L255.351,904.676L255.312,904.727L255.273,904.778L255.233,904.828L255.194,904.877L255.154,904.925L255.113,904.973L255.072,905.019L255.031,905.064L254.99,905.108L254.948,905.152L254.907,905.194L254.864,905.235L254.822,905.276L254.779,905.315L254.736,905.353L254.693,905.391L254.649,905.427L254.605,905.462L254.561,905.496L254.517,905.529L254.472,905.561L254.427,905.593L254.382,905.622L254.337,905.651L254.291,905.679L254.245,905.706L254.199,905.731L254.153,905.756L254.106,905.779L254.06,905.801L254.013,905.822L253.966,905.842L253.918,905.861L253.871,905.879L253.823,905.895L253.775,905.911L253.727,905.925L253.678,905.938L253.63,905.949L253.581,905.96L253.532,905.969L253.483,905.977L253.434,905.984L253.384,905.99L253.335,905.994L253.285,905.997L253.235,905.999L253.185,906L229.935,906L229.885,905.999L229.835,905.997L229.785,905.994L229.736,905.99L229.686,905.984L229.637,905.977L229.588,905.969L229.539,905.96L229.49,905.949L229.442,905.938L229.393,905.925L229.345,905.911L229.297,905.895L229.249,905.879L229.202,905.861L229.154,905.842L229.107,905.822L229.06,905.801L229.014,905.779L228.967,905.756L228.921,905.731L228.875,905.706L228.829,905.679L228.783,905.651L228.738,905.622L228.693,905.593L228.648,905.561L228.603,905.529L228.559,905.496L228.515,905.462L228.471,905.427L228.427,905.391L228.384,905.353L228.341,905.315L228.298,905.276L228.256,905.235L228.213,905.194L228.172,905.152L228.13,905.108L228.089,905.064L228.048,905.019L228.007,904.973L227.966,904.925L227.926,904.877L227.887,904.828L227.847,904.778L227.808,904.727L227.769,904.676L227.731,904.623L227.692,904.569L227.655,904.515L227.617,904.46L227.58,904.403L227.543,904.346L227.507,904.288L227.471,904.229L227.435,904.17L227.4,904.109L227.365,904.048L227.33,903.986L227.296,903.923L227.262,903.859L227.229,903.794L227.195,903.729L227.163,903.663L227.131,903.596L227.099,903.528L227.067,903.46L227.036,903.391L227.005,903.321L226.975,903.25L226.945,903.179L226.916,903.106L226.887,903.034L226.858,902.96L226.83,902.886L226.803,902.811L226.775,902.735L226.749,902.659L226.722,902.582L226.696,902.504L226.671,902.426L226.646,902.347L226.621,902.267L226.597,902.187L226.574,902.106L226.551,902.025L226.528,901.943L226.506,901.86L226.484,901.777L226.463,901.693L226.442,901.609L226.422,901.524L226.403,901.438L226.383,901.352L226.365,901.265L226.347,901.178L226.329,901.091L226.312,901.002L226.295,900.914L226.279,900.824L226.264,900.735L226.249,900.644L226.234,900.554L226.22,900.462L226.207,900.371L226.194,900.278L226.182,900.186L226.17,900.093L226.159,899.999L226.149,899.905L226.139,899.811L226.129,899.716L226.121,899.621L226.112,899.526L226.105,899.43L226.098,899.333L226.091,899.236L226.085,899.139L226.08,899.042L226.075,898.944L226.071,898.846L226.068,898.747L226.065,898.649L226.063,898.549L226.061,898.45L226.06,898.35L226.06,898.25L226.06,882.75L226.06,882.65L226.061,882.55L226.063,882.451L226.065,882.351L226.068,882.253L226.071,882.154L226.075,882.056L226.08,881.958L226.085,881.861L226.091,881.764L226.098,881.667L226.105,881.57L226.112,881.474L226.121,881.379L226.129,881.284L226.139,881.189L226.149,881.095L226.159,881.001L226.17,880.907L226.182,880.814L226.194,880.722L226.207,880.629L226.22,880.538L226.234,880.446L226.249,880.356L226.264,880.265L226.279,880.176L226.295,880.086L226.312,879.998L226.329,879.909L226.347,879.822L226.365,879.735L226.383,879.648L226.403,879.562L226.422,879.476L226.442,879.391L226.463,879.307L226.484,879.223L226.506,879.14L226.528,879.057L226.551,878.975L226.574,878.894L226.597,878.813L226.621,878.733L226.646,878.653L226.671,878.574L226.696,878.496L226.722,878.418L226.749,878.341L226.775,878.265L226.803,878.189L226.83,878.114L226.858,878.04L226.887,877.966L226.916,877.894L226.945,877.821L226.975,877.75L227.005,877.679L227.036,877.609L227.067,877.54L227.099,877.472L227.131,877.404L227.163,877.337L227.195,877.271L227.229,877.206L227.262,877.141L227.296,877.077L227.33,877.014L227.365,876.952L227.4,876.891L227.435,876.83L227.471,876.771L227.507,876.712L227.543,876.654L227.58,876.597L227.617,876.54L227.655,876.485L227.692,876.431L227.731,876.377L227.769,876.324L227.808,876.273L227.847,876.222L227.887,876.172L227.926,876.123L227.966,876.075L228.007,876.027L228.048,875.981L228.089,875.936L228.13,875.892L228.172,875.848L228.213,875.806L228.256,875.765L228.298,875.724L228.341,875.685L228.384,875.647L228.427,875.609L228.471,875.573L228.515,875.538L228.559,875.504L228.603,875.471L228.648,875.439L228.693,875.407L228.738,875.378L228.783,875.349L228.829,875.321L228.875,875.294L228.921,875.269L228.967,875.244L229.014,875.221L229.06,875.199L229.107,875.178L229.154,875.158L229.202,875.139L229.249,875.121L229.297,875.105L229.345,875.089L229.393,875.075L229.442,875.062L229.49,875.051L229.539,875.04L229.588,875.031L229.637,875.023L229.686,875.016L229.736,875.01L229.785,875.006L229.835,875.003L229.885,875.001L229.935,875L253.185,875L253.235,875.001ZM229.938,876.722L229.896,876.723L229.857,876.724L229.818,876.727L229.779,876.73L229.741,876.735L229.702,876.74L229.664,876.746L229.626,876.753L229.588,876.762L229.55,876.771L229.513,876.781L229.475,876.792L229.438,876.804L229.401,876.817L229.364,876.83L229.327,876.845L229.291,876.86L229.254,876.877L229.218,876.894L229.182,876.912L229.146,876.931L229.11,876.951L229.075,876.972L229.039,876.993L229.004,877.015L228.969,877.039L228.934,877.063L228.899,877.088L228.865,877.113L228.831,877.14L228.797,877.167L228.763,877.195L228.729,877.224L228.696,877.254L228.663,877.285L228.63,877.316L228.597,877.348L228.564,877.381L228.532,877.415L228.5,877.449L228.468,877.484L228.436,877.52L228.405,877.557L228.374,877.594L228.343,877.633L228.312,877.671L228.281,877.711L228.251,877.751L228.221,877.792L228.192,877.834L228.162,877.876L228.133,877.92L228.104,877.963L228.075,878.008L228.047,878.053L228.019,878.099L227.991,878.145L227.964,878.193L227.936,878.24L227.909,878.289L227.883,878.338L227.856,878.388L227.83,878.438L227.804,878.489L227.779,878.54L227.754,878.593L227.729,878.645L227.704,878.699L227.68,878.753L227.656,878.807L227.633,878.862L227.609,878.918L227.587,878.974L227.564,879.031L227.542,879.088L227.52,879.146L227.498,879.204L227.477,879.263L227.456,879.323L227.436,879.382L227.415,879.443L227.396,879.504L227.376,879.565L227.357,879.627L227.338,879.69L227.32,879.752L227.302,879.816L227.285,879.88L227.267,879.944L227.251,880.009L227.234,880.074L227.218,880.139L227.202,880.205L227.187,880.272L227.172,880.339L227.158,880.406L227.144,880.474L227.13,880.542L227.117,880.61L227.104,880.679L227.091,880.748L227.079,880.818L227.068,880.888L227.057,880.958L227.046,881.029L227.035,881.1L227.026,881.172L227.016,881.244L227.007,881.316L226.998,881.388L226.99,881.461L226.982,881.535L226.975,881.608L226.968,881.682L226.962,881.756L226.956,881.831L226.95,881.906L226.945,881.981L226.941,882.056L226.937,882.132L226.933,882.208L226.93,882.285L226.927,882.362L226.925,882.439L226.923,882.516L226.922,882.594L226.921,882.672L226.921,882.755L226.921,898.245L226.921,898.328L226.922,898.406L226.923,898.484L226.925,898.561L226.927,898.638L226.93,898.715L226.933,898.792L226.937,898.868L226.941,898.944L226.945,899.019L226.95,899.094L226.956,899.169L226.962,899.244L226.968,899.318L226.975,899.392L226.982,899.465L226.99,899.539L226.998,899.612L227.007,899.684L227.016,899.756L227.026,899.828L227.035,899.9L227.046,899.971L227.057,900.042L227.068,900.112L227.079,900.182L227.091,900.252L227.104,900.321L227.117,900.39L227.13,900.458L227.144,900.526L227.158,900.594L227.172,900.661L227.187,900.728L227.202,900.795L227.218,900.861L227.234,900.926L227.251,900.991L227.267,901.056L227.285,901.12L227.302,901.184L227.32,901.248L227.338,901.31L227.357,901.373L227.376,901.435L227.396,901.496L227.415,901.557L227.436,901.618L227.456,901.677L227.477,901.737L227.498,901.796L227.52,901.854L227.542,901.912L227.564,901.969L227.587,902.026L227.609,902.082L227.633,902.138L227.656,902.193L227.68,902.247L227.704,902.301L227.729,902.355L227.754,902.407L227.779,902.46L227.804,902.511L227.83,902.562L227.856,902.612L227.883,902.662L227.909,902.711L227.936,902.76L227.964,902.808L227.991,902.855L228.019,902.901L228.047,902.947L228.075,902.992L228.104,903.037L228.133,903.08L228.162,903.124L228.192,903.166L228.221,903.208L228.251,903.249L228.281,903.289L228.312,903.329L228.343,903.367L228.374,903.406L228.405,903.443L228.436,903.48L228.468,903.516L228.5,903.551L228.532,903.585L228.564,903.619L228.597,903.652L228.63,903.684L228.663,903.715L228.696,903.746L228.729,903.776L228.763,903.805L228.797,903.833L228.831,903.86L228.865,903.887L228.9,903.912L228.934,903.937L228.969,903.961L229.004,903.984L229.039,904.007L229.075,904.028L229.11,904.049L229.146,904.069L229.182,904.088L229.218,904.106L229.254,904.123L229.291,904.14L229.327,904.155L229.364,904.17L229.401,904.183L229.438,904.196L229.475,904.208L229.513,904.219L229.55,904.229L229.588,904.238L229.626,904.247L229.664,904.254L229.702,904.26L229.741,904.265L229.779,904.27L229.818,904.273L229.857,904.276L229.896,904.277L229.938,904.278L253.182,904.278L253.224,904.277L253.263,904.276L253.302,904.273L253.341,904.27L253.379,904.265L253.418,904.26L253.456,904.254L253.494,904.247L253.532,904.238L253.57,904.229L253.607,904.219L253.645,904.208L253.682,904.196L253.719,904.184L253.756,904.17L253.793,904.155L253.829,904.14L253.866,904.123L253.902,904.106L253.938,904.088L253.974,904.069L254.01,904.049L254.045,904.028L254.081,904.007L254.116,903.984L254.151,903.961L254.186,903.937L254.22,903.912L254.255,903.887L254.289,903.86L254.323,903.833L254.357,903.805L254.391,903.776L254.424,903.746L254.457,903.715L254.49,903.684L254.523,903.652L254.556,903.619L254.588,903.585L254.62,903.551L254.652,903.516L254.684,903.48L254.715,903.443L254.746,903.406L254.777,903.368L254.808,903.329L254.839,903.289L254.869,903.249L254.899,903.208L254.928,903.166L254.958,903.124L254.987,903.081L255.016,903.037L255.045,902.992L255.073,902.947L255.101,902.901L255.129,902.855L255.156,902.808L255.184,902.76L255.211,902.711L255.237,902.662L255.264,902.612L255.29,902.562L255.316,902.511L255.341,902.46L255.366,902.408L255.391,902.355L255.416,902.301L255.44,902.247L255.464,902.193L255.487,902.138L255.511,902.082L255.533,902.026L255.556,901.969L255.578,901.912L255.6,901.854L255.622,901.796L255.643,901.737L255.664,901.677L255.684,901.618L255.704,901.557L255.724,901.496L255.744,901.435L255.763,901.373L255.782,901.31L255.8,901.247L255.818,901.184L255.835,901.12L255.853,901.056L255.869,900.991L255.886,900.926L255.902,900.861L255.918,900.795L255.933,900.728L255.948,900.661L255.962,900.594L255.976,900.526L255.99,900.458L256.003,900.39L256.016,900.321L256.029,900.252L256.041,900.182L256.052,900.112L256.063,900.042L256.074,899.971L256.085,899.9L256.094,899.828L256.104,899.756L256.113,899.684L256.122,899.612L256.13,899.539L256.138,899.465L256.145,899.392L256.152,899.318L256.158,899.244L256.164,899.169L256.17,899.094L256.175,899.019L256.179,898.943L256.183,898.868L256.187,898.792L256.19,898.715L256.193,898.638L256.195,898.561L256.197,898.484L256.198,898.406L256.199,898.328L256.199,898.245L256.199,882.755L256.199,882.672L256.198,882.594L256.197,882.516L256.195,882.439L256.193,882.362L256.19,882.285L256.187,882.208L256.183,882.132L256.179,882.057L256.175,881.981L256.17,881.906L256.164,881.831L256.158,881.756L256.152,881.682L256.145,881.608L256.138,881.535L256.13,881.461L256.122,881.388L256.113,881.316L256.104,881.244L256.094,881.172L256.085,881.1L256.074,881.029L256.063,880.958L256.052,880.888L256.041,880.818L256.029,880.748L256.016,880.679L256.003,880.61L255.99,880.542L255.976,880.474L255.962,880.406L255.948,880.339L255.933,880.272L255.918,880.205L255.902,880.139L255.886,880.074L255.869,880.009L255.853,879.944L255.835,879.88L255.818,879.816L255.8,879.753L255.782,879.69L255.763,879.627L255.744,879.565L255.724,879.504L255.704,879.443L255.684,879.382L255.664,879.323L255.643,879.263L255.622,879.204L255.6,879.146L255.578,879.088L255.556,879.031L255.533,878.974L255.511,878.918L255.487,878.862L255.464,878.807L255.44,878.753L255.416,878.699L255.391,878.645L255.366,878.592L255.341,878.54L255.316,878.489L255.29,878.438L255.264,878.388L255.237,878.338L255.211,878.289L255.184,878.24L255.156,878.193L255.129,878.145L255.101,878.099L255.073,878.053L255.045,878.008L255.016,877.963L254.987,877.92L254.958,877.876L254.928,877.834L254.899,877.792L254.869,877.751L254.839,877.711L254.808,877.671L254.777,877.632L254.746,877.594L254.715,877.557L254.684,877.52L254.652,877.484L254.62,877.449L254.588,877.415L254.556,877.381L254.523,877.348L254.49,877.316L254.457,877.285L254.424,877.254L254.391,877.224L254.357,877.195L254.323,877.167L254.289,877.14L254.255,877.113L254.22,877.088L254.186,877.063L254.151,877.039L254.116,877.016L254.081,876.993L254.045,876.972L254.01,876.951L253.974,876.931L253.938,876.912L253.902,876.894L253.866,876.877L253.829,876.86L253.793,876.845L253.756,876.83L253.719,876.817L253.682,876.804L253.645,876.792L253.607,876.781L253.57,876.771L253.532,876.762L253.494,876.753L253.456,876.746L253.418,876.74L253.379,876.735L253.341,876.73L253.302,876.727L253.263,876.724L253.224,876.723L253.182,876.722L229.938,876.722Z" style="fill:rgb(46,58,65);"/>
        </g>
        <g transform="matrix(0.465909,0,0,0.910806,0.946519,-509.376)">
            <text x="234.576px" y="859.026px" style="font-family:'SourceSansPro-Bold', 'Source Sans Pro', sans-serif;font-weight:700;font-size:24px;fill:rgb(46,58,65);">t<tspan x="243.288px " y="859.026px ">a</tspan>nh</text>
        </g>
    </g>
    <g id="gradient-cover" transform="matrix(4.29268,0,0,2,-241.637,-424)">
        <g transform="matrix(1.27841,0,0,1.25,-761.891,-216.75)">
            <path d="M722,347C722,344.792 721.183,343 720.178,343L641.822,343C640.817,343 640,344.792 640,347L640,439C640,441.208 640.817,443 641.822,443L720.178,443C721.183,443 722,441.208 722,439L722,347Z" style="fill:url(#_Radial1);"/>
            <path d="M720.201,343L720.225,343.001L720.248,343.003L720.271,343.005L720.295,343.008L720.318,343.012L720.341,343.016L720.364,343.021L720.387,343.026L720.41,343.032L720.432,343.039L720.455,343.046L720.478,343.054L720.5,343.063L720.523,343.072L720.545,343.081L720.567,343.092L720.589,343.103L720.611,343.114L720.633,343.126L720.655,343.139L720.676,343.152L720.698,343.166L720.719,343.18L720.741,343.195L720.762,343.21L720.783,343.226L720.804,343.243L720.825,343.26L720.846,343.278L720.866,343.296L720.887,343.315L720.907,343.334L720.927,343.354L720.948,343.374L720.967,343.395L720.987,343.416L721.007,343.438L721.027,343.46L721.046,343.483L721.065,343.506L721.085,343.53L721.104,343.555L721.122,343.579L721.141,343.605L721.16,343.631L721.178,343.657L721.196,343.684L721.214,343.711L721.232,343.738L721.25,343.767L721.268,343.795L721.285,343.824L721.303,343.854L721.32,343.884L721.337,343.914L721.353,343.945L721.37,343.976L721.386,344.008L721.403,344.04L721.419,344.072L721.435,344.105L721.45,344.138L721.466,344.172L721.481,344.206L721.497,344.241L721.512,344.276L721.526,344.311L721.541,344.347L721.555,344.383L721.57,344.419L721.584,344.456L721.598,344.493L721.611,344.531L721.625,344.569L721.638,344.607L721.651,344.646L721.664,344.685L721.676,344.724L721.689,344.764L721.701,344.804L721.713,344.845L721.725,344.885L721.736,344.927L721.747,344.968L721.758,345.01L721.769,345.052L721.78,345.094L721.79,345.137L721.801,345.18L721.81,345.223L721.82,345.266L721.83,345.31L721.839,345.354L721.848,345.399L721.857,345.444L721.865,345.489L721.874,345.534L721.882,345.579L721.889,345.625L721.897,345.671L721.904,345.718L721.911,345.764L721.918,345.811L721.925,345.858L721.931,345.905L721.937,345.953L721.943,346.001L721.948,346.049L721.953,346.097L721.958,346.146L721.963,346.194L721.967,346.243L721.972,346.292L721.975,346.342L721.979,346.391L721.982,346.441L721.985,346.491L721.988,346.541L721.991,346.591L721.993,346.642L721.995,346.692L721.996,346.743L721.998,346.794L721.999,346.845L721.999,346.897L722,346.948L722,347L722,439L722,439.052L721.999,439.103L721.999,439.155L721.998,439.206L721.996,439.257L721.995,439.308L721.993,439.358L721.991,439.409L721.988,439.459L721.985,439.509L721.982,439.559L721.979,439.609L721.975,439.658L721.972,439.708L721.967,439.757L721.963,439.806L721.958,439.854L721.953,439.903L721.948,439.951L721.943,439.999L721.937,440.047L721.931,440.095L721.925,440.142L721.918,440.189L721.911,440.236L721.904,440.282L721.897,440.329L721.889,440.375L721.882,440.421L721.874,440.466L721.865,440.511L721.857,440.556L721.848,440.601L721.839,440.646L721.83,440.69L721.82,440.734L721.81,440.777L721.801,440.82L721.79,440.863L721.78,440.906L721.769,440.948L721.758,440.99L721.747,441.032L721.736,441.073L721.725,441.115L721.713,441.155L721.701,441.196L721.689,441.236L721.676,441.276L721.664,441.315L721.651,441.354L721.638,441.393L721.625,441.431L721.611,441.469L721.598,441.507L721.584,441.544L721.57,441.581L721.555,441.617L721.541,441.653L721.526,441.689L721.512,441.724L721.497,441.759L721.481,441.794L721.466,441.828L721.45,441.862L721.435,441.895L721.419,441.928L721.403,441.96L721.386,441.992L721.37,442.024L721.353,442.055L721.337,442.086L721.32,442.116L721.303,442.146L721.285,442.176L721.268,442.205L721.25,442.233L721.232,442.262L721.214,442.289L721.196,442.316L721.178,442.343L721.16,442.369L721.141,442.395L721.122,442.421L721.104,442.445L721.085,442.47L721.065,442.494L721.046,442.517L721.027,442.54L721.007,442.562L720.987,442.584L720.967,442.605L720.948,442.626L720.927,442.646L720.907,442.666L720.887,442.685L720.866,442.704L720.846,442.722L720.825,442.74L720.804,442.757L720.783,442.774L720.762,442.79L720.741,442.805L720.719,442.82L720.698,442.834L720.676,442.848L720.655,442.861L720.633,442.874L720.611,442.886L720.589,442.897L720.567,442.908L720.545,442.919L720.523,442.928L720.5,442.937L720.478,442.946L720.455,442.954L720.432,442.961L720.41,442.968L720.387,442.974L720.364,442.979L720.341,442.984L720.318,442.988L720.295,442.992L720.271,442.995L720.248,442.997L720.225,442.999L720.201,443L720.178,443L641.822,443L641.799,443L641.775,442.999L641.752,442.997L641.729,442.995L641.705,442.992L641.682,442.988L641.659,442.984L641.636,442.979L641.613,442.974L641.59,442.968L641.568,442.961L641.545,442.954L641.522,442.946L641.5,442.937L641.477,442.928L641.455,442.919L641.433,442.908L641.411,442.897L641.389,442.886L641.367,442.874L641.345,442.861L641.324,442.848L641.302,442.834L641.281,442.82L641.259,442.805L641.238,442.79L641.217,442.774L641.196,442.757L641.175,442.74L641.154,442.722L641.134,442.704L641.113,442.685L641.093,442.666L641.073,442.646L641.052,442.626L641.033,442.605L641.013,442.584L640.993,442.562L640.973,442.54L640.954,442.517L640.935,442.494L640.915,442.47L640.896,442.445L640.878,442.421L640.859,442.395L640.84,442.369L640.822,442.343L640.804,442.316L640.786,442.289L640.768,442.262L640.75,442.233L640.732,442.205L640.715,442.176L640.697,442.146L640.68,442.116L640.663,442.086L640.647,442.055L640.63,442.024L640.614,441.992L640.597,441.96L640.581,441.928L640.565,441.895L640.55,441.862L640.534,441.828L640.519,441.794L640.503,441.759L640.488,441.724L640.474,441.689L640.459,441.653L640.445,441.617L640.43,441.581L640.416,441.544L640.402,441.507L640.389,441.469L640.375,441.431L640.362,441.393L640.349,441.354L640.336,441.315L640.324,441.276L640.311,441.236L640.299,441.196L640.287,441.155L640.275,441.115L640.264,441.073L640.253,441.032L640.242,440.99L640.231,440.948L640.22,440.906L640.21,440.863L640.199,440.82L640.19,440.777L640.18,440.734L640.17,440.69L640.161,440.646L640.152,440.601L640.143,440.556L640.135,440.511L640.126,440.466L640.118,440.421L640.111,440.375L640.103,440.329L640.096,440.282L640.089,440.236L640.082,440.189L640.075,440.142L640.069,440.095L640.063,440.047L640.057,439.999L640.052,439.951L640.047,439.903L640.042,439.854L640.037,439.806L640.033,439.757L640.028,439.708L640.025,439.658L640.021,439.609L640.018,439.559L640.015,439.509L640.012,439.459L640.009,439.409L640.007,439.358L640.005,439.308L640.004,439.257L640.002,439.206L640.001,439.155L640.001,439.103L640,439.052L640,439L640,347L640,346.948L640.001,346.897L640.001,346.845L640.002,346.794L640.004,346.743L640.005,346.692L640.007,346.642L640.009,346.591L640.012,346.541L640.015,346.491L640.018,346.441L640.021,346.391L640.025,346.342L640.028,346.292L640.033,346.243L640.037,346.194L640.042,346.146L640.047,346.097L640.052,346.049L640.057,346.001L640.063,345.953L640.069,345.905L640.075,345.858L640.082,345.811L640.089,345.764L640.096,345.718L640.103,345.671L640.111,345.625L640.118,345.579L640.126,345.534L640.135,345.489L640.143,345.444L640.152,345.399L640.161,345.354L640.17,345.31L640.18,345.266L640.19,345.223L640.199,345.18L640.21,345.137L640.22,345.094L640.231,345.052L640.242,345.01L640.253,344.968L640.264,344.927L640.275,344.885L640.287,344.845L640.299,344.804L640.311,344.764L640.324,344.724L640.336,344.685L640.349,344.646L640.362,344.607L640.375,344.569L640.389,344.531L640.402,344.493L640.416,344.456L640.43,344.419L640.445,344.383L640.459,344.347L640.474,344.311L640.488,344.276L640.503,344.241L640.519,344.206L640.534,344.172L640.55,344.138L640.565,344.105L640.581,344.072L640.597,344.04L640.614,344.008L640.63,343.976L640.647,343.945L640.663,343.914L640.68,343.884L640.697,343.854L640.715,343.824L640.732,343.795L640.75,343.767L640.768,343.738L640.786,343.711L640.804,343.684L640.822,343.657L640.84,343.631L640.859,343.605L640.878,343.579L640.896,343.555L640.915,343.53L640.935,343.506L640.954,343.483L640.973,343.46L640.993,343.438L641.013,343.416L641.033,343.395L641.052,343.374L641.073,343.354L641.093,343.334L641.113,343.315L641.134,343.296L641.154,343.278L641.175,343.26L641.196,343.243L641.217,343.226L641.238,343.21L641.259,343.195L641.281,343.18L641.302,343.166L641.324,343.152L641.345,343.139L641.367,343.126L641.389,343.114L641.411,343.103L641.433,343.092L641.455,343.081L641.477,343.072L641.5,343.063L641.522,343.054L641.545,343.046L641.568,343.039L641.59,343.032L641.613,343.026L641.636,343.021L641.659,343.016L641.682,343.012L641.705,343.008L641.729,343.005L641.752,343.003L641.775,343.001L641.799,343L641.822,343L720.178,343L720.201,343ZM641.825,344.6L641.808,344.6L641.794,344.601L641.78,344.602L641.765,344.603L641.751,344.605L641.737,344.607L641.724,344.61L641.71,344.612L641.696,344.616L641.682,344.619L641.669,344.623L641.655,344.628L641.642,344.632L641.628,344.638L641.615,344.643L641.601,344.649L641.588,344.655L641.575,344.661L641.562,344.668L641.549,344.675L641.536,344.683L641.523,344.691L641.51,344.699L641.497,344.708L641.485,344.717L641.472,344.726L641.459,344.735L641.447,344.745L641.434,344.755L641.422,344.766L641.41,344.777L641.397,344.788L641.385,344.8L641.373,344.811L641.361,344.823L641.349,344.836L641.337,344.849L641.325,344.862L641.314,344.875L641.302,344.889L641.29,344.903L641.279,344.917L641.268,344.932L641.256,344.947L641.245,344.962L641.234,344.977L641.223,344.993L641.212,345.009L641.201,345.026L641.19,345.042L641.179,345.059L641.169,345.076L641.158,345.094L641.148,345.112L641.138,345.13L641.127,345.148L641.117,345.166L641.107,345.185L641.097,345.204L641.088,345.224L641.078,345.243L641.068,345.263L641.059,345.283L641.049,345.304L641.04,345.324L641.031,345.345L641.022,345.366L641.013,345.387L641.004,345.409L640.995,345.431L640.987,345.453L640.978,345.475L640.97,345.497L640.962,345.52L640.954,345.543L640.946,345.566L640.938,345.589L640.93,345.613L640.923,345.636L640.915,345.66L640.908,345.684L640.901,345.708L640.894,345.733L640.887,345.758L640.88,345.782L640.873,345.808L640.867,345.833L640.86,345.858L640.854,345.884L640.848,345.909L640.842,345.935L640.836,345.961L640.831,345.988L640.825,346.014L640.82,346.041L640.815,346.067L640.809,346.094L640.805,346.121L640.8,346.148L640.795,346.176L640.791,346.203L640.786,346.231L640.782,346.259L640.778,346.287L640.774,346.315L640.77,346.343L640.767,346.371L640.763,346.4L640.76,346.429L640.757,346.457L640.754,346.486L640.751,346.515L640.748,346.545L640.746,346.574L640.744,346.603L640.742,346.633L640.74,346.663L640.738,346.693L640.736,346.723L640.735,346.753L640.733,346.783L640.732,346.814L640.731,346.845L640.73,346.875L640.73,346.906L640.729,346.937L640.729,346.969L640.729,347.005L640.729,438.995L640.729,439.031L640.729,439.063L640.73,439.094L640.73,439.125L640.731,439.155L640.732,439.186L640.733,439.217L640.735,439.247L640.736,439.277L640.738,439.307L640.74,439.337L640.742,439.367L640.744,439.397L640.746,439.426L640.748,439.455L640.751,439.485L640.754,439.514L640.757,439.543L640.76,439.571L640.763,439.6L640.767,439.629L640.77,439.657L640.774,439.685L640.778,439.713L640.782,439.741L640.786,439.769L640.791,439.797L640.795,439.824L640.8,439.852L640.804,439.879L640.809,439.906L640.815,439.933L640.82,439.959L640.825,439.986L640.831,440.012L640.836,440.039L640.842,440.065L640.848,440.091L640.854,440.116L640.86,440.142L640.867,440.167L640.873,440.193L640.88,440.218L640.887,440.242L640.894,440.267L640.901,440.291L640.908,440.316L640.915,440.34L640.923,440.364L640.93,440.387L640.938,440.411L640.946,440.434L640.954,440.457L640.962,440.48L640.97,440.503L640.978,440.525L640.987,440.547L640.995,440.569L641.004,440.591L641.013,440.613L641.022,440.634L641.031,440.655L641.04,440.676L641.049,440.697L641.059,440.717L641.068,440.737L641.078,440.757L641.088,440.776L641.097,440.796L641.107,440.815L641.117,440.834L641.127,440.852L641.138,440.87L641.148,440.889L641.158,440.906L641.169,440.924L641.18,440.941L641.19,440.958L641.201,440.974L641.212,440.991L641.223,441.007L641.234,441.023L641.245,441.038L641.256,441.053L641.268,441.068L641.279,441.083L641.29,441.097L641.302,441.111L641.314,441.125L641.325,441.138L641.337,441.151L641.349,441.164L641.361,441.177L641.373,441.189L641.385,441.2L641.397,441.212L641.41,441.223L641.422,441.234L641.434,441.245L641.447,441.255L641.459,441.265L641.472,441.274L641.485,441.283L641.497,441.292L641.51,441.301L641.523,441.309L641.536,441.317L641.549,441.325L641.562,441.332L641.575,441.339L641.588,441.345L641.601,441.351L641.615,441.357L641.628,441.362L641.642,441.368L641.655,441.372L641.669,441.377L641.682,441.381L641.696,441.384L641.71,441.388L641.724,441.39L641.737,441.393L641.751,441.395L641.765,441.397L641.78,441.398L641.794,441.399L641.808,441.4L641.825,441.4L720.175,441.4L720.192,441.4L720.206,441.399L720.22,441.398L720.235,441.397L720.249,441.395L720.263,441.393L720.276,441.39L720.29,441.388L720.304,441.384L720.318,441.381L720.331,441.377L720.345,441.372L720.358,441.368L720.372,441.362L720.385,441.357L720.399,441.351L720.412,441.345L720.425,441.339L720.438,441.332L720.451,441.324L720.464,441.317L720.477,441.309L720.49,441.301L720.503,441.292L720.516,441.283L720.528,441.274L720.541,441.265L720.553,441.255L720.566,441.245L720.578,441.234L720.59,441.223L720.603,441.212L720.615,441.2L720.627,441.189L720.639,441.177L720.651,441.164L720.663,441.151L720.675,441.138L720.686,441.125L720.698,441.111L720.71,441.097L720.721,441.083L720.732,441.068L720.744,441.053L720.755,441.038L720.766,441.023L720.777,441.007L720.788,440.991L720.799,440.974L720.81,440.958L720.821,440.941L720.831,440.924L720.842,440.906L720.852,440.889L720.862,440.871L720.873,440.852L720.883,440.833L720.893,440.815L720.903,440.796L720.912,440.776L720.922,440.757L720.932,440.737L720.941,440.717L720.951,440.697L720.96,440.676L720.969,440.655L720.978,440.634L720.987,440.613L720.996,440.591L721.004,440.57L721.013,440.547L721.022,440.525L721.03,440.503L721.038,440.48L721.046,440.457L721.054,440.434L721.062,440.411L721.07,440.387L721.077,440.364L721.085,440.34L721.092,440.316L721.099,440.291L721.106,440.267L721.113,440.242L721.12,440.218L721.127,440.193L721.133,440.167L721.14,440.142L721.146,440.116L721.152,440.091L721.158,440.065L721.164,440.039L721.169,440.013L721.175,439.986L721.18,439.959L721.185,439.932L721.191,439.906L721.195,439.879L721.2,439.852L721.205,439.824L721.209,439.797L721.214,439.769L721.218,439.741L721.222,439.713L721.226,439.685L721.23,439.657L721.233,439.628L721.237,439.6L721.24,439.571L721.243,439.543L721.246,439.514L721.249,439.485L721.252,439.455L721.254,439.426L721.256,439.397L721.258,439.367L721.26,439.337L721.262,439.307L721.264,439.277L721.265,439.247L721.267,439.217L721.268,439.186L721.269,439.155L721.27,439.124L721.27,439.094L721.271,439.063L721.271,439.031L721.271,438.995L721.271,347.005L721.271,346.969L721.271,346.937L721.27,346.906L721.27,346.876L721.269,346.845L721.268,346.814L721.267,346.783L721.265,346.753L721.264,346.723L721.262,346.693L721.26,346.663L721.258,346.633L721.256,346.603L721.254,346.574L721.252,346.545L721.249,346.515L721.246,346.486L721.243,346.457L721.24,346.428L721.237,346.4L721.233,346.372L721.23,346.343L721.226,346.315L721.222,346.287L721.218,346.259L721.214,346.231L721.209,346.203L721.205,346.176L721.2,346.148L721.195,346.121L721.191,346.094L721.185,346.068L721.18,346.041L721.175,346.014L721.169,345.988L721.164,345.961L721.158,345.935L721.152,345.909L721.146,345.884L721.14,345.858L721.133,345.833L721.127,345.807L721.12,345.782L721.113,345.758L721.106,345.733L721.099,345.709L721.092,345.684L721.085,345.66L721.077,345.636L721.07,345.613L721.062,345.589L721.054,345.566L721.046,345.543L721.038,345.52L721.03,345.497L721.022,345.475L721.013,345.453L721.004,345.43L720.996,345.409L720.987,345.387L720.978,345.366L720.969,345.345L720.96,345.324L720.951,345.303L720.941,345.283L720.932,345.263L720.922,345.243L720.912,345.224L720.903,345.204L720.893,345.185L720.883,345.167L720.873,345.148L720.862,345.129L720.852,345.112L720.842,345.094L720.831,345.076L720.821,345.059L720.81,345.042L720.799,345.026L720.788,345.009L720.777,344.993L720.766,344.977L720.755,344.962L720.744,344.947L720.732,344.932L720.721,344.917L720.71,344.903L720.698,344.889L720.686,344.875L720.675,344.862L720.663,344.849L720.651,344.836L720.639,344.823L720.627,344.811L720.615,344.8L720.603,344.788L720.59,344.777L720.578,344.766L720.566,344.755L720.553,344.745L720.541,344.735L720.528,344.726L720.515,344.717L720.503,344.708L720.49,344.699L720.477,344.691L720.464,344.683L720.451,344.676L720.438,344.668L720.425,344.661L720.412,344.655L720.399,344.649L720.385,344.643L720.372,344.638L720.358,344.632L720.345,344.628L720.331,344.623L720.318,344.619L720.304,344.616L720.29,344.612L720.276,344.61L720.263,344.607L720.249,344.605L720.235,344.603L720.22,344.602L720.206,344.601L720.192,344.6L720.175,344.6L641.825,344.6Z" style="fill:rgb(46,58,65);"/>
        </g>
        <g transform="matrix(0.465909,0,0,1,-35.8271,6.03388)">
            <text x="296.464px" y="284.114px" style="font-family:'SourceSansPro-Bold', 'Source Sans Pro', sans-serif;font-weight:700;font-size:48px;fill:rgb(46,58,65);">A</text>
        </g>
    </g>
    <defs>
        <radialGradient id="_Radial1" cx="0" cy="0" r="1" gradientUnits="userSpaceOnUse" gradientTransform="matrix(41,0,0,90,681,393)"><stop offset="0" style="stop-color:rgb(106,208,255);stop-opacity:1"/><stop offset="0.3" style="stop-color:rgb(106,208,255);stop-opacity:1"/><stop offset="1" style="stop-color:rgb(106,208,255);stop-opacity:0.2"/></radialGradient>
    </defs>
</svg>
