<?xml version="1.0" encoding="UTF-8" standalone="no"?>
<!DOCTYPE svg PUBLIC "-//W3C//DTD SVG 1.1//EN" "http://www.w3.org/Graphics/SVG/1.1/DTD/svg11.dtd">
<svg width="100%" height="100%" viewBox="0 0 30 30" version="1.1" xmlns="http://www.w3.org/2000/svg" xmlns:xlink="http://www.w3.org/1999/xlink" xml:space="preserve" xmlns:serif="http://www.serif.com/" style="fill-rule:evenodd;clip-rule:evenodd;stroke-linejoin:round;stroke-miterlimit:1.41421;">
    <g id="matrix-mult" transform="matrix(3.65854,0,0,1.09793,-119,-227)">
        <g transform="matrix(0.273333,0,0,0.910806,0.273333,-1123.93)">
            <circle cx="133" cy="1476" r="15" style="fill:rgb(251,238,131);"/>
            <path d="M133.194,1461L133.387,1461.01L133.579,1461.01L133.771,1461.02L133.963,1461.03L134.153,1461.04L134.343,1461.06L134.533,1461.08L134.721,1461.1L134.909,1461.12L135.097,1461.15L135.283,1461.17L135.469,1461.2L135.654,1461.23L135.838,1461.27L136.021,1461.31L136.204,1461.34L136.386,1461.38L136.567,1461.43L136.747,1461.47L136.926,1461.52L137.104,1461.57L137.282,1461.62L137.458,1461.67L137.634,1461.73L137.809,1461.79L137.983,1461.85L138.155,1461.91L138.327,1461.98L138.498,1462.04L138.668,1462.11L138.836,1462.18L139.004,1462.25L139.171,1462.33L139.336,1462.4L139.501,1462.48L139.664,1462.56L139.826,1462.64L139.987,1462.73L140.147,1462.81L140.306,1462.9L140.464,1462.99L140.62,1463.08L140.776,1463.17L140.93,1463.27L141.082,1463.36L141.234,1463.46L141.384,1463.56L141.533,1463.66L141.681,1463.77L141.827,1463.87L141.972,1463.98L142.116,1464.09L142.258,1464.2L142.399,1464.31L142.539,1464.43L142.677,1464.54L142.814,1464.66L142.95,1464.78L143.083,1464.9L143.216,1465.02L143.347,1465.14L143.476,1465.27L143.605,1465.39L143.731,1465.52L143.856,1465.65L143.979,1465.78L144.101,1465.92L144.222,1466.05L144.34,1466.19L144.457,1466.32L144.573,1466.46L144.687,1466.6L144.799,1466.74L144.91,1466.88L145.018,1467.03L145.126,1467.17L145.231,1467.32L145.335,1467.47L145.437,1467.62L145.537,1467.77L145.636,1467.92L145.732,1468.07L145.827,1468.22L145.92,1468.38L146.011,1468.54L146.101,1468.69L146.188,1468.85L146.274,1469.01L146.358,1469.17L146.44,1469.34L146.52,1469.5L146.598,1469.66L146.674,1469.83L146.748,1470L146.82,1470.16L146.891,1470.33L146.959,1470.5L147.025,1470.67L147.089,1470.85L147.151,1471.02L147.211,1471.19L147.269,1471.37L147.325,1471.54L147.379,1471.72L147.431,1471.9L147.48,1472.07L147.527,1472.25L147.573,1472.43L147.616,1472.61L147.656,1472.8L147.695,1472.98L147.731,1473.16L147.766,1473.35L147.797,1473.53L147.827,1473.72L147.854,1473.9L147.879,1474.09L147.902,1474.28L147.922,1474.47L147.941,1474.66L147.956,1474.85L147.97,1475.04L147.98,1475.23L147.989,1475.42L147.995,1475.61L147.999,1475.81L148,1476L147.999,1476.19L147.995,1476.39L147.989,1476.58L147.98,1476.77L147.97,1476.96L147.956,1477.15L147.941,1477.34L147.922,1477.53L147.902,1477.72L147.879,1477.91L147.854,1478.1L147.827,1478.28L147.797,1478.47L147.766,1478.65L147.731,1478.84L147.695,1479.02L147.656,1479.2L147.616,1479.39L147.573,1479.57L147.527,1479.75L147.48,1479.93L147.431,1480.1L147.379,1480.28L147.325,1480.46L147.269,1480.63L147.211,1480.81L147.151,1480.98L147.089,1481.15L147.025,1481.33L146.959,1481.5L146.891,1481.67L146.82,1481.84L146.748,1482L146.674,1482.17L146.598,1482.34L146.52,1482.5L146.44,1482.66L146.358,1482.83L146.274,1482.99L146.188,1483.15L146.101,1483.31L146.011,1483.46L145.92,1483.62L145.827,1483.78L145.732,1483.93L145.636,1484.08L145.537,1484.23L145.437,1484.38L145.335,1484.53L145.231,1484.68L145.126,1484.83L145.018,1484.97L144.91,1485.12L144.799,1485.26L144.687,1485.4L144.573,1485.54L144.457,1485.68L144.34,1485.81L144.222,1485.95L144.101,1486.08L143.979,1486.22L143.856,1486.35L143.731,1486.48L143.605,1486.61L143.476,1486.73L143.347,1486.86L143.216,1486.98L143.083,1487.1L142.95,1487.22L142.814,1487.34L142.677,1487.46L142.539,1487.57L142.399,1487.69L142.258,1487.8L142.116,1487.91L141.972,1488.02L141.827,1488.13L141.681,1488.23L141.533,1488.34L141.384,1488.44L141.234,1488.54L141.082,1488.64L140.93,1488.73L140.776,1488.83L140.62,1488.92L140.464,1489.01L140.306,1489.1L140.147,1489.19L139.987,1489.27L139.826,1489.36L139.664,1489.44L139.501,1489.52L139.336,1489.6L139.171,1489.67L139.004,1489.75L138.836,1489.82L138.668,1489.89L138.498,1489.96L138.327,1490.03L138.155,1490.09L137.983,1490.15L137.809,1490.21L137.634,1490.27L137.458,1490.33L137.282,1490.38L137.104,1490.43L136.926,1490.48L136.747,1490.53L136.567,1490.57L136.386,1490.62L136.204,1490.66L136.021,1490.69L135.838,1490.73L135.654,1490.77L135.469,1490.8L135.283,1490.83L135.097,1490.85L134.909,1490.88L134.721,1490.9L134.533,1490.92L134.343,1490.94L134.153,1490.96L133.963,1490.97L133.771,1490.98L133.579,1490.99L133.387,1491L133.194,1491L133,1491L132.806,1491L132.613,1491L132.421,1490.99L132.229,1490.98L132.037,1490.97L131.847,1490.96L131.657,1490.94L131.467,1490.92L131.279,1490.9L131.091,1490.88L130.903,1490.85L130.717,1490.83L130.531,1490.8L130.346,1490.77L130.162,1490.73L129.979,1490.69L129.796,1490.66L129.614,1490.62L129.433,1490.57L129.253,1490.53L129.074,1490.48L128.896,1490.43L128.718,1490.38L128.542,1490.33L128.366,1490.27L128.191,1490.21L128.017,1490.15L127.845,1490.09L127.673,1490.03L127.502,1489.96L127.332,1489.89L127.164,1489.82L126.996,1489.75L126.829,1489.67L126.664,1489.6L126.499,1489.52L126.336,1489.44L126.174,1489.36L126.013,1489.27L125.853,1489.19L125.694,1489.1L125.536,1489.01L125.38,1488.92L125.224,1488.83L125.07,1488.73L124.918,1488.64L124.766,1488.54L124.616,1488.44L124.467,1488.34L124.319,1488.23L124.173,1488.13L124.028,1488.02L123.884,1487.91L123.742,1487.8L123.601,1487.69L123.461,1487.57L123.323,1487.46L123.186,1487.34L123.05,1487.22L122.917,1487.1L122.784,1486.98L122.653,1486.86L122.524,1486.73L122.395,1486.61L122.269,1486.48L122.144,1486.35L122.021,1486.22L121.899,1486.08L121.778,1485.95L121.66,1485.81L121.543,1485.68L121.427,1485.54L121.313,1485.4L121.201,1485.26L121.09,1485.12L120.982,1484.97L120.874,1484.83L120.769,1484.68L120.665,1484.53L120.563,1484.38L120.463,1484.23L120.364,1484.08L120.268,1483.93L120.173,1483.78L120.08,1483.62L119.989,1483.46L119.899,1483.31L119.812,1483.15L119.726,1482.99L119.642,1482.83L119.56,1482.66L119.48,1482.5L119.402,1482.34L119.326,1482.17L119.252,1482L119.18,1481.84L119.109,1481.67L119.041,1481.5L118.975,1481.33L118.911,1481.15L118.849,1480.98L118.789,1480.81L118.731,1480.63L118.675,1480.46L118.621,1480.28L118.569,1480.1L118.52,1479.93L118.473,1479.75L118.427,1479.57L118.384,1479.39L118.344,1479.2L118.305,1479.02L118.269,1478.84L118.234,1478.65L118.203,1478.47L118.173,1478.28L118.146,1478.1L118.121,1477.91L118.098,1477.72L118.078,1477.53L118.059,1477.34L118.044,1477.15L118.03,1476.96L118.02,1476.77L118.011,1476.58L118.005,1476.39L118.001,1476.19L118,1476L118.001,1475.81L118.005,1475.61L118.011,1475.42L118.02,1475.23L118.03,1475.04L118.044,1474.85L118.059,1474.66L118.078,1474.47L118.098,1474.28L118.121,1474.09L118.146,1473.9L118.173,1473.72L118.203,1473.53L118.234,1473.35L118.269,1473.16L118.305,1472.98L118.344,1472.8L118.384,1472.61L118.427,1472.43L118.473,1472.25L118.52,1472.07L118.569,1471.9L118.621,1471.72L118.675,1471.54L118.731,1471.37L118.789,1471.19L118.849,1471.02L118.911,1470.85L118.975,1470.67L119.041,1470.5L119.109,1470.33L119.18,1470.16L119.252,1470L119.326,1469.83L119.402,1469.66L119.48,1469.5L119.56,1469.34L119.642,1469.17L119.726,1469.01L119.812,1468.85L119.899,1468.69L119.989,1468.54L120.08,1468.38L120.173,1468.22L120.268,1468.07L120.364,1467.92L120.463,1467.77L120.563,1467.62L120.665,1467.47L120.769,1467.32L120.874,1467.17L120.982,1467.03L121.09,1466.88L121.201,1466.74L121.313,1466.6L121.427,1466.46L121.543,1466.32L121.66,1466.19L121.778,1466.05L121.899,1465.92L122.021,1465.78L122.144,1465.65L122.269,1465.52L122.395,1465.39L122.524,1465.27L122.653,1465.14L122.784,1465.02L122.917,1464.9L123.05,1464.78L123.186,1464.66L123.323,1464.54L123.461,1464.43L123.601,1464.31L123.742,1464.2L123.884,1464.09L124.028,1463.98L124.173,1463.87L124.319,1463.77L124.467,1463.66L124.616,1463.56L124.766,1463.46L124.918,1463.36L125.07,1463.27L125.224,1463.17L125.38,1463.08L125.536,1462.99L125.694,1462.9L125.853,1462.81L126.013,1462.73L126.174,1462.64L126.336,1462.56L126.499,1462.48L126.664,1462.4L126.829,1462.33L126.996,1462.25L127.164,1462.18L127.332,1462.11L127.502,1462.04L127.673,1461.98L127.845,1461.91L128.017,1461.85L128.191,1461.79L128.366,1461.73L128.542,1461.67L128.718,1461.62L128.896,1461.57L129.074,1461.52L129.253,1461.47L129.433,1461.43L129.614,1461.38L129.796,1461.34L129.979,1461.31L130.162,1461.27L130.346,1461.23L130.531,1461.2L130.717,1461.17L130.903,1461.15L131.091,1461.12L131.279,1461.1L131.467,1461.08L131.657,1461.06L131.847,1461.04L132.037,1461.03L132.229,1461.02L132.421,1461.01L132.613,1461.01L132.806,1461L133,1461L133.194,1461ZM132.832,1463L132.664,1463L132.497,1463.01L132.33,1463.02L132.164,1463.03L131.999,1463.04L131.834,1463.05L131.67,1463.07L131.506,1463.09L131.343,1463.11L131.181,1463.13L131.019,1463.15L130.858,1463.18L130.698,1463.2L130.539,1463.23L130.38,1463.26L130.222,1463.3L130.064,1463.33L129.908,1463.37L129.752,1463.41L129.597,1463.45L129.442,1463.49L129.289,1463.54L129.136,1463.58L128.984,1463.63L128.833,1463.68L128.682,1463.74L128.533,1463.79L128.384,1463.84L128.236,1463.9L128.089,1463.96L127.943,1464.02L127.798,1464.08L127.654,1464.15L127.51,1464.21L127.368,1464.28L127.226,1464.35L127.086,1464.42L126.946,1464.5L126.808,1464.57L126.67,1464.64L126.533,1464.72L126.398,1464.8L126.263,1464.88L126.13,1464.96L125.997,1465.05L125.866,1465.13L125.736,1465.22L125.607,1465.31L125.478,1465.4L125.351,1465.49L125.226,1465.58L125.101,1465.68L124.978,1465.77L124.855,1465.87L124.734,1465.97L124.614,1466.07L124.495,1466.17L124.378,1466.27L124.262,1466.38L124.147,1466.48L124.033,1466.59L123.921,1466.7L123.81,1466.81L123.7,1466.92L123.592,1467.03L123.484,1467.15L123.379,1467.26L123.274,1467.38L123.171,1467.5L123.07,1467.61L122.97,1467.73L122.871,1467.86L122.773,1467.98L122.678,1468.1L122.583,1468.23L122.49,1468.35L122.399,1468.48L122.309,1468.61L122.22,1468.74L122.133,1468.87L122.048,1469L121.964,1469.13L121.882,1469.26L121.801,1469.4L121.722,1469.53L121.645,1469.67L121.569,1469.81L121.495,1469.95L121.422,1470.09L121.351,1470.23L121.282,1470.37L121.214,1470.51L121.148,1470.65L121.084,1470.8L121.021,1470.94L120.961,1471.09L120.902,1471.24L120.844,1471.38L120.789,1471.53L120.735,1471.68L120.683,1471.83L120.633,1471.98L120.584,1472.14L120.538,1472.29L120.493,1472.44L120.45,1472.6L120.409,1472.75L120.37,1472.91L120.333,1473.06L120.298,1473.22L120.264,1473.38L120.233,1473.54L120.203,1473.7L120.176,1473.86L120.15,1474.02L120.126,1474.18L120.105,1474.34L120.085,1474.51L120.067,1474.67L120.052,1474.83L120.038,1475L120.026,1475.16L120.017,1475.33L120.01,1475.5L120.004,1475.66L120.001,1475.83L120,1476L120.001,1476.17L120.004,1476.34L120.01,1476.5L120.017,1476.67L120.026,1476.84L120.038,1477L120.052,1477.17L120.067,1477.33L120.085,1477.49L120.105,1477.66L120.126,1477.82L120.15,1477.98L120.176,1478.14L120.203,1478.3L120.233,1478.46L120.264,1478.62L120.298,1478.78L120.333,1478.94L120.37,1479.09L120.409,1479.25L120.45,1479.4L120.493,1479.56L120.538,1479.71L120.584,1479.86L120.633,1480.02L120.683,1480.17L120.735,1480.32L120.789,1480.47L120.844,1480.62L120.902,1480.76L120.961,1480.91L121.021,1481.06L121.084,1481.2L121.148,1481.35L121.214,1481.49L121.282,1481.63L121.351,1481.77L121.422,1481.91L121.495,1482.05L121.569,1482.19L121.645,1482.33L121.722,1482.47L121.801,1482.6L121.882,1482.74L121.964,1482.87L122.048,1483L122.133,1483.13L122.22,1483.26L122.309,1483.39L122.399,1483.52L122.49,1483.65L122.583,1483.77L122.678,1483.9L122.773,1484.02L122.871,1484.14L122.97,1484.27L123.07,1484.39L123.171,1484.51L123.274,1484.62L123.379,1484.74L123.484,1484.85L123.592,1484.97L123.7,1485.08L123.81,1485.19L123.921,1485.3L124.033,1485.41L124.147,1485.52L124.262,1485.62L124.378,1485.73L124.495,1485.83L124.614,1485.93L124.734,1486.03L124.855,1486.13L124.978,1486.23L125.101,1486.32L125.226,1486.42L125.351,1486.51L125.478,1486.6L125.607,1486.69L125.736,1486.78L125.866,1486.87L125.997,1486.95L126.13,1487.04L126.263,1487.12L126.398,1487.2L126.533,1487.28L126.67,1487.36L126.808,1487.43L126.946,1487.51L127.086,1487.58L127.226,1487.65L127.368,1487.72L127.51,1487.79L127.654,1487.85L127.798,1487.92L127.943,1487.98L128.089,1488.04L128.236,1488.1L128.384,1488.16L128.533,1488.21L128.682,1488.27L128.833,1488.32L128.984,1488.37L129.136,1488.42L129.289,1488.46L129.442,1488.51L129.597,1488.55L129.752,1488.59L129.908,1488.63L130.064,1488.67L130.222,1488.7L130.38,1488.74L130.539,1488.77L130.698,1488.8L130.858,1488.82L131.019,1488.85L131.181,1488.87L131.343,1488.89L131.506,1488.91L131.67,1488.93L131.834,1488.95L131.999,1488.96L132.164,1488.97L132.33,1488.98L132.497,1488.99L132.664,1489L132.832,1489L133,1489L133.168,1489L133.336,1489L133.503,1488.99L133.67,1488.98L133.836,1488.97L134.001,1488.96L134.166,1488.95L134.33,1488.93L134.494,1488.91L134.657,1488.89L134.819,1488.87L134.981,1488.85L135.142,1488.82L135.302,1488.8L135.461,1488.77L135.62,1488.74L135.778,1488.7L135.936,1488.67L136.092,1488.63L136.248,1488.59L136.403,1488.55L136.558,1488.51L136.711,1488.46L136.864,1488.42L137.016,1488.37L137.167,1488.32L137.318,1488.27L137.467,1488.21L137.616,1488.16L137.764,1488.1L137.911,1488.04L138.057,1487.98L138.202,1487.92L138.346,1487.85L138.49,1487.79L138.632,1487.72L138.774,1487.65L138.914,1487.58L139.054,1487.51L139.192,1487.43L139.33,1487.36L139.467,1487.28L139.602,1487.2L139.737,1487.12L139.87,1487.04L140.003,1486.95L140.134,1486.87L140.264,1486.78L140.393,1486.69L140.522,1486.6L140.649,1486.51L140.774,1486.42L140.899,1486.32L141.022,1486.23L141.145,1486.13L141.266,1486.03L141.386,1485.93L141.505,1485.83L141.622,1485.73L141.738,1485.62L141.853,1485.52L141.967,1485.41L142.079,1485.3L142.19,1485.19L142.3,1485.08L142.408,1484.97L142.516,1484.85L142.621,1484.74L142.726,1484.62L142.829,1484.51L142.93,1484.39L143.03,1484.27L143.129,1484.14L143.227,1484.02L143.322,1483.9L143.417,1483.77L143.51,1483.65L143.601,1483.52L143.691,1483.39L143.78,1483.26L143.867,1483.13L143.952,1483L144.036,1482.87L144.118,1482.74L144.199,1482.6L144.278,1482.47L144.355,1482.33L144.431,1482.19L144.505,1482.05L144.578,1481.91L144.649,1481.77L144.718,1481.63L144.786,1481.49L144.852,1481.35L144.916,1481.2L144.979,1481.06L145.039,1480.91L145.098,1480.76L145.156,1480.62L145.211,1480.47L145.265,1480.32L145.317,1480.17L145.367,1480.02L145.416,1479.86L145.462,1479.71L145.507,1479.56L145.55,1479.4L145.591,1479.25L145.63,1479.09L145.667,1478.94L145.702,1478.78L145.736,1478.62L145.767,1478.46L145.797,1478.3L145.824,1478.14L145.85,1477.98L145.874,1477.82L145.895,1477.66L145.915,1477.49L145.933,1477.33L145.948,1477.17L145.962,1477L145.974,1476.84L145.983,1476.67L145.99,1476.5L145.996,1476.34L145.999,1476.17L146,1476L145.999,1475.83L145.996,1475.66L145.99,1475.5L145.983,1475.33L145.974,1475.16L145.962,1475L145.948,1474.83L145.933,1474.67L145.915,1474.51L145.895,1474.34L145.874,1474.18L145.85,1474.02L145.824,1473.86L145.797,1473.7L145.767,1473.54L145.736,1473.38L145.702,1473.22L145.667,1473.06L145.63,1472.91L145.591,1472.75L145.55,1472.6L145.507,1472.44L145.462,1472.29L145.416,1472.14L145.367,1471.98L145.317,1471.83L145.265,1471.68L145.211,1471.53L145.156,1471.38L145.098,1471.24L145.039,1471.09L144.979,1470.94L144.916,1470.8L144.852,1470.65L144.786,1470.51L144.718,1470.37L144.649,1470.23L144.578,1470.09L144.505,1469.95L144.431,1469.81L144.355,1469.67L144.278,1469.53L144.199,1469.4L144.118,1469.26L144.036,1469.13L143.952,1469L143.867,1468.87L143.78,1468.74L143.691,1468.61L143.601,1468.48L143.51,1468.35L143.417,1468.23L143.322,1468.1L143.227,1467.98L143.129,1467.86L143.03,1467.73L142.93,1467.61L142.829,1467.5L142.726,1467.38L142.621,1467.26L142.516,1467.15L142.408,1467.03L142.3,1466.92L142.19,1466.81L142.079,1466.7L141.967,1466.59L141.853,1466.48L141.738,1466.38L141.622,1466.27L141.505,1466.17L141.386,1466.07L141.266,1465.97L141.145,1465.87L141.022,1465.77L140.899,1465.68L140.774,1465.58L140.649,1465.49L140.522,1465.4L140.393,1465.31L140.264,1465.22L140.134,1465.13L140.003,1465.05L139.87,1464.96L139.737,1464.88L139.602,1464.8L139.467,1464.72L139.33,1464.64L139.192,1464.57L139.054,1464.5L138.914,1464.42L138.774,1464.35L138.632,1464.28L138.49,1464.21L138.346,1464.15L138.202,1464.08L138.057,1464.02L137.911,1463.96L137.764,1463.9L137.616,1463.84L137.467,1463.79L137.318,1463.74L137.167,1463.68L137.016,1463.63L136.864,1463.58L136.711,1463.54L136.558,1463.49L136.403,1463.45L136.248,1463.41L136.092,1463.37L135.936,1463.33L135.778,1463.3L135.62,1463.26L135.461,1463.23L135.302,1463.2L135.142,1463.18L134.981,1463.15L134.819,1463.13L134.657,1463.11L134.494,1463.09L134.33,1463.07L134.166,1463.05L134.001,1463.04L133.836,1463.03L133.67,1463.02L133.503,1463.01L133.336,1463L133.168,1463L133,1463L132.832,1463Z" style="fill:rgb(46,58,65);"/>
        </g>
        <g transform="matrix(0.273333,0,0,0.910806,-34.1591,-554.788)">
            <text x="252.636px" y="859.026px" style="font-family:'SourceSansPro-Bold', 'Source Sans Pro', sans-serif;font-weight:700;font-size:24px;fill:rgb(46,58,65);">×</text>
        </g>
    </g>
</svg>
