<?xml version="1.0" encoding="UTF-8" standalone="no"?>
<!DOCTYPE svg PUBLIC "-//W3C//DTD SVG 1.1//EN" "http://www.w3.org/Graphics/SVG/1.1/DTD/svg11.dtd">
<svg width="100%" height="100%" viewBox="0 0 486 235" version="1.1" xmlns="http://www.w3.org/2000/svg" xmlns:xlink="http://www.w3.org/1999/xlink" xml:space="preserve" xmlns:serif="http://www.serif.com/" style="fill-rule:evenodd;clip-rule:evenodd;stroke-linejoin:round;stroke-miterlimit:1.41421;">
    <g transform="matrix(1,0,0,1,0,-444.9)">
        <g id="rnn-expanded" transform="matrix(0.4853,0,0,0.2347,0,444.9)">
            <rect x="0" y="0" width="1000" height="1000" style="fill:rgb(46,58,65);"/>
            <g transform="matrix(2.06058,0,0,4.26076,-1009.68,-1189.11)">
                <g transform="matrix(1,0,0,1,463.411,331.839)">
                    <g>
                        <g>
                            <text x="81.211px" y="80.758px" style="font-family:'SourceSansPro-SemiBoldItalic', 'Source Sans Pro', sans-serif;font-weight:600;font-style:italic;font-size:21px;fill:white;">W</text>
                            <text x="97.486px" y="85.003px" style="font-family:'SourceSansPro-SemiBoldItalic', 'Source Sans Pro', sans-serif;font-weight:600;font-style:italic;font-size:10.494px;fill:white;">s</text>
                        </g>
                    </g>
                </g>
                <g transform="matrix(0.31746,-1.2326e-32,-2.77334e-32,0.296296,506.952,311.809)">
                    <g>
                        <path d="M60,276.875L60,270.125L228.84,270.125L223.8,260L249,273.5L223.8,287L228.84,276.875L60,276.875Z" style="fill:white;"/>
                    </g>
                </g>
            </g>
            <g transform="matrix(0.332578,0,0,1,1855.76,3260.76)">
                <g id="output" transform="matrix(6.19579,0,0,4.26076,-7523.4,-4774.04)">
                    <g transform="matrix(1.94388e-17,-0.31746,0.296296,1.81429e-17,344.639,472.048)">
                        <g>
                            <path d="M60,276.875L60,270.125L228.84,270.125L223.8,260L249,273.5L223.8,287L228.84,276.875L60,276.875Z" style="fill:white;"/>
                        </g>
                    </g>
                    <g transform="matrix(1,0,0,1,338.511,308.102)">
                        <text x="81.652px" y="80.758px" style="font-family:'SourceSansPro-SemiBold', 'Source Sans Pro', sans-serif;font-weight:600;font-size:21px;fill:rgb(195,87,246);">y</text>
                        <text x="92.047px" y="85.003px" style="font-family:'SourceSansPro-SemiBold', 'Source Sans Pro', sans-serif;font-weight:600;font-size:10.494px;fill:rgb(195,87,246);">1</text>
                    </g>
                    <g transform="matrix(1,0,0,1,318.365,346.986)">
                        <g>
                            <g>
                                <text x="81.211px" y="80.758px" style="font-family:'SourceSansPro-SemiBoldItalic', 'Source Sans Pro', sans-serif;font-weight:600;font-style:italic;font-size:21px;fill:white;">W</text>
                                <text x="97.486px" y="85.003px" style="font-family:'SourceSansPro-SemiBoldItalic', 'Source Sans Pro', sans-serif;font-weight:600;font-style:italic;font-size:10.494px;fill:white;">y</text>
                            </g>
                        </g>
                    </g>
                </g>
                <g id="input" transform="matrix(6.19579,0,0,4.26076,-7523.4,-4424.66)">
                    <g transform="matrix(1.94388e-17,-0.31746,0.296296,1.81429e-17,344.639,482.048)">
                        <g>
                            <path d="M60,276.875L60,270.125L228.84,270.125L223.8,260L249,273.5L223.8,287L228.84,276.875L60,276.875Z" style="fill:white;"/>
                        </g>
                    </g>
                    <g transform="matrix(1,0,0,1,318.764,356.986)">
                        <g>
                            <g>
                                <text x="81.211px" y="80.758px" style="font-family:'SourceSansPro-SemiBoldItalic', 'Source Sans Pro', sans-serif;font-weight:600;font-style:italic;font-size:21px;fill:white;">W</text>
                                <text x="97.486px" y="85.003px" style="font-family:'SourceSansPro-SemiBoldItalic', 'Source Sans Pro', sans-serif;font-weight:600;font-style:italic;font-size:10.494px;fill:white;">x</text>
                            </g>
                        </g>
                    </g>
                    <g transform="matrix(1,0,0,1,338.511,399.934)">
                        <text x="81.211px" y="80.758px" style="font-family:'SourceSansPro-SemiBold', 'Source Sans Pro', sans-serif;font-weight:600;font-size:21px;fill:rgb(33,176,236);">x</text>
                        <text x="91.312px" y="85.003px" style="font-family:'SourceSansPro-SemiBold', 'Source Sans Pro', sans-serif;font-weight:600;font-size:10.494px;fill:rgb(33,176,236);">1</text>
                    </g>
                </g>
                <g id="tanh" transform="matrix(6.19579,0,0,4.26076,-6366.79,-3465.99)">
                    <g transform="matrix(0.967742,0,0,0.967742,5.23226,-699.774)">
                        <path d="M257.06,882.75C257.06,878.473 253.587,875 249.31,875L233.81,875C229.533,875 226.06,878.473 226.06,882.75L226.06,898.25C226.06,902.527 229.533,906 233.81,906L249.31,906C253.587,906 257.06,902.527 257.06,898.25L257.06,882.75Z" style="fill:rgb(24,193,84);"/>
                        <path d="M249.41,875.001L249.51,875.003L249.609,875.006L249.709,875.01L249.807,875.016L249.906,875.023L250.004,875.031L250.102,875.04L250.199,875.051L250.296,875.062L250.393,875.075L250.49,875.089L250.586,875.105L250.681,875.121L250.776,875.139L250.871,875.158L250.965,875.178L251.059,875.199L251.153,875.221L251.246,875.244L251.338,875.269L251.431,875.294L251.522,875.321L251.614,875.349L251.704,875.378L251.795,875.407L251.884,875.439L251.974,875.471L252.062,875.504L252.151,875.538L252.238,875.573L252.325,875.609L252.412,875.647L252.498,875.685L252.584,875.724L252.669,875.765L252.753,875.806L252.837,875.848L252.92,875.892L253.003,875.936L253.085,875.981L253.166,876.027L253.247,876.075L253.327,876.123L253.407,876.172L253.486,876.222L253.564,876.273L253.642,876.324L253.719,876.377L253.795,876.431L253.871,876.485L253.946,876.54L254.02,876.597L254.094,876.654L254.166,876.712L254.239,876.771L254.31,876.83L254.381,876.891L254.451,876.952L254.52,877.014L254.588,877.077L254.656,877.141L254.723,877.206L254.789,877.271L254.854,877.337L254.919,877.404L254.983,877.472L255.046,877.54L255.108,877.609L255.169,877.679L255.23,877.75L255.289,877.821L255.348,877.894L255.406,877.966L255.463,878.04L255.52,878.114L255.575,878.189L255.629,878.265L255.683,878.341L255.736,878.418L255.787,878.496L255.838,878.574L255.888,878.653L255.937,878.733L255.985,878.813L256.033,878.894L256.079,878.975L256.124,879.057L256.168,879.14L256.212,879.223L256.254,879.307L256.295,879.391L256.336,879.476L256.375,879.562L256.413,879.648L256.451,879.735L256.487,879.822L256.522,879.909L256.556,879.998L256.589,880.086L256.621,880.176L256.653,880.265L256.682,880.356L256.711,880.446L256.739,880.538L256.766,880.629L256.791,880.722L256.816,880.814L256.839,880.907L256.861,881.001L256.882,881.095L256.902,881.189L256.921,881.284L256.939,881.379L256.955,881.474L256.971,881.57L256.985,881.667L256.998,881.764L257.009,881.861L257.02,881.958L257.029,882.056L257.037,882.154L257.044,882.253L257.05,882.351L257.054,882.451L257.057,882.55L257.059,882.65L257.06,882.75L257.06,898.25L257.059,898.35L257.057,898.45L257.054,898.549L257.05,898.649L257.044,898.747L257.037,898.846L257.029,898.944L257.02,899.042L257.009,899.139L256.998,899.236L256.985,899.333L256.971,899.43L256.955,899.526L256.939,899.621L256.921,899.716L256.902,899.811L256.882,899.905L256.861,899.999L256.839,900.093L256.816,900.186L256.791,900.278L256.766,900.371L256.739,900.462L256.711,900.554L256.682,900.644L256.653,900.735L256.621,900.824L256.589,900.914L256.556,901.002L256.522,901.091L256.487,901.178L256.451,901.265L256.413,901.352L256.375,901.438L256.336,901.524L256.295,901.609L256.254,901.693L256.212,901.777L256.168,901.86L256.124,901.943L256.079,902.025L256.033,902.106L255.985,902.187L255.937,902.267L255.888,902.347L255.838,902.426L255.787,902.504L255.736,902.582L255.683,902.659L255.629,902.735L255.575,902.811L255.52,902.886L255.463,902.96L255.406,903.034L255.348,903.106L255.289,903.179L255.23,903.25L255.169,903.321L255.108,903.391L255.046,903.46L254.983,903.528L254.919,903.596L254.854,903.663L254.789,903.729L254.723,903.794L254.656,903.859L254.588,903.923L254.52,903.986L254.451,904.048L254.381,904.109L254.31,904.17L254.239,904.229L254.166,904.288L254.094,904.346L254.02,904.403L253.946,904.46L253.871,904.515L253.795,904.569L253.719,904.623L253.642,904.676L253.564,904.727L253.486,904.778L253.407,904.828L253.327,904.877L253.247,904.925L253.166,904.973L253.085,905.019L253.003,905.064L252.92,905.108L252.837,905.152L252.753,905.194L252.669,905.235L252.584,905.276L252.498,905.315L252.412,905.353L252.325,905.391L252.238,905.427L252.151,905.462L252.062,905.496L251.974,905.529L251.884,905.561L251.795,905.593L251.704,905.622L251.614,905.651L251.522,905.679L251.431,905.706L251.338,905.731L251.246,905.756L251.153,905.779L251.059,905.801L250.965,905.822L250.871,905.842L250.776,905.861L250.681,905.879L250.586,905.895L250.49,905.911L250.393,905.925L250.296,905.938L250.199,905.949L250.102,905.96L250.004,905.969L249.906,905.977L249.807,905.984L249.709,905.99L249.609,905.994L249.51,905.997L249.41,905.999L249.31,906L233.81,906L233.71,905.999L233.61,905.997L233.511,905.994L233.411,905.99L233.313,905.984L233.214,905.977L233.116,905.969L233.018,905.96L232.921,905.949L232.824,905.938L232.727,905.925L232.63,905.911L232.534,905.895L232.439,905.879L232.344,905.861L232.249,905.842L232.155,905.822L232.061,905.801L231.967,905.779L231.874,905.756L231.782,905.731L231.689,905.706L231.598,905.679L231.506,905.651L231.416,905.622L231.325,905.593L231.236,905.561L231.146,905.529L231.058,905.496L230.969,905.462L230.882,905.427L230.795,905.391L230.708,905.353L230.622,905.315L230.536,905.276L230.451,905.235L230.367,905.194L230.283,905.152L230.2,905.108L230.117,905.064L230.035,905.019L229.954,904.973L229.873,904.925L229.793,904.877L229.713,904.828L229.634,904.778L229.556,904.727L229.478,904.676L229.401,904.623L229.325,904.569L229.249,904.515L229.174,904.46L229.1,904.403L229.026,904.346L228.954,904.288L228.881,904.229L228.81,904.17L228.739,904.109L228.669,904.048L228.6,903.986L228.532,903.923L228.464,903.859L228.397,903.794L228.331,903.729L228.266,903.663L228.201,903.596L228.137,903.528L228.074,903.46L228.012,903.391L227.951,903.321L227.89,903.25L227.831,903.179L227.772,903.106L227.714,903.034L227.657,902.96L227.6,902.886L227.545,902.811L227.491,902.735L227.437,902.659L227.384,902.582L227.333,902.504L227.282,902.426L227.232,902.347L227.183,902.267L227.135,902.187L227.087,902.106L227.041,902.025L226.996,901.943L226.952,901.86L226.908,901.777L226.866,901.693L226.825,901.609L226.784,901.524L226.745,901.438L226.707,901.352L226.669,901.265L226.633,901.178L226.598,901.091L226.564,901.002L226.531,900.914L226.499,900.824L226.467,900.735L226.438,900.644L226.409,900.554L226.381,900.462L226.354,900.371L226.329,900.278L226.304,900.186L226.281,900.093L226.259,899.999L226.238,899.905L226.218,899.811L226.199,899.716L226.181,899.621L226.165,899.526L226.149,899.43L226.135,899.333L226.122,899.236L226.111,899.139L226.1,899.042L226.091,898.944L226.083,898.846L226.076,898.747L226.07,898.649L226.066,898.549L226.063,898.45L226.061,898.35L226.06,898.25L226.06,882.75L226.061,882.65L226.063,882.55L226.066,882.451L226.07,882.351L226.076,882.253L226.083,882.154L226.091,882.056L226.1,881.958L226.111,881.861L226.122,881.764L226.135,881.667L226.149,881.57L226.165,881.474L226.181,881.379L226.199,881.284L226.218,881.189L226.238,881.095L226.259,881.001L226.281,880.907L226.304,880.814L226.329,880.722L226.354,880.629L226.381,880.538L226.409,880.446L226.438,880.356L226.467,880.265L226.499,880.176L226.531,880.086L226.564,879.998L226.598,879.909L226.633,879.822L226.669,879.735L226.707,879.648L226.745,879.562L226.784,879.476L226.825,879.391L226.866,879.307L226.908,879.223L226.952,879.14L226.996,879.057L227.041,878.975L227.087,878.894L227.135,878.813L227.183,878.733L227.232,878.653L227.282,878.574L227.333,878.496L227.384,878.418L227.437,878.341L227.491,878.265L227.545,878.189L227.6,878.114L227.657,878.04L227.714,877.966L227.772,877.894L227.831,877.821L227.89,877.75L227.951,877.679L228.012,877.609L228.074,877.54L228.137,877.472L228.201,877.404L228.266,877.337L228.331,877.271L228.397,877.206L228.464,877.141L228.532,877.077L228.6,877.014L228.669,876.952L228.739,876.891L228.81,876.83L228.881,876.771L228.954,876.712L229.026,876.654L229.1,876.597L229.174,876.54L229.249,876.485L229.325,876.431L229.401,876.377L229.478,876.324L229.556,876.273L229.634,876.222L229.713,876.172L229.793,876.123L229.873,876.075L229.954,876.027L230.035,875.981L230.117,875.936L230.2,875.892L230.283,875.848L230.367,875.806L230.451,875.765L230.536,875.724L230.622,875.685L230.708,875.647L230.795,875.609L230.882,875.573L230.969,875.538L231.058,875.504L231.146,875.471L231.236,875.439L231.325,875.407L231.416,875.378L231.506,875.349L231.598,875.321L231.689,875.294L231.782,875.269L231.874,875.244L231.967,875.221L232.061,875.199L232.155,875.178L232.249,875.158L232.344,875.139L232.439,875.121L232.534,875.105L232.63,875.089L232.727,875.075L232.824,875.062L232.921,875.051L233.018,875.04L233.116,875.031L233.214,875.023L233.313,875.016L233.411,875.01L233.511,875.006L233.61,875.003L233.71,875.001L233.81,875L249.31,875L249.41,875.001ZM233.816,877.067L233.736,877.067L233.663,877.069L233.589,877.071L233.516,877.074L233.443,877.078L233.371,877.083L233.299,877.089L233.227,877.096L233.156,877.104L233.085,877.112L233.013,877.122L232.943,877.132L232.873,877.144L232.803,877.156L232.733,877.168L232.664,877.182L232.595,877.197L232.526,877.212L232.458,877.228L232.389,877.246L232.322,877.263L232.255,877.282L232.188,877.302L232.121,877.322L232.054,877.343L231.988,877.365L231.923,877.388L231.858,877.411L231.793,877.435L231.728,877.46L231.664,877.486L231.6,877.513L231.537,877.54L231.474,877.568L231.411,877.597L231.349,877.626L231.287,877.657L231.226,877.688L231.165,877.719L231.104,877.752L231.044,877.785L230.984,877.819L230.925,877.853L230.866,877.889L230.807,877.925L230.75,877.961L230.692,877.999L230.635,878.037L230.579,878.075L230.523,878.115L230.467,878.155L230.412,878.196L230.358,878.237L230.304,878.279L230.25,878.321L230.197,878.365L230.145,878.408L230.093,878.453L230.041,878.498L229.99,878.544L229.94,878.59L229.89,878.637L229.841,878.684L229.792,878.732L229.744,878.781L229.697,878.83L229.65,878.88L229.604,878.93L229.558,878.981L229.513,879.033L229.468,879.085L229.424,879.137L229.381,879.19L229.339,879.244L229.297,879.298L229.255,879.352L229.215,879.407L229.175,879.463L229.135,879.519L229.097,879.575L229.059,879.632L229.021,879.69L228.985,879.748L228.949,879.806L228.913,879.865L228.879,879.924L228.845,879.984L228.812,880.044L228.779,880.105L228.748,880.166L228.717,880.227L228.686,880.289L228.657,880.351L228.628,880.414L228.6,880.477L228.573,880.54L228.546,880.604L228.52,880.668L228.495,880.733L228.471,880.798L228.448,880.863L228.425,880.928L228.403,880.994L228.382,881.061L228.362,881.127L228.342,881.194L228.323,881.262L228.306,881.33L228.289,881.398L228.272,881.466L228.257,881.535L228.242,881.604L228.228,881.673L228.216,881.743L228.203,881.813L228.192,881.883L228.182,881.953L228.172,882.024L228.164,882.096L228.156,882.167L228.149,882.239L228.143,882.311L228.138,882.383L228.134,882.456L228.131,882.529L228.129,882.603L228.127,882.676L228.127,882.756L228.127,898.243L228.127,898.324L228.129,898.397L228.131,898.471L228.134,898.544L228.138,898.617L228.143,898.689L228.149,898.761L228.156,898.833L228.164,898.904L228.172,898.976L228.182,899.047L228.192,899.117L228.203,899.187L228.216,899.257L228.228,899.327L228.242,899.396L228.257,899.465L228.272,899.534L228.288,899.602L228.306,899.67L228.323,899.738L228.342,899.805L228.362,899.873L228.382,899.939L228.403,900.006L228.425,900.072L228.448,900.137L228.471,900.202L228.495,900.267L228.52,900.332L228.546,900.396L228.573,900.46L228.6,900.523L228.628,900.586L228.657,900.649L228.686,900.711L228.717,900.773L228.748,900.834L228.779,900.895L228.812,900.956L228.845,901.016L228.879,901.076L228.913,901.135L228.949,901.194L228.985,901.252L229.021,901.31L229.059,901.368L229.097,901.425L229.135,901.481L229.175,901.537L229.215,901.593L229.255,901.648L229.297,901.702L229.339,901.756L229.381,901.81L229.425,901.863L229.468,901.915L229.513,901.967L229.558,902.019L229.604,902.07L229.65,902.12L229.697,902.17L229.744,902.219L229.793,902.268L229.841,902.316L229.89,902.363L229.94,902.41L229.991,902.457L230.041,902.502L230.092,902.547L230.145,902.592L230.197,902.635L230.25,902.679L230.304,902.721L230.358,902.763L230.412,902.805L230.468,902.846L230.523,902.885L230.579,902.924L230.635,902.963L230.692,903.001L230.75,903.039L230.808,903.075L230.866,903.111L230.925,903.146L230.984,903.181L231.044,903.215L231.104,903.248L231.165,903.281L231.226,903.312L231.287,903.343L231.349,903.374L231.411,903.403L231.474,903.432L231.537,903.46L231.6,903.487L231.664,903.514L231.728,903.54L231.793,903.565L231.857,903.589L231.923,903.612L231.989,903.635L232.054,903.657L232.121,903.678L232.187,903.698L232.255,903.718L232.322,903.737L232.389,903.754L232.458,903.772L232.526,903.788L232.595,903.803L232.664,903.818L232.733,903.831L232.803,903.844L232.873,903.856L232.943,903.868L233.014,903.878L233.084,903.888L233.155,903.896L233.227,903.904L233.299,903.911L233.371,903.917L233.444,903.922L233.516,903.926L233.589,903.929L233.662,903.931L233.736,903.933L233.816,903.933L249.303,903.933L249.384,903.933L249.458,903.931L249.531,903.929L249.604,903.926L249.676,903.922L249.749,903.917L249.821,903.911L249.893,903.904L249.965,903.896L250.036,903.888L250.106,903.878L250.177,903.868L250.247,903.856L250.317,903.844L250.387,903.831L250.456,903.818L250.525,903.803L250.594,903.788L250.662,903.772L250.731,903.754L250.798,903.737L250.865,903.718L250.933,903.698L250.999,903.678L251.066,903.657L251.131,903.635L251.197,903.612L251.263,903.589L251.327,903.565L251.392,903.54L251.456,903.514L251.52,903.487L251.583,903.46L251.646,903.432L251.709,903.403L251.771,903.374L251.833,903.343L251.894,903.312L251.955,903.281L252.016,903.248L252.076,903.215L252.136,903.181L252.195,903.146L252.254,903.112L252.312,903.075L252.37,903.039L252.428,903.001L252.485,902.963L252.541,902.924L252.597,902.885L252.652,902.845L252.708,902.805L252.762,902.763L252.816,902.721L252.87,902.679L252.923,902.635L252.975,902.592L253.028,902.547L253.079,902.502L253.129,902.457L253.18,902.41L253.23,902.363L253.279,902.316L253.327,902.268L253.376,902.219L253.423,902.17L253.47,902.12L253.516,902.07L253.562,902.019L253.607,901.967L253.652,901.915L253.695,901.863L253.739,901.81L253.781,901.756L253.823,901.702L253.865,901.648L253.905,901.593L253.945,901.537L253.985,901.481L254.023,901.425L254.061,901.368L254.099,901.31L254.135,901.252L254.171,901.194L254.207,901.135L254.241,901.076L254.275,901.016L254.308,900.956L254.341,900.895L254.372,900.834L254.403,900.773L254.434,900.711L254.463,900.649L254.492,900.586L254.52,900.523L254.547,900.46L254.574,900.396L254.6,900.332L254.625,900.267L254.649,900.203L254.672,900.137L254.695,900.071L254.717,900.006L254.738,899.939L254.758,899.873L254.778,899.806L254.797,899.738L254.814,899.67L254.832,899.602L254.848,899.534L254.863,899.465L254.878,899.396L254.892,899.327L254.904,899.257L254.916,899.187L254.928,899.117L254.938,899.046L254.948,898.975L254.956,898.904L254.964,898.833L254.971,898.761L254.977,898.689L254.982,898.617L254.986,898.544L254.989,898.471L254.991,898.398L254.993,898.324L254.993,898.243L254.993,882.756L254.993,882.676L254.991,882.602L254.989,882.529L254.986,882.456L254.982,882.383L254.977,882.311L254.971,882.239L254.964,882.167L254.956,882.096L254.948,882.025L254.938,881.953L254.928,881.883L254.916,881.813L254.904,881.743L254.892,881.673L254.878,881.604L254.863,881.535L254.848,881.466L254.831,881.398L254.814,881.33L254.797,881.262L254.778,881.194L254.758,881.127L254.738,881.061L254.717,880.994L254.695,880.928L254.672,880.863L254.649,880.797L254.625,880.733L254.6,880.668L254.574,880.604L254.547,880.54L254.52,880.477L254.492,880.414L254.463,880.351L254.434,880.289L254.403,880.227L254.372,880.166L254.341,880.105L254.308,880.044L254.275,879.984L254.241,879.924L254.207,879.865L254.171,879.806L254.135,879.748L254.099,879.69L254.061,879.632L254.023,879.575L253.985,879.519L253.945,879.463L253.905,879.407L253.865,879.352L253.823,879.298L253.781,879.244L253.739,879.19L253.696,879.137L253.652,879.085L253.607,879.033L253.562,878.981L253.516,878.93L253.47,878.88L253.423,878.83L253.375,878.781L253.328,878.732L253.279,878.684L253.23,878.637L253.18,878.59L253.13,878.544L253.079,878.498L253.027,878.453L252.975,878.408L252.923,878.365L252.87,878.321L252.816,878.279L252.762,878.237L252.708,878.196L252.653,878.155L252.597,878.115L252.541,878.075L252.485,878.037L252.428,877.999L252.37,877.961L252.312,877.925L252.254,877.889L252.195,877.853L252.136,877.819L252.076,877.785L252.016,877.752L251.955,877.719L251.894,877.688L251.833,877.657L251.771,877.626L251.709,877.597L251.646,877.568L251.583,877.54L251.52,877.513L251.456,877.486L251.392,877.46L251.327,877.435L251.262,877.411L251.197,877.388L251.132,877.365L251.066,877.343L250.999,877.322L250.932,877.302L250.865,877.282L250.798,877.263L250.731,877.246L250.662,877.228L250.594,877.212L250.525,877.197L250.456,877.182L250.387,877.168L250.317,877.156L250.247,877.144L250.177,877.132L250.107,877.122L250.035,877.112L249.964,877.104L249.893,877.096L249.821,877.089L249.749,877.083L249.677,877.078L249.604,877.074L249.531,877.071L249.457,877.069L249.384,877.067L249.303,877.067L233.816,877.067Z" style="fill:rgb(11,164,63);"/>
                    </g>
                    <g transform="matrix(1,0,0,1,148.153,84.4008)">
                        <text x="83.671px" y="80.758px" style="font-family:'SourceSansPro-SemiBold', 'Source Sans Pro', sans-serif;font-weight:600;font-size:21px;fill:rgb(3,73,26);">s</text>
                        <text x="92.722px" y="85.003px" style="font-family:'SourceSansPro-SemiBold', 'Source Sans Pro', sans-serif;font-weight:600;font-size:10.494px;fill:rgb(3,73,26);">1</text>
                    </g>
                </g>
                <g transform="matrix(6.19579,0,0,4.26076,-8045.85,-4449.87)">
                    <g transform="matrix(0.31746,-1.2326e-32,-2.77334e-32,0.296296,506.952,311.809)">
                        <g>
                            <path d="M60,276.875L60,270.125L228.84,270.125L223.8,260L249,273.5L223.8,287L228.84,276.875L60,276.875Z" style="fill:white;"/>
                        </g>
                    </g>
                    <g transform="matrix(1,0,0,1,464.096,330.434)">
                        <g>
                            <g>
                                <text x="81.211px" y="80.758px" style="font-family:'SourceSansPro-SemiBoldItalic', 'Source Sans Pro', sans-serif;font-weight:600;font-style:italic;font-size:21px;fill:white;">W</text>
                                <text x="97.486px" y="85.003px" style="font-family:'SourceSansPro-SemiBoldItalic', 'Source Sans Pro', sans-serif;font-weight:600;font-style:italic;font-size:10.494px;fill:white;">s</text>
                            </g>
                        </g>
                    </g>
                </g>
            </g>
            <g transform="matrix(0.332578,0,0,1,2045.33,3260.76)">
                <g id="output1" serif:id="output" transform="matrix(6.19579,0,0,4.26076,-7523.4,-4774.04)">
                    <g transform="matrix(1.94388e-17,-0.31746,0.296296,1.81429e-17,344.639,472.048)">
                        <g>
                            <path d="M60,276.875L60,270.125L228.84,270.125L223.8,260L249,273.5L223.8,287L228.84,276.875L60,276.875Z" style="fill:white;"/>
                        </g>
                    </g>
                    <g transform="matrix(1,0,0,1,338.511,308.102)">
                        <text x="81.652px" y="80.758px" style="font-family:'SourceSansPro-SemiBold', 'Source Sans Pro', sans-serif;font-weight:600;font-size:21px;fill:rgb(195,87,246);">y</text>
                        <text x="92.047px" y="85.003px" style="font-family:'SourceSansPro-SemiBold', 'Source Sans Pro', sans-serif;font-weight:600;font-size:10.494px;fill:rgb(195,87,246);">2</text>
                    </g>
                    <g transform="matrix(1,0,0,1,318.365,346.986)">
                        <g>
                            <g>
                                <text x="81.211px" y="80.758px" style="font-family:'SourceSansPro-SemiBoldItalic', 'Source Sans Pro', sans-serif;font-weight:600;font-style:italic;font-size:21px;fill:white;">W</text>
                                <text x="97.486px" y="85.003px" style="font-family:'SourceSansPro-SemiBoldItalic', 'Source Sans Pro', sans-serif;font-weight:600;font-style:italic;font-size:10.494px;fill:white;">y</text>
                            </g>
                        </g>
                    </g>
                </g>
                <g id="input1" serif:id="input" transform="matrix(6.19579,0,0,4.26076,-7523.4,-4424.66)">
                    <g transform="matrix(1.94388e-17,-0.31746,0.296296,1.81429e-17,344.639,482.048)">
                        <g>
                            <path d="M60,276.875L60,270.125L228.84,270.125L223.8,260L249,273.5L223.8,287L228.84,276.875L60,276.875Z" style="fill:white;"/>
                        </g>
                    </g>
                    <g transform="matrix(1,0,0,1,318.764,356.986)">
                        <g>
                            <g>
                                <text x="81.211px" y="80.758px" style="font-family:'SourceSansPro-SemiBoldItalic', 'Source Sans Pro', sans-serif;font-weight:600;font-style:italic;font-size:21px;fill:white;">W</text>
                                <text x="97.486px" y="85.003px" style="font-family:'SourceSansPro-SemiBoldItalic', 'Source Sans Pro', sans-serif;font-weight:600;font-style:italic;font-size:10.494px;fill:white;">x</text>
                            </g>
                        </g>
                    </g>
                    <g transform="matrix(1,0,0,1,338.511,399.934)">
                        <text x="81.211px" y="80.758px" style="font-family:'SourceSansPro-SemiBold', 'Source Sans Pro', sans-serif;font-weight:600;font-size:21px;fill:rgb(33,176,236);">x</text>
                        <text x="91.312px" y="85.003px" style="font-family:'SourceSansPro-SemiBold', 'Source Sans Pro', sans-serif;font-weight:600;font-size:10.494px;fill:rgb(33,176,236);">2</text>
                    </g>
                </g>
                <g transform="matrix(6.19579,0,0,4.26076,-8045.85,-4449.87)">
                    <g transform="matrix(0.31746,-1.2326e-32,-2.77334e-32,0.296296,506.952,311.809)">
                        <g>
                            <path d="M60,276.875L60,270.125L228.84,270.125L223.8,260L249,273.5L223.8,287L228.84,276.875L60,276.875Z" style="fill:white;"/>
                        </g>
                    </g>
                    <g transform="matrix(1,0,0,1,464.096,329.822)">
                        <g>
                            <g>
                                <text x="81.211px" y="80.758px" style="font-family:'SourceSansPro-SemiBoldItalic', 'Source Sans Pro', sans-serif;font-weight:600;font-style:italic;font-size:21px;fill:white;">W</text>
                                <text x="97.486px" y="85.003px" style="font-family:'SourceSansPro-SemiBoldItalic', 'Source Sans Pro', sans-serif;font-weight:600;font-style:italic;font-size:10.494px;fill:white;">s</text>
                            </g>
                        </g>
                    </g>
                </g>
                <g id="tanh1" serif:id="tanh" transform="matrix(6.19579,0,0,4.26076,-6366.79,-3465.99)">
                    <g transform="matrix(0.967742,0,0,0.967742,5.23226,-699.774)">
                        <path d="M257.06,882.75C257.06,878.473 253.587,875 249.31,875L233.81,875C229.533,875 226.06,878.473 226.06,882.75L226.06,898.25C226.06,902.527 229.533,906 233.81,906L249.31,906C253.587,906 257.06,902.527 257.06,898.25L257.06,882.75Z" style="fill:rgb(24,193,84);"/>
                        <path d="M249.41,875.001L249.51,875.003L249.609,875.006L249.709,875.01L249.807,875.016L249.906,875.023L250.004,875.031L250.102,875.04L250.199,875.051L250.296,875.062L250.393,875.075L250.49,875.089L250.586,875.105L250.681,875.121L250.776,875.139L250.871,875.158L250.965,875.178L251.059,875.199L251.153,875.221L251.246,875.244L251.338,875.269L251.431,875.294L251.522,875.321L251.614,875.349L251.704,875.378L251.795,875.407L251.884,875.439L251.974,875.471L252.062,875.504L252.151,875.538L252.238,875.573L252.325,875.609L252.412,875.647L252.498,875.685L252.584,875.724L252.669,875.765L252.753,875.806L252.837,875.848L252.92,875.892L253.003,875.936L253.085,875.981L253.166,876.027L253.247,876.075L253.327,876.123L253.407,876.172L253.486,876.222L253.564,876.273L253.642,876.324L253.719,876.377L253.795,876.431L253.871,876.485L253.946,876.54L254.02,876.597L254.094,876.654L254.166,876.712L254.239,876.771L254.31,876.83L254.381,876.891L254.451,876.952L254.52,877.014L254.588,877.077L254.656,877.141L254.723,877.206L254.789,877.271L254.854,877.337L254.919,877.404L254.983,877.472L255.046,877.54L255.108,877.609L255.169,877.679L255.23,877.75L255.289,877.821L255.348,877.894L255.406,877.966L255.463,878.04L255.52,878.114L255.575,878.189L255.629,878.265L255.683,878.341L255.736,878.418L255.787,878.496L255.838,878.574L255.888,878.653L255.937,878.733L255.985,878.813L256.033,878.894L256.079,878.975L256.124,879.057L256.168,879.14L256.212,879.223L256.254,879.307L256.295,879.391L256.336,879.476L256.375,879.562L256.413,879.648L256.451,879.735L256.487,879.822L256.522,879.909L256.556,879.998L256.589,880.086L256.621,880.176L256.653,880.265L256.682,880.356L256.711,880.446L256.739,880.538L256.766,880.629L256.791,880.722L256.816,880.814L256.839,880.907L256.861,881.001L256.882,881.095L256.902,881.189L256.921,881.284L256.939,881.379L256.955,881.474L256.971,881.57L256.985,881.667L256.998,881.764L257.009,881.861L257.02,881.958L257.029,882.056L257.037,882.154L257.044,882.253L257.05,882.351L257.054,882.451L257.057,882.55L257.059,882.65L257.06,882.75L257.06,898.25L257.059,898.35L257.057,898.45L257.054,898.549L257.05,898.649L257.044,898.747L257.037,898.846L257.029,898.944L257.02,899.042L257.009,899.139L256.998,899.236L256.985,899.333L256.971,899.43L256.955,899.526L256.939,899.621L256.921,899.716L256.902,899.811L256.882,899.905L256.861,899.999L256.839,900.093L256.816,900.186L256.791,900.278L256.766,900.371L256.739,900.462L256.711,900.554L256.682,900.644L256.653,900.735L256.621,900.824L256.589,900.914L256.556,901.002L256.522,901.091L256.487,901.178L256.451,901.265L256.413,901.352L256.375,901.438L256.336,901.524L256.295,901.609L256.254,901.693L256.212,901.777L256.168,901.86L256.124,901.943L256.079,902.025L256.033,902.106L255.985,902.187L255.937,902.267L255.888,902.347L255.838,902.426L255.787,902.504L255.736,902.582L255.683,902.659L255.629,902.735L255.575,902.811L255.52,902.886L255.463,902.96L255.406,903.034L255.348,903.106L255.289,903.179L255.23,903.25L255.169,903.321L255.108,903.391L255.046,903.46L254.983,903.528L254.919,903.596L254.854,903.663L254.789,903.729L254.723,903.794L254.656,903.859L254.588,903.923L254.52,903.986L254.451,904.048L254.381,904.109L254.31,904.17L254.239,904.229L254.166,904.288L254.094,904.346L254.02,904.403L253.946,904.46L253.871,904.515L253.795,904.569L253.719,904.623L253.642,904.676L253.564,904.727L253.486,904.778L253.407,904.828L253.327,904.877L253.247,904.925L253.166,904.973L253.085,905.019L253.003,905.064L252.92,905.108L252.837,905.152L252.753,905.194L252.669,905.235L252.584,905.276L252.498,905.315L252.412,905.353L252.325,905.391L252.238,905.427L252.151,905.462L252.062,905.496L251.974,905.529L251.884,905.561L251.795,905.593L251.704,905.622L251.614,905.651L251.522,905.679L251.431,905.706L251.338,905.731L251.246,905.756L251.153,905.779L251.059,905.801L250.965,905.822L250.871,905.842L250.776,905.861L250.681,905.879L250.586,905.895L250.49,905.911L250.393,905.925L250.296,905.938L250.199,905.949L250.102,905.96L250.004,905.969L249.906,905.977L249.807,905.984L249.709,905.99L249.609,905.994L249.51,905.997L249.41,905.999L249.31,906L233.81,906L233.71,905.999L233.61,905.997L233.511,905.994L233.411,905.99L233.313,905.984L233.214,905.977L233.116,905.969L233.018,905.96L232.921,905.949L232.824,905.938L232.727,905.925L232.63,905.911L232.534,905.895L232.439,905.879L232.344,905.861L232.249,905.842L232.155,905.822L232.061,905.801L231.967,905.779L231.874,905.756L231.782,905.731L231.689,905.706L231.598,905.679L231.506,905.651L231.416,905.622L231.325,905.593L231.236,905.561L231.146,905.529L231.058,905.496L230.969,905.462L230.882,905.427L230.795,905.391L230.708,905.353L230.622,905.315L230.536,905.276L230.451,905.235L230.367,905.194L230.283,905.152L230.2,905.108L230.117,905.064L230.035,905.019L229.954,904.973L229.873,904.925L229.793,904.877L229.713,904.828L229.634,904.778L229.556,904.727L229.478,904.676L229.401,904.623L229.325,904.569L229.249,904.515L229.174,904.46L229.1,904.403L229.026,904.346L228.954,904.288L228.881,904.229L228.81,904.17L228.739,904.109L228.669,904.048L228.6,903.986L228.532,903.923L228.464,903.859L228.397,903.794L228.331,903.729L228.266,903.663L228.201,903.596L228.137,903.528L228.074,903.46L228.012,903.391L227.951,903.321L227.89,903.25L227.831,903.179L227.772,903.106L227.714,903.034L227.657,902.96L227.6,902.886L227.545,902.811L227.491,902.735L227.437,902.659L227.384,902.582L227.333,902.504L227.282,902.426L227.232,902.347L227.183,902.267L227.135,902.187L227.087,902.106L227.041,902.025L226.996,901.943L226.952,901.86L226.908,901.777L226.866,901.693L226.825,901.609L226.784,901.524L226.745,901.438L226.707,901.352L226.669,901.265L226.633,901.178L226.598,901.091L226.564,901.002L226.531,900.914L226.499,900.824L226.467,900.735L226.438,900.644L226.409,900.554L226.381,900.462L226.354,900.371L226.329,900.278L226.304,900.186L226.281,900.093L226.259,899.999L226.238,899.905L226.218,899.811L226.199,899.716L226.181,899.621L226.165,899.526L226.149,899.43L226.135,899.333L226.122,899.236L226.111,899.139L226.1,899.042L226.091,898.944L226.083,898.846L226.076,898.747L226.07,898.649L226.066,898.549L226.063,898.45L226.061,898.35L226.06,898.25L226.06,882.75L226.061,882.65L226.063,882.55L226.066,882.451L226.07,882.351L226.076,882.253L226.083,882.154L226.091,882.056L226.1,881.958L226.111,881.861L226.122,881.764L226.135,881.667L226.149,881.57L226.165,881.474L226.181,881.379L226.199,881.284L226.218,881.189L226.238,881.095L226.259,881.001L226.281,880.907L226.304,880.814L226.329,880.722L226.354,880.629L226.381,880.538L226.409,880.446L226.438,880.356L226.467,880.265L226.499,880.176L226.531,880.086L226.564,879.998L226.598,879.909L226.633,879.822L226.669,879.735L226.707,879.648L226.745,879.562L226.784,879.476L226.825,879.391L226.866,879.307L226.908,879.223L226.952,879.14L226.996,879.057L227.041,878.975L227.087,878.894L227.135,878.813L227.183,878.733L227.232,878.653L227.282,878.574L227.333,878.496L227.384,878.418L227.437,878.341L227.491,878.265L227.545,878.189L227.6,878.114L227.657,878.04L227.714,877.966L227.772,877.894L227.831,877.821L227.89,877.75L227.951,877.679L228.012,877.609L228.074,877.54L228.137,877.472L228.201,877.404L228.266,877.337L228.331,877.271L228.397,877.206L228.464,877.141L228.532,877.077L228.6,877.014L228.669,876.952L228.739,876.891L228.81,876.83L228.881,876.771L228.954,876.712L229.026,876.654L229.1,876.597L229.174,876.54L229.249,876.485L229.325,876.431L229.401,876.377L229.478,876.324L229.556,876.273L229.634,876.222L229.713,876.172L229.793,876.123L229.873,876.075L229.954,876.027L230.035,875.981L230.117,875.936L230.2,875.892L230.283,875.848L230.367,875.806L230.451,875.765L230.536,875.724L230.622,875.685L230.708,875.647L230.795,875.609L230.882,875.573L230.969,875.538L231.058,875.504L231.146,875.471L231.236,875.439L231.325,875.407L231.416,875.378L231.506,875.349L231.598,875.321L231.689,875.294L231.782,875.269L231.874,875.244L231.967,875.221L232.061,875.199L232.155,875.178L232.249,875.158L232.344,875.139L232.439,875.121L232.534,875.105L232.63,875.089L232.727,875.075L232.824,875.062L232.921,875.051L233.018,875.04L233.116,875.031L233.214,875.023L233.313,875.016L233.411,875.01L233.511,875.006L233.61,875.003L233.71,875.001L233.81,875L249.31,875L249.41,875.001ZM233.817,877.067L233.736,877.067L233.663,877.069L233.589,877.071L233.516,877.074L233.443,877.078L233.371,877.083L233.299,877.089L233.227,877.096L233.156,877.104L233.085,877.112L233.013,877.122L232.943,877.132L232.873,877.144L232.803,877.156L232.733,877.168L232.664,877.182L232.595,877.197L232.526,877.212L232.458,877.228L232.39,877.246L232.322,877.263L232.255,877.282L232.188,877.302L232.121,877.322L232.054,877.343L231.988,877.365L231.923,877.388L231.858,877.411L231.793,877.435L231.728,877.46L231.664,877.486L231.6,877.513L231.537,877.54L231.474,877.568L231.411,877.597L231.349,877.626L231.287,877.657L231.226,877.688L231.165,877.719L231.104,877.752L231.044,877.785L230.985,877.819L230.925,877.853L230.866,877.889L230.807,877.925L230.75,877.961L230.692,877.999L230.635,878.037L230.579,878.075L230.523,878.115L230.467,878.155L230.412,878.196L230.358,878.237L230.304,878.279L230.25,878.321L230.197,878.365L230.145,878.408L230.093,878.453L230.041,878.498L229.99,878.544L229.94,878.59L229.89,878.637L229.841,878.685L229.792,878.732L229.745,878.781L229.697,878.83L229.65,878.88L229.604,878.93L229.558,878.981L229.513,879.032L229.468,879.085L229.424,879.137L229.381,879.19L229.339,879.244L229.297,879.298L229.255,879.352L229.215,879.407L229.175,879.463L229.135,879.519L229.097,879.575L229.059,879.632L229.021,879.69L228.985,879.748L228.949,879.806L228.913,879.865L228.879,879.924L228.845,879.984L228.812,880.044L228.779,880.105L228.748,880.166L228.717,880.227L228.686,880.289L228.657,880.351L228.628,880.414L228.6,880.477L228.573,880.54L228.546,880.604L228.52,880.668L228.495,880.732L228.471,880.798L228.448,880.863L228.425,880.928L228.403,880.994L228.382,881.061L228.362,881.127L228.342,881.194L228.323,881.262L228.306,881.329L228.289,881.398L228.272,881.466L228.257,881.535L228.242,881.604L228.228,881.673L228.216,881.743L228.203,881.813L228.192,881.883L228.182,881.953L228.172,882.024L228.164,882.096L228.156,882.167L228.149,882.239L228.143,882.311L228.138,882.384L228.134,882.456L228.131,882.529L228.129,882.603L228.127,882.676L228.127,882.756L228.127,898.243L228.127,898.324L228.129,898.397L228.131,898.471L228.134,898.544L228.138,898.616L228.143,898.689L228.149,898.761L228.156,898.833L228.164,898.904L228.172,898.976L228.182,899.046L228.192,899.117L228.203,899.187L228.216,899.257L228.229,899.327L228.242,899.396L228.257,899.465L228.272,899.534L228.288,899.602L228.306,899.671L228.323,899.738L228.342,899.805L228.362,899.873L228.382,899.939L228.403,900.006L228.425,900.071L228.448,900.137L228.471,900.202L228.495,900.267L228.52,900.332L228.546,900.396L228.573,900.46L228.6,900.523L228.628,900.586L228.657,900.649L228.686,900.711L228.717,900.773L228.748,900.834L228.779,900.895L228.812,900.956L228.845,901.016L228.879,901.076L228.913,901.135L228.949,901.194L228.985,901.252L229.021,901.31L229.059,901.368L229.097,901.425L229.135,901.481L229.175,901.537L229.215,901.593L229.255,901.648L229.297,901.702L229.339,901.756L229.381,901.81L229.425,901.863L229.468,901.915L229.513,901.967L229.558,902.019L229.604,902.07L229.65,902.12L229.697,902.17L229.744,902.219L229.793,902.268L229.841,902.316L229.89,902.363L229.94,902.41L229.991,902.457L230.041,902.502L230.092,902.547L230.145,902.592L230.197,902.635L230.25,902.679L230.304,902.721L230.358,902.763L230.412,902.805L230.468,902.845L230.523,902.885L230.579,902.924L230.635,902.963L230.692,903.001L230.75,903.039L230.808,903.075L230.866,903.111L230.925,903.146L230.984,903.181L231.044,903.215L231.104,903.248L231.165,903.281L231.226,903.312L231.287,903.343L231.349,903.374L231.411,903.403L231.474,903.432L231.537,903.46L231.6,903.487L231.664,903.514L231.728,903.54L231.793,903.565L231.857,903.589L231.923,903.612L231.989,903.635L232.054,903.657L232.121,903.678L232.187,903.698L232.255,903.718L232.322,903.737L232.39,903.754L232.458,903.772L232.526,903.788L232.595,903.803L232.664,903.818L232.733,903.831L232.803,903.844L232.873,903.856L232.943,903.868L233.014,903.878L233.084,903.888L233.155,903.896L233.227,903.904L233.299,903.911L233.371,903.917L233.444,903.922L233.516,903.926L233.589,903.929L233.662,903.931L233.736,903.933L233.817,903.933L249.303,903.933L249.384,903.933L249.458,903.931L249.531,903.929L249.604,903.926L249.676,903.922L249.749,903.917L249.821,903.911L249.893,903.904L249.965,903.896L250.036,903.888L250.106,903.878L250.177,903.868L250.247,903.856L250.317,903.844L250.387,903.832L250.456,903.818L250.525,903.803L250.594,903.788L250.662,903.772L250.731,903.754L250.798,903.737L250.865,903.718L250.933,903.698L250.999,903.678L251.066,903.657L251.131,903.635L251.197,903.612L251.263,903.589L251.327,903.565L251.392,903.54L251.456,903.514L251.52,903.487L251.583,903.46L251.646,903.432L251.709,903.403L251.771,903.374L251.833,903.343L251.894,903.312L251.955,903.281L252.016,903.248L252.076,903.215L252.136,903.181L252.195,903.147L252.254,903.111L252.312,903.075L252.37,903.039L252.428,903.001L252.485,902.963L252.541,902.924L252.597,902.885L252.652,902.846L252.707,902.805L252.762,902.763L252.816,902.721L252.87,902.679L252.923,902.635L252.975,902.592L253.028,902.547L253.079,902.502L253.129,902.457L253.18,902.41L253.23,902.363L253.279,902.316L253.327,902.268L253.376,902.219L253.423,902.17L253.47,902.12L253.516,902.07L253.562,902.019L253.607,901.967L253.652,901.915L253.695,901.863L253.739,901.81L253.781,901.756L253.823,901.702L253.865,901.648L253.905,901.593L253.945,901.537L253.985,901.481L254.023,901.425L254.061,901.368L254.099,901.31L254.135,901.252L254.171,901.194L254.207,901.135L254.241,901.076L254.275,901.016L254.308,900.956L254.341,900.895L254.372,900.834L254.403,900.773L254.434,900.711L254.463,900.649L254.492,900.586L254.52,900.523L254.547,900.46L254.574,900.396L254.6,900.332L254.625,900.267L254.649,900.203L254.672,900.137L254.695,900.072L254.717,900.006L254.738,899.939L254.758,899.872L254.778,899.805L254.797,899.738L254.814,899.671L254.832,899.602L254.848,899.534L254.863,899.465L254.878,899.396L254.891,899.327L254.904,899.257L254.916,899.187L254.928,899.117L254.938,899.046L254.948,898.975L254.956,898.904L254.964,898.833L254.971,898.761L254.977,898.689L254.982,898.617L254.986,898.544L254.989,898.471L254.991,898.397L254.993,898.324L254.993,898.243L254.993,882.756L254.993,882.676L254.991,882.603L254.989,882.529L254.986,882.456L254.982,882.383L254.977,882.311L254.971,882.239L254.964,882.167L254.956,882.096L254.948,882.025L254.938,881.953L254.928,881.883L254.916,881.813L254.904,881.743L254.892,881.673L254.878,881.604L254.863,881.535L254.848,881.466L254.832,881.398L254.814,881.329L254.797,881.262L254.778,881.194L254.758,881.128L254.738,881.061L254.717,880.994L254.695,880.928L254.672,880.863L254.649,880.797L254.625,880.733L254.6,880.668L254.574,880.604L254.547,880.54L254.52,880.477L254.492,880.414L254.463,880.351L254.434,880.289L254.403,880.227L254.372,880.166L254.341,880.105L254.308,880.044L254.275,879.984L254.241,879.924L254.207,879.865L254.171,879.806L254.135,879.748L254.099,879.69L254.061,879.632L254.023,879.575L253.985,879.519L253.945,879.463L253.905,879.407L253.865,879.352L253.823,879.298L253.781,879.244L253.739,879.19L253.696,879.137L253.652,879.085L253.607,879.033L253.562,878.981L253.516,878.93L253.47,878.88L253.423,878.83L253.375,878.781L253.328,878.732L253.279,878.685L253.23,878.637L253.18,878.59L253.13,878.544L253.079,878.498L253.027,878.453L252.975,878.408L252.923,878.365L252.87,878.321L252.816,878.279L252.762,878.237L252.708,878.195L252.653,878.155L252.597,878.115L252.541,878.075L252.485,878.037L252.428,877.999L252.37,877.961L252.313,877.925L252.254,877.889L252.195,877.853L252.135,877.819L252.076,877.785L252.016,877.752L251.955,877.719L251.894,877.688L251.833,877.657L251.771,877.626L251.709,877.597L251.646,877.568L251.583,877.54L251.52,877.513L251.456,877.486L251.392,877.46L251.327,877.435L251.262,877.411L251.197,877.388L251.132,877.365L251.066,877.343L250.999,877.322L250.932,877.302L250.865,877.282L250.798,877.263L250.731,877.246L250.662,877.228L250.594,877.212L250.525,877.197L250.456,877.182L250.387,877.168L250.317,877.156L250.247,877.144L250.177,877.132L250.107,877.122L250.035,877.112L249.964,877.104L249.893,877.096L249.821,877.089L249.749,877.083L249.677,877.078L249.604,877.074L249.531,877.071L249.457,877.069L249.384,877.067L249.303,877.067L233.817,877.067Z" style="fill:rgb(11,164,63);"/>
                    </g>
                    <g transform="matrix(1,0,0,1,148.095,84.4008)">
                        <text x="83.671px" y="80.758px" style="font-family:'SourceSansPro-SemiBold', 'Source Sans Pro', sans-serif;font-weight:600;font-size:21px;fill:rgb(3,73,26);">s</text>
                        <text x="92.722px" y="85.003px" style="font-family:'SourceSansPro-SemiBold', 'Source Sans Pro', sans-serif;font-weight:600;font-size:10.494px;fill:rgb(3,73,26);">2</text>
                    </g>
                </g>
            </g>
            <g transform="matrix(0.332578,0,0,1,2234.91,3260.76)">
                <g id="output2" serif:id="output" transform="matrix(6.19579,0,0,4.26076,-7523.4,-4774.04)">
                    <g transform="matrix(1.94388e-17,-0.31746,0.296296,1.81429e-17,344.639,472.048)">
                        <g>
                            <path d="M60,276.875L60,270.125L228.84,270.125L223.8,260L249,273.5L223.8,287L228.84,276.875L60,276.875Z" style="fill:white;"/>
                        </g>
                    </g>
                    <g transform="matrix(1,0,0,1,338.511,308.102)">
                        <text x="81.652px" y="80.758px" style="font-family:'SourceSansPro-SemiBold', 'Source Sans Pro', sans-serif;font-weight:600;font-size:21px;fill:rgb(195,87,246);">y</text>
                        <text x="92.047px" y="85.003px" style="font-family:'SourceSansPro-SemiBold', 'Source Sans Pro', sans-serif;font-weight:600;font-size:10.494px;fill:rgb(195,87,246);">3</text>
                    </g>
                    <g transform="matrix(1,0,0,1,317.105,346.986)">
                        <g>
                            <g>
                                <text x="81.211px" y="80.758px" style="font-family:'SourceSansPro-SemiBoldItalic', 'Source Sans Pro', sans-serif;font-weight:600;font-style:italic;font-size:21px;fill:white;">W</text>
                                <text x="97.486px" y="85.003px" style="font-family:'SourceSansPro-SemiBoldItalic', 'Source Sans Pro', sans-serif;font-weight:600;font-style:italic;font-size:10.494px;fill:white;">y</text>
                            </g>
                        </g>
                    </g>
                </g>
                <g id="input2" serif:id="input" transform="matrix(6.19579,0,0,4.26076,-7523.4,-4424.66)">
                    <g transform="matrix(1.94388e-17,-0.31746,0.296296,1.81429e-17,344.639,482.048)">
                        <g>
                            <path d="M60,276.875L60,270.125L228.84,270.125L223.8,260L249,273.5L223.8,287L228.84,276.875L60,276.875Z" style="fill:white;"/>
                        </g>
                    </g>
                    <g transform="matrix(1,0,0,1,338.511,399.934)">
                        <text x="81.211px" y="80.758px" style="font-family:'SourceSansPro-SemiBold', 'Source Sans Pro', sans-serif;font-weight:600;font-size:21px;fill:rgb(33,176,236);">x</text>
                        <text x="91.312px" y="85.003px" style="font-family:'SourceSansPro-SemiBold', 'Source Sans Pro', sans-serif;font-weight:600;font-size:10.494px;fill:rgb(33,176,236);">3</text>
                    </g>
                    <g transform="matrix(1,0,0,1,317.273,356.986)">
                        <g>
                            <g>
                                <text x="81.211px" y="80.758px" style="font-family:'SourceSansPro-SemiBoldItalic', 'Source Sans Pro', sans-serif;font-weight:600;font-style:italic;font-size:21px;fill:white;">W</text>
                                <text x="97.486px" y="85.003px" style="font-family:'SourceSansPro-SemiBoldItalic', 'Source Sans Pro', sans-serif;font-weight:600;font-style:italic;font-size:10.494px;fill:white;">x</text>
                            </g>
                        </g>
                    </g>
                </g>
                <g transform="matrix(6.19579,0,0,4.26076,-8044.21,-4449.87)">
                    <g transform="matrix(0.31746,-1.2326e-32,-2.77334e-32,0.296296,506.688,311.809)">
                        <g>
                            <path d="M60,276.875L60,270.125L228.84,270.125L223.8,260L249,273.5L223.8,287L228.84,276.875L60,276.875Z" style="fill:white;"/>
                        </g>
                    </g>
                    <g transform="matrix(1,0,0,1,463.831,329.822)">
                        <g>
                            <g>
                                <text x="81.211px" y="80.758px" style="font-family:'SourceSansPro-SemiBoldItalic', 'Source Sans Pro', sans-serif;font-weight:600;font-style:italic;font-size:21px;fill:white;">W</text>
                                <text x="97.486px" y="85.003px" style="font-family:'SourceSansPro-SemiBoldItalic', 'Source Sans Pro', sans-serif;font-weight:600;font-style:italic;font-size:10.494px;fill:white;">s</text>
                            </g>
                        </g>
                    </g>
                </g>
                <g id="tanh2" serif:id="tanh" transform="matrix(6.19579,0,0,4.26076,-6366.79,-3465.99)">
                    <g transform="matrix(0.967742,0,0,0.967742,5.23226,-699.774)">
                        <path d="M257.06,882.75C257.06,878.473 253.587,875 249.31,875L233.81,875C229.533,875 226.06,878.473 226.06,882.75L226.06,898.25C226.06,902.527 229.533,906 233.81,906L249.31,906C253.587,906 257.06,902.527 257.06,898.25L257.06,882.75Z" style="fill:rgb(24,193,84);"/>
                        <path d="M249.41,875.001L249.51,875.003L249.609,875.006L249.709,875.01L249.807,875.016L249.906,875.023L250.004,875.031L250.102,875.04L250.199,875.051L250.296,875.062L250.393,875.075L250.49,875.089L250.586,875.105L250.681,875.121L250.776,875.139L250.871,875.158L250.965,875.178L251.059,875.199L251.153,875.221L251.246,875.244L251.338,875.269L251.431,875.294L251.522,875.321L251.614,875.349L251.704,875.378L251.795,875.407L251.884,875.439L251.974,875.471L252.062,875.504L252.151,875.538L252.238,875.573L252.325,875.609L252.412,875.647L252.498,875.685L252.584,875.724L252.669,875.765L252.753,875.806L252.837,875.848L252.92,875.892L253.003,875.936L253.085,875.981L253.166,876.027L253.247,876.075L253.327,876.123L253.407,876.172L253.486,876.222L253.564,876.273L253.642,876.324L253.719,876.377L253.795,876.431L253.871,876.485L253.946,876.54L254.02,876.597L254.094,876.654L254.166,876.712L254.239,876.771L254.31,876.83L254.381,876.891L254.451,876.952L254.52,877.014L254.588,877.077L254.656,877.141L254.723,877.206L254.789,877.271L254.854,877.337L254.919,877.404L254.983,877.472L255.046,877.54L255.108,877.609L255.169,877.679L255.23,877.75L255.289,877.821L255.348,877.894L255.406,877.966L255.463,878.04L255.52,878.114L255.575,878.189L255.629,878.265L255.683,878.341L255.736,878.418L255.787,878.496L255.838,878.574L255.888,878.653L255.937,878.733L255.985,878.813L256.033,878.894L256.079,878.975L256.124,879.057L256.168,879.14L256.212,879.223L256.254,879.307L256.295,879.391L256.336,879.476L256.375,879.562L256.413,879.648L256.451,879.735L256.487,879.822L256.522,879.909L256.556,879.998L256.589,880.086L256.621,880.176L256.653,880.265L256.682,880.356L256.711,880.446L256.739,880.538L256.766,880.629L256.791,880.722L256.816,880.814L256.839,880.907L256.861,881.001L256.882,881.095L256.902,881.189L256.921,881.284L256.939,881.379L256.955,881.474L256.971,881.57L256.985,881.667L256.998,881.764L257.009,881.861L257.02,881.958L257.029,882.056L257.037,882.154L257.044,882.253L257.05,882.351L257.054,882.451L257.057,882.55L257.059,882.65L257.06,882.75L257.06,898.25L257.059,898.35L257.057,898.45L257.054,898.549L257.05,898.649L257.044,898.747L257.037,898.846L257.029,898.944L257.02,899.042L257.009,899.139L256.998,899.236L256.985,899.333L256.971,899.43L256.955,899.526L256.939,899.621L256.921,899.716L256.902,899.811L256.882,899.905L256.861,899.999L256.839,900.093L256.816,900.186L256.791,900.278L256.766,900.371L256.739,900.462L256.711,900.554L256.682,900.644L256.653,900.735L256.621,900.824L256.589,900.914L256.556,901.002L256.522,901.091L256.487,901.178L256.451,901.265L256.413,901.352L256.375,901.438L256.336,901.524L256.295,901.609L256.254,901.693L256.212,901.777L256.168,901.86L256.124,901.943L256.079,902.025L256.033,902.106L255.985,902.187L255.937,902.267L255.888,902.347L255.838,902.426L255.787,902.504L255.736,902.582L255.683,902.659L255.629,902.735L255.575,902.811L255.52,902.886L255.463,902.96L255.406,903.034L255.348,903.106L255.289,903.179L255.23,903.25L255.169,903.321L255.108,903.391L255.046,903.46L254.983,903.528L254.919,903.596L254.854,903.663L254.789,903.729L254.723,903.794L254.656,903.859L254.588,903.923L254.52,903.986L254.451,904.048L254.381,904.109L254.31,904.17L254.239,904.229L254.166,904.288L254.094,904.346L254.02,904.403L253.946,904.46L253.871,904.515L253.795,904.569L253.719,904.623L253.642,904.676L253.564,904.727L253.486,904.778L253.407,904.828L253.327,904.877L253.247,904.925L253.166,904.973L253.085,905.019L253.003,905.064L252.92,905.108L252.837,905.152L252.753,905.194L252.669,905.235L252.584,905.276L252.498,905.315L252.412,905.353L252.325,905.391L252.238,905.427L252.151,905.462L252.062,905.496L251.974,905.529L251.884,905.561L251.795,905.593L251.704,905.622L251.614,905.651L251.522,905.679L251.431,905.706L251.338,905.731L251.246,905.756L251.153,905.779L251.059,905.801L250.965,905.822L250.871,905.842L250.776,905.861L250.681,905.879L250.586,905.895L250.49,905.911L250.393,905.925L250.296,905.938L250.199,905.949L250.102,905.96L250.004,905.969L249.906,905.977L249.807,905.984L249.709,905.99L249.609,905.994L249.51,905.997L249.41,905.999L249.31,906L233.81,906L233.71,905.999L233.61,905.997L233.511,905.994L233.411,905.99L233.313,905.984L233.214,905.977L233.116,905.969L233.018,905.96L232.921,905.949L232.824,905.938L232.727,905.925L232.63,905.911L232.534,905.895L232.439,905.879L232.344,905.861L232.249,905.842L232.155,905.822L232.061,905.801L231.967,905.779L231.874,905.756L231.782,905.731L231.689,905.706L231.598,905.679L231.506,905.651L231.416,905.622L231.325,905.593L231.236,905.561L231.146,905.529L231.058,905.496L230.969,905.462L230.882,905.427L230.795,905.391L230.708,905.353L230.622,905.315L230.536,905.276L230.451,905.235L230.367,905.194L230.283,905.152L230.2,905.108L230.117,905.064L230.035,905.019L229.954,904.973L229.873,904.925L229.793,904.877L229.713,904.828L229.634,904.778L229.556,904.727L229.478,904.676L229.401,904.623L229.325,904.569L229.249,904.515L229.174,904.46L229.1,904.403L229.026,904.346L228.954,904.288L228.881,904.229L228.81,904.17L228.739,904.109L228.669,904.048L228.6,903.986L228.532,903.923L228.464,903.859L228.397,903.794L228.331,903.729L228.266,903.663L228.201,903.596L228.137,903.528L228.074,903.46L228.012,903.391L227.951,903.321L227.89,903.25L227.831,903.179L227.772,903.106L227.714,903.034L227.657,902.96L227.6,902.886L227.545,902.811L227.491,902.735L227.437,902.659L227.384,902.582L227.333,902.504L227.282,902.426L227.232,902.347L227.183,902.267L227.135,902.187L227.087,902.106L227.041,902.025L226.996,901.943L226.952,901.86L226.908,901.777L226.866,901.693L226.825,901.609L226.784,901.524L226.745,901.438L226.707,901.352L226.669,901.265L226.633,901.178L226.598,901.091L226.564,901.002L226.531,900.914L226.499,900.824L226.467,900.735L226.438,900.644L226.409,900.554L226.381,900.462L226.354,900.371L226.329,900.278L226.304,900.186L226.281,900.093L226.259,899.999L226.238,899.905L226.218,899.811L226.199,899.716L226.181,899.621L226.165,899.526L226.149,899.43L226.135,899.333L226.122,899.236L226.111,899.139L226.1,899.042L226.091,898.944L226.083,898.846L226.076,898.747L226.07,898.649L226.066,898.549L226.063,898.45L226.061,898.35L226.06,898.25L226.06,882.75L226.061,882.65L226.063,882.55L226.066,882.451L226.07,882.351L226.076,882.253L226.083,882.154L226.091,882.056L226.1,881.958L226.111,881.861L226.122,881.764L226.135,881.667L226.149,881.57L226.165,881.474L226.181,881.379L226.199,881.284L226.218,881.189L226.238,881.095L226.259,881.001L226.281,880.907L226.304,880.814L226.329,880.722L226.354,880.629L226.381,880.538L226.409,880.446L226.438,880.356L226.467,880.265L226.499,880.176L226.531,880.086L226.564,879.998L226.598,879.909L226.633,879.822L226.669,879.735L226.707,879.648L226.745,879.562L226.784,879.476L226.825,879.391L226.866,879.307L226.908,879.223L226.952,879.14L226.996,879.057L227.041,878.975L227.087,878.894L227.135,878.813L227.183,878.733L227.232,878.653L227.282,878.574L227.333,878.496L227.384,878.418L227.437,878.341L227.491,878.265L227.545,878.189L227.6,878.114L227.657,878.04L227.714,877.966L227.772,877.894L227.831,877.821L227.89,877.75L227.951,877.679L228.012,877.609L228.074,877.54L228.137,877.472L228.201,877.404L228.266,877.337L228.331,877.271L228.397,877.206L228.464,877.141L228.532,877.077L228.6,877.014L228.669,876.952L228.739,876.891L228.81,876.83L228.881,876.771L228.954,876.712L229.026,876.654L229.1,876.597L229.174,876.54L229.249,876.485L229.325,876.431L229.401,876.377L229.478,876.324L229.556,876.273L229.634,876.222L229.713,876.172L229.793,876.123L229.873,876.075L229.954,876.027L230.035,875.981L230.117,875.936L230.2,875.892L230.283,875.848L230.367,875.806L230.451,875.765L230.536,875.724L230.622,875.685L230.708,875.647L230.795,875.609L230.882,875.573L230.969,875.538L231.058,875.504L231.146,875.471L231.236,875.439L231.325,875.407L231.416,875.378L231.506,875.349L231.598,875.321L231.689,875.294L231.782,875.269L231.874,875.244L231.967,875.221L232.061,875.199L232.155,875.178L232.249,875.158L232.344,875.139L232.439,875.121L232.534,875.105L232.63,875.089L232.727,875.075L232.824,875.062L232.921,875.051L233.018,875.04L233.116,875.031L233.214,875.023L233.313,875.016L233.411,875.01L233.511,875.006L233.61,875.003L233.71,875.001L233.81,875L249.31,875L249.41,875.001ZM233.816,877.067L233.736,877.067L233.663,877.069L233.589,877.071L233.516,877.074L233.443,877.078L233.371,877.083L233.299,877.089L233.227,877.096L233.156,877.104L233.085,877.112L233.013,877.122L232.943,877.132L232.873,877.144L232.803,877.156L232.733,877.168L232.664,877.182L232.595,877.197L232.526,877.212L232.458,877.228L232.389,877.246L232.322,877.263L232.254,877.282L232.188,877.302L232.121,877.322L232.054,877.343L231.988,877.365L231.923,877.388L231.858,877.411L231.792,877.435L231.728,877.46L231.664,877.486L231.6,877.513L231.537,877.54L231.474,877.568L231.411,877.597L231.349,877.626L231.287,877.657L231.226,877.688L231.165,877.719L231.104,877.752L231.044,877.785L230.984,877.819L230.925,877.853L230.866,877.889L230.807,877.925L230.75,877.961L230.692,877.999L230.635,878.037L230.579,878.075L230.523,878.115L230.467,878.155L230.412,878.196L230.358,878.237L230.304,878.279L230.25,878.321L230.197,878.365L230.145,878.408L230.093,878.453L230.041,878.498L229.99,878.544L229.94,878.59L229.89,878.637L229.841,878.684L229.792,878.732L229.744,878.781L229.697,878.83L229.65,878.88L229.604,878.93L229.558,878.981L229.513,879.033L229.468,879.085L229.424,879.137L229.381,879.19L229.339,879.244L229.297,879.298L229.255,879.352L229.215,879.407L229.175,879.463L229.135,879.519L229.097,879.575L229.059,879.633L229.021,879.69L228.985,879.748L228.949,879.806L228.913,879.865L228.879,879.924L228.845,879.984L228.812,880.044L228.779,880.105L228.748,880.165L228.717,880.227L228.686,880.289L228.657,880.351L228.628,880.414L228.6,880.477L228.573,880.54L228.546,880.604L228.52,880.668L228.495,880.733L228.471,880.798L228.448,880.863L228.425,880.928L228.403,880.994L228.382,881.061L228.362,881.128L228.342,881.194L228.323,881.262L228.306,881.329L228.289,881.397L228.272,881.466L228.257,881.535L228.242,881.604L228.228,881.673L228.216,881.743L228.204,881.813L228.192,881.883L228.182,881.953L228.172,882.024L228.164,882.096L228.156,882.167L228.149,882.239L228.143,882.311L228.138,882.383L228.134,882.456L228.131,882.529L228.129,882.602L228.127,882.676L228.127,882.757L228.127,898.243L228.127,898.324L228.129,898.398L228.131,898.471L228.134,898.544L228.138,898.617L228.143,898.689L228.149,898.761L228.156,898.833L228.164,898.905L228.172,898.976L228.182,899.046L228.192,899.117L228.204,899.187L228.216,899.257L228.228,899.327L228.242,899.396L228.257,899.465L228.272,899.534L228.289,899.603L228.306,899.671L228.323,899.738L228.342,899.805L228.362,899.872L228.382,899.939L228.403,900.006L228.425,900.072L228.448,900.137L228.471,900.202L228.495,900.267L228.52,900.332L228.546,900.396L228.573,900.46L228.6,900.523L228.628,900.586L228.657,900.649L228.686,900.711L228.717,900.773L228.748,900.834L228.779,900.895L228.812,900.956L228.845,901.016L228.879,901.076L228.913,901.135L228.949,901.194L228.984,901.252L229.021,901.31L229.059,901.368L229.097,901.425L229.135,901.481L229.175,901.537L229.215,901.593L229.255,901.648L229.297,901.702L229.339,901.756L229.381,901.81L229.425,901.863L229.468,901.915L229.513,901.967L229.558,902.019L229.604,902.07L229.65,902.12L229.697,902.17L229.744,902.219L229.793,902.268L229.841,902.316L229.89,902.363L229.94,902.41L229.991,902.457L230.041,902.502L230.092,902.547L230.145,902.592L230.197,902.635L230.25,902.679L230.304,902.721L230.358,902.763L230.412,902.805L230.468,902.845L230.523,902.885L230.579,902.925L230.635,902.963L230.692,903.001L230.75,903.039L230.808,903.075L230.866,903.111L230.925,903.146L230.984,903.181L231.044,903.215L231.104,903.248L231.165,903.281L231.226,903.312L231.287,903.343L231.349,903.374L231.411,903.403L231.474,903.432L231.537,903.46L231.6,903.487L231.664,903.514L231.728,903.54L231.792,903.565L231.857,903.589L231.923,903.612L231.989,903.635L232.054,903.657L232.121,903.678L232.187,903.698L232.254,903.718L232.322,903.737L232.389,903.754L232.458,903.772L232.526,903.788L232.595,903.803L232.664,903.818L232.733,903.831L232.803,903.844L232.873,903.856L232.943,903.868L233.014,903.878L233.084,903.888L233.155,903.896L233.227,903.904L233.299,903.911L233.371,903.917L233.444,903.922L233.516,903.926L233.589,903.929L233.662,903.931L233.736,903.933L233.816,903.933L249.303,903.933L249.384,903.933L249.458,903.931L249.531,903.929L249.604,903.926L249.676,903.922L249.749,903.917L249.821,903.911L249.893,903.904L249.965,903.896L250.036,903.888L250.106,903.878L250.177,903.868L250.247,903.856L250.317,903.844L250.387,903.831L250.456,903.818L250.525,903.803L250.594,903.788L250.662,903.772L250.731,903.754L250.798,903.737L250.865,903.718L250.933,903.698L250.999,903.678L251.066,903.657L251.131,903.635L251.197,903.612L251.263,903.589L251.327,903.565L251.392,903.54L251.456,903.514L251.52,903.487L251.583,903.46L251.646,903.432L251.709,903.403L251.771,903.374L251.833,903.343L251.894,903.312L251.955,903.281L252.016,903.248L252.076,903.215L252.136,903.181L252.195,903.147L252.253,903.112L252.312,903.075L252.37,903.039L252.427,903.001L252.485,902.963L252.541,902.924L252.597,902.885L252.652,902.845L252.708,902.805L252.762,902.763L252.816,902.721L252.87,902.679L252.923,902.635L252.975,902.592L253.027,902.547L253.079,902.502L253.129,902.457L253.18,902.41L253.23,902.363L253.279,902.316L253.327,902.268L253.376,902.219L253.423,902.17L253.47,902.12L253.516,902.07L253.562,902.019L253.607,901.967L253.652,901.915L253.695,901.863L253.739,901.81L253.781,901.757L253.823,901.702L253.865,901.648L253.905,901.593L253.945,901.537L253.985,901.481L254.023,901.425L254.061,901.368L254.099,901.31L254.135,901.252L254.171,901.194L254.207,901.135L254.241,901.076L254.275,901.016L254.308,900.956L254.341,900.895L254.372,900.834L254.403,900.773L254.434,900.711L254.463,900.649L254.492,900.586L254.52,900.523L254.547,900.46L254.574,900.396L254.6,900.332L254.625,900.267L254.649,900.203L254.672,900.137L254.695,900.071L254.717,900.006L254.738,899.939L254.758,899.873L254.778,899.806L254.797,899.738L254.814,899.67L254.831,899.603L254.848,899.534L254.863,899.465L254.878,899.397L254.891,899.327L254.904,899.257L254.917,899.187L254.928,899.117L254.938,899.046L254.948,898.975L254.956,898.904L254.964,898.833L254.971,898.761L254.977,898.689L254.982,898.617L254.986,898.544L254.989,898.471L254.991,898.397L254.993,898.324L254.993,898.243L254.993,882.756L254.993,882.676L254.991,882.603L254.989,882.529L254.986,882.456L254.982,882.383L254.977,882.311L254.971,882.239L254.964,882.167L254.956,882.096L254.948,882.025L254.938,881.953L254.928,881.883L254.917,881.813L254.904,881.743L254.892,881.673L254.878,881.604L254.863,881.535L254.848,881.466L254.831,881.397L254.814,881.33L254.797,881.262L254.778,881.194L254.758,881.127L254.738,881.061L254.717,880.995L254.695,880.928L254.672,880.863L254.649,880.797L254.625,880.733L254.6,880.668L254.574,880.604L254.547,880.54L254.52,880.477L254.492,880.414L254.463,880.351L254.434,880.289L254.403,880.227L254.372,880.166L254.341,880.105L254.308,880.044L254.275,879.984L254.241,879.924L254.207,879.865L254.171,879.806L254.135,879.748L254.099,879.69L254.061,879.633L254.023,879.575L253.985,879.519L253.945,879.463L253.905,879.407L253.865,879.352L253.823,879.298L253.781,879.243L253.739,879.19L253.696,879.137L253.652,879.085L253.607,879.033L253.562,878.981L253.516,878.93L253.47,878.88L253.423,878.83L253.375,878.781L253.328,878.732L253.279,878.684L253.23,878.637L253.18,878.59L253.13,878.544L253.079,878.498L253.027,878.453L252.975,878.408L252.923,878.365L252.87,878.321L252.816,878.279L252.762,878.237L252.708,878.196L252.653,878.155L252.597,878.115L252.541,878.075L252.485,878.037L252.427,877.999L252.37,877.961L252.313,877.925L252.254,877.889L252.195,877.853L252.136,877.819L252.076,877.785L252.016,877.752L251.955,877.719L251.894,877.688L251.833,877.657L251.771,877.626L251.709,877.597L251.646,877.568L251.583,877.54L251.52,877.513L251.456,877.486L251.392,877.46L251.327,877.435L251.262,877.411L251.197,877.388L251.132,877.365L251.066,877.343L250.999,877.322L250.932,877.302L250.865,877.282L250.798,877.263L250.731,877.246L250.662,877.228L250.594,877.212L250.525,877.197L250.456,877.182L250.387,877.168L250.317,877.156L250.247,877.144L250.177,877.132L250.107,877.122L250.035,877.112L249.964,877.104L249.893,877.096L249.821,877.089L249.749,877.083L249.677,877.078L249.604,877.074L249.531,877.071L249.457,877.069L249.384,877.067L249.303,877.067L233.816,877.067Z" style="fill:rgb(11,164,63);"/>
                    </g>
                    <g transform="matrix(1,0,0,1,148.122,84.3378)">
                        <text x="83.671px" y="80.758px" style="font-family:'SourceSansPro-SemiBold', 'Source Sans Pro', sans-serif;font-weight:600;font-size:21px;fill:rgb(3,73,26);">s</text>
                        <text x="92.722px" y="85.003px" style="font-family:'SourceSansPro-SemiBold', 'Source Sans Pro', sans-serif;font-weight:600;font-size:10.494px;fill:rgb(3,73,26);">3</text>
                    </g>
                </g>
            </g>
            <g id="infinite" transform="matrix(0.84319,0,0,1,-38.2626,0)">
                <g transform="matrix(2.44379,0,0,4.26076,94.2542,-1897.05)">
                    <circle cx="356" cy="559" r="2" style="fill:white;"/>
                </g>
                <g transform="matrix(2.44379,0,0,4.26076,108.917,-1897.05)">
                    <circle cx="356" cy="559" r="2" style="fill:white;"/>
                </g>
                <g transform="matrix(2.44379,0,0,4.26076,123.58,-1897.05)">
                    <circle cx="356" cy="559" r="2" style="fill:white;"/>
                </g>
            </g>
        </g>
    </g>
</svg>
