<?xml version="1.0" encoding="UTF-8" standalone="no"?>
<!DOCTYPE svg PUBLIC "-//W3C//DTD SVG 1.1//EN" "http://www.w3.org/Graphics/SVG/1.1/DTD/svg11.dtd">
<svg width="100%" height="100%" viewBox="0 0 486 235" version="1.1" xmlns="http://www.w3.org/2000/svg" xmlns:xlink="http://www.w3.org/1999/xlink" xml:space="preserve" xmlns:serif="http://www.serif.com/" style="fill-rule:evenodd;clip-rule:evenodd;stroke-linejoin:round;stroke-miterlimit:1.41421;">
    <g transform="matrix(1,0,0,1,0,-444.9)">
        <g id="rnn-expanded" transform="matrix(0.4853,0,0,0.2347,0,444.9)">
            <rect x="0" y="0" width="1000" height="1000" style="fill:rgb(46,58,65);"/>
            <g transform="matrix(2.06058,0,0,4.26076,-1040.59,-1189.11)">
                <g transform="matrix(0.31746,-1.2326e-32,-2.77334e-32,0.296296,506.952,311.809)">
                    <g>
                        <path d="M60,276.875L60,270.125L228.84,270.125L223.8,260L249,273.5L223.8,287L228.84,276.875L60,276.875Z" style="fill:white;"/>
                    </g>
                </g>
                <g transform="matrix(1,0,0,1,434.451,300.948)">
                    <path d="M88.081,81.01C87.367,81.01 86.664,80.874 85.971,80.601C85.278,80.328 84.679,79.988 84.175,79.582L85.309,78.028C85.771,78.392 86.23,78.676 86.685,78.879C87.14,79.082 87.633,79.183 88.165,79.183C88.725,79.183 89.138,79.068 89.404,78.837C89.67,78.606 89.803,78.308 89.803,77.944C89.803,77.734 89.74,77.549 89.614,77.388C89.488,77.227 89.32,77.083 89.11,76.957C88.9,76.831 88.662,76.716 88.396,76.611C88.13,76.506 87.864,76.397 87.598,76.285C87.262,76.159 86.919,76.012 86.569,75.844C86.219,75.676 85.908,75.473 85.635,75.235C85.362,74.997 85.138,74.721 84.963,74.406C84.788,74.091 84.7,73.716 84.7,73.282C84.7,72.372 85.036,71.63 85.708,71.056C86.38,70.482 87.297,70.195 88.459,70.195C89.173,70.195 89.817,70.321 90.391,70.573C90.965,70.825 91.462,71.112 91.882,71.434L90.769,72.904C90.405,72.638 90.038,72.425 89.667,72.264C89.296,72.103 88.907,72.022 88.501,72.022C87.983,72.022 87.602,72.131 87.357,72.348C87.112,72.565 86.989,72.834 86.989,73.156C86.989,73.366 87.049,73.545 87.168,73.692C87.287,73.839 87.444,73.968 87.64,74.08C87.836,74.192 88.064,74.297 88.323,74.395C88.582,74.493 88.851,74.591 89.131,74.689C89.481,74.815 89.831,74.959 90.181,75.12C90.531,75.281 90.85,75.48 91.137,75.718C91.424,75.956 91.655,76.247 91.83,76.59C92.005,76.933 92.092,77.342 92.092,77.818C92.092,78.266 92.005,78.683 91.83,79.068C91.655,79.453 91.399,79.789 91.063,80.076C90.727,80.363 90.307,80.59 89.803,80.758C89.299,80.926 88.725,81.01 88.081,81.01Z" style="fill:white;fill-rule:nonzero;"/>
                    <path d="M95.857,87.898C95.04,87.898 94.396,87.549 93.922,86.851C93.449,86.153 93.212,85.143 93.212,83.821C93.212,82.499 93.449,81.501 93.922,80.828C94.396,80.154 95.04,79.818 95.857,79.818C96.673,79.818 97.318,80.156 97.791,80.834C98.264,81.511 98.501,82.507 98.501,83.821C98.501,85.143 98.264,86.153 97.791,86.851C97.318,87.549 96.673,87.898 95.857,87.898ZM95.857,86.796C96.044,86.796 96.218,86.745 96.377,86.643C96.536,86.541 96.673,86.372 96.787,86.135C96.901,85.898 96.991,85.592 97.056,85.217C97.122,84.841 97.154,84.376 97.154,83.821C97.154,83.274 97.122,82.815 97.056,82.444C96.991,82.072 96.901,81.773 96.787,81.544C96.673,81.315 96.536,81.154 96.377,81.06C96.218,80.967 96.044,80.92 95.857,80.92C95.669,80.92 95.495,80.967 95.336,81.06C95.177,81.154 95.04,81.315 94.926,81.544C94.812,81.773 94.722,82.072 94.657,82.444C94.592,82.815 94.559,83.274 94.559,83.821C94.559,84.376 94.592,84.841 94.657,85.217C94.722,85.592 94.812,85.898 94.926,86.135C95.04,86.372 95.177,86.541 95.336,86.643C95.495,86.745 95.669,86.796 95.857,86.796Z" style="fill:white;fill-rule:nonzero;"/>
                </g>
                <g transform="matrix(1,0,0,1,466.242,330.434)">
                    <path d="M84.319,80.758L81.589,67.024L84.088,67.024L85.285,73.954C85.397,74.696 85.509,75.431 85.621,76.159C85.733,76.887 85.845,77.615 85.957,78.343L86.041,78.343C86.195,77.615 86.346,76.884 86.493,76.149C86.64,75.414 86.79,74.682 86.944,73.954L88.624,67.024L90.745,67.024L92.425,73.954C92.579,74.668 92.733,75.393 92.887,76.128C93.041,76.863 93.195,77.601 93.349,78.343L93.433,78.343C93.545,77.601 93.654,76.866 93.759,76.138C93.864,75.41 93.972,74.682 94.084,73.954L95.281,67.024L97.612,67.024L94.987,80.758L91.963,80.758L90.262,73.534C90.15,73.002 90.042,72.474 89.937,71.949C89.832,71.424 89.737,70.895 89.653,70.363L89.569,70.363C89.471,70.895 89.37,71.424 89.265,71.949C89.16,72.474 89.051,73.002 88.939,73.534L87.28,80.758L84.319,80.758Z" style="fill:white;fill-rule:nonzero;"/>
                    <path d="M101.366,87.898C100.827,87.898 100.307,87.796 99.805,87.592C99.303,87.388 98.86,87.098 98.477,86.723L99.309,85.756C99.595,86.025 99.921,86.243 100.289,86.411C100.656,86.578 101.023,86.662 101.39,86.662C101.848,86.662 102.194,86.568 102.431,86.38C102.668,86.192 102.786,85.943 102.786,85.633C102.786,85.47 102.756,85.331 102.694,85.217C102.633,85.103 102.547,85.003 102.437,84.917C102.327,84.831 102.196,84.752 102.045,84.678C101.894,84.605 101.729,84.531 101.55,84.458L100.448,83.98C100.252,83.899 100.058,83.797 99.866,83.674C99.674,83.552 99.501,83.405 99.346,83.234C99.191,83.062 99.066,82.862 98.972,82.634C98.879,82.405 98.832,82.144 98.832,81.85C98.832,81.532 98.899,81.236 99.034,80.962C99.168,80.689 99.354,80.45 99.591,80.246C99.827,80.042 100.111,79.883 100.442,79.769C100.772,79.654 101.133,79.597 101.525,79.597C101.99,79.597 102.439,79.689 102.872,79.873C103.304,80.056 103.676,80.303 103.986,80.614L103.264,81.52C103.002,81.307 102.733,81.14 102.456,81.018C102.178,80.895 101.868,80.834 101.525,80.834C101.142,80.834 100.835,80.918 100.607,81.085C100.378,81.252 100.264,81.483 100.264,81.777C100.264,81.932 100.299,82.064 100.368,82.175C100.438,82.285 100.531,82.383 100.65,82.468C100.768,82.554 100.905,82.632 101.06,82.701C101.215,82.77 101.374,82.838 101.537,82.903L102.627,83.356C102.864,83.454 103.08,83.568 103.276,83.699C103.472,83.829 103.641,83.98 103.784,84.152C103.927,84.323 104.039,84.521 104.121,84.746C104.202,84.97 104.243,85.229 104.243,85.523C104.243,85.849 104.178,86.156 104.047,86.441C103.917,86.727 103.727,86.978 103.478,87.194C103.229,87.41 102.927,87.582 102.572,87.708C102.217,87.835 101.815,87.898 101.366,87.898Z" style="fill:white;fill-rule:nonzero;"/>
                </g>
            </g>
            <g transform="matrix(0.332578,0,0,1,1855.76,3260.76)">
                <g id="output" transform="matrix(6.19579,0,0,4.26076,-7523.4,-4774.04)">
                    <g transform="matrix(1.94388e-17,-0.31746,0.296296,1.81429e-17,344.639,472.048)">
                        <g>
                            <path d="M60,276.875L60,270.125L228.84,270.125L223.8,260L249,273.5L223.8,287L228.84,276.875L60,276.875Z" style="fill:white;"/>
                        </g>
                    </g>
                    <g transform="matrix(1,0,0,1,338.511,308.102)">
                        <path d="M83.878,85C83.598,85 83.353,84.983 83.143,84.948C82.933,84.913 82.73,84.86 82.534,84.79L82.975,82.9C83.073,82.928 83.189,82.96 83.322,82.995C83.455,83.03 83.584,83.047 83.71,83.047C84.256,83.047 84.694,82.883 85.023,82.554C85.352,82.225 85.6,81.801 85.768,81.283L85.957,80.632L81.904,70.447L84.361,70.447L86.146,75.508C86.3,75.956 86.451,76.429 86.598,76.926C86.745,77.423 86.895,77.916 87.049,78.406L87.133,78.406C87.259,77.93 87.389,77.444 87.522,76.947C87.655,76.45 87.784,75.97 87.91,75.508L89.464,70.447L91.795,70.447L88.057,81.22C87.847,81.808 87.616,82.333 87.364,82.795C87.112,83.257 86.822,83.653 86.493,83.982C86.164,84.311 85.786,84.563 85.359,84.738C84.932,84.913 84.438,85 83.878,85Z" style="fill:white;fill-rule:nonzero;"/>
                        <path d="M95.059,87.898C94.708,87.898 94.412,87.845 94.172,87.739C93.931,87.633 93.735,87.484 93.584,87.292C93.433,87.1 93.323,86.872 93.253,86.606C93.184,86.341 93.149,86.045 93.149,85.719L93.149,82.854L92.292,82.854L92.292,81.801L93.223,81.74L93.394,80.099L94.569,80.099L94.569,81.74L96.1,81.74L96.1,82.854L94.569,82.854L94.569,85.719C94.569,86.421 94.851,86.772 95.414,86.772C95.52,86.772 95.628,86.76 95.739,86.735C95.849,86.711 95.949,86.678 96.039,86.637L96.283,87.678C96.12,87.735 95.935,87.786 95.726,87.831C95.518,87.876 95.296,87.898 95.059,87.898Z" style="fill:white;fill-rule:nonzero;"/>
                    </g>
                    <g transform="matrix(1,0,0,1,308.866,345.591)">
                        <path d="M84.319,80.758L81.589,67.024L84.088,67.024L85.285,73.954C85.397,74.696 85.509,75.431 85.621,76.159C85.733,76.887 85.845,77.615 85.957,78.343L86.041,78.343C86.195,77.615 86.346,76.884 86.493,76.149C86.64,75.414 86.79,74.682 86.944,73.954L88.624,67.024L90.745,67.024L92.425,73.954C92.579,74.668 92.733,75.393 92.887,76.128C93.041,76.863 93.195,77.601 93.349,78.343L93.433,78.343C93.545,77.601 93.654,76.866 93.759,76.138C93.864,75.41 93.972,74.682 94.084,73.954L95.281,67.024L97.612,67.024L94.987,80.758L91.963,80.758L90.262,73.534C90.15,73.002 90.042,72.474 89.937,71.949C89.832,71.424 89.737,70.895 89.653,70.363L89.569,70.363C89.471,70.895 89.37,71.424 89.265,71.949C89.16,72.474 89.051,73.002 88.939,73.534L87.28,80.758L84.319,80.758Z" style="fill:white;fill-rule:nonzero;"/>
                        <path d="M100.362,87.751L100.362,84.776L97.962,79.744L99.481,79.744L100.35,81.789C100.464,82.091 100.578,82.383 100.693,82.664C100.807,82.946 100.929,83.242 101.06,83.552L101.109,83.552C101.239,83.242 101.366,82.946 101.488,82.664C101.611,82.383 101.729,82.091 101.843,81.789L102.713,79.744L104.194,79.744L101.782,84.776L101.782,87.751L100.362,87.751Z" style="fill:white;fill-rule:nonzero;"/>
                    </g>
                </g>
                <g id="input" transform="matrix(6.19579,0,0,4.26076,-7523.4,-4424.66)">
                    <g transform="matrix(1.94388e-17,-0.31746,0.296296,1.81429e-17,344.639,482.048)">
                        <g>
                            <path d="M60,276.875L60,270.125L228.84,270.125L223.8,260L249,273.5L223.8,287L228.84,276.875L60,276.875Z" style="fill:white;"/>
                        </g>
                    </g>
                    <g transform="matrix(1,0,0,1,338.511,399.934)">
                        <path d="M81.505,80.758L84.781,75.382L81.715,70.447L84.319,70.447L85.474,72.4C85.628,72.68 85.786,72.971 85.947,73.272C86.108,73.573 86.265,73.863 86.419,74.143L86.503,74.143C86.629,73.863 86.762,73.573 86.902,73.272C87.042,72.971 87.175,72.68 87.301,72.4L88.288,70.447L90.787,70.447L87.742,75.655L91.018,80.758L88.414,80.758L87.154,78.721C86.986,78.413 86.815,78.105 86.64,77.797C86.465,77.489 86.286,77.188 86.104,76.894L86.02,76.894C85.866,77.188 85.716,77.486 85.569,77.787C85.422,78.088 85.271,78.399 85.117,78.721L84.025,80.758L81.505,80.758Z" style="fill:white;fill-rule:nonzero;"/>
                        <path d="M94.324,87.898C93.973,87.898 93.677,87.845 93.437,87.739C93.196,87.633 93,87.484 92.849,87.292C92.698,87.1 92.588,86.872 92.518,86.606C92.449,86.341 92.414,86.045 92.414,85.719L92.414,82.854L91.557,82.854L91.557,81.801L92.488,81.74L92.659,80.099L93.834,80.099L93.834,81.74L95.365,81.74L95.365,82.854L93.834,82.854L93.834,85.719C93.834,86.421 94.116,86.772 94.679,86.772C94.785,86.772 94.893,86.76 95.004,86.735C95.114,86.711 95.214,86.678 95.304,86.637L95.548,87.678C95.385,87.735 95.2,87.786 94.991,87.831C94.783,87.876 94.561,87.898 94.324,87.898Z" style="fill:white;fill-rule:nonzero;"/>
                    </g>
                    <g transform="matrix(1,0,0,1,356.171,355.591)">
                        <path d="M84.319,80.758L81.589,67.024L84.088,67.024L85.285,73.954C85.397,74.696 85.509,75.431 85.621,76.159C85.733,76.887 85.845,77.615 85.957,78.343L86.041,78.343C86.195,77.615 86.346,76.884 86.493,76.149C86.64,75.414 86.79,74.682 86.944,73.954L88.624,67.024L90.745,67.024L92.425,73.954C92.579,74.668 92.733,75.393 92.887,76.128C93.041,76.863 93.195,77.601 93.349,78.343L93.433,78.343C93.545,77.601 93.654,76.866 93.759,76.138C93.864,75.41 93.972,74.682 94.084,73.954L95.281,67.024L97.612,67.024L94.987,80.758L91.963,80.758L90.262,73.534C90.15,73.002 90.042,72.474 89.937,71.949C89.832,71.424 89.737,70.895 89.653,70.363L89.569,70.363C89.471,70.895 89.37,71.424 89.265,71.949C89.16,72.474 89.051,73.002 88.939,73.534L87.28,80.758L84.319,80.758Z" style="fill:white;fill-rule:nonzero;"/>
                        <path d="M98.171,87.751L100.448,83.625L98.317,79.744L99.897,79.744L100.778,81.52C100.876,81.707 100.972,81.899 101.066,82.095C101.16,82.291 101.268,82.507 101.39,82.744L101.439,82.744C101.537,82.507 101.629,82.291 101.715,82.095C101.801,81.899 101.888,81.707 101.978,81.52L102.823,79.744L104.329,79.744L102.199,83.687L104.476,87.751L102.896,87.751L101.917,85.866C101.811,85.654 101.707,85.443 101.605,85.235C101.503,85.027 101.39,84.801 101.268,84.556L101.219,84.556C101.113,84.801 101.013,85.027 100.919,85.235C100.825,85.443 100.729,85.654 100.631,85.866L99.676,87.751L98.171,87.751Z" style="fill:white;fill-rule:nonzero;"/>
                    </g>
                </g>
                <g id="tanh" transform="matrix(6.19579,0,0,4.26076,-6366.79,-3465.99)">
                    <g transform="matrix(1.93548,0,0,0.967742,-228.535,-699.774)">
                        <path d="M257.06,882.75C257.06,878.473 255.324,875 253.185,875L229.935,875C227.796,875 226.06,878.473 226.06,882.75L226.06,898.25C226.06,902.527 227.796,906 229.935,906L253.185,906C255.324,906 257.06,902.527 257.06,898.25L257.06,882.75Z" style="fill:rgb(24,193,84);"/>
                        <path d="M253.235,875.001L253.285,875.003L253.335,875.006L253.384,875.01L253.434,875.016L253.483,875.023L253.532,875.031L253.581,875.04L253.63,875.051L253.678,875.062L253.727,875.075L253.775,875.089L253.823,875.105L253.871,875.121L253.918,875.139L253.966,875.158L254.013,875.178L254.06,875.199L254.106,875.221L254.153,875.244L254.199,875.269L254.245,875.294L254.291,875.321L254.337,875.349L254.382,875.378L254.427,875.407L254.472,875.439L254.517,875.471L254.561,875.504L254.605,875.538L254.649,875.573L254.693,875.609L254.736,875.647L254.779,875.685L254.822,875.724L254.864,875.765L254.907,875.806L254.948,875.848L254.99,875.892L255.031,875.936L255.072,875.981L255.113,876.027L255.154,876.075L255.194,876.123L255.233,876.172L255.273,876.222L255.312,876.273L255.351,876.324L255.389,876.377L255.428,876.431L255.465,876.485L255.503,876.54L255.54,876.597L255.577,876.654L255.613,876.712L255.649,876.771L255.685,876.83L255.72,876.891L255.755,876.952L255.79,877.014L255.824,877.077L255.858,877.141L255.891,877.206L255.925,877.271L255.957,877.337L255.989,877.404L256.021,877.472L256.053,877.54L256.084,877.609L256.115,877.679L256.145,877.75L256.175,877.821L256.204,877.894L256.233,877.966L256.262,878.04L256.29,878.114L256.317,878.189L256.345,878.265L256.371,878.341L256.398,878.418L256.424,878.496L256.449,878.574L256.474,878.653L256.499,878.733L256.523,878.813L256.546,878.894L256.569,878.975L256.592,879.057L256.614,879.14L256.636,879.223L256.657,879.307L256.678,879.391L256.698,879.476L256.717,879.562L256.737,879.648L256.755,879.735L256.773,879.822L256.791,879.909L256.808,879.998L256.825,880.086L256.841,880.176L256.856,880.265L256.871,880.356L256.886,880.446L256.9,880.538L256.913,880.629L256.926,880.722L256.938,880.814L256.95,880.907L256.961,881.001L256.971,881.095L256.981,881.189L256.991,881.284L256.999,881.379L257.008,881.474L257.015,881.57L257.022,881.667L257.029,881.764L257.035,881.861L257.04,881.958L257.045,882.056L257.049,882.154L257.052,882.253L257.055,882.351L257.057,882.451L257.059,882.55L257.06,882.65L257.06,882.75L257.06,898.25L257.06,898.35L257.059,898.45L257.057,898.549L257.055,898.649L257.052,898.747L257.049,898.846L257.045,898.944L257.04,899.042L257.035,899.139L257.029,899.236L257.022,899.333L257.015,899.43L257.008,899.526L256.999,899.621L256.991,899.716L256.981,899.811L256.971,899.905L256.961,899.999L256.95,900.093L256.938,900.186L256.926,900.278L256.913,900.371L256.9,900.462L256.886,900.554L256.871,900.644L256.856,900.735L256.841,900.824L256.825,900.914L256.808,901.002L256.791,901.091L256.773,901.178L256.755,901.265L256.737,901.352L256.717,901.438L256.698,901.524L256.678,901.609L256.657,901.693L256.636,901.777L256.614,901.86L256.592,901.943L256.569,902.025L256.546,902.106L256.523,902.187L256.499,902.267L256.474,902.347L256.449,902.426L256.424,902.504L256.398,902.582L256.371,902.659L256.345,902.735L256.317,902.811L256.29,902.886L256.262,902.96L256.233,903.034L256.204,903.106L256.175,903.179L256.145,903.25L256.115,903.321L256.084,903.391L256.053,903.46L256.021,903.528L255.989,903.596L255.957,903.663L255.925,903.729L255.891,903.794L255.858,903.859L255.824,903.923L255.79,903.986L255.755,904.048L255.72,904.109L255.685,904.17L255.649,904.229L255.613,904.288L255.577,904.346L255.54,904.403L255.503,904.46L255.465,904.515L255.428,904.569L255.389,904.623L255.351,904.676L255.312,904.727L255.273,904.778L255.233,904.828L255.194,904.877L255.154,904.925L255.113,904.973L255.072,905.019L255.031,905.064L254.99,905.108L254.948,905.152L254.907,905.194L254.864,905.235L254.822,905.276L254.779,905.315L254.736,905.353L254.693,905.391L254.649,905.427L254.605,905.462L254.561,905.496L254.517,905.529L254.472,905.561L254.427,905.593L254.382,905.622L254.337,905.651L254.291,905.679L254.245,905.706L254.199,905.731L254.153,905.756L254.106,905.779L254.06,905.801L254.013,905.822L253.966,905.842L253.918,905.861L253.871,905.879L253.823,905.895L253.775,905.911L253.727,905.925L253.678,905.938L253.63,905.949L253.581,905.96L253.532,905.969L253.483,905.977L253.434,905.984L253.384,905.99L253.335,905.994L253.285,905.997L253.235,905.999L253.185,906L229.935,906L229.885,905.999L229.835,905.997L229.785,905.994L229.736,905.99L229.686,905.984L229.637,905.977L229.588,905.969L229.539,905.96L229.49,905.949L229.442,905.938L229.393,905.925L229.345,905.911L229.297,905.895L229.249,905.879L229.202,905.861L229.154,905.842L229.107,905.822L229.06,905.801L229.014,905.779L228.967,905.756L228.921,905.731L228.875,905.706L228.829,905.679L228.783,905.651L228.738,905.622L228.693,905.593L228.648,905.561L228.603,905.529L228.559,905.496L228.515,905.462L228.471,905.427L228.427,905.391L228.384,905.353L228.341,905.315L228.298,905.276L228.256,905.235L228.213,905.194L228.172,905.152L228.13,905.108L228.089,905.064L228.048,905.019L228.007,904.973L227.966,904.925L227.926,904.877L227.887,904.828L227.847,904.778L227.808,904.727L227.769,904.676L227.731,904.623L227.692,904.569L227.655,904.515L227.617,904.46L227.58,904.403L227.543,904.346L227.507,904.288L227.471,904.229L227.435,904.17L227.4,904.109L227.365,904.048L227.33,903.986L227.296,903.923L227.262,903.859L227.229,903.794L227.195,903.729L227.163,903.663L227.131,903.596L227.099,903.528L227.067,903.46L227.036,903.391L227.005,903.321L226.975,903.25L226.945,903.179L226.916,903.106L226.887,903.034L226.858,902.96L226.83,902.886L226.803,902.811L226.775,902.735L226.749,902.659L226.722,902.582L226.696,902.504L226.671,902.426L226.646,902.347L226.621,902.267L226.597,902.187L226.574,902.106L226.551,902.025L226.528,901.943L226.506,901.86L226.484,901.777L226.463,901.693L226.442,901.609L226.422,901.524L226.403,901.438L226.383,901.352L226.365,901.265L226.347,901.178L226.329,901.091L226.312,901.002L226.295,900.914L226.279,900.824L226.264,900.735L226.249,900.644L226.234,900.554L226.22,900.462L226.207,900.371L226.194,900.278L226.182,900.186L226.17,900.093L226.159,899.999L226.149,899.905L226.139,899.811L226.129,899.716L226.121,899.621L226.112,899.526L226.105,899.43L226.098,899.333L226.091,899.236L226.085,899.139L226.08,899.042L226.075,898.944L226.071,898.846L226.068,898.747L226.065,898.649L226.063,898.549L226.061,898.45L226.06,898.35L226.06,898.25L226.06,882.75L226.06,882.65L226.061,882.55L226.063,882.451L226.065,882.351L226.068,882.253L226.071,882.154L226.075,882.056L226.08,881.958L226.085,881.861L226.091,881.764L226.098,881.667L226.105,881.57L226.112,881.474L226.121,881.379L226.129,881.284L226.139,881.189L226.149,881.095L226.159,881.001L226.17,880.907L226.182,880.814L226.194,880.722L226.207,880.629L226.22,880.538L226.234,880.446L226.249,880.356L226.264,880.265L226.279,880.176L226.295,880.086L226.312,879.998L226.329,879.909L226.347,879.822L226.365,879.735L226.383,879.648L226.403,879.562L226.422,879.476L226.442,879.391L226.463,879.307L226.484,879.223L226.506,879.14L226.528,879.057L226.551,878.975L226.574,878.894L226.597,878.813L226.621,878.733L226.646,878.653L226.671,878.574L226.696,878.496L226.722,878.418L226.749,878.341L226.775,878.265L226.803,878.189L226.83,878.114L226.858,878.04L226.887,877.966L226.916,877.894L226.945,877.821L226.975,877.75L227.005,877.679L227.036,877.609L227.067,877.54L227.099,877.472L227.131,877.404L227.163,877.337L227.195,877.271L227.229,877.206L227.262,877.141L227.296,877.077L227.33,877.014L227.365,876.952L227.4,876.891L227.435,876.83L227.471,876.771L227.507,876.712L227.543,876.654L227.58,876.597L227.617,876.54L227.655,876.485L227.692,876.431L227.731,876.377L227.769,876.324L227.808,876.273L227.847,876.222L227.887,876.172L227.926,876.123L227.966,876.075L228.007,876.027L228.048,875.981L228.089,875.936L228.13,875.892L228.172,875.848L228.213,875.806L228.256,875.765L228.298,875.724L228.341,875.685L228.384,875.647L228.427,875.609L228.471,875.573L228.515,875.538L228.559,875.504L228.603,875.471L228.648,875.439L228.693,875.407L228.738,875.378L228.783,875.349L228.829,875.321L228.875,875.294L228.921,875.269L228.967,875.244L229.014,875.221L229.06,875.199L229.107,875.178L229.154,875.158L229.202,875.139L229.249,875.121L229.297,875.105L229.345,875.089L229.393,875.075L229.442,875.062L229.49,875.051L229.539,875.04L229.588,875.031L229.637,875.023L229.686,875.016L229.736,875.01L229.785,875.006L229.835,875.003L229.885,875.001L229.935,875L253.185,875L253.235,875.001ZM229.938,877.067L229.898,877.067L229.861,877.069L229.825,877.071L229.788,877.074L229.752,877.078L229.715,877.083L229.68,877.089L229.644,877.096L229.608,877.104L229.572,877.112L229.537,877.122L229.501,877.132L229.466,877.144L229.431,877.156L229.396,877.168L229.362,877.182L229.327,877.197L229.293,877.212L229.259,877.228L229.225,877.246L229.191,877.263L229.157,877.282L229.124,877.302L229.091,877.322L229.057,877.343L229.024,877.365L228.991,877.388L228.959,877.411L228.926,877.435L228.894,877.46L228.862,877.486L228.83,877.513L228.798,877.54L228.767,877.568L228.736,877.597L228.704,877.626L228.674,877.657L228.643,877.688L228.612,877.719L228.582,877.752L228.552,877.785L228.522,877.819L228.493,877.853L228.463,877.889L228.434,877.925L228.405,877.961L228.376,877.999L228.348,878.037L228.32,878.075L228.292,878.115L228.264,878.155L228.236,878.196L228.209,878.237L228.182,878.279L228.155,878.321L228.128,878.365L228.102,878.408L228.076,878.453L228.051,878.498L228.025,878.544L228,878.59L227.975,878.637L227.95,878.685L227.926,878.732L227.902,878.781L227.878,878.83L227.855,878.88L227.832,878.93L227.809,878.981L227.786,879.032L227.764,879.085L227.742,879.137L227.721,879.19L227.699,879.244L227.678,879.298L227.658,879.352L227.637,879.407L227.617,879.463L227.598,879.519L227.578,879.575L227.559,879.632L227.541,879.69L227.522,879.748L227.504,879.806L227.487,879.865L227.469,879.924L227.452,879.984L227.436,880.044L227.42,880.105L227.404,880.166L227.388,880.227L227.373,880.289L227.358,880.351L227.344,880.414L227.33,880.477L227.316,880.54L227.303,880.604L227.29,880.668L227.278,880.733L227.266,880.798L227.254,880.863L227.243,880.928L227.232,880.994L227.221,881.061L227.211,881.127L227.201,881.194L227.192,881.262L227.183,881.33L227.174,881.398L227.166,881.466L227.158,881.535L227.151,881.604L227.144,881.673L227.138,881.743L227.132,881.813L227.126,881.883L227.121,881.953L227.116,882.024L227.112,882.096L227.108,882.167L227.105,882.239L227.102,882.311L227.099,882.383L227.097,882.456L227.095,882.529L227.094,882.603L227.094,882.676L227.093,882.756L227.093,898.243L227.094,898.324L227.094,898.397L227.095,898.471L227.097,898.544L227.099,898.617L227.102,898.689L227.105,898.761L227.108,898.833L227.112,898.904L227.116,898.976L227.121,899.047L227.126,899.117L227.132,899.187L227.138,899.257L227.144,899.327L227.151,899.396L227.158,899.465L227.166,899.534L227.174,899.602L227.183,899.67L227.192,899.738L227.201,899.805L227.211,899.873L227.221,899.939L227.232,900.006L227.242,900.072L227.254,900.137L227.266,900.202L227.278,900.267L227.29,900.332L227.303,900.396L227.316,900.46L227.33,900.523L227.344,900.586L227.358,900.649L227.373,900.711L227.388,900.773L227.404,900.834L227.42,900.895L227.436,900.956L227.452,901.016L227.469,901.076L227.487,901.135L227.504,901.194L227.522,901.252L227.541,901.31L227.559,901.368L227.578,901.425L227.598,901.481L227.617,901.537L227.637,901.593L227.658,901.648L227.678,901.702L227.699,901.756L227.721,901.81L227.742,901.863L227.764,901.915L227.786,901.967L227.809,902.019L227.832,902.07L227.855,902.12L227.878,902.17L227.902,902.219L227.926,902.268L227.951,902.316L227.975,902.363L228,902.41L228.025,902.457L228.051,902.502L228.076,902.547L228.102,902.592L228.128,902.635L228.155,902.679L228.182,902.721L228.209,902.763L228.236,902.805L228.264,902.846L228.291,902.885L228.319,902.925L228.348,902.963L228.376,903.001L228.405,903.039L228.434,903.075L228.463,903.111L228.492,903.146L228.522,903.181L228.552,903.215L228.582,903.248L228.612,903.281L228.643,903.312L228.674,903.343L228.704,903.374L228.736,903.403L228.767,903.432L228.798,903.46L228.83,903.487L228.862,903.514L228.894,903.54L228.926,903.565L228.959,903.589L228.991,903.612L229.024,903.635L229.057,903.657L229.09,903.678L229.124,903.698L229.157,903.718L229.191,903.737L229.225,903.754L229.259,903.772L229.293,903.788L229.327,903.803L229.362,903.818L229.396,903.831L229.431,903.844L229.466,903.856L229.502,903.868L229.537,903.878L229.572,903.888L229.608,903.896L229.644,903.904L229.68,903.911L229.715,903.917L229.752,903.922L229.788,903.926L229.825,903.929L229.861,903.931L229.898,903.933L229.938,903.933L253.182,903.933L253.222,903.933L253.259,903.931L253.295,903.929L253.332,903.926L253.368,903.922L253.405,903.917L253.44,903.911L253.476,903.904L253.512,903.896L253.548,903.888L253.583,903.878L253.618,903.868L253.654,903.856L253.689,903.844L253.724,903.831L253.758,903.818L253.793,903.803L253.827,903.788L253.861,903.772L253.895,903.754L253.929,903.737L253.963,903.718L253.996,903.698L254.03,903.678L254.063,903.657L254.096,903.635L254.129,903.612L254.161,903.589L254.194,903.565L254.226,903.54L254.258,903.514L254.29,903.487L254.322,903.46L254.353,903.432L254.384,903.403L254.416,903.374L254.446,903.343L254.477,903.312L254.508,903.281L254.538,903.248L254.568,903.215L254.598,903.181L254.628,903.146L254.657,903.112L254.686,903.075L254.715,903.039L254.744,903.001L254.772,902.963L254.801,902.924L254.829,902.885L254.856,902.845L254.884,902.805L254.911,902.763L254.938,902.721L254.965,902.679L254.992,902.635L255.018,902.592L255.044,902.547L255.069,902.502L255.095,902.457L255.12,902.41L255.145,902.363L255.169,902.316L255.194,902.268L255.218,902.219L255.242,902.17L255.265,902.12L255.288,902.07L255.311,902.019L255.334,901.967L255.356,901.915L255.378,901.863L255.399,901.81L255.421,901.756L255.442,901.702L255.462,901.648L255.483,901.593L255.503,901.537L255.522,901.481L255.542,901.425L255.561,901.368L255.579,901.31L255.598,901.252L255.616,901.194L255.633,901.135L255.651,901.076L255.668,901.016L255.684,900.956L255.7,900.895L255.716,900.834L255.732,900.773L255.747,900.711L255.762,900.649L255.776,900.586L255.79,900.523L255.804,900.46L255.817,900.396L255.83,900.332L255.842,900.267L255.854,900.203L255.866,900.137L255.878,900.071L255.888,900.006L255.899,899.939L255.909,899.873L255.919,899.806L255.928,899.738L255.937,899.67L255.946,899.602L255.954,899.534L255.962,899.465L255.969,899.396L255.976,899.327L255.982,899.257L255.988,899.187L255.994,899.117L255.999,899.046L256.004,898.975L256.008,898.904L256.012,898.833L256.015,898.761L256.018,898.689L256.021,898.617L256.023,898.544L256.025,898.471L256.026,898.398L256.026,898.324L256.027,898.243L256.027,882.756L256.026,882.676L256.026,882.602L256.025,882.529L256.023,882.456L256.021,882.383L256.018,882.311L256.015,882.239L256.012,882.167L256.008,882.096L256.004,882.025L255.999,881.953L255.994,881.883L255.988,881.813L255.982,881.743L255.976,881.673L255.969,881.604L255.962,881.535L255.954,881.466L255.946,881.398L255.937,881.33L255.928,881.262L255.919,881.194L255.909,881.127L255.899,881.061L255.888,880.994L255.878,880.928L255.866,880.863L255.854,880.797L255.842,880.733L255.83,880.668L255.817,880.604L255.804,880.54L255.79,880.477L255.776,880.414L255.762,880.351L255.747,880.289L255.732,880.227L255.716,880.166L255.7,880.105L255.684,880.044L255.668,879.984L255.651,879.924L255.633,879.865L255.616,879.806L255.598,879.748L255.579,879.69L255.561,879.632L255.542,879.575L255.522,879.519L255.503,879.463L255.483,879.407L255.462,879.352L255.442,879.298L255.421,879.244L255.399,879.19L255.378,879.137L255.356,879.085L255.334,879.033L255.311,878.981L255.288,878.93L255.265,878.88L255.242,878.83L255.218,878.781L255.194,878.732L255.17,878.684L255.145,878.637L255.12,878.59L255.095,878.544L255.069,878.498L255.044,878.453L255.018,878.408L254.992,878.365L254.965,878.321L254.938,878.279L254.911,878.237L254.884,878.196L254.856,878.155L254.828,878.115L254.8,878.075L254.772,878.037L254.744,877.999L254.715,877.961L254.686,877.925L254.657,877.889L254.627,877.853L254.598,877.819L254.568,877.785L254.538,877.752L254.508,877.719L254.477,877.688L254.446,877.657L254.416,877.626L254.384,877.597L254.353,877.568L254.322,877.54L254.29,877.513L254.258,877.486L254.226,877.46L254.194,877.435L254.161,877.411L254.129,877.388L254.096,877.365L254.063,877.343L254.029,877.322L253.996,877.302L253.963,877.282L253.929,877.263L253.895,877.246L253.861,877.228L253.827,877.212L253.793,877.197L253.758,877.182L253.724,877.168L253.689,877.156L253.654,877.144L253.619,877.132L253.583,877.122L253.548,877.112L253.512,877.104L253.476,877.096L253.44,877.089L253.405,877.083L253.368,877.078L253.332,877.074L253.295,877.071L253.259,877.069L253.222,877.067L253.182,877.067L229.938,877.067Z" style="fill:rgb(11,164,63);"/>
                    </g>
                    <g transform="matrix(1,0,0,1,150.545,83.0058)">
                        <path d="M88.081,81.01C87.367,81.01 86.664,80.874 85.971,80.601C85.278,80.328 84.679,79.988 84.175,79.582L85.309,78.028C85.771,78.392 86.23,78.676 86.685,78.879C87.14,79.082 87.633,79.183 88.165,79.183C88.725,79.183 89.138,79.068 89.404,78.837C89.67,78.606 89.803,78.308 89.803,77.944C89.803,77.734 89.74,77.549 89.614,77.388C89.488,77.227 89.32,77.083 89.11,76.957C88.9,76.831 88.662,76.716 88.396,76.611C88.13,76.506 87.864,76.397 87.598,76.285C87.262,76.159 86.919,76.012 86.569,75.844C86.219,75.676 85.908,75.473 85.635,75.235C85.362,74.997 85.138,74.721 84.963,74.406C84.788,74.091 84.7,73.716 84.7,73.282C84.7,72.372 85.036,71.63 85.708,71.056C86.38,70.482 87.297,70.195 88.459,70.195C89.173,70.195 89.817,70.321 90.391,70.573C90.965,70.825 91.462,71.112 91.882,71.434L90.769,72.904C90.405,72.638 90.038,72.425 89.667,72.264C89.296,72.103 88.907,72.022 88.501,72.022C87.983,72.022 87.602,72.131 87.357,72.348C87.112,72.565 86.989,72.834 86.989,73.156C86.989,73.366 87.049,73.545 87.168,73.692C87.287,73.839 87.444,73.968 87.64,74.08C87.836,74.192 88.064,74.297 88.323,74.395C88.582,74.493 88.851,74.591 89.131,74.689C89.481,74.815 89.831,74.959 90.181,75.12C90.531,75.281 90.85,75.48 91.137,75.718C91.424,75.956 91.655,76.247 91.83,76.59C92.005,76.933 92.092,77.342 92.092,77.818C92.092,78.266 92.005,78.683 91.83,79.068C91.655,79.453 91.399,79.789 91.063,80.076C90.727,80.363 90.307,80.59 89.803,80.758C89.299,80.926 88.725,81.01 88.081,81.01Z" style="fill:white;fill-rule:nonzero;"/>
                        <path d="M95.734,87.898C95.383,87.898 95.087,87.845 94.847,87.739C94.606,87.633 94.41,87.484 94.259,87.292C94.108,87.1 93.998,86.872 93.928,86.606C93.859,86.341 93.824,86.045 93.824,85.719L93.824,82.854L92.967,82.854L92.967,81.801L93.898,81.74L94.069,80.099L95.245,80.099L95.245,81.74L96.775,81.74L96.775,82.854L95.245,82.854L95.245,85.719C95.245,86.421 95.526,86.772 96.089,86.772C96.195,86.772 96.304,86.76 96.414,86.735C96.524,86.711 96.624,86.678 96.714,86.637L96.959,87.678C96.795,87.735 96.61,87.786 96.401,87.831C96.193,87.876 95.971,87.898 95.734,87.898Z" style="fill:white;fill-rule:nonzero;"/>
                    </g>
                </g>
                <g transform="matrix(6.19579,0,0,4.26076,-7952.91,-4449.87)">
                    <g transform="matrix(0.31746,-1.2326e-32,-2.77334e-32,0.296296,506.952,311.809)">
                        <g>
                            <path d="M60,276.875L60,270.125L228.84,270.125L223.8,260L249,273.5L223.8,287L228.84,276.875L60,276.875Z" style="fill:white;"/>
                        </g>
                    </g>
                    <g transform="matrix(1,0,0,1,466.242,330.434)">
                        <path d="M84.319,80.758L81.589,67.024L84.088,67.024L85.285,73.954C85.397,74.696 85.509,75.431 85.621,76.159C85.733,76.887 85.845,77.615 85.957,78.343L86.041,78.343C86.195,77.615 86.346,76.884 86.493,76.149C86.64,75.414 86.79,74.682 86.944,73.954L88.624,67.024L90.745,67.024L92.425,73.954C92.579,74.668 92.733,75.393 92.887,76.128C93.041,76.863 93.195,77.601 93.349,78.343L93.433,78.343C93.545,77.601 93.654,76.866 93.759,76.138C93.864,75.41 93.972,74.682 94.084,73.954L95.281,67.024L97.612,67.024L94.987,80.758L91.963,80.758L90.262,73.534C90.15,73.002 90.042,72.474 89.937,71.949C89.832,71.424 89.737,70.895 89.653,70.363L89.569,70.363C89.471,70.895 89.37,71.424 89.265,71.949C89.16,72.474 89.051,73.002 88.939,73.534L87.28,80.758L84.319,80.758Z" style="fill:white;fill-rule:nonzero;"/>
                        <path d="M101.366,87.898C100.827,87.898 100.307,87.796 99.805,87.592C99.303,87.388 98.86,87.098 98.477,86.723L99.309,85.756C99.595,86.025 99.921,86.243 100.289,86.411C100.656,86.578 101.023,86.662 101.39,86.662C101.848,86.662 102.194,86.568 102.431,86.38C102.668,86.192 102.786,85.943 102.786,85.633C102.786,85.47 102.756,85.331 102.694,85.217C102.633,85.103 102.547,85.003 102.437,84.917C102.327,84.831 102.196,84.752 102.045,84.678C101.894,84.605 101.729,84.531 101.55,84.458L100.448,83.98C100.252,83.899 100.058,83.797 99.866,83.674C99.674,83.552 99.501,83.405 99.346,83.234C99.191,83.062 99.066,82.862 98.972,82.634C98.879,82.405 98.832,82.144 98.832,81.85C98.832,81.532 98.899,81.236 99.034,80.962C99.168,80.689 99.354,80.45 99.591,80.246C99.827,80.042 100.111,79.883 100.442,79.769C100.772,79.654 101.133,79.597 101.525,79.597C101.99,79.597 102.439,79.689 102.872,79.873C103.304,80.056 103.676,80.303 103.986,80.614L103.264,81.52C103.002,81.307 102.733,81.14 102.456,81.018C102.178,80.895 101.868,80.834 101.525,80.834C101.142,80.834 100.835,80.918 100.607,81.085C100.378,81.252 100.264,81.483 100.264,81.777C100.264,81.932 100.299,82.064 100.368,82.175C100.438,82.285 100.531,82.383 100.65,82.468C100.768,82.554 100.905,82.632 101.06,82.701C101.215,82.77 101.374,82.838 101.537,82.903L102.627,83.356C102.864,83.454 103.08,83.568 103.276,83.699C103.472,83.829 103.641,83.98 103.784,84.152C103.927,84.323 104.039,84.521 104.121,84.746C104.202,84.97 104.243,85.229 104.243,85.523C104.243,85.849 104.178,86.156 104.047,86.441C103.917,86.727 103.727,86.978 103.478,87.194C103.229,87.41 102.927,87.582 102.572,87.708C102.217,87.835 101.815,87.898 101.366,87.898Z" style="fill:white;fill-rule:nonzero;"/>
                    </g>
                </g>
            </g>
            <g transform="matrix(0.332578,0,0,1,2107.15,3260.76)">
                <g id="output1" serif:id="output" transform="matrix(6.19579,0,0,4.26076,-7523.4,-4774.04)">
                    <g transform="matrix(1.94388e-17,-0.31746,0.296296,1.81429e-17,344.639,472.048)">
                        <g>
                            <path d="M60,276.875L60,270.125L228.84,270.125L223.8,260L249,273.5L223.8,287L228.84,276.875L60,276.875Z" style="fill:white;"/>
                        </g>
                    </g>
                    <g transform="matrix(1,0,0,1,338.511,308.102)">
                        <path d="M83.878,85C83.598,85 83.353,84.983 83.143,84.948C82.933,84.913 82.73,84.86 82.534,84.79L82.975,82.9C83.073,82.928 83.189,82.96 83.322,82.995C83.455,83.03 83.584,83.047 83.71,83.047C84.256,83.047 84.694,82.883 85.023,82.554C85.352,82.225 85.6,81.801 85.768,81.283L85.957,80.632L81.904,70.447L84.361,70.447L86.146,75.508C86.3,75.956 86.451,76.429 86.598,76.926C86.745,77.423 86.895,77.916 87.049,78.406L87.133,78.406C87.259,77.93 87.389,77.444 87.522,76.947C87.655,76.45 87.784,75.97 87.91,75.508L89.464,70.447L91.795,70.447L88.057,81.22C87.847,81.808 87.616,82.333 87.364,82.795C87.112,83.257 86.822,83.653 86.493,83.982C86.164,84.311 85.786,84.563 85.359,84.738C84.932,84.913 84.438,85 83.878,85Z" style="fill:white;fill-rule:nonzero;"/>
                        <path d="M95.059,87.898C94.708,87.898 94.412,87.845 94.172,87.739C93.931,87.633 93.735,87.484 93.584,87.292C93.433,87.1 93.323,86.872 93.253,86.606C93.184,86.341 93.149,86.045 93.149,85.719L93.149,82.854L92.292,82.854L92.292,81.801L93.223,81.74L93.394,80.099L94.569,80.099L94.569,81.74L96.1,81.74L96.1,82.854L94.569,82.854L94.569,85.719C94.569,86.421 94.851,86.772 95.414,86.772C95.52,86.772 95.628,86.76 95.739,86.735C95.849,86.711 95.949,86.678 96.039,86.637L96.283,87.678C96.12,87.735 95.935,87.786 95.726,87.831C95.518,87.876 95.296,87.898 95.059,87.898Z" style="fill:white;fill-rule:nonzero;"/>
                        <path d="M99.075,86.539L99.075,84.225L96.883,84.225L96.883,83.197L99.075,83.197L99.075,80.883L100.14,80.883L100.14,83.197L102.332,83.197L102.332,84.225L100.14,84.225L100.14,86.539L99.075,86.539Z" style="fill:white;fill-rule:nonzero;"/>
                        <path d="M103.654,87.751L103.654,86.6L105.392,86.6L105.392,81.483L103.96,81.483L103.96,80.601C104.352,80.528 104.688,80.44 104.97,80.338C105.251,80.236 105.515,80.112 105.76,79.965L106.812,79.965L106.812,86.6L108.343,86.6L108.343,87.751L103.654,87.751Z" style="fill:white;fill-rule:nonzero;"/>
                    </g>
                    <g transform="matrix(1,0,0,1,308.866,345.591)">
                        <path d="M84.319,80.758L81.589,67.024L84.088,67.024L85.285,73.954C85.397,74.696 85.509,75.431 85.621,76.159C85.733,76.887 85.845,77.615 85.957,78.343L86.041,78.343C86.195,77.615 86.346,76.884 86.493,76.149C86.64,75.414 86.79,74.682 86.944,73.954L88.624,67.024L90.745,67.024L92.425,73.954C92.579,74.668 92.733,75.393 92.887,76.128C93.041,76.863 93.195,77.601 93.349,78.343L93.433,78.343C93.545,77.601 93.654,76.866 93.759,76.138C93.864,75.41 93.972,74.682 94.084,73.954L95.281,67.024L97.612,67.024L94.987,80.758L91.963,80.758L90.262,73.534C90.15,73.002 90.042,72.474 89.937,71.949C89.832,71.424 89.737,70.895 89.653,70.363L89.569,70.363C89.471,70.895 89.37,71.424 89.265,71.949C89.16,72.474 89.051,73.002 88.939,73.534L87.28,80.758L84.319,80.758Z" style="fill:white;fill-rule:nonzero;"/>
                        <path d="M100.362,87.751L100.362,84.776L97.962,79.744L99.481,79.744L100.35,81.789C100.464,82.091 100.578,82.383 100.693,82.664C100.807,82.946 100.929,83.242 101.06,83.552L101.109,83.552C101.239,83.242 101.366,82.946 101.488,82.664C101.611,82.383 101.729,82.091 101.843,81.789L102.713,79.744L104.194,79.744L101.782,84.776L101.782,87.751L100.362,87.751Z" style="fill:white;fill-rule:nonzero;"/>
                    </g>
                </g>
                <g id="input1" serif:id="input" transform="matrix(6.19579,0,0,4.26076,-7523.4,-4424.66)">
                    <g transform="matrix(1.94388e-17,-0.31746,0.296296,1.81429e-17,344.639,482.048)">
                        <g>
                            <path d="M60,276.875L60,270.125L228.84,270.125L223.8,260L249,273.5L223.8,287L228.84,276.875L60,276.875Z" style="fill:white;"/>
                        </g>
                    </g>
                    <g transform="matrix(1,0,0,1,338.511,399.934)">
                        <path d="M81.505,80.758L84.781,75.382L81.715,70.447L84.319,70.447L85.474,72.4C85.628,72.68 85.786,72.971 85.947,73.272C86.108,73.573 86.265,73.863 86.419,74.143L86.503,74.143C86.629,73.863 86.762,73.573 86.902,73.272C87.042,72.971 87.175,72.68 87.301,72.4L88.288,70.447L90.787,70.447L87.742,75.655L91.018,80.758L88.414,80.758L87.154,78.721C86.986,78.413 86.815,78.105 86.64,77.797C86.465,77.489 86.286,77.188 86.104,76.894L86.02,76.894C85.866,77.188 85.716,77.486 85.569,77.787C85.422,78.088 85.271,78.399 85.117,78.721L84.025,80.758L81.505,80.758Z" style="fill:white;fill-rule:nonzero;"/>
                        <path d="M94.324,87.898C93.973,87.898 93.677,87.845 93.437,87.739C93.196,87.633 93,87.484 92.849,87.292C92.698,87.1 92.588,86.872 92.518,86.606C92.449,86.341 92.414,86.045 92.414,85.719L92.414,82.854L91.557,82.854L91.557,81.801L92.488,81.74L92.659,80.099L93.834,80.099L93.834,81.74L95.365,81.74L95.365,82.854L93.834,82.854L93.834,85.719C93.834,86.421 94.116,86.772 94.679,86.772C94.785,86.772 94.893,86.76 95.004,86.735C95.114,86.711 95.214,86.678 95.304,86.637L95.548,87.678C95.385,87.735 95.2,87.786 94.991,87.831C94.783,87.876 94.561,87.898 94.324,87.898Z" style="fill:white;fill-rule:nonzero;"/>
                        <path d="M98.34,86.539L98.34,84.225L96.148,84.225L96.148,83.197L98.34,83.197L98.34,80.883L99.405,80.883L99.405,83.197L101.597,83.197L101.597,84.225L99.405,84.225L99.405,86.539L98.34,86.539Z" style="fill:white;fill-rule:nonzero;"/>
                        <path d="M102.919,87.751L102.919,86.6L104.657,86.6L104.657,81.483L103.225,81.483L103.225,80.601C103.617,80.528 103.953,80.44 104.235,80.338C104.516,80.236 104.78,80.112 105.025,79.965L106.077,79.965L106.077,86.6L107.608,86.6L107.608,87.751L102.919,87.751Z" style="fill:white;fill-rule:nonzero;"/>
                    </g>
                    <g transform="matrix(1,0,0,1,356.171,355.591)">
                        <path d="M84.319,80.758L81.589,67.024L84.088,67.024L85.285,73.954C85.397,74.696 85.509,75.431 85.621,76.159C85.733,76.887 85.845,77.615 85.957,78.343L86.041,78.343C86.195,77.615 86.346,76.884 86.493,76.149C86.64,75.414 86.79,74.682 86.944,73.954L88.624,67.024L90.745,67.024L92.425,73.954C92.579,74.668 92.733,75.393 92.887,76.128C93.041,76.863 93.195,77.601 93.349,78.343L93.433,78.343C93.545,77.601 93.654,76.866 93.759,76.138C93.864,75.41 93.972,74.682 94.084,73.954L95.281,67.024L97.612,67.024L94.987,80.758L91.963,80.758L90.262,73.534C90.15,73.002 90.042,72.474 89.937,71.949C89.832,71.424 89.737,70.895 89.653,70.363L89.569,70.363C89.471,70.895 89.37,71.424 89.265,71.949C89.16,72.474 89.051,73.002 88.939,73.534L87.28,80.758L84.319,80.758Z" style="fill:white;fill-rule:nonzero;"/>
                        <path d="M98.171,87.751L100.448,83.625L98.317,79.744L99.897,79.744L100.778,81.52C100.876,81.707 100.972,81.899 101.066,82.095C101.16,82.291 101.268,82.507 101.39,82.744L101.439,82.744C101.537,82.507 101.629,82.291 101.715,82.095C101.801,81.899 101.888,81.707 101.978,81.52L102.823,79.744L104.329,79.744L102.199,83.687L104.476,87.751L102.896,87.751L101.917,85.866C101.811,85.654 101.707,85.443 101.605,85.235C101.503,85.027 101.39,84.801 101.268,84.556L101.219,84.556C101.113,84.801 101.013,85.027 100.919,85.235C100.825,85.443 100.729,85.654 100.631,85.866L99.676,87.751L98.171,87.751Z" style="fill:white;fill-rule:nonzero;"/>
                    </g>
                </g>
                <g transform="matrix(6.19579,0,0,4.26076,-7952.91,-4449.87)">
                    <g transform="matrix(0.31746,-1.2326e-32,-2.77334e-32,0.296296,506.952,311.809)">
                        <g>
                            <path d="M60,276.875L60,270.125L228.84,270.125L223.8,260L249,273.5L223.8,287L228.84,276.875L60,276.875Z" style="fill:white;"/>
                        </g>
                    </g>
                    <g transform="matrix(1,0,0,1,466.242,330.434)">
                        <path d="M84.319,80.758L81.589,67.024L84.088,67.024L85.285,73.954C85.397,74.696 85.509,75.431 85.621,76.159C85.733,76.887 85.845,77.615 85.957,78.343L86.041,78.343C86.195,77.615 86.346,76.884 86.493,76.149C86.64,75.414 86.79,74.682 86.944,73.954L88.624,67.024L90.745,67.024L92.425,73.954C92.579,74.668 92.733,75.393 92.887,76.128C93.041,76.863 93.195,77.601 93.349,78.343L93.433,78.343C93.545,77.601 93.654,76.866 93.759,76.138C93.864,75.41 93.972,74.682 94.084,73.954L95.281,67.024L97.612,67.024L94.987,80.758L91.963,80.758L90.262,73.534C90.15,73.002 90.042,72.474 89.937,71.949C89.832,71.424 89.737,70.895 89.653,70.363L89.569,70.363C89.471,70.895 89.37,71.424 89.265,71.949C89.16,72.474 89.051,73.002 88.939,73.534L87.28,80.758L84.319,80.758Z" style="fill:white;fill-rule:nonzero;"/>
                        <path d="M101.366,87.898C100.827,87.898 100.307,87.796 99.805,87.592C99.303,87.388 98.86,87.098 98.477,86.723L99.309,85.756C99.595,86.025 99.921,86.243 100.289,86.411C100.656,86.578 101.023,86.662 101.39,86.662C101.848,86.662 102.194,86.568 102.431,86.38C102.668,86.192 102.786,85.943 102.786,85.633C102.786,85.47 102.756,85.331 102.694,85.217C102.633,85.103 102.547,85.003 102.437,84.917C102.327,84.831 102.196,84.752 102.045,84.678C101.894,84.605 101.729,84.531 101.55,84.458L100.448,83.98C100.252,83.899 100.058,83.797 99.866,83.674C99.674,83.552 99.501,83.405 99.346,83.234C99.191,83.062 99.066,82.862 98.972,82.634C98.879,82.405 98.832,82.144 98.832,81.85C98.832,81.532 98.899,81.236 99.034,80.962C99.168,80.689 99.354,80.45 99.591,80.246C99.827,80.042 100.111,79.883 100.442,79.769C100.772,79.654 101.133,79.597 101.525,79.597C101.99,79.597 102.439,79.689 102.872,79.873C103.304,80.056 103.676,80.303 103.986,80.614L103.264,81.52C103.002,81.307 102.733,81.14 102.456,81.018C102.178,80.895 101.868,80.834 101.525,80.834C101.142,80.834 100.835,80.918 100.607,81.085C100.378,81.252 100.264,81.483 100.264,81.777C100.264,81.932 100.299,82.064 100.368,82.175C100.438,82.285 100.531,82.383 100.65,82.468C100.768,82.554 100.905,82.632 101.06,82.701C101.215,82.77 101.374,82.838 101.537,82.903L102.627,83.356C102.864,83.454 103.08,83.568 103.276,83.699C103.472,83.829 103.641,83.98 103.784,84.152C103.927,84.323 104.039,84.521 104.121,84.746C104.202,84.97 104.243,85.229 104.243,85.523C104.243,85.849 104.178,86.156 104.047,86.441C103.917,86.727 103.727,86.978 103.478,87.194C103.229,87.41 102.927,87.582 102.572,87.708C102.217,87.835 101.815,87.898 101.366,87.898Z" style="fill:white;fill-rule:nonzero;"/>
                    </g>
                </g>
                <g id="tanh1" serif:id="tanh" transform="matrix(6.19579,0,0,4.26076,-6366.79,-3465.99)">
                    <g transform="matrix(1.93548,0,0,0.967742,-228.535,-699.774)">
                        <path d="M257.06,882.75C257.06,878.473 255.324,875 253.185,875L229.935,875C227.796,875 226.06,878.473 226.06,882.75L226.06,898.25C226.06,902.527 227.796,906 229.935,906L253.185,906C255.324,906 257.06,902.527 257.06,898.25L257.06,882.75Z" style="fill:rgb(24,193,84);"/>
                        <path d="M253.235,875.001L253.285,875.003L253.335,875.006L253.384,875.01L253.434,875.016L253.483,875.023L253.532,875.031L253.581,875.04L253.63,875.051L253.678,875.062L253.727,875.075L253.775,875.089L253.823,875.105L253.871,875.121L253.918,875.139L253.966,875.158L254.013,875.178L254.06,875.199L254.106,875.221L254.153,875.244L254.199,875.269L254.245,875.294L254.291,875.321L254.337,875.349L254.382,875.378L254.427,875.407L254.472,875.439L254.517,875.471L254.561,875.504L254.605,875.538L254.649,875.573L254.693,875.609L254.736,875.647L254.779,875.685L254.822,875.724L254.864,875.765L254.907,875.806L254.948,875.848L254.99,875.892L255.031,875.936L255.072,875.981L255.113,876.027L255.154,876.075L255.194,876.123L255.233,876.172L255.273,876.222L255.312,876.273L255.351,876.324L255.389,876.377L255.428,876.431L255.465,876.485L255.503,876.54L255.54,876.597L255.577,876.654L255.613,876.712L255.649,876.771L255.685,876.83L255.72,876.891L255.755,876.952L255.79,877.014L255.824,877.077L255.858,877.141L255.891,877.206L255.925,877.271L255.957,877.337L255.989,877.404L256.021,877.472L256.053,877.54L256.084,877.609L256.115,877.679L256.145,877.75L256.175,877.821L256.204,877.894L256.233,877.966L256.262,878.04L256.29,878.114L256.317,878.189L256.345,878.265L256.371,878.341L256.398,878.418L256.424,878.496L256.449,878.574L256.474,878.653L256.499,878.733L256.523,878.813L256.546,878.894L256.569,878.975L256.592,879.057L256.614,879.14L256.636,879.223L256.657,879.307L256.678,879.391L256.698,879.476L256.717,879.562L256.737,879.648L256.755,879.735L256.773,879.822L256.791,879.909L256.808,879.998L256.825,880.086L256.841,880.176L256.856,880.265L256.871,880.356L256.886,880.446L256.9,880.538L256.913,880.629L256.926,880.722L256.938,880.814L256.95,880.907L256.961,881.001L256.971,881.095L256.981,881.189L256.991,881.284L256.999,881.379L257.008,881.474L257.015,881.57L257.022,881.667L257.029,881.764L257.035,881.861L257.04,881.958L257.045,882.056L257.049,882.154L257.052,882.253L257.055,882.351L257.057,882.451L257.059,882.55L257.06,882.65L257.06,882.75L257.06,898.25L257.06,898.35L257.059,898.45L257.057,898.549L257.055,898.649L257.052,898.747L257.049,898.846L257.045,898.944L257.04,899.042L257.035,899.139L257.029,899.236L257.022,899.333L257.015,899.43L257.008,899.526L256.999,899.621L256.991,899.716L256.981,899.811L256.971,899.905L256.961,899.999L256.95,900.093L256.938,900.186L256.926,900.278L256.913,900.371L256.9,900.462L256.886,900.554L256.871,900.644L256.856,900.735L256.841,900.824L256.825,900.914L256.808,901.002L256.791,901.091L256.773,901.178L256.755,901.265L256.737,901.352L256.717,901.438L256.698,901.524L256.678,901.609L256.657,901.693L256.636,901.777L256.614,901.86L256.592,901.943L256.569,902.025L256.546,902.106L256.523,902.187L256.499,902.267L256.474,902.347L256.449,902.426L256.424,902.504L256.398,902.582L256.371,902.659L256.345,902.735L256.317,902.811L256.29,902.886L256.262,902.96L256.233,903.034L256.204,903.106L256.175,903.179L256.145,903.25L256.115,903.321L256.084,903.391L256.053,903.46L256.021,903.528L255.989,903.596L255.957,903.663L255.925,903.729L255.891,903.794L255.858,903.859L255.824,903.923L255.79,903.986L255.755,904.048L255.72,904.109L255.685,904.17L255.649,904.229L255.613,904.288L255.577,904.346L255.54,904.403L255.503,904.46L255.465,904.515L255.428,904.569L255.389,904.623L255.351,904.676L255.312,904.727L255.273,904.778L255.233,904.828L255.194,904.877L255.154,904.925L255.113,904.973L255.072,905.019L255.031,905.064L254.99,905.108L254.948,905.152L254.907,905.194L254.864,905.235L254.822,905.276L254.779,905.315L254.736,905.353L254.693,905.391L254.649,905.427L254.605,905.462L254.561,905.496L254.517,905.529L254.472,905.561L254.427,905.593L254.382,905.622L254.337,905.651L254.291,905.679L254.245,905.706L254.199,905.731L254.153,905.756L254.106,905.779L254.06,905.801L254.013,905.822L253.966,905.842L253.918,905.861L253.871,905.879L253.823,905.895L253.775,905.911L253.727,905.925L253.678,905.938L253.63,905.949L253.581,905.96L253.532,905.969L253.483,905.977L253.434,905.984L253.384,905.99L253.335,905.994L253.285,905.997L253.235,905.999L253.185,906L229.935,906L229.885,905.999L229.835,905.997L229.785,905.994L229.736,905.99L229.686,905.984L229.637,905.977L229.588,905.969L229.539,905.96L229.49,905.949L229.442,905.938L229.393,905.925L229.345,905.911L229.297,905.895L229.249,905.879L229.202,905.861L229.154,905.842L229.107,905.822L229.06,905.801L229.014,905.779L228.967,905.756L228.921,905.731L228.875,905.706L228.829,905.679L228.783,905.651L228.738,905.622L228.693,905.593L228.648,905.561L228.603,905.529L228.559,905.496L228.515,905.462L228.471,905.427L228.427,905.391L228.384,905.353L228.341,905.315L228.298,905.276L228.256,905.235L228.213,905.194L228.172,905.152L228.13,905.108L228.089,905.064L228.048,905.019L228.007,904.973L227.966,904.925L227.926,904.877L227.887,904.828L227.847,904.778L227.808,904.727L227.769,904.676L227.731,904.623L227.692,904.569L227.655,904.515L227.617,904.46L227.58,904.403L227.543,904.346L227.507,904.288L227.471,904.229L227.435,904.17L227.4,904.109L227.365,904.048L227.33,903.986L227.296,903.923L227.262,903.859L227.229,903.794L227.195,903.729L227.163,903.663L227.131,903.596L227.099,903.528L227.067,903.46L227.036,903.391L227.005,903.321L226.975,903.25L226.945,903.179L226.916,903.106L226.887,903.034L226.858,902.96L226.83,902.886L226.803,902.811L226.775,902.735L226.749,902.659L226.722,902.582L226.696,902.504L226.671,902.426L226.646,902.347L226.621,902.267L226.597,902.187L226.574,902.106L226.551,902.025L226.528,901.943L226.506,901.86L226.484,901.777L226.463,901.693L226.442,901.609L226.422,901.524L226.403,901.438L226.383,901.352L226.365,901.265L226.347,901.178L226.329,901.091L226.312,901.002L226.295,900.914L226.279,900.824L226.264,900.735L226.249,900.644L226.234,900.554L226.22,900.462L226.207,900.371L226.194,900.278L226.182,900.186L226.17,900.093L226.159,899.999L226.149,899.905L226.139,899.811L226.129,899.716L226.121,899.621L226.112,899.526L226.105,899.43L226.098,899.333L226.091,899.236L226.085,899.139L226.08,899.042L226.075,898.944L226.071,898.846L226.068,898.747L226.065,898.649L226.063,898.549L226.061,898.45L226.06,898.35L226.06,898.25L226.06,882.75L226.06,882.65L226.061,882.55L226.063,882.451L226.065,882.351L226.068,882.253L226.071,882.154L226.075,882.056L226.08,881.958L226.085,881.861L226.091,881.764L226.098,881.667L226.105,881.57L226.112,881.474L226.121,881.379L226.129,881.284L226.139,881.189L226.149,881.095L226.159,881.001L226.17,880.907L226.182,880.814L226.194,880.722L226.207,880.629L226.22,880.538L226.234,880.446L226.249,880.356L226.264,880.265L226.279,880.176L226.295,880.086L226.312,879.998L226.329,879.909L226.347,879.822L226.365,879.735L226.383,879.648L226.403,879.562L226.422,879.476L226.442,879.391L226.463,879.307L226.484,879.223L226.506,879.14L226.528,879.057L226.551,878.975L226.574,878.894L226.597,878.813L226.621,878.733L226.646,878.653L226.671,878.574L226.696,878.496L226.722,878.418L226.749,878.341L226.775,878.265L226.803,878.189L226.83,878.114L226.858,878.04L226.887,877.966L226.916,877.894L226.945,877.821L226.975,877.75L227.005,877.679L227.036,877.609L227.067,877.54L227.099,877.472L227.131,877.404L227.163,877.337L227.195,877.271L227.229,877.206L227.262,877.141L227.296,877.077L227.33,877.014L227.365,876.952L227.4,876.891L227.435,876.83L227.471,876.771L227.507,876.712L227.543,876.654L227.58,876.597L227.617,876.54L227.655,876.485L227.692,876.431L227.731,876.377L227.769,876.324L227.808,876.273L227.847,876.222L227.887,876.172L227.926,876.123L227.966,876.075L228.007,876.027L228.048,875.981L228.089,875.936L228.13,875.892L228.172,875.848L228.213,875.806L228.256,875.765L228.298,875.724L228.341,875.685L228.384,875.647L228.427,875.609L228.471,875.573L228.515,875.538L228.559,875.504L228.603,875.471L228.648,875.439L228.693,875.407L228.738,875.378L228.783,875.349L228.829,875.321L228.875,875.294L228.921,875.269L228.967,875.244L229.014,875.221L229.06,875.199L229.107,875.178L229.154,875.158L229.202,875.139L229.249,875.121L229.297,875.105L229.345,875.089L229.393,875.075L229.442,875.062L229.49,875.051L229.539,875.04L229.588,875.031L229.637,875.023L229.686,875.016L229.736,875.01L229.785,875.006L229.835,875.003L229.885,875.001L229.935,875L253.185,875L253.235,875.001ZM229.938,877.067L229.898,877.067L229.861,877.069L229.825,877.071L229.788,877.074L229.752,877.078L229.715,877.083L229.68,877.089L229.644,877.096L229.608,877.104L229.572,877.112L229.537,877.122L229.501,877.132L229.466,877.144L229.431,877.156L229.396,877.168L229.362,877.182L229.327,877.197L229.293,877.212L229.259,877.228L229.225,877.246L229.191,877.263L229.157,877.282L229.124,877.302L229.091,877.322L229.057,877.343L229.024,877.365L228.991,877.388L228.959,877.411L228.926,877.435L228.894,877.46L228.862,877.486L228.83,877.513L228.798,877.54L228.767,877.568L228.736,877.597L228.704,877.626L228.674,877.657L228.643,877.688L228.612,877.719L228.582,877.752L228.552,877.785L228.522,877.819L228.493,877.853L228.463,877.889L228.434,877.925L228.405,877.961L228.376,877.999L228.348,878.037L228.319,878.075L228.292,878.115L228.264,878.155L228.236,878.195L228.209,878.237L228.182,878.279L228.155,878.321L228.129,878.365L228.102,878.408L228.076,878.453L228.051,878.498L228.025,878.544L228,878.59L227.975,878.637L227.95,878.685L227.926,878.732L227.902,878.781L227.878,878.83L227.855,878.88L227.832,878.93L227.809,878.981L227.786,879.033L227.764,879.085L227.742,879.137L227.721,879.19L227.699,879.244L227.678,879.298L227.658,879.352L227.637,879.407L227.617,879.463L227.598,879.519L227.578,879.575L227.559,879.632L227.541,879.69L227.522,879.748L227.504,879.806L227.487,879.865L227.469,879.924L227.452,879.984L227.436,880.044L227.42,880.105L227.404,880.166L227.388,880.227L227.373,880.289L227.358,880.351L227.344,880.414L227.33,880.477L227.316,880.54L227.303,880.604L227.29,880.668L227.278,880.733L227.266,880.797L227.254,880.863L227.243,880.928L227.232,880.994L227.221,881.061L227.211,881.128L227.201,881.194L227.192,881.262L227.183,881.329L227.174,881.398L227.166,881.466L227.158,881.535L227.151,881.604L227.144,881.673L227.138,881.743L227.132,881.813L227.126,881.883L227.121,881.953L227.116,882.025L227.112,882.096L227.108,882.167L227.105,882.239L227.102,882.311L227.099,882.383L227.097,882.456L227.095,882.529L227.094,882.603L227.094,882.676L227.093,882.756L227.093,898.243L227.094,898.324L227.094,898.397L227.095,898.471L227.097,898.544L227.099,898.617L227.102,898.689L227.105,898.761L227.108,898.833L227.112,898.904L227.116,898.975L227.121,899.046L227.126,899.117L227.132,899.187L227.138,899.257L227.144,899.327L227.151,899.396L227.158,899.465L227.166,899.534L227.174,899.602L227.183,899.671L227.192,899.738L227.201,899.805L227.211,899.872L227.221,899.939L227.232,900.006L227.242,900.072L227.254,900.137L227.266,900.203L227.278,900.267L227.29,900.332L227.303,900.396L227.316,900.46L227.33,900.523L227.344,900.586L227.358,900.649L227.373,900.711L227.388,900.773L227.404,900.834L227.42,900.895L227.436,900.956L227.452,901.016L227.469,901.076L227.487,901.135L227.504,901.194L227.522,901.252L227.541,901.31L227.559,901.368L227.578,901.425L227.598,901.481L227.617,901.537L227.637,901.593L227.658,901.648L227.678,901.702L227.699,901.756L227.721,901.81L227.742,901.863L227.764,901.915L227.786,901.967L227.809,902.019L227.832,902.07L227.855,902.12L227.878,902.17L227.902,902.219L227.926,902.268L227.951,902.316L227.975,902.363L228,902.41L228.025,902.457L228.051,902.502L228.076,902.547L228.102,902.592L228.129,902.635L228.155,902.679L228.182,902.721L228.209,902.763L228.236,902.805L228.264,902.846L228.291,902.885L228.319,902.924L228.348,902.963L228.376,903.001L228.405,903.039L228.434,903.075L228.463,903.111L228.492,903.147L228.522,903.181L228.552,903.215L228.582,903.248L228.612,903.281L228.643,903.312L228.674,903.343L228.704,903.374L228.736,903.403L228.767,903.432L228.798,903.46L228.83,903.487L228.862,903.514L228.894,903.54L228.926,903.565L228.959,903.589L228.991,903.612L229.024,903.635L229.057,903.657L229.09,903.678L229.124,903.698L229.157,903.718L229.191,903.737L229.225,903.754L229.259,903.772L229.293,903.788L229.327,903.803L229.362,903.818L229.396,903.832L229.431,903.844L229.466,903.856L229.502,903.868L229.537,903.878L229.572,903.888L229.608,903.896L229.644,903.904L229.68,903.911L229.715,903.917L229.752,903.922L229.788,903.926L229.825,903.929L229.861,903.931L229.898,903.933L229.938,903.933L253.182,903.933L253.222,903.933L253.259,903.931L253.295,903.929L253.332,903.926L253.368,903.922L253.405,903.917L253.44,903.911L253.476,903.904L253.512,903.896L253.548,903.888L253.583,903.878L253.618,903.868L253.654,903.856L253.689,903.844L253.724,903.832L253.758,903.818L253.793,903.803L253.827,903.788L253.861,903.772L253.895,903.754L253.929,903.737L253.963,903.718L253.996,903.698L254.03,903.678L254.063,903.657L254.096,903.635L254.129,903.612L254.161,903.589L254.194,903.565L254.226,903.54L254.258,903.514L254.29,903.487L254.322,903.46L254.353,903.432L254.384,903.403L254.416,903.374L254.446,903.343L254.477,903.312L254.508,903.281L254.538,903.248L254.568,903.215L254.598,903.181L254.628,903.147L254.657,903.111L254.686,903.075L254.715,903.039L254.744,903.001L254.772,902.963L254.801,902.924L254.829,902.885L254.856,902.846L254.884,902.805L254.911,902.763L254.938,902.721L254.965,902.679L254.991,902.635L255.018,902.592L255.044,902.547L255.069,902.502L255.095,902.457L255.12,902.41L255.145,902.363L255.169,902.316L255.194,902.268L255.218,902.219L255.242,902.17L255.265,902.12L255.288,902.07L255.311,902.019L255.334,901.967L255.356,901.915L255.378,901.863L255.399,901.81L255.421,901.756L255.442,901.702L255.462,901.648L255.483,901.593L255.503,901.537L255.522,901.481L255.542,901.425L255.561,901.368L255.579,901.31L255.598,901.252L255.616,901.194L255.633,901.135L255.651,901.076L255.668,901.016L255.684,900.956L255.7,900.895L255.716,900.834L255.732,900.773L255.747,900.711L255.762,900.649L255.776,900.586L255.79,900.523L255.804,900.46L255.817,900.396L255.83,900.332L255.842,900.267L255.854,900.203L255.866,900.137L255.878,900.072L255.888,900.006L255.899,899.939L255.909,899.872L255.919,899.805L255.928,899.738L255.937,899.671L255.946,899.602L255.954,899.534L255.962,899.465L255.969,899.396L255.976,899.327L255.982,899.257L255.988,899.187L255.994,899.117L255.999,899.046L256.004,898.975L256.008,898.904L256.012,898.833L256.015,898.761L256.018,898.689L256.021,898.617L256.023,898.544L256.025,898.471L256.026,898.397L256.026,898.324L256.027,898.243L256.027,882.756L256.026,882.676L256.026,882.603L256.025,882.529L256.023,882.456L256.021,882.383L256.018,882.311L256.015,882.239L256.012,882.167L256.008,882.096L256.004,882.025L255.999,881.953L255.994,881.883L255.988,881.813L255.982,881.743L255.976,881.673L255.969,881.604L255.962,881.535L255.954,881.466L255.946,881.398L255.937,881.329L255.928,881.262L255.919,881.194L255.909,881.128L255.899,881.061L255.888,880.994L255.877,880.928L255.866,880.863L255.854,880.797L255.842,880.733L255.83,880.668L255.817,880.604L255.804,880.54L255.79,880.477L255.776,880.414L255.762,880.351L255.747,880.289L255.732,880.227L255.716,880.166L255.7,880.105L255.684,880.044L255.668,879.984L255.651,879.924L255.633,879.865L255.616,879.806L255.598,879.748L255.579,879.69L255.561,879.632L255.542,879.575L255.522,879.519L255.503,879.463L255.483,879.407L255.462,879.352L255.442,879.298L255.421,879.244L255.399,879.19L255.378,879.137L255.356,879.085L255.334,879.033L255.311,878.981L255.288,878.93L255.265,878.88L255.242,878.83L255.218,878.781L255.194,878.732L255.17,878.685L255.145,878.637L255.12,878.59L255.095,878.544L255.069,878.498L255.044,878.453L255.018,878.408L254.991,878.365L254.965,878.321L254.938,878.279L254.911,878.237L254.884,878.195L254.856,878.155L254.828,878.115L254.801,878.075L254.772,878.037L254.744,877.999L254.715,877.961L254.686,877.925L254.657,877.889L254.627,877.853L254.598,877.819L254.568,877.785L254.538,877.752L254.508,877.719L254.477,877.688L254.446,877.657L254.416,877.626L254.384,877.597L254.353,877.568L254.322,877.54L254.29,877.513L254.258,877.486L254.226,877.46L254.194,877.435L254.161,877.411L254.129,877.388L254.096,877.365L254.063,877.343L254.029,877.322L253.996,877.302L253.963,877.282L253.929,877.263L253.895,877.246L253.861,877.228L253.827,877.212L253.793,877.197L253.758,877.182L253.724,877.168L253.689,877.156L253.654,877.144L253.619,877.132L253.583,877.122L253.548,877.112L253.512,877.104L253.476,877.096L253.44,877.089L253.405,877.083L253.368,877.078L253.332,877.074L253.295,877.071L253.259,877.069L253.222,877.067L253.182,877.067L229.938,877.067Z" style="fill:rgb(11,164,63);"/>
                    </g>
                    <g transform="matrix(1,0,0,1,150.545,83.0058)">
                        <path d="M88.081,81.01C87.367,81.01 86.664,80.874 85.971,80.601C85.278,80.328 84.679,79.988 84.175,79.582L85.309,78.028C85.771,78.392 86.23,78.676 86.685,78.879C87.14,79.082 87.633,79.183 88.165,79.183C88.725,79.183 89.138,79.068 89.404,78.837C89.67,78.606 89.803,78.308 89.803,77.944C89.803,77.734 89.74,77.549 89.614,77.388C89.488,77.227 89.32,77.083 89.11,76.957C88.9,76.831 88.662,76.716 88.396,76.611C88.13,76.506 87.864,76.397 87.598,76.285C87.262,76.159 86.919,76.012 86.569,75.844C86.219,75.676 85.908,75.473 85.635,75.235C85.362,74.997 85.138,74.721 84.963,74.406C84.788,74.091 84.7,73.716 84.7,73.282C84.7,72.372 85.036,71.63 85.708,71.056C86.38,70.482 87.297,70.195 88.459,70.195C89.173,70.195 89.817,70.321 90.391,70.573C90.965,70.825 91.462,71.112 91.882,71.434L90.769,72.904C90.405,72.638 90.038,72.425 89.667,72.264C89.296,72.103 88.907,72.022 88.501,72.022C87.983,72.022 87.602,72.131 87.357,72.348C87.112,72.565 86.989,72.834 86.989,73.156C86.989,73.366 87.049,73.545 87.168,73.692C87.287,73.839 87.444,73.968 87.64,74.08C87.836,74.192 88.064,74.297 88.323,74.395C88.582,74.493 88.851,74.591 89.131,74.689C89.481,74.815 89.831,74.959 90.181,75.12C90.531,75.281 90.85,75.48 91.137,75.718C91.424,75.956 91.655,76.247 91.83,76.59C92.005,76.933 92.092,77.342 92.092,77.818C92.092,78.266 92.005,78.683 91.83,79.068C91.655,79.453 91.399,79.789 91.063,80.076C90.727,80.363 90.307,80.59 89.803,80.758C89.299,80.926 88.725,81.01 88.081,81.01Z" style="fill:white;fill-rule:nonzero;"/>
                        <path d="M95.734,87.898C95.383,87.898 95.087,87.845 94.847,87.739C94.606,87.633 94.41,87.484 94.259,87.292C94.108,87.1 93.998,86.872 93.928,86.606C93.859,86.341 93.824,86.045 93.824,85.719L93.824,82.854L92.967,82.854L92.967,81.801L93.898,81.74L94.069,80.099L95.245,80.099L95.245,81.74L96.775,81.74L96.775,82.854L95.245,82.854L95.245,85.719C95.245,86.421 95.526,86.772 96.089,86.772C96.195,86.772 96.304,86.76 96.414,86.735C96.524,86.711 96.624,86.678 96.714,86.637L96.959,87.678C96.795,87.735 96.61,87.786 96.401,87.831C96.193,87.876 95.971,87.898 95.734,87.898Z" style="fill:white;fill-rule:nonzero;"/>
                        <path d="M99.75,86.539L99.75,84.225L97.558,84.225L97.558,83.197L99.75,83.197L99.75,80.883L100.815,80.883L100.815,83.197L103.007,83.197L103.007,84.225L100.815,84.225L100.815,86.539L99.75,86.539Z" style="fill:white;fill-rule:nonzero;"/>
                        <path d="M104.329,87.751L104.329,86.6L106.067,86.6L106.067,81.483L104.635,81.483L104.635,80.601C105.027,80.528 105.363,80.44 105.645,80.338C105.927,80.236 106.19,80.112 106.435,79.965L107.488,79.965L107.488,86.6L109.018,86.6L109.018,87.751L104.329,87.751Z" style="fill:white;fill-rule:nonzero;"/>
                    </g>
                </g>
            </g>
            <g transform="matrix(0.332578,0,0,1,2358.54,3260.76)">
                <g id="output2" serif:id="output" transform="matrix(6.19579,0,0,4.26076,-7523.4,-4774.04)">
                    <g transform="matrix(1.94388e-17,-0.31746,0.296296,1.81429e-17,344.639,472.048)">
                        <g>
                            <path d="M60,276.875L60,270.125L228.84,270.125L223.8,260L249,273.5L223.8,287L228.84,276.875L60,276.875Z" style="fill:white;"/>
                        </g>
                    </g>
                    <g transform="matrix(1,0,0,1,338.511,308.102)">
                        <path d="M83.878,85C83.598,85 83.353,84.983 83.143,84.948C82.933,84.913 82.73,84.86 82.534,84.79L82.975,82.9C83.073,82.928 83.189,82.96 83.322,82.995C83.455,83.03 83.584,83.047 83.71,83.047C84.256,83.047 84.694,82.883 85.023,82.554C85.352,82.225 85.6,81.801 85.768,81.283L85.957,80.632L81.904,70.447L84.361,70.447L86.146,75.508C86.3,75.956 86.451,76.429 86.598,76.926C86.745,77.423 86.895,77.916 87.049,78.406L87.133,78.406C87.259,77.93 87.389,77.444 87.522,76.947C87.655,76.45 87.784,75.97 87.91,75.508L89.464,70.447L91.795,70.447L88.057,81.22C87.847,81.808 87.616,82.333 87.364,82.795C87.112,83.257 86.822,83.653 86.493,83.982C86.164,84.311 85.786,84.563 85.359,84.738C84.932,84.913 84.438,85 83.878,85Z" style="fill:white;fill-rule:nonzero;"/>
                        <path d="M95.059,87.898C94.708,87.898 94.412,87.845 94.172,87.739C93.931,87.633 93.735,87.484 93.584,87.292C93.433,87.1 93.323,86.872 93.253,86.606C93.184,86.341 93.149,86.045 93.149,85.719L93.149,82.854L92.292,82.854L92.292,81.801L93.223,81.74L93.394,80.099L94.569,80.099L94.569,81.74L96.1,81.74L96.1,82.854L94.569,82.854L94.569,85.719C94.569,86.421 94.851,86.772 95.414,86.772C95.52,86.772 95.628,86.76 95.739,86.735C95.849,86.711 95.949,86.678 96.039,86.637L96.283,87.678C96.12,87.735 95.935,87.786 95.726,87.831C95.518,87.876 95.296,87.898 95.059,87.898Z" style="fill:white;fill-rule:nonzero;"/>
                        <path d="M99.075,86.539L99.075,84.225L96.883,84.225L96.883,83.197L99.075,83.197L99.075,80.883L100.14,80.883L100.14,83.197L102.332,83.197L102.332,84.225L100.14,84.225L100.14,86.539L99.075,86.539Z" style="fill:white;fill-rule:nonzero;"/>
                        <path d="M103.213,87.751L103.213,86.931C103.752,86.409 104.239,85.927 104.676,85.486C105.113,85.045 105.484,84.637 105.79,84.262C106.096,83.886 106.331,83.536 106.494,83.209C106.657,82.883 106.739,82.572 106.739,82.279C106.739,81.862 106.629,81.534 106.408,81.293C106.188,81.052 105.87,80.932 105.454,80.932C105.152,80.932 104.876,81.018 104.627,81.189C104.378,81.36 104.148,81.564 103.935,81.801L103.152,81.018C103.511,80.634 103.88,80.338 104.26,80.13C104.639,79.922 105.098,79.818 105.637,79.818C106.013,79.818 106.351,79.875 106.653,79.989C106.955,80.103 107.212,80.265 107.425,80.473C107.637,80.681 107.802,80.932 107.92,81.226C108.039,81.52 108.098,81.846 108.098,82.205C108.098,82.548 108.022,82.897 107.871,83.252C107.72,83.607 107.516,83.966 107.259,84.329C107.002,84.692 106.702,85.066 106.359,85.45C106.017,85.833 105.653,86.229 105.27,86.637C105.474,86.621 105.694,86.602 105.931,86.582C106.168,86.562 106.38,86.551 106.568,86.551L108.478,86.551L108.478,87.751L103.213,87.751Z" style="fill:white;fill-rule:nonzero;"/>
                    </g>
                    <g transform="matrix(1,0,0,1,308.866,345.591)">
                        <path d="M84.319,80.758L81.589,67.024L84.088,67.024L85.285,73.954C85.397,74.696 85.509,75.431 85.621,76.159C85.733,76.887 85.845,77.615 85.957,78.343L86.041,78.343C86.195,77.615 86.346,76.884 86.493,76.149C86.64,75.414 86.79,74.682 86.944,73.954L88.624,67.024L90.745,67.024L92.425,73.954C92.579,74.668 92.733,75.393 92.887,76.128C93.041,76.863 93.195,77.601 93.349,78.343L93.433,78.343C93.545,77.601 93.654,76.866 93.759,76.138C93.864,75.41 93.972,74.682 94.084,73.954L95.281,67.024L97.612,67.024L94.987,80.758L91.963,80.758L90.262,73.534C90.15,73.002 90.042,72.474 89.937,71.949C89.832,71.424 89.737,70.895 89.653,70.363L89.569,70.363C89.471,70.895 89.37,71.424 89.265,71.949C89.16,72.474 89.051,73.002 88.939,73.534L87.28,80.758L84.319,80.758Z" style="fill:white;fill-rule:nonzero;"/>
                        <path d="M100.362,87.751L100.362,84.776L97.962,79.744L99.481,79.744L100.35,81.789C100.464,82.091 100.578,82.383 100.693,82.664C100.807,82.946 100.929,83.242 101.06,83.552L101.109,83.552C101.239,83.242 101.366,82.946 101.488,82.664C101.611,82.383 101.729,82.091 101.843,81.789L102.713,79.744L104.194,79.744L101.782,84.776L101.782,87.751L100.362,87.751Z" style="fill:white;fill-rule:nonzero;"/>
                    </g>
                </g>
                <g id="input2" serif:id="input" transform="matrix(6.19579,0,0,4.26076,-7523.4,-4424.66)">
                    <g transform="matrix(1.94388e-17,-0.31746,0.296296,1.81429e-17,344.639,482.048)">
                        <g>
                            <path d="M60,276.875L60,270.125L228.84,270.125L223.8,260L249,273.5L223.8,287L228.84,276.875L60,276.875Z" style="fill:white;"/>
                        </g>
                    </g>
                    <g transform="matrix(1,0,0,1,338.511,399.934)">
                        <path d="M81.505,80.758L84.781,75.382L81.715,70.447L84.319,70.447L85.474,72.4C85.628,72.68 85.786,72.971 85.947,73.272C86.108,73.573 86.265,73.863 86.419,74.143L86.503,74.143C86.629,73.863 86.762,73.573 86.902,73.272C87.042,72.971 87.175,72.68 87.301,72.4L88.288,70.447L90.787,70.447L87.742,75.655L91.018,80.758L88.414,80.758L87.154,78.721C86.986,78.413 86.815,78.105 86.64,77.797C86.465,77.489 86.286,77.188 86.104,76.894L86.02,76.894C85.866,77.188 85.716,77.486 85.569,77.787C85.422,78.088 85.271,78.399 85.117,78.721L84.025,80.758L81.505,80.758Z" style="fill:white;fill-rule:nonzero;"/>
                        <path d="M94.324,87.898C93.973,87.898 93.677,87.845 93.437,87.739C93.196,87.633 93,87.484 92.849,87.292C92.698,87.1 92.588,86.872 92.518,86.606C92.449,86.341 92.414,86.045 92.414,85.719L92.414,82.854L91.557,82.854L91.557,81.801L92.488,81.74L92.659,80.099L93.834,80.099L93.834,81.74L95.365,81.74L95.365,82.854L93.834,82.854L93.834,85.719C93.834,86.421 94.116,86.772 94.679,86.772C94.785,86.772 94.893,86.76 95.004,86.735C95.114,86.711 95.214,86.678 95.304,86.637L95.548,87.678C95.385,87.735 95.2,87.786 94.991,87.831C94.783,87.876 94.561,87.898 94.324,87.898Z" style="fill:white;fill-rule:nonzero;"/>
                        <path d="M98.34,86.539L98.34,84.225L96.148,84.225L96.148,83.197L98.34,83.197L98.34,80.883L99.405,80.883L99.405,83.197L101.597,83.197L101.597,84.225L99.405,84.225L99.405,86.539L98.34,86.539Z" style="fill:white;fill-rule:nonzero;"/>
                        <path d="M102.478,87.751L102.478,86.931C103.017,86.409 103.504,85.927 103.941,85.486C104.378,85.045 104.749,84.637 105.055,84.262C105.361,83.886 105.596,83.536 105.759,83.209C105.922,82.883 106.004,82.572 106.004,82.279C106.004,81.862 105.894,81.534 105.673,81.293C105.453,81.052 105.135,80.932 104.719,80.932C104.417,80.932 104.141,81.018 103.892,81.189C103.643,81.36 103.413,81.564 103.2,81.801L102.417,81.018C102.776,80.634 103.145,80.338 103.525,80.13C103.904,79.922 104.363,79.818 104.902,79.818C105.278,79.818 105.616,79.875 105.918,79.989C106.22,80.103 106.477,80.265 106.69,80.473C106.902,80.681 107.067,80.932 107.185,81.226C107.304,81.52 107.363,81.846 107.363,82.205C107.363,82.548 107.287,82.897 107.136,83.252C106.985,83.607 106.781,83.966 106.524,84.329C106.267,84.692 105.967,85.066 105.624,85.45C105.282,85.833 104.918,86.229 104.535,86.637C104.739,86.621 104.959,86.602 105.196,86.582C105.433,86.562 105.645,86.551 105.833,86.551L107.743,86.551L107.743,87.751L102.478,87.751Z" style="fill:white;fill-rule:nonzero;"/>
                    </g>
                    <g transform="matrix(1,0,0,1,356.171,355.591)">
                        <path d="M84.319,80.758L81.589,67.024L84.088,67.024L85.285,73.954C85.397,74.696 85.509,75.431 85.621,76.159C85.733,76.887 85.845,77.615 85.957,78.343L86.041,78.343C86.195,77.615 86.346,76.884 86.493,76.149C86.64,75.414 86.79,74.682 86.944,73.954L88.624,67.024L90.745,67.024L92.425,73.954C92.579,74.668 92.733,75.393 92.887,76.128C93.041,76.863 93.195,77.601 93.349,78.343L93.433,78.343C93.545,77.601 93.654,76.866 93.759,76.138C93.864,75.41 93.972,74.682 94.084,73.954L95.281,67.024L97.612,67.024L94.987,80.758L91.963,80.758L90.262,73.534C90.15,73.002 90.042,72.474 89.937,71.949C89.832,71.424 89.737,70.895 89.653,70.363L89.569,70.363C89.471,70.895 89.37,71.424 89.265,71.949C89.16,72.474 89.051,73.002 88.939,73.534L87.28,80.758L84.319,80.758Z" style="fill:white;fill-rule:nonzero;"/>
                        <path d="M98.171,87.751L100.448,83.625L98.317,79.744L99.897,79.744L100.778,81.52C100.876,81.707 100.972,81.899 101.066,82.095C101.16,82.291 101.268,82.507 101.39,82.744L101.439,82.744C101.537,82.507 101.629,82.291 101.715,82.095C101.801,81.899 101.888,81.707 101.978,81.52L102.823,79.744L104.329,79.744L102.199,83.687L104.476,87.751L102.896,87.751L101.917,85.866C101.811,85.654 101.707,85.443 101.605,85.235C101.503,85.027 101.39,84.801 101.268,84.556L101.219,84.556C101.113,84.801 101.013,85.027 100.919,85.235C100.825,85.443 100.729,85.654 100.631,85.866L99.676,87.751L98.171,87.751Z" style="fill:white;fill-rule:nonzero;"/>
                    </g>
                </g>
                <g transform="matrix(6.19579,0,0,4.26076,-7951.27,-4449.87)">
                    <g transform="matrix(0.31746,-1.2326e-32,-2.77334e-32,0.296296,506.688,311.809)">
                        <g>
                            <path d="M60,276.875L60,270.125L228.84,270.125L223.8,260L249,273.5L223.8,287L228.84,276.875L60,276.875Z" style="fill:white;"/>
                        </g>
                    </g>
                    <g transform="matrix(1,0,0,1,466.242,330.434)">
                        <path d="M84.319,80.758L81.589,67.024L84.088,67.024L85.285,73.954C85.397,74.696 85.509,75.431 85.621,76.159C85.733,76.887 85.845,77.615 85.957,78.343L86.041,78.343C86.195,77.615 86.346,76.884 86.493,76.149C86.64,75.414 86.79,74.682 86.944,73.954L88.624,67.024L90.745,67.024L92.425,73.954C92.579,74.668 92.733,75.393 92.887,76.128C93.041,76.863 93.195,77.601 93.349,78.343L93.433,78.343C93.545,77.601 93.654,76.866 93.759,76.138C93.864,75.41 93.972,74.682 94.084,73.954L95.281,67.024L97.612,67.024L94.987,80.758L91.963,80.758L90.262,73.534C90.15,73.002 90.042,72.474 89.937,71.949C89.832,71.424 89.737,70.895 89.653,70.363L89.569,70.363C89.471,70.895 89.37,71.424 89.265,71.949C89.16,72.474 89.051,73.002 88.939,73.534L87.28,80.758L84.319,80.758Z" style="fill:white;fill-rule:nonzero;"/>
                        <path d="M101.366,87.898C100.827,87.898 100.307,87.796 99.805,87.592C99.303,87.388 98.86,87.098 98.477,86.723L99.309,85.756C99.595,86.025 99.921,86.243 100.289,86.411C100.656,86.578 101.023,86.662 101.39,86.662C101.848,86.662 102.194,86.568 102.431,86.38C102.668,86.192 102.786,85.943 102.786,85.633C102.786,85.47 102.756,85.331 102.694,85.217C102.633,85.103 102.547,85.003 102.437,84.917C102.327,84.831 102.196,84.752 102.045,84.678C101.894,84.605 101.729,84.531 101.55,84.458L100.448,83.98C100.252,83.899 100.058,83.797 99.866,83.674C99.674,83.552 99.501,83.405 99.346,83.234C99.191,83.062 99.066,82.862 98.972,82.634C98.879,82.405 98.832,82.144 98.832,81.85C98.832,81.532 98.899,81.236 99.034,80.962C99.168,80.689 99.354,80.45 99.591,80.246C99.827,80.042 100.111,79.883 100.442,79.769C100.772,79.654 101.133,79.597 101.525,79.597C101.99,79.597 102.439,79.689 102.872,79.873C103.304,80.056 103.676,80.303 103.986,80.614L103.264,81.52C103.002,81.307 102.733,81.14 102.456,81.018C102.178,80.895 101.868,80.834 101.525,80.834C101.142,80.834 100.835,80.918 100.607,81.085C100.378,81.252 100.264,81.483 100.264,81.777C100.264,81.932 100.299,82.064 100.368,82.175C100.438,82.285 100.531,82.383 100.65,82.468C100.768,82.554 100.905,82.632 101.06,82.701C101.215,82.77 101.374,82.838 101.537,82.903L102.627,83.356C102.864,83.454 103.08,83.568 103.276,83.699C103.472,83.829 103.641,83.98 103.784,84.152C103.927,84.323 104.039,84.521 104.121,84.746C104.202,84.97 104.243,85.229 104.243,85.523C104.243,85.849 104.178,86.156 104.047,86.441C103.917,86.727 103.727,86.978 103.478,87.194C103.229,87.41 102.927,87.582 102.572,87.708C102.217,87.835 101.815,87.898 101.366,87.898Z" style="fill:white;fill-rule:nonzero;"/>
                    </g>
                </g>
                <g id="tanh2" serif:id="tanh" transform="matrix(6.19579,0,0,4.26076,-6366.79,-3465.99)">
                    <g transform="matrix(1.93548,0,0,0.967742,-228.535,-699.774)">
                        <path d="M257.06,882.75C257.06,878.473 255.324,875 253.185,875L229.935,875C227.796,875 226.06,878.473 226.06,882.75L226.06,898.25C226.06,902.527 227.796,906 229.935,906L253.185,906C255.324,906 257.06,902.527 257.06,898.25L257.06,882.75Z" style="fill:rgb(24,193,84);"/>
                        <path d="M253.235,875.001L253.285,875.003L253.335,875.006L253.384,875.01L253.434,875.016L253.483,875.023L253.532,875.031L253.581,875.04L253.63,875.051L253.678,875.062L253.727,875.075L253.775,875.089L253.823,875.105L253.871,875.121L253.918,875.139L253.966,875.158L254.013,875.178L254.06,875.199L254.106,875.221L254.153,875.244L254.199,875.269L254.245,875.294L254.291,875.321L254.337,875.349L254.382,875.378L254.427,875.407L254.472,875.439L254.517,875.471L254.561,875.504L254.605,875.538L254.649,875.573L254.693,875.609L254.736,875.647L254.779,875.685L254.822,875.724L254.864,875.765L254.907,875.806L254.948,875.848L254.99,875.892L255.031,875.936L255.072,875.981L255.113,876.027L255.154,876.075L255.194,876.123L255.233,876.172L255.273,876.222L255.312,876.273L255.351,876.324L255.389,876.377L255.428,876.431L255.465,876.485L255.503,876.54L255.54,876.597L255.577,876.654L255.613,876.712L255.649,876.771L255.685,876.83L255.72,876.891L255.755,876.952L255.79,877.014L255.824,877.077L255.858,877.141L255.891,877.206L255.925,877.271L255.957,877.337L255.989,877.404L256.021,877.472L256.053,877.54L256.084,877.609L256.115,877.679L256.145,877.75L256.175,877.821L256.204,877.894L256.233,877.966L256.262,878.04L256.29,878.114L256.317,878.189L256.345,878.265L256.371,878.341L256.398,878.418L256.424,878.496L256.449,878.574L256.474,878.653L256.499,878.733L256.523,878.813L256.546,878.894L256.569,878.975L256.592,879.057L256.614,879.14L256.636,879.223L256.657,879.307L256.678,879.391L256.698,879.476L256.717,879.562L256.737,879.648L256.755,879.735L256.773,879.822L256.791,879.909L256.808,879.998L256.825,880.086L256.841,880.176L256.856,880.265L256.871,880.356L256.886,880.446L256.9,880.538L256.913,880.629L256.926,880.722L256.938,880.814L256.95,880.907L256.961,881.001L256.971,881.095L256.981,881.189L256.991,881.284L256.999,881.379L257.008,881.474L257.015,881.57L257.022,881.667L257.029,881.764L257.035,881.861L257.04,881.958L257.045,882.056L257.049,882.154L257.052,882.253L257.055,882.351L257.057,882.451L257.059,882.55L257.06,882.65L257.06,882.75L257.06,898.25L257.06,898.35L257.059,898.45L257.057,898.549L257.055,898.649L257.052,898.747L257.049,898.846L257.045,898.944L257.04,899.042L257.035,899.139L257.029,899.236L257.022,899.333L257.015,899.43L257.008,899.526L256.999,899.621L256.991,899.716L256.981,899.811L256.971,899.905L256.961,899.999L256.95,900.093L256.938,900.186L256.926,900.278L256.913,900.371L256.9,900.462L256.886,900.554L256.871,900.644L256.856,900.735L256.841,900.824L256.825,900.914L256.808,901.002L256.791,901.091L256.773,901.178L256.755,901.265L256.737,901.352L256.717,901.438L256.698,901.524L256.678,901.609L256.657,901.693L256.636,901.777L256.614,901.86L256.592,901.943L256.569,902.025L256.546,902.106L256.523,902.187L256.499,902.267L256.474,902.347L256.449,902.426L256.424,902.504L256.398,902.582L256.371,902.659L256.345,902.735L256.317,902.811L256.29,902.886L256.262,902.96L256.233,903.034L256.204,903.106L256.175,903.179L256.145,903.25L256.115,903.321L256.084,903.391L256.053,903.46L256.021,903.528L255.989,903.596L255.957,903.663L255.925,903.729L255.891,903.794L255.858,903.859L255.824,903.923L255.79,903.986L255.755,904.048L255.72,904.109L255.685,904.17L255.649,904.229L255.613,904.288L255.577,904.346L255.54,904.403L255.503,904.46L255.465,904.515L255.428,904.569L255.389,904.623L255.351,904.676L255.312,904.727L255.273,904.778L255.233,904.828L255.194,904.877L255.154,904.925L255.113,904.973L255.072,905.019L255.031,905.064L254.99,905.108L254.948,905.152L254.907,905.194L254.864,905.235L254.822,905.276L254.779,905.315L254.736,905.353L254.693,905.391L254.649,905.427L254.605,905.462L254.561,905.496L254.517,905.529L254.472,905.561L254.427,905.593L254.382,905.622L254.337,905.651L254.291,905.679L254.245,905.706L254.199,905.731L254.153,905.756L254.106,905.779L254.06,905.801L254.013,905.822L253.966,905.842L253.918,905.861L253.871,905.879L253.823,905.895L253.775,905.911L253.727,905.925L253.678,905.938L253.63,905.949L253.581,905.96L253.532,905.969L253.483,905.977L253.434,905.984L253.384,905.99L253.335,905.994L253.285,905.997L253.235,905.999L253.185,906L229.935,906L229.885,905.999L229.835,905.997L229.785,905.994L229.736,905.99L229.686,905.984L229.637,905.977L229.588,905.969L229.539,905.96L229.49,905.949L229.442,905.938L229.393,905.925L229.345,905.911L229.297,905.895L229.249,905.879L229.202,905.861L229.154,905.842L229.107,905.822L229.06,905.801L229.014,905.779L228.967,905.756L228.921,905.731L228.875,905.706L228.829,905.679L228.783,905.651L228.738,905.622L228.693,905.593L228.648,905.561L228.603,905.529L228.559,905.496L228.515,905.462L228.471,905.427L228.427,905.391L228.384,905.353L228.341,905.315L228.298,905.276L228.256,905.235L228.213,905.194L228.172,905.152L228.13,905.108L228.089,905.064L228.048,905.019L228.007,904.973L227.966,904.925L227.926,904.877L227.887,904.828L227.847,904.778L227.808,904.727L227.769,904.676L227.731,904.623L227.692,904.569L227.655,904.515L227.617,904.46L227.58,904.403L227.543,904.346L227.507,904.288L227.471,904.229L227.435,904.17L227.4,904.109L227.365,904.048L227.33,903.986L227.296,903.923L227.262,903.859L227.229,903.794L227.195,903.729L227.163,903.663L227.131,903.596L227.099,903.528L227.067,903.46L227.036,903.391L227.005,903.321L226.975,903.25L226.945,903.179L226.916,903.106L226.887,903.034L226.858,902.96L226.83,902.886L226.803,902.811L226.775,902.735L226.749,902.659L226.722,902.582L226.696,902.504L226.671,902.426L226.646,902.347L226.621,902.267L226.597,902.187L226.574,902.106L226.551,902.025L226.528,901.943L226.506,901.86L226.484,901.777L226.463,901.693L226.442,901.609L226.422,901.524L226.403,901.438L226.383,901.352L226.365,901.265L226.347,901.178L226.329,901.091L226.312,901.002L226.295,900.914L226.279,900.824L226.264,900.735L226.249,900.644L226.234,900.554L226.22,900.462L226.207,900.371L226.194,900.278L226.182,900.186L226.17,900.093L226.159,899.999L226.149,899.905L226.139,899.811L226.129,899.716L226.121,899.621L226.112,899.526L226.105,899.43L226.098,899.333L226.091,899.236L226.085,899.139L226.08,899.042L226.075,898.944L226.071,898.846L226.068,898.747L226.065,898.649L226.063,898.549L226.061,898.45L226.06,898.35L226.06,898.25L226.06,882.75L226.06,882.65L226.061,882.55L226.063,882.451L226.065,882.351L226.068,882.253L226.071,882.154L226.075,882.056L226.08,881.958L226.085,881.861L226.091,881.764L226.098,881.667L226.105,881.57L226.112,881.474L226.121,881.379L226.129,881.284L226.139,881.189L226.149,881.095L226.159,881.001L226.17,880.907L226.182,880.814L226.194,880.722L226.207,880.629L226.22,880.538L226.234,880.446L226.249,880.356L226.264,880.265L226.279,880.176L226.295,880.086L226.312,879.998L226.329,879.909L226.347,879.822L226.365,879.735L226.383,879.648L226.403,879.562L226.422,879.476L226.442,879.391L226.463,879.307L226.484,879.223L226.506,879.14L226.528,879.057L226.551,878.975L226.574,878.894L226.597,878.813L226.621,878.733L226.646,878.653L226.671,878.574L226.696,878.496L226.722,878.418L226.749,878.341L226.775,878.265L226.803,878.189L226.83,878.114L226.858,878.04L226.887,877.966L226.916,877.894L226.945,877.821L226.975,877.75L227.005,877.679L227.036,877.609L227.067,877.54L227.099,877.472L227.131,877.404L227.163,877.337L227.195,877.271L227.229,877.206L227.262,877.141L227.296,877.077L227.33,877.014L227.365,876.952L227.4,876.891L227.435,876.83L227.471,876.771L227.507,876.712L227.543,876.654L227.58,876.597L227.617,876.54L227.655,876.485L227.692,876.431L227.731,876.377L227.769,876.324L227.808,876.273L227.847,876.222L227.887,876.172L227.926,876.123L227.966,876.075L228.007,876.027L228.048,875.981L228.089,875.936L228.13,875.892L228.172,875.848L228.213,875.806L228.256,875.765L228.298,875.724L228.341,875.685L228.384,875.647L228.427,875.609L228.471,875.573L228.515,875.538L228.559,875.504L228.603,875.471L228.648,875.439L228.693,875.407L228.738,875.378L228.783,875.349L228.829,875.321L228.875,875.294L228.921,875.269L228.967,875.244L229.014,875.221L229.06,875.199L229.107,875.178L229.154,875.158L229.202,875.139L229.249,875.121L229.297,875.105L229.345,875.089L229.393,875.075L229.442,875.062L229.49,875.051L229.539,875.04L229.588,875.031L229.637,875.023L229.686,875.016L229.736,875.01L229.785,875.006L229.835,875.003L229.885,875.001L229.935,875L253.185,875L253.235,875.001ZM229.938,877.067L229.898,877.067L229.861,877.069L229.825,877.071L229.788,877.074L229.752,877.078L229.715,877.083L229.68,877.089L229.644,877.096L229.608,877.104L229.572,877.112L229.537,877.122L229.501,877.132L229.466,877.144L229.431,877.156L229.396,877.168L229.362,877.182L229.327,877.197L229.293,877.212L229.259,877.228L229.225,877.246L229.191,877.263L229.157,877.282L229.124,877.302L229.091,877.322L229.057,877.343L229.024,877.365L228.991,877.388L228.959,877.411L228.926,877.435L228.894,877.46L228.862,877.486L228.83,877.513L228.798,877.54L228.767,877.568L228.736,877.597L228.704,877.626L228.673,877.657L228.643,877.688L228.612,877.719L228.582,877.752L228.552,877.785L228.522,877.819L228.493,877.853L228.463,877.889L228.434,877.925L228.405,877.961L228.376,877.999L228.348,878.037L228.32,878.075L228.292,878.115L228.264,878.155L228.236,878.196L228.209,878.237L228.182,878.279L228.155,878.321L228.129,878.365L228.102,878.408L228.076,878.453L228.051,878.498L228.025,878.544L228,878.59L227.975,878.637L227.95,878.684L227.926,878.732L227.902,878.781L227.878,878.83L227.855,878.88L227.832,878.93L227.809,878.981L227.786,879.033L227.764,879.085L227.742,879.137L227.721,879.19L227.699,879.244L227.678,879.298L227.658,879.352L227.637,879.407L227.617,879.463L227.598,879.519L227.578,879.575L227.559,879.633L227.541,879.69L227.522,879.748L227.504,879.806L227.487,879.865L227.469,879.924L227.453,879.984L227.436,880.044L227.42,880.105L227.404,880.165L227.388,880.227L227.373,880.289L227.358,880.351L227.344,880.414L227.33,880.477L227.316,880.54L227.303,880.604L227.29,880.668L227.278,880.733L227.266,880.798L227.254,880.863L227.243,880.928L227.232,880.994L227.221,881.061L227.211,881.128L227.201,881.194L227.192,881.262L227.183,881.329L227.174,881.397L227.166,881.466L227.158,881.535L227.151,881.604L227.144,881.673L227.138,881.743L227.132,881.813L227.126,881.883L227.121,881.953L227.116,882.024L227.112,882.096L227.108,882.167L227.105,882.239L227.102,882.311L227.099,882.383L227.097,882.456L227.095,882.529L227.094,882.602L227.094,882.676L227.093,882.757L227.093,898.243L227.094,898.324L227.094,898.398L227.095,898.471L227.097,898.544L227.099,898.617L227.102,898.689L227.105,898.761L227.108,898.833L227.112,898.905L227.116,898.976L227.121,899.046L227.126,899.117L227.132,899.187L227.138,899.257L227.144,899.327L227.151,899.396L227.158,899.465L227.166,899.534L227.174,899.603L227.183,899.671L227.192,899.738L227.201,899.805L227.211,899.872L227.221,899.939L227.232,900.006L227.242,900.072L227.254,900.137L227.266,900.202L227.278,900.267L227.29,900.332L227.303,900.396L227.316,900.46L227.33,900.523L227.344,900.586L227.358,900.649L227.373,900.711L227.388,900.773L227.404,900.834L227.42,900.895L227.436,900.956L227.453,901.016L227.469,901.076L227.487,901.135L227.504,901.194L227.522,901.252L227.541,901.31L227.559,901.368L227.578,901.425L227.598,901.481L227.617,901.537L227.637,901.593L227.658,901.648L227.678,901.702L227.699,901.756L227.721,901.81L227.742,901.863L227.764,901.915L227.786,901.967L227.809,902.019L227.832,902.07L227.855,902.12L227.878,902.17L227.902,902.219L227.926,902.268L227.951,902.316L227.975,902.363L228,902.41L228.025,902.457L228.051,902.502L228.076,902.547L228.102,902.592L228.129,902.635L228.155,902.679L228.182,902.721L228.209,902.763L228.236,902.805L228.264,902.845L228.291,902.885L228.319,902.925L228.348,902.963L228.376,903.001L228.405,903.039L228.434,903.075L228.463,903.111L228.492,903.146L228.522,903.181L228.552,903.215L228.582,903.248L228.612,903.281L228.643,903.312L228.673,903.343L228.704,903.374L228.736,903.403L228.767,903.432L228.798,903.46L228.83,903.487L228.862,903.514L228.894,903.54L228.926,903.565L228.959,903.589L228.991,903.612L229.024,903.635L229.057,903.657L229.09,903.678L229.124,903.698L229.157,903.718L229.191,903.737L229.225,903.754L229.259,903.772L229.293,903.788L229.327,903.803L229.362,903.818L229.396,903.831L229.431,903.844L229.466,903.856L229.502,903.868L229.537,903.878L229.572,903.888L229.608,903.896L229.644,903.904L229.68,903.911L229.715,903.917L229.752,903.922L229.788,903.926L229.825,903.929L229.861,903.931L229.898,903.933L229.938,903.933L253.182,903.933L253.222,903.933L253.259,903.931L253.295,903.929L253.332,903.926L253.368,903.922L253.405,903.917L253.44,903.911L253.476,903.904L253.512,903.896L253.548,903.888L253.583,903.878L253.618,903.868L253.654,903.856L253.689,903.844L253.724,903.831L253.758,903.818L253.793,903.803L253.827,903.788L253.861,903.772L253.895,903.754L253.929,903.737L253.963,903.718L253.996,903.698L254.03,903.678L254.063,903.657L254.096,903.635L254.129,903.612L254.161,903.589L254.194,903.565L254.226,903.54L254.258,903.514L254.29,903.487L254.322,903.46L254.353,903.432L254.384,903.403L254.416,903.374L254.446,903.343L254.477,903.312L254.508,903.281L254.538,903.248L254.568,903.215L254.598,903.181L254.628,903.147L254.657,903.112L254.686,903.075L254.715,903.039L254.744,903.001L254.772,902.963L254.801,902.924L254.829,902.885L254.856,902.845L254.884,902.805L254.911,902.763L254.938,902.721L254.965,902.679L254.992,902.635L255.018,902.592L255.044,902.547L255.069,902.502L255.095,902.457L255.12,902.41L255.145,902.363L255.169,902.316L255.194,902.268L255.218,902.219L255.242,902.17L255.265,902.12L255.288,902.07L255.311,902.019L255.334,901.967L255.356,901.915L255.378,901.863L255.399,901.81L255.421,901.757L255.442,901.702L255.462,901.648L255.483,901.593L255.503,901.537L255.522,901.481L255.542,901.425L255.561,901.368L255.579,901.31L255.598,901.252L255.616,901.194L255.633,901.135L255.651,901.076L255.668,901.016L255.684,900.956L255.7,900.895L255.716,900.834L255.732,900.773L255.747,900.711L255.762,900.649L255.776,900.586L255.79,900.523L255.804,900.46L255.817,900.396L255.83,900.332L255.842,900.267L255.854,900.203L255.866,900.137L255.878,900.071L255.888,900.006L255.899,899.939L255.909,899.873L255.919,899.806L255.928,899.738L255.937,899.67L255.946,899.603L255.954,899.534L255.962,899.465L255.969,899.397L255.976,899.327L255.982,899.257L255.988,899.187L255.994,899.117L255.999,899.046L256.004,898.975L256.008,898.904L256.012,898.833L256.015,898.761L256.018,898.689L256.021,898.617L256.023,898.544L256.025,898.471L256.026,898.397L256.026,898.324L256.027,898.243L256.027,882.756L256.026,882.676L256.026,882.603L256.025,882.529L256.023,882.456L256.021,882.383L256.018,882.311L256.015,882.239L256.012,882.167L256.008,882.096L256.004,882.025L255.999,881.953L255.994,881.883L255.988,881.813L255.982,881.743L255.976,881.673L255.969,881.604L255.962,881.535L255.954,881.466L255.946,881.397L255.937,881.33L255.928,881.262L255.919,881.194L255.909,881.127L255.899,881.061L255.888,880.995L255.878,880.928L255.866,880.863L255.854,880.797L255.842,880.733L255.83,880.668L255.817,880.604L255.804,880.54L255.79,880.477L255.776,880.414L255.762,880.351L255.747,880.289L255.732,880.227L255.716,880.166L255.7,880.105L255.684,880.044L255.667,879.984L255.651,879.924L255.633,879.865L255.616,879.806L255.598,879.748L255.579,879.69L255.561,879.633L255.542,879.575L255.522,879.519L255.503,879.463L255.483,879.407L255.462,879.352L255.442,879.298L255.421,879.243L255.399,879.19L255.378,879.137L255.356,879.085L255.334,879.033L255.311,878.981L255.288,878.93L255.265,878.88L255.242,878.83L255.218,878.781L255.194,878.732L255.17,878.684L255.145,878.637L255.12,878.59L255.095,878.544L255.069,878.498L255.044,878.453L255.018,878.408L254.992,878.365L254.965,878.321L254.938,878.279L254.911,878.237L254.884,878.196L254.856,878.155L254.828,878.115L254.801,878.075L254.772,878.037L254.744,877.999L254.715,877.961L254.686,877.925L254.657,877.889L254.627,877.853L254.598,877.819L254.568,877.785L254.538,877.752L254.508,877.719L254.477,877.688L254.446,877.657L254.416,877.626L254.384,877.597L254.353,877.568L254.322,877.54L254.29,877.513L254.258,877.486L254.226,877.46L254.194,877.435L254.161,877.411L254.129,877.388L254.096,877.365L254.063,877.343L254.029,877.322L253.996,877.302L253.963,877.282L253.929,877.263L253.895,877.246L253.861,877.228L253.827,877.212L253.793,877.197L253.758,877.182L253.724,877.168L253.689,877.156L253.654,877.144L253.619,877.132L253.583,877.122L253.548,877.112L253.512,877.104L253.476,877.096L253.44,877.089L253.405,877.083L253.368,877.078L253.332,877.074L253.295,877.071L253.259,877.069L253.222,877.067L253.182,877.067L229.938,877.067Z" style="fill:rgb(11,164,63);"/>
                    </g>
                    <g transform="matrix(1,0,0,1,150.545,83.0058)">
                        <path d="M88.081,81.01C87.367,81.01 86.664,80.874 85.971,80.601C85.278,80.328 84.679,79.988 84.175,79.582L85.309,78.028C85.771,78.392 86.23,78.676 86.685,78.879C87.14,79.082 87.633,79.183 88.165,79.183C88.725,79.183 89.138,79.068 89.404,78.837C89.67,78.606 89.803,78.308 89.803,77.944C89.803,77.734 89.74,77.549 89.614,77.388C89.488,77.227 89.32,77.083 89.11,76.957C88.9,76.831 88.662,76.716 88.396,76.611C88.13,76.506 87.864,76.397 87.598,76.285C87.262,76.159 86.919,76.012 86.569,75.844C86.219,75.676 85.908,75.473 85.635,75.235C85.362,74.997 85.138,74.721 84.963,74.406C84.788,74.091 84.7,73.716 84.7,73.282C84.7,72.372 85.036,71.63 85.708,71.056C86.38,70.482 87.297,70.195 88.459,70.195C89.173,70.195 89.817,70.321 90.391,70.573C90.965,70.825 91.462,71.112 91.882,71.434L90.769,72.904C90.405,72.638 90.038,72.425 89.667,72.264C89.296,72.103 88.907,72.022 88.501,72.022C87.983,72.022 87.602,72.131 87.357,72.348C87.112,72.565 86.989,72.834 86.989,73.156C86.989,73.366 87.049,73.545 87.168,73.692C87.287,73.839 87.444,73.968 87.64,74.08C87.836,74.192 88.064,74.297 88.323,74.395C88.582,74.493 88.851,74.591 89.131,74.689C89.481,74.815 89.831,74.959 90.181,75.12C90.531,75.281 90.85,75.48 91.137,75.718C91.424,75.956 91.655,76.247 91.83,76.59C92.005,76.933 92.092,77.342 92.092,77.818C92.092,78.266 92.005,78.683 91.83,79.068C91.655,79.453 91.399,79.789 91.063,80.076C90.727,80.363 90.307,80.59 89.803,80.758C89.299,80.926 88.725,81.01 88.081,81.01Z" style="fill:white;fill-rule:nonzero;"/>
                        <path d="M95.734,87.898C95.383,87.898 95.087,87.845 94.847,87.739C94.606,87.633 94.41,87.484 94.259,87.292C94.108,87.1 93.998,86.872 93.928,86.606C93.859,86.341 93.824,86.045 93.824,85.719L93.824,82.854L92.967,82.854L92.967,81.801L93.898,81.74L94.069,80.099L95.245,80.099L95.245,81.74L96.775,81.74L96.775,82.854L95.245,82.854L95.245,85.719C95.245,86.421 95.526,86.772 96.089,86.772C96.195,86.772 96.304,86.76 96.414,86.735C96.524,86.711 96.624,86.678 96.714,86.637L96.959,87.678C96.795,87.735 96.61,87.786 96.401,87.831C96.193,87.876 95.971,87.898 95.734,87.898Z" style="fill:white;fill-rule:nonzero;"/>
                        <path d="M99.75,86.539L99.75,84.225L97.558,84.225L97.558,83.197L99.75,83.197L99.75,80.883L100.815,80.883L100.815,83.197L103.007,83.197L103.007,84.225L100.815,84.225L100.815,86.539L99.75,86.539Z" style="fill:white;fill-rule:nonzero;"/>
                        <path d="M103.888,87.751L103.888,86.931C104.427,86.409 104.914,85.927 105.351,85.486C105.788,85.045 106.159,84.637 106.465,84.262C106.771,83.886 107.006,83.536 107.169,83.209C107.332,82.883 107.414,82.572 107.414,82.279C107.414,81.862 107.304,81.534 107.083,81.293C106.863,81.052 106.545,80.932 106.129,80.932C105.827,80.932 105.551,81.018 105.302,81.189C105.053,81.36 104.823,81.564 104.61,81.801L103.827,81.018C104.186,80.634 104.555,80.338 104.935,80.13C105.314,79.922 105.773,79.818 106.312,79.818C106.688,79.818 107.026,79.875 107.328,79.989C107.63,80.103 107.887,80.265 108.1,80.473C108.312,80.681 108.477,80.932 108.596,81.226C108.714,81.52 108.773,81.846 108.773,82.205C108.773,82.548 108.698,82.897 108.547,83.252C108.396,83.607 108.191,83.966 107.934,84.329C107.677,84.692 107.377,85.066 107.035,85.45C106.692,85.833 106.329,86.229 105.945,86.637C106.149,86.621 106.369,86.602 106.606,86.582C106.843,86.562 107.055,86.551 107.243,86.551L109.153,86.551L109.153,87.751L103.888,87.751Z" style="fill:white;fill-rule:nonzero;"/>
                    </g>
                </g>
            </g>
            <g id="infinite" transform="matrix(0.84319,0,0,1,116.826,0)">
                <g transform="matrix(2.44379,0,0,4.26076,94.2542,-1897.05)">
                    <circle cx="356" cy="559" r="2" style="fill:white;"/>
                </g>
                <g transform="matrix(2.44379,0,0,4.26076,108.917,-1897.05)">
                    <circle cx="356" cy="559" r="2" style="fill:white;"/>
                </g>
                <g transform="matrix(2.44379,0,0,4.26076,123.58,-1897.05)">
                    <circle cx="356" cy="559" r="2" style="fill:white;"/>
                </g>
            </g>
        </g>
    </g>
</svg>
