<?xml version="1.0" encoding="UTF-8" standalone="no"?>
<!DOCTYPE svg PUBLIC "-//W3C//DTD SVG 1.1//EN" "http://www.w3.org/Graphics/SVG/1.1/DTD/svg11.dtd">
<svg width="100%" height="100%" viewBox="0 0 256 171" version="1.1" xmlns="http://www.w3.org/2000/svg" xmlns:xlink="http://www.w3.org/1999/xlink" xml:space="preserve" xmlns:serif="http://www.serif.com/" style="fill-rule:evenodd;clip-rule:evenodd;stroke-linejoin:round;stroke-miterlimit:1.41421;">
    <g id="Artboard1" transform="matrix(1.04217e-17,-0.1702,0.2552,1.56265e-17,0,170.2)">
        <rect x="0" y="0" width="1000" height="1000" style="fill:rgb(46,58,65);"/>
        <g transform="matrix(-0.948296,7.74522e-17,-1.68875e-16,-0.919671,-3950.62,-2111.68)">
            <g id="output" transform="matrix(6.19579,0,1.05036e-31,4.26076,-7523.4,-4901.87)">
                <g transform="matrix(1.94388e-17,-0.31746,0.592593,3.62858e-17,263.602,472.048)">
                    <path d="M60,276.875L60,270.125L208.68,270.125L198.6,260L249,273.5L198.6,287L208.68,276.875L60,276.875Z" style="fill:white;"/>
                </g>
                <g transform="matrix(6.12323e-17,-1,1,6.12323e-17,351.764,469.179)">
                    <path d="M85.621,80.758L85.621,75.886L81.484,67.066L84.802,67.066L86.02,70.216C86.216,70.734 86.402,71.235 86.577,71.718C86.752,72.201 86.937,72.708 87.133,73.24L87.217,73.24C87.413,72.708 87.606,72.201 87.795,71.718C87.984,71.235 88.176,70.734 88.372,70.216L89.611,67.066L92.845,67.066L88.708,75.886L88.708,80.758L85.621,80.758Z" style="fill:white;fill-rule:nonzero;"/>
                </g>
                <g transform="matrix(6.12323e-17,-1,1,6.12323e-17,324.615,516.158)">
                    <path d="M84.046,80.758L81.505,67.066L84.676,67.066L85.621,73.471C85.705,74.185 85.796,74.903 85.894,75.624C85.992,76.345 86.083,77.069 86.167,77.797L86.251,77.797C86.391,77.069 86.528,76.345 86.661,75.624C86.794,74.903 86.93,74.185 87.07,73.471L88.54,67.066L91.165,67.066L92.635,73.471C92.775,74.171 92.912,74.882 93.045,75.603C93.178,76.324 93.314,77.055 93.454,77.797L93.538,77.797C93.636,77.055 93.731,76.327 93.822,75.613C93.913,74.899 94.007,74.185 94.105,73.471L95.05,67.066L98.011,67.066L95.575,80.758L91.69,80.758L90.346,74.542C90.234,74.01 90.133,73.475 90.042,72.936C89.951,72.397 89.87,71.875 89.8,71.371L89.716,71.371C89.632,71.875 89.545,72.397 89.454,72.936C89.363,73.475 89.261,74.01 89.149,74.542L87.868,80.758L84.046,80.758Z" style="fill:white;fill-rule:nonzero;"/>
                    <path d="M100.598,87.751L100.598,84.911L98.186,79.769L100.121,79.769L100.831,81.605C100.945,81.907 101.053,82.199 101.155,82.481C101.257,82.762 101.366,83.058 101.48,83.368L101.529,83.368C101.643,83.058 101.755,82.762 101.865,82.481C101.976,82.199 102.088,81.907 102.202,81.605L102.925,79.769L104.81,79.769L102.398,84.911L102.398,87.751L100.598,87.751Z" style="fill:white;fill-rule:nonzero;"/>
                </g>
            </g>
            <g id="input" transform="matrix(6.19579,0,0,4.26076,-7523.4,-4424.66)">
                <g transform="matrix(1.94388e-17,-0.31746,0.592593,3.62858e-17,263.602,482.048)">
                    <path d="M60,276.875L60,270.125L208.68,270.125L198.6,260L249,273.5L198.6,287L208.68,276.875L60,276.875Z" style="fill:white;"/>
                </g>
                <g transform="matrix(6.12323e-17,-1,1,6.12323e-17,351.764,561.011)">
                    <path d="M81.442,80.758L85.243,73.723L81.673,67.066L85.117,67.066L86.314,69.649C86.468,69.971 86.622,70.311 86.776,70.668C86.93,71.025 87.105,71.42 87.301,71.854L87.385,71.854C87.539,71.42 87.69,71.025 87.837,70.668C87.984,70.311 88.127,69.971 88.267,69.649L89.359,67.066L92.656,67.066L89.107,73.87L92.887,80.758L89.443,80.758L88.078,77.965C87.91,77.601 87.746,77.241 87.585,76.884C87.424,76.527 87.245,76.138 87.049,75.718L86.965,75.718C86.811,76.138 86.657,76.527 86.503,76.884C86.349,77.241 86.195,77.601 86.041,77.965L84.76,80.758L81.442,80.758Z" style="fill:white;fill-rule:nonzero;"/>
                </g>
                <g transform="matrix(6.12323e-17,-1,1,6.12323e-17,372.06,526.298)">
                    <path d="M84.046,80.758L81.505,67.066L84.676,67.066L85.621,73.471C85.705,74.185 85.796,74.903 85.894,75.624C85.992,76.345 86.083,77.069 86.167,77.797L86.251,77.797C86.391,77.069 86.528,76.345 86.661,75.624C86.794,74.903 86.93,74.185 87.07,73.471L88.54,67.066L91.165,67.066L92.635,73.471C92.775,74.171 92.912,74.882 93.045,75.603C93.178,76.324 93.314,77.055 93.454,77.797L93.538,77.797C93.636,77.055 93.731,76.327 93.822,75.613C93.913,74.899 94.007,74.185 94.105,73.471L95.05,67.066L98.011,67.066L95.575,80.758L91.69,80.758L90.346,74.542C90.234,74.01 90.133,73.475 90.042,72.936C89.951,72.397 89.87,71.875 89.8,71.371L89.716,71.371C89.632,71.875 89.545,72.397 89.454,72.936C89.363,73.475 89.261,74.01 89.149,74.542L87.868,80.758L84.046,80.758Z" style="fill:white;fill-rule:nonzero;"/>
                    <path d="M98.419,87.751L100.635,83.65L98.554,79.769L100.562,79.769L101.259,81.275C101.349,81.462 101.439,81.66 101.529,81.868C101.619,82.077 101.721,82.307 101.835,82.56L101.884,82.56C101.974,82.307 102.061,82.077 102.147,81.868C102.233,81.66 102.316,81.462 102.398,81.275L103.035,79.769L104.957,79.769L102.888,83.735L105.092,87.751L103.084,87.751L102.288,86.123C102.19,85.911 102.094,85.7 102,85.492C101.906,85.284 101.802,85.058 101.688,84.813L101.639,84.813C101.549,85.058 101.459,85.284 101.37,85.492C101.28,85.7 101.19,85.911 101.1,86.123L100.353,87.751L98.419,87.751Z" style="fill:white;fill-rule:nonzero;"/>
                </g>
            </g>
            <g transform="matrix(6.19579,0,1.57554e-31,4.26076,-7915.74,-4479.27)">
                <g transform="matrix(6.12323e-17,-1,1,6.12323e-17,504.186,474.336)">
                    <path d="M89.467,81.01C88.571,81.01 87.679,80.846 86.79,80.517C85.901,80.188 85.106,79.694 84.406,79.036L86.17,76.915C86.66,77.335 87.203,77.678 87.798,77.944C88.393,78.21 88.977,78.343 89.551,78.343C90.195,78.343 90.675,78.224 90.99,77.986C91.305,77.748 91.462,77.426 91.462,77.02C91.462,76.81 91.417,76.628 91.326,76.474C91.235,76.32 91.102,76.184 90.927,76.065C90.752,75.946 90.542,75.834 90.297,75.729C90.052,75.624 89.782,75.508 89.488,75.382L87.703,74.626C87.353,74.486 87.014,74.304 86.685,74.08C86.356,73.856 86.062,73.594 85.803,73.293C85.544,72.992 85.337,72.642 85.183,72.243C85.029,71.844 84.952,71.392 84.952,70.888C84.952,70.328 85.071,69.8 85.309,69.303C85.547,68.806 85.883,68.372 86.317,68.001C86.751,67.63 87.266,67.339 87.861,67.129C88.456,66.919 89.11,66.814 89.824,66.814C90.622,66.814 91.41,66.968 92.187,67.276C92.964,67.584 93.646,68.032 94.234,68.62L92.659,70.573C92.211,70.223 91.763,69.954 91.315,69.765C90.867,69.576 90.37,69.481 89.824,69.481C89.292,69.481 88.869,69.59 88.554,69.807C88.239,70.024 88.081,70.328 88.081,70.72C88.081,70.93 88.134,71.109 88.239,71.256C88.344,71.403 88.491,71.536 88.68,71.655C88.869,71.774 89.089,71.886 89.341,71.991C89.593,72.096 89.866,72.211 90.16,72.337L91.924,73.051C92.764,73.387 93.426,73.849 93.909,74.437C94.392,75.025 94.633,75.802 94.633,76.768C94.633,77.342 94.518,77.885 94.287,78.396C94.056,78.907 93.72,79.355 93.279,79.74C92.838,80.125 92.295,80.433 91.651,80.664C91.007,80.895 90.279,81.01 89.467,81.01Z" style="fill:white;fill-rule:nonzero;"/>
                </g>
                <g transform="matrix(6.12323e-17,-1,1,6.12323e-17,459.345,432.321)">
                    <path d="M84.046,80.758L81.505,67.066L84.676,67.066L85.621,73.471C85.705,74.185 85.796,74.903 85.894,75.624C85.992,76.345 86.083,77.069 86.167,77.797L86.251,77.797C86.391,77.069 86.528,76.345 86.661,75.624C86.794,74.903 86.93,74.185 87.07,73.471L88.54,67.066L91.165,67.066L92.635,73.471C92.775,74.171 92.912,74.882 93.045,75.603C93.178,76.324 93.314,77.055 93.454,77.797L93.538,77.797C93.636,77.055 93.731,76.327 93.822,75.613C93.913,74.899 94.007,74.185 94.105,73.471L95.05,67.066L98.011,67.066L95.575,80.758L91.69,80.758L90.346,74.542C90.234,74.01 90.133,73.475 90.042,72.936C89.951,72.397 89.87,71.875 89.8,71.371L89.716,71.371C89.632,71.875 89.545,72.397 89.454,72.936C89.363,73.475 89.261,74.01 89.149,74.542L87.868,80.758L84.046,80.758Z" style="fill:white;fill-rule:nonzero;"/>
                    <path d="M101.663,87.898C101.141,87.898 100.621,87.802 100.103,87.61C99.584,87.419 99.121,87.131 98.713,86.747L99.741,85.511C100.027,85.756 100.343,85.956 100.69,86.111C101.037,86.266 101.378,86.343 101.712,86.343C102.088,86.343 102.367,86.274 102.551,86.135C102.735,85.996 102.827,85.809 102.827,85.572C102.827,85.45 102.8,85.343 102.747,85.254C102.694,85.164 102.616,85.084 102.514,85.015C102.412,84.946 102.29,84.88 102.147,84.819C102.004,84.758 101.847,84.69 101.676,84.617L100.635,84.176C100.431,84.095 100.233,83.989 100.041,83.858C99.849,83.727 99.678,83.574 99.527,83.399C99.376,83.223 99.256,83.019 99.166,82.787C99.076,82.554 99.031,82.291 99.031,81.997C99.031,81.671 99.101,81.362 99.239,81.073C99.378,80.783 99.574,80.53 99.827,80.314C100.08,80.097 100.38,79.928 100.727,79.805C101.074,79.683 101.455,79.622 101.872,79.622C102.337,79.622 102.796,79.712 103.249,79.891C103.702,80.071 104.1,80.332 104.443,80.675L103.524,81.813C103.263,81.609 103.002,81.452 102.741,81.342C102.48,81.232 102.19,81.177 101.872,81.177C101.561,81.177 101.315,81.24 101.131,81.366C100.947,81.493 100.855,81.671 100.855,81.899C100.855,82.021 100.886,82.126 100.947,82.211C101.008,82.297 101.094,82.374 101.204,82.444C101.315,82.513 101.443,82.579 101.59,82.64C101.737,82.701 101.896,82.768 102.068,82.842L103.096,83.258C103.586,83.454 103.971,83.723 104.253,84.066C104.534,84.409 104.675,84.862 104.675,85.425C104.675,85.76 104.608,86.076 104.473,86.374C104.339,86.672 104.143,86.933 103.886,87.157C103.628,87.382 103.312,87.561 102.937,87.696C102.561,87.831 102.137,87.898 101.663,87.898Z" style="fill:white;fill-rule:nonzero;"/>
                </g>
                <g transform="matrix(6.12323e-17,-1,1,6.12323e-17,433.695,520.608)">
                    <path d="M161.792,103.216C161.769,96.46 159.125,90.083 154.58,85.331L153.763,84.514C153.402,84.168 153.029,83.832 152.646,83.507L150.692,89.929L145.035,72.958L162.006,78.615L155.5,80.595L156.56,81.654C156.86,81.942 157.153,82.235 157.44,82.534L157.763,82.857L157.754,82.867C162.809,88.3 165.748,95.504 165.791,103.131L165.792,103.131L165.792,103.215L165.792,103.305C165.792,119.862 152.349,133.305 135.792,133.305C119.235,133.305 105.792,119.862 105.792,103.305L105.792,103.229L105.792,103.131C105.792,92.413 111.51,82.509 120.792,77.15L122.792,80.615C118.725,82.963 115.447,86.318 113.201,90.262L113.275,90.305C111.006,94.235 109.805,98.691 109.792,103.229C109.845,117.534 121.475,129.131 135.792,129.131C150.123,129.131 161.746,117.536 161.792,103.216Z" style="fill:white;"/>
                </g>
            </g>
            <g id="tanh" transform="matrix(3.79383e-16,-4.26076,6.19579,2.60896e-16,-5889.71,-1821.34)">
                <g transform="matrix(1.93548,0,0,0.967742,-228.535,-699.774)">
                    <path d="M257.06,882.75C257.06,878.473 255.324,875 253.185,875L229.935,875C227.796,875 226.06,878.473 226.06,882.75L226.06,898.25C226.06,902.527 227.796,906 229.935,906L253.185,906C255.324,906 257.06,902.527 257.06,898.25L257.06,882.75Z" style="fill:rgb(24,193,84);"/>
                    <path d="M253.235,875.001L253.285,875.003L253.335,875.006L253.384,875.01L253.434,875.016L253.483,875.023L253.532,875.031L253.581,875.04L253.63,875.051L253.678,875.062L253.727,875.075L253.775,875.089L253.823,875.105L253.871,875.121L253.918,875.139L253.966,875.158L254.013,875.178L254.06,875.199L254.106,875.221L254.153,875.244L254.199,875.269L254.245,875.294L254.291,875.321L254.337,875.349L254.382,875.378L254.427,875.407L254.472,875.439L254.517,875.471L254.561,875.504L254.605,875.538L254.649,875.573L254.693,875.609L254.736,875.647L254.779,875.685L254.822,875.724L254.864,875.765L254.907,875.806L254.948,875.848L254.99,875.892L255.031,875.936L255.072,875.981L255.113,876.027L255.154,876.075L255.194,876.123L255.233,876.172L255.273,876.222L255.312,876.273L255.351,876.324L255.389,876.377L255.428,876.431L255.465,876.485L255.503,876.54L255.54,876.597L255.577,876.654L255.613,876.712L255.649,876.771L255.685,876.83L255.72,876.891L255.755,876.952L255.79,877.014L255.824,877.077L255.858,877.141L255.891,877.206L255.925,877.271L255.957,877.337L255.989,877.404L256.021,877.472L256.053,877.54L256.084,877.609L256.115,877.679L256.145,877.75L256.175,877.821L256.204,877.894L256.233,877.966L256.262,878.04L256.29,878.114L256.317,878.189L256.345,878.265L256.371,878.341L256.398,878.418L256.424,878.496L256.449,878.574L256.474,878.653L256.499,878.733L256.523,878.813L256.546,878.894L256.569,878.975L256.592,879.057L256.614,879.14L256.636,879.223L256.657,879.307L256.678,879.391L256.698,879.476L256.717,879.562L256.737,879.648L256.755,879.735L256.773,879.822L256.791,879.909L256.808,879.998L256.825,880.086L256.841,880.176L256.856,880.265L256.871,880.356L256.886,880.446L256.9,880.538L256.913,880.629L256.926,880.722L256.938,880.814L256.95,880.907L256.961,881.001L256.971,881.095L256.981,881.189L256.991,881.284L256.999,881.379L257.008,881.474L257.015,881.57L257.022,881.667L257.029,881.764L257.035,881.861L257.04,881.958L257.045,882.056L257.049,882.154L257.052,882.253L257.055,882.351L257.057,882.451L257.059,882.55L257.06,882.65L257.06,882.75L257.06,898.25L257.06,898.35L257.059,898.45L257.057,898.549L257.055,898.649L257.052,898.747L257.049,898.846L257.045,898.944L257.04,899.042L257.035,899.139L257.029,899.236L257.022,899.333L257.015,899.43L257.008,899.526L256.999,899.621L256.991,899.716L256.981,899.811L256.971,899.905L256.961,899.999L256.95,900.093L256.938,900.186L256.926,900.278L256.913,900.371L256.9,900.462L256.886,900.554L256.871,900.644L256.856,900.735L256.841,900.824L256.825,900.914L256.808,901.002L256.791,901.091L256.773,901.178L256.755,901.265L256.737,901.352L256.717,901.438L256.698,901.524L256.678,901.609L256.657,901.693L256.636,901.777L256.614,901.86L256.592,901.943L256.569,902.025L256.546,902.106L256.523,902.187L256.499,902.267L256.474,902.347L256.449,902.426L256.424,902.504L256.398,902.582L256.371,902.659L256.345,902.735L256.317,902.811L256.29,902.886L256.262,902.96L256.233,903.034L256.204,903.106L256.175,903.179L256.145,903.25L256.115,903.321L256.084,903.391L256.053,903.46L256.021,903.528L255.989,903.596L255.957,903.663L255.925,903.729L255.891,903.794L255.858,903.859L255.824,903.923L255.79,903.986L255.755,904.048L255.72,904.109L255.685,904.17L255.649,904.229L255.613,904.288L255.577,904.346L255.54,904.403L255.503,904.46L255.465,904.515L255.428,904.569L255.389,904.623L255.351,904.676L255.312,904.727L255.273,904.778L255.233,904.828L255.194,904.877L255.154,904.925L255.113,904.973L255.072,905.019L255.031,905.064L254.99,905.108L254.948,905.152L254.907,905.194L254.864,905.235L254.822,905.276L254.779,905.315L254.736,905.353L254.693,905.391L254.649,905.427L254.605,905.462L254.561,905.496L254.517,905.529L254.472,905.561L254.427,905.593L254.382,905.622L254.337,905.651L254.291,905.679L254.245,905.706L254.199,905.731L254.153,905.756L254.106,905.779L254.06,905.801L254.013,905.822L253.966,905.842L253.918,905.861L253.871,905.879L253.823,905.895L253.775,905.911L253.727,905.925L253.678,905.938L253.63,905.949L253.581,905.96L253.532,905.969L253.483,905.977L253.434,905.984L253.384,905.99L253.335,905.994L253.285,905.997L253.235,905.999L253.185,906L229.935,906L229.885,905.999L229.835,905.997L229.785,905.994L229.736,905.99L229.686,905.984L229.637,905.977L229.588,905.969L229.539,905.96L229.49,905.949L229.442,905.938L229.393,905.925L229.345,905.911L229.297,905.895L229.249,905.879L229.202,905.861L229.154,905.842L229.107,905.822L229.06,905.801L229.014,905.779L228.967,905.756L228.921,905.731L228.875,905.706L228.829,905.679L228.783,905.651L228.738,905.622L228.693,905.593L228.648,905.561L228.603,905.529L228.559,905.496L228.515,905.462L228.471,905.427L228.427,905.391L228.384,905.353L228.341,905.315L228.298,905.276L228.256,905.235L228.213,905.194L228.172,905.152L228.13,905.108L228.089,905.064L228.048,905.019L228.007,904.973L227.966,904.925L227.926,904.877L227.887,904.828L227.847,904.778L227.808,904.727L227.769,904.676L227.731,904.623L227.692,904.569L227.655,904.515L227.617,904.46L227.58,904.403L227.543,904.346L227.507,904.288L227.471,904.229L227.435,904.17L227.4,904.109L227.365,904.048L227.33,903.986L227.296,903.923L227.262,903.859L227.229,903.794L227.195,903.729L227.163,903.663L227.131,903.596L227.099,903.528L227.067,903.46L227.036,903.391L227.005,903.321L226.975,903.25L226.945,903.179L226.916,903.106L226.887,903.034L226.858,902.96L226.83,902.886L226.803,902.811L226.775,902.735L226.749,902.659L226.722,902.582L226.696,902.504L226.671,902.426L226.646,902.347L226.621,902.267L226.597,902.187L226.574,902.106L226.551,902.025L226.528,901.943L226.506,901.86L226.484,901.777L226.463,901.693L226.442,901.609L226.422,901.524L226.403,901.438L226.383,901.352L226.365,901.265L226.347,901.178L226.329,901.091L226.312,901.002L226.295,900.914L226.279,900.824L226.264,900.735L226.249,900.644L226.234,900.554L226.22,900.462L226.207,900.371L226.194,900.278L226.182,900.186L226.17,900.093L226.159,899.999L226.149,899.905L226.139,899.811L226.129,899.716L226.121,899.621L226.112,899.526L226.105,899.43L226.098,899.333L226.091,899.236L226.085,899.139L226.08,899.042L226.075,898.944L226.071,898.846L226.068,898.747L226.065,898.649L226.063,898.549L226.061,898.45L226.06,898.35L226.06,898.25L226.06,882.75L226.06,882.65L226.061,882.55L226.063,882.451L226.065,882.351L226.068,882.253L226.071,882.154L226.075,882.056L226.08,881.958L226.085,881.861L226.091,881.764L226.098,881.667L226.105,881.57L226.112,881.474L226.121,881.379L226.129,881.284L226.139,881.189L226.149,881.095L226.159,881.001L226.17,880.907L226.182,880.814L226.194,880.722L226.207,880.629L226.22,880.538L226.234,880.446L226.249,880.356L226.264,880.265L226.279,880.176L226.295,880.086L226.312,879.998L226.329,879.909L226.347,879.822L226.365,879.735L226.383,879.648L226.403,879.562L226.422,879.476L226.442,879.391L226.463,879.307L226.484,879.223L226.506,879.14L226.528,879.057L226.551,878.975L226.574,878.894L226.597,878.813L226.621,878.733L226.646,878.653L226.671,878.574L226.696,878.496L226.722,878.418L226.749,878.341L226.775,878.265L226.803,878.189L226.83,878.114L226.858,878.04L226.887,877.966L226.916,877.894L226.945,877.821L226.975,877.75L227.005,877.679L227.036,877.609L227.067,877.54L227.099,877.472L227.131,877.404L227.163,877.337L227.195,877.271L227.229,877.206L227.262,877.141L227.296,877.077L227.33,877.014L227.365,876.952L227.4,876.891L227.435,876.83L227.471,876.771L227.507,876.712L227.543,876.654L227.58,876.597L227.617,876.54L227.655,876.485L227.692,876.431L227.731,876.377L227.769,876.324L227.808,876.273L227.847,876.222L227.887,876.172L227.926,876.123L227.966,876.075L228.007,876.027L228.048,875.981L228.089,875.936L228.13,875.892L228.172,875.848L228.213,875.806L228.256,875.765L228.298,875.724L228.341,875.685L228.384,875.647L228.427,875.609L228.471,875.573L228.515,875.538L228.559,875.504L228.603,875.471L228.648,875.439L228.693,875.407L228.738,875.378L228.783,875.349L228.829,875.321L228.875,875.294L228.921,875.269L228.967,875.244L229.014,875.221L229.06,875.199L229.107,875.178L229.154,875.158L229.202,875.139L229.249,875.121L229.297,875.105L229.345,875.089L229.393,875.075L229.442,875.062L229.49,875.051L229.539,875.04L229.588,875.031L229.637,875.023L229.686,875.016L229.736,875.01L229.785,875.006L229.835,875.003L229.885,875.001L229.935,875L253.185,875L253.235,875.001ZM229.938,877.067L229.898,877.067L229.861,877.069L229.825,877.071L229.788,877.074L229.752,877.078L229.716,877.083L229.679,877.089L229.644,877.096L229.608,877.104L229.572,877.112L229.537,877.122L229.501,877.132L229.466,877.144L229.431,877.156L229.397,877.168L229.362,877.182L229.327,877.197L229.293,877.212L229.259,877.228L229.225,877.246L229.191,877.263L229.157,877.282L229.124,877.302L229.09,877.322L229.057,877.343L229.024,877.365L228.991,877.388L228.959,877.411L228.926,877.435L228.894,877.46L228.862,877.486L228.83,877.513L228.798,877.54L228.767,877.568L228.736,877.597L228.704,877.626L228.674,877.657L228.643,877.688L228.612,877.719L228.582,877.752L228.552,877.785L228.522,877.819L228.492,877.853L228.463,877.889L228.434,877.925L228.405,877.961L228.376,877.999L228.348,878.037L228.319,878.075L228.291,878.115L228.264,878.155L228.236,878.195L228.209,878.237L228.182,878.279L228.155,878.321L228.129,878.364L228.102,878.408L228.076,878.453L228.051,878.498L228.025,878.544L228,878.59L227.975,878.637L227.951,878.684L227.926,878.732L227.902,878.781L227.878,878.83L227.855,878.88L227.832,878.93L227.809,878.981L227.786,879.033L227.764,879.085L227.742,879.137L227.721,879.19L227.699,879.244L227.678,879.298L227.658,879.352L227.637,879.407L227.617,879.463L227.598,879.519L227.578,879.575L227.559,879.632L227.541,879.69L227.522,879.748L227.504,879.806L227.487,879.865L227.469,879.924L227.453,879.984L227.436,880.044L227.42,880.105L227.404,880.166L227.388,880.227L227.373,880.289L227.358,880.351L227.344,880.414L227.33,880.477L227.316,880.54L227.303,880.604L227.29,880.668L227.278,880.733L227.266,880.798L227.254,880.863L227.242,880.928L227.232,880.994L227.221,881.061L227.211,881.127L227.201,881.194L227.192,881.262L227.183,881.33L227.174,881.398L227.166,881.466L227.158,881.535L227.151,881.604L227.144,881.673L227.138,881.743L227.132,881.813L227.126,881.883L227.121,881.953L227.116,882.024L227.112,882.096L227.108,882.167L227.105,882.239L227.102,882.311L227.099,882.383L227.097,882.456L227.095,882.529L227.094,882.603L227.094,882.676L227.093,882.756L227.093,898.244L227.094,898.324L227.094,898.397L227.095,898.471L227.097,898.544L227.099,898.617L227.102,898.689L227.105,898.761L227.108,898.833L227.112,898.904L227.116,898.976L227.121,899.047L227.126,899.117L227.132,899.187L227.138,899.257L227.144,899.327L227.151,899.396L227.158,899.465L227.166,899.534L227.174,899.602L227.183,899.67L227.192,899.738L227.201,899.806L227.211,899.873L227.221,899.939L227.232,900.006L227.242,900.072L227.254,900.137L227.266,900.202L227.278,900.267L227.29,900.332L227.303,900.396L227.316,900.46L227.33,900.523L227.344,900.586L227.358,900.649L227.373,900.711L227.388,900.773L227.404,900.834L227.42,900.895L227.436,900.956L227.452,901.016L227.469,901.076L227.487,901.135L227.504,901.194L227.522,901.252L227.541,901.31L227.559,901.368L227.578,901.425L227.598,901.481L227.617,901.537L227.637,901.593L227.658,901.648L227.678,901.702L227.699,901.756L227.721,901.81L227.742,901.863L227.764,901.915L227.786,901.967L227.809,902.019L227.832,902.07L227.855,902.12L227.878,902.17L227.902,902.219L227.926,902.268L227.951,902.316L227.975,902.363L228,902.41L228.025,902.456L228.051,902.502L228.076,902.547L228.102,902.592L228.129,902.636L228.155,902.679L228.182,902.721L228.209,902.763L228.236,902.805L228.264,902.845L228.291,902.885L228.319,902.925L228.348,902.963L228.376,903.001L228.405,903.039L228.434,903.075L228.463,903.111L228.492,903.147L228.522,903.181L228.552,903.215L228.582,903.248L228.612,903.281L228.643,903.312L228.674,903.343L228.704,903.374L228.736,903.403L228.767,903.432L228.798,903.46L228.83,903.487L228.862,903.514L228.894,903.54L228.926,903.565L228.959,903.589L228.991,903.612L229.024,903.635L229.057,903.657L229.09,903.678L229.124,903.698L229.157,903.718L229.191,903.737L229.225,903.754L229.259,903.772L229.293,903.788L229.327,903.803L229.362,903.818L229.397,903.832L229.431,903.844L229.466,903.856L229.501,903.868L229.537,903.878L229.572,903.888L229.608,903.896L229.644,903.904L229.679,903.911L229.716,903.917L229.752,903.922L229.788,903.926L229.825,903.929L229.861,903.931L229.898,903.933L229.938,903.933L253.182,903.933L253.222,903.933L253.259,903.931L253.295,903.929L253.332,903.926L253.368,903.922L253.404,903.917L253.441,903.911L253.476,903.904L253.512,903.896L253.548,903.888L253.583,903.878L253.619,903.868L253.654,903.856L253.689,903.844L253.724,903.832L253.758,903.818L253.793,903.803L253.827,903.788L253.861,903.772L253.895,903.754L253.929,903.737L253.963,903.718L253.996,903.698L254.03,903.678L254.063,903.657L254.096,903.635L254.129,903.612L254.161,903.589L254.194,903.565L254.226,903.54L254.258,903.514L254.29,903.487L254.322,903.46L254.353,903.432L254.384,903.403L254.416,903.374L254.446,903.343L254.477,903.312L254.508,903.281L254.538,903.248L254.568,903.215L254.598,903.181L254.628,903.147L254.657,903.111L254.686,903.075L254.715,903.039L254.744,903.001L254.772,902.963L254.801,902.925L254.829,902.885L254.856,902.845L254.884,902.805L254.911,902.763L254.938,902.721L254.965,902.679L254.991,902.635L255.018,902.592L255.044,902.547L255.069,902.502L255.095,902.456L255.12,902.41L255.145,902.363L255.169,902.316L255.194,902.268L255.218,902.219L255.242,902.17L255.265,902.12L255.288,902.07L255.311,902.019L255.334,901.967L255.356,901.915L255.378,901.863L255.399,901.81L255.421,901.756L255.442,901.702L255.462,901.648L255.483,901.593L255.503,901.537L255.522,901.481L255.542,901.425L255.561,901.368L255.579,901.31L255.598,901.252L255.616,901.194L255.633,901.135L255.651,901.076L255.668,901.016L255.684,900.956L255.7,900.895L255.716,900.834L255.732,900.773L255.747,900.711L255.762,900.649L255.776,900.586L255.79,900.523L255.804,900.46L255.817,900.396L255.83,900.332L255.842,900.267L255.854,900.203L255.866,900.137L255.878,900.072L255.888,900.006L255.899,899.939L255.909,899.873L255.919,899.806L255.928,899.738L255.937,899.67L255.946,899.602L255.954,899.534L255.962,899.465L255.969,899.396L255.976,899.327L255.982,899.257L255.988,899.187L255.994,899.117L255.999,899.046L256.004,898.975L256.008,898.904L256.012,898.833L256.015,898.761L256.018,898.689L256.021,898.617L256.023,898.544L256.025,898.471L256.026,898.398L256.026,898.324L256.027,898.244L256.027,882.756L256.026,882.676L256.026,882.602L256.025,882.529L256.023,882.456L256.021,882.383L256.018,882.311L256.015,882.239L256.012,882.167L256.008,882.096L256.004,882.025L255.999,881.954L255.994,881.883L255.988,881.813L255.982,881.743L255.976,881.673L255.969,881.604L255.962,881.535L255.954,881.466L255.946,881.398L255.937,881.33L255.928,881.262L255.919,881.194L255.909,881.127L255.899,881.061L255.888,880.994L255.878,880.928L255.866,880.863L255.854,880.797L255.842,880.733L255.83,880.668L255.817,880.604L255.804,880.54L255.79,880.477L255.776,880.414L255.762,880.351L255.747,880.289L255.732,880.227L255.716,880.166L255.7,880.105L255.684,880.044L255.668,879.984L255.651,879.924L255.633,879.865L255.616,879.806L255.598,879.748L255.579,879.69L255.561,879.632L255.542,879.575L255.522,879.519L255.503,879.463L255.483,879.407L255.462,879.352L255.442,879.298L255.421,879.244L255.399,879.19L255.378,879.137L255.356,879.085L255.334,879.033L255.311,878.981L255.288,878.93L255.265,878.88L255.242,878.83L255.218,878.781L255.194,878.732L255.169,878.684L255.145,878.637L255.12,878.59L255.095,878.544L255.069,878.498L255.044,878.453L255.018,878.408L254.991,878.365L254.965,878.321L254.938,878.279L254.911,878.237L254.884,878.195L254.856,878.155L254.829,878.115L254.801,878.075L254.772,878.037L254.744,877.999L254.715,877.961L254.686,877.925L254.657,877.889L254.628,877.853L254.598,877.819L254.568,877.785L254.538,877.752L254.508,877.719L254.477,877.688L254.446,877.657L254.416,877.626L254.384,877.597L254.353,877.568L254.322,877.54L254.29,877.513L254.258,877.486L254.226,877.46L254.194,877.435L254.161,877.411L254.129,877.388L254.096,877.365L254.063,877.343L254.03,877.322L253.996,877.302L253.963,877.282L253.929,877.263L253.895,877.246L253.861,877.228L253.827,877.212L253.793,877.197L253.758,877.182L253.724,877.168L253.689,877.156L253.654,877.144L253.619,877.132L253.583,877.122L253.548,877.112L253.512,877.104L253.476,877.096L253.441,877.089L253.404,877.083L253.368,877.078L253.332,877.074L253.295,877.071L253.259,877.069L253.222,877.067L253.182,877.067L229.938,877.067Z" style="fill:rgb(11,164,63);"/>
                </g>
                <g transform="matrix(1,0,0,1,-17.06,-728)">
                    <g id="tanh1" serif:id="tanh">
                        <path d="M243.132,896.162C242.61,896.162 242.165,896.083 241.797,895.925C241.429,895.766 241.128,895.545 240.896,895.261C240.664,894.978 240.494,894.635 240.386,894.233C240.278,893.831 240.225,893.386 240.225,892.899L240.225,889.482L239.069,889.482L239.069,887.628L240.361,887.526L240.65,885.282L242.724,885.282L242.724,887.526L244.747,887.526L244.747,889.482L242.724,889.482L242.724,892.864C242.724,893.34 242.823,893.683 243.021,893.893C243.219,894.103 243.483,894.208 243.812,894.208C243.948,894.208 244.086,894.19 244.228,894.156C244.37,894.122 244.497,894.083 244.611,894.037L245.002,895.857C244.775,895.925 244.509,895.992 244.203,896.06C243.897,896.128 243.54,896.162 243.132,896.162Z" style="fill:white;fill-rule:nonzero;"/>
                        <path d="M248.181,896.162C247.795,896.162 247.447,896.097 247.135,895.967C246.823,895.837 246.56,895.655 246.345,895.423C246.129,895.191 245.962,894.921 245.843,894.616C245.724,894.309 245.665,893.975 245.665,893.612C245.665,892.728 246.039,892.037 246.787,891.539C247.535,891.04 248.742,890.705 250.408,890.535C250.385,890.161 250.274,889.864 250.076,889.643C249.878,889.422 249.546,889.311 249.082,889.311C248.719,889.311 248.359,889.38 248.002,889.516C247.645,889.651 247.263,889.838 246.855,890.077L245.954,888.428C246.498,888.099 247.067,887.833 247.662,887.628C248.257,887.425 248.889,887.323 249.558,887.323C250.646,887.323 251.476,887.631 252.048,888.249C252.62,888.867 252.907,889.827 252.907,891.131L252.907,895.958L250.867,895.958L250.697,895.092L250.629,895.092C250.266,895.409 249.886,895.667 249.49,895.865C249.093,896.063 248.657,896.162 248.181,896.162ZM249.031,894.224C249.314,894.224 249.558,894.162 249.762,894.037C249.966,893.913 250.181,893.737 250.408,893.511L250.408,892.031C249.524,892.156 248.912,892.338 248.572,892.575C248.232,892.814 248.062,893.097 248.062,893.425C248.062,893.698 248.149,893.899 248.325,894.029C248.501,894.159 248.736,894.224 249.031,894.224Z" style="fill:white;fill-rule:nonzero;"/>
                        <path d="M255.015,895.958L255.015,887.526L257.055,887.526L257.225,888.598L257.293,888.598C257.655,888.257 258.052,887.96 258.483,887.705C258.913,887.45 259.418,887.323 259.996,887.323C260.914,887.323 261.579,887.623 261.993,888.223C262.407,888.824 262.614,889.657 262.614,890.723L262.614,895.958L260.115,895.958L260.115,891.045C260.115,890.434 260.032,890.014 259.868,889.787C259.704,889.561 259.44,889.448 259.078,889.448C258.76,889.448 258.488,889.518 258.262,889.66C258.035,889.802 257.786,890.003 257.514,890.263L257.514,895.958L255.015,895.958Z" style="fill:white;fill-rule:nonzero;"/>
                        <path d="M264.739,895.958L264.739,884.041L267.238,884.041L267.238,886.965L267.119,888.478C267.436,888.195 267.804,887.932 268.224,887.688C268.643,887.444 269.142,887.323 269.72,887.323C270.638,887.323 271.303,887.623 271.717,888.223C272.131,888.824 272.338,889.657 272.338,890.723L272.338,895.958L269.839,895.958L269.839,891.045C269.839,890.434 269.756,890.014 269.592,889.787C269.428,889.561 269.164,889.448 268.802,889.448C268.484,889.448 268.212,889.518 267.986,889.66C267.759,889.802 267.51,890.003 267.238,890.263L267.238,895.958L264.739,895.958Z" style="fill:white;fill-rule:nonzero;"/>
                    </g>
                </g>
            </g>
        </g>
    </g>
</svg>
