<?xml version="1.0" encoding="UTF-8" standalone="no"?>
<!DOCTYPE svg PUBLIC "-//W3C//DTD SVG 1.1//EN" "http://www.w3.org/Graphics/SVG/1.1/DTD/svg11.dtd">
<svg width="100%" height="100%" viewBox="0 0 36 36" version="1.1" xmlns="http://www.w3.org/2000/svg" xmlns:xlink="http://www.w3.org/1999/xlink" xml:space="preserve" xmlns:serif="http://www.serif.com/" style="fill-rule:evenodd;clip-rule:evenodd;stroke-linejoin:round;stroke-miterlimit:1.41421;">
    <g id="sigmoid" transform="matrix(3.65854,0,0,1.09793,-224,-273.5)">
        <g transform="matrix(0.317419,0,0,1.05771,-10.5292,-676.391)">
            <path d="M257.06,882.75C257.06,878.473 253.587,875 249.31,875L233.81,875C229.533,875 226.06,878.473 226.06,882.75L226.06,898.25C226.06,902.527 229.533,906 233.81,906L249.31,906C253.587,906 257.06,902.527 257.06,898.25L257.06,882.75Z" style="fill:rgb(252,77,154);"/>
            <path d="M249.41,875.001L249.51,875.003L249.609,875.006L249.709,875.01L249.807,875.016L249.906,875.023L250.004,875.031L250.102,875.04L250.199,875.051L250.296,875.062L250.393,875.075L250.49,875.089L250.586,875.105L250.681,875.121L250.776,875.139L250.871,875.158L250.965,875.178L251.059,875.199L251.153,875.221L251.246,875.244L251.338,875.269L251.431,875.294L251.522,875.321L251.614,875.349L251.704,875.378L251.795,875.407L251.884,875.439L251.974,875.471L252.062,875.504L252.151,875.538L252.238,875.573L252.325,875.609L252.412,875.647L252.498,875.685L252.584,875.724L252.669,875.765L252.753,875.806L252.837,875.848L252.92,875.892L253.003,875.936L253.085,875.981L253.166,876.027L253.247,876.075L253.327,876.123L253.407,876.172L253.486,876.222L253.564,876.273L253.642,876.324L253.719,876.377L253.795,876.431L253.871,876.485L253.946,876.54L254.02,876.597L254.094,876.654L254.166,876.712L254.239,876.771L254.31,876.83L254.381,876.891L254.451,876.952L254.52,877.014L254.588,877.077L254.656,877.141L254.723,877.206L254.789,877.271L254.854,877.337L254.919,877.404L254.983,877.472L255.046,877.54L255.108,877.609L255.169,877.679L255.23,877.75L255.289,877.821L255.348,877.894L255.406,877.966L255.463,878.04L255.52,878.114L255.575,878.189L255.629,878.265L255.683,878.341L255.736,878.418L255.787,878.496L255.838,878.574L255.888,878.653L255.937,878.733L255.985,878.813L256.033,878.894L256.079,878.975L256.124,879.057L256.168,879.14L256.212,879.223L256.254,879.307L256.295,879.391L256.336,879.476L256.375,879.562L256.413,879.648L256.451,879.735L256.487,879.822L256.522,879.909L256.556,879.998L256.589,880.086L256.621,880.176L256.653,880.265L256.682,880.356L256.711,880.446L256.739,880.538L256.766,880.629L256.791,880.722L256.816,880.814L256.839,880.907L256.861,881.001L256.882,881.095L256.902,881.189L256.921,881.284L256.939,881.379L256.955,881.474L256.971,881.57L256.985,881.667L256.998,881.764L257.009,881.861L257.02,881.958L257.029,882.056L257.037,882.154L257.044,882.253L257.05,882.351L257.054,882.451L257.057,882.55L257.059,882.65L257.06,882.75L257.06,898.25L257.059,898.35L257.057,898.45L257.054,898.549L257.05,898.649L257.044,898.747L257.037,898.846L257.029,898.944L257.02,899.042L257.009,899.139L256.998,899.236L256.985,899.333L256.971,899.43L256.955,899.526L256.939,899.621L256.921,899.716L256.902,899.811L256.882,899.905L256.861,899.999L256.839,900.093L256.816,900.186L256.791,900.278L256.766,900.371L256.739,900.462L256.711,900.554L256.682,900.644L256.653,900.735L256.621,900.824L256.589,900.914L256.556,901.002L256.522,901.091L256.487,901.178L256.451,901.265L256.413,901.352L256.375,901.438L256.336,901.524L256.295,901.609L256.254,901.693L256.212,901.777L256.168,901.86L256.124,901.943L256.079,902.025L256.033,902.106L255.985,902.187L255.937,902.267L255.888,902.347L255.838,902.426L255.787,902.504L255.736,902.582L255.683,902.659L255.629,902.735L255.575,902.811L255.52,902.886L255.463,902.96L255.406,903.034L255.348,903.106L255.289,903.179L255.23,903.25L255.169,903.321L255.108,903.391L255.046,903.46L254.983,903.528L254.919,903.596L254.854,903.663L254.789,903.729L254.723,903.794L254.656,903.859L254.588,903.923L254.52,903.986L254.451,904.048L254.381,904.109L254.31,904.17L254.239,904.229L254.166,904.288L254.094,904.346L254.02,904.403L253.946,904.46L253.871,904.515L253.795,904.569L253.719,904.623L253.642,904.676L253.564,904.727L253.486,904.778L253.407,904.828L253.327,904.877L253.247,904.925L253.166,904.973L253.085,905.019L253.003,905.064L252.92,905.108L252.837,905.152L252.753,905.194L252.669,905.235L252.584,905.276L252.498,905.315L252.412,905.353L252.325,905.391L252.238,905.427L252.151,905.462L252.062,905.496L251.974,905.529L251.884,905.561L251.795,905.593L251.704,905.622L251.614,905.651L251.522,905.679L251.431,905.706L251.338,905.731L251.246,905.756L251.153,905.779L251.059,905.801L250.965,905.822L250.871,905.842L250.776,905.861L250.681,905.879L250.586,905.895L250.49,905.911L250.393,905.925L250.296,905.938L250.199,905.949L250.102,905.96L250.004,905.969L249.906,905.977L249.807,905.984L249.709,905.99L249.609,905.994L249.51,905.997L249.41,905.999L249.31,906L233.81,906L233.71,905.999L233.61,905.997L233.511,905.994L233.411,905.99L233.313,905.984L233.214,905.977L233.116,905.969L233.018,905.96L232.921,905.949L232.824,905.938L232.727,905.925L232.63,905.911L232.534,905.895L232.439,905.879L232.344,905.861L232.249,905.842L232.155,905.822L232.061,905.801L231.967,905.779L231.874,905.756L231.782,905.731L231.689,905.706L231.598,905.679L231.506,905.651L231.416,905.622L231.325,905.593L231.236,905.561L231.146,905.529L231.058,905.496L230.969,905.462L230.882,905.427L230.795,905.391L230.708,905.353L230.622,905.315L230.536,905.276L230.451,905.235L230.367,905.194L230.283,905.152L230.2,905.108L230.117,905.064L230.035,905.019L229.954,904.973L229.873,904.925L229.793,904.877L229.713,904.828L229.634,904.778L229.556,904.727L229.478,904.676L229.401,904.623L229.325,904.569L229.249,904.515L229.174,904.46L229.1,904.403L229.026,904.346L228.954,904.288L228.881,904.229L228.81,904.17L228.739,904.109L228.669,904.048L228.6,903.986L228.532,903.923L228.464,903.859L228.397,903.794L228.331,903.729L228.266,903.663L228.201,903.596L228.137,903.528L228.074,903.46L228.012,903.391L227.951,903.321L227.89,903.25L227.831,903.179L227.772,903.106L227.714,903.034L227.657,902.96L227.6,902.886L227.545,902.811L227.491,902.735L227.437,902.659L227.384,902.582L227.333,902.504L227.282,902.426L227.232,902.347L227.183,902.267L227.135,902.187L227.087,902.106L227.041,902.025L226.996,901.943L226.952,901.86L226.908,901.777L226.866,901.693L226.825,901.609L226.784,901.524L226.745,901.438L226.707,901.352L226.669,901.265L226.633,901.178L226.598,901.091L226.564,901.002L226.531,900.914L226.499,900.824L226.467,900.735L226.438,900.644L226.409,900.554L226.381,900.462L226.354,900.371L226.329,900.278L226.304,900.186L226.281,900.093L226.259,899.999L226.238,899.905L226.218,899.811L226.199,899.716L226.181,899.621L226.165,899.526L226.149,899.43L226.135,899.333L226.122,899.236L226.111,899.139L226.1,899.042L226.091,898.944L226.083,898.846L226.076,898.747L226.07,898.649L226.066,898.549L226.063,898.45L226.061,898.35L226.06,898.25L226.06,882.75L226.061,882.65L226.063,882.55L226.066,882.451L226.07,882.351L226.076,882.253L226.083,882.154L226.091,882.056L226.1,881.958L226.111,881.861L226.122,881.764L226.135,881.667L226.149,881.57L226.165,881.474L226.181,881.379L226.199,881.284L226.218,881.189L226.238,881.095L226.259,881.001L226.281,880.907L226.304,880.814L226.329,880.722L226.354,880.629L226.381,880.538L226.409,880.446L226.438,880.356L226.467,880.265L226.499,880.176L226.531,880.086L226.564,879.998L226.598,879.909L226.633,879.822L226.669,879.735L226.707,879.648L226.745,879.562L226.784,879.476L226.825,879.391L226.866,879.307L226.908,879.223L226.952,879.14L226.996,879.057L227.041,878.975L227.087,878.894L227.135,878.813L227.183,878.733L227.232,878.653L227.282,878.574L227.333,878.496L227.384,878.418L227.437,878.341L227.491,878.265L227.545,878.189L227.6,878.114L227.657,878.04L227.714,877.966L227.772,877.894L227.831,877.821L227.89,877.75L227.951,877.679L228.012,877.609L228.074,877.54L228.137,877.472L228.201,877.404L228.266,877.337L228.331,877.271L228.397,877.206L228.464,877.141L228.532,877.077L228.6,877.014L228.669,876.952L228.739,876.891L228.81,876.83L228.881,876.771L228.954,876.712L229.026,876.654L229.1,876.597L229.174,876.54L229.249,876.485L229.325,876.431L229.401,876.377L229.478,876.324L229.556,876.273L229.634,876.222L229.713,876.172L229.793,876.123L229.873,876.075L229.954,876.027L230.035,875.981L230.117,875.936L230.2,875.892L230.283,875.848L230.367,875.806L230.451,875.765L230.536,875.724L230.622,875.685L230.708,875.647L230.795,875.609L230.882,875.573L230.969,875.538L231.058,875.504L231.146,875.471L231.236,875.439L231.325,875.407L231.416,875.378L231.506,875.349L231.598,875.321L231.689,875.294L231.782,875.269L231.874,875.244L231.967,875.221L232.061,875.199L232.155,875.178L232.249,875.158L232.344,875.139L232.439,875.121L232.534,875.105L232.63,875.089L232.727,875.075L232.824,875.062L232.921,875.051L233.018,875.04L233.116,875.031L233.214,875.023L233.313,875.016L233.411,875.01L233.511,875.006L233.61,875.003L233.71,875.001L233.81,875L249.31,875L249.41,875.001ZM233.815,876.722L233.732,876.723L233.654,876.724L233.576,876.727L233.499,876.73L233.422,876.735L233.345,876.74L233.268,876.746L233.192,876.753L233.116,876.762L233.041,876.771L232.966,876.781L232.891,876.792L232.816,876.804L232.742,876.817L232.668,876.83L232.595,876.845L232.521,876.86L232.448,876.877L232.376,876.894L232.304,876.912L232.232,876.931L232.16,876.951L232.089,876.972L232.018,876.993L231.948,877.015L231.878,877.039L231.808,877.063L231.739,877.088L231.67,877.113L231.602,877.14L231.534,877.167L231.466,877.195L231.399,877.224L231.332,877.254L231.265,877.285L231.199,877.316L231.134,877.348L231.069,877.381L231.004,877.415L230.94,877.449L230.876,877.484L230.812,877.52L230.75,877.557L230.687,877.594L230.625,877.632L230.564,877.671L230.503,877.711L230.443,877.751L230.383,877.792L230.323,877.834L230.264,877.876L230.206,877.92L230.148,877.963L230.091,878.008L230.034,878.053L229.978,878.099L229.922,878.145L229.867,878.193L229.813,878.24L229.759,878.289L229.705,878.338L229.653,878.388L229.6,878.438L229.549,878.489L229.498,878.54L229.448,878.593L229.398,878.645L229.349,878.699L229.3,878.753L229.253,878.807L229.205,878.862L229.159,878.918L229.113,878.974L229.068,879.031L229.023,879.088L228.98,879.146L228.936,879.204L228.894,879.263L228.852,879.323L228.811,879.383L228.771,879.443L228.731,879.504L228.692,879.565L228.654,879.627L228.617,879.69L228.58,879.752L228.544,879.816L228.509,879.88L228.475,879.944L228.441,880.009L228.408,880.074L228.376,880.139L228.345,880.205L228.314,880.272L228.284,880.339L228.255,880.406L228.227,880.474L228.2,880.542L228.173,880.61L228.148,880.679L228.123,880.748L228.099,880.818L228.075,880.888L228.053,880.958L228.032,881.029L228.011,881.1L227.991,881.172L227.972,881.244L227.954,881.316L227.937,881.388L227.92,881.461L227.905,881.535L227.89,881.608L227.877,881.682L227.864,881.756L227.852,881.831L227.841,881.906L227.831,881.981L227.822,882.056L227.813,882.132L227.806,882.208L227.8,882.285L227.795,882.362L227.79,882.439L227.787,882.516L227.784,882.594L227.783,882.672L227.782,882.755L227.782,898.245L227.783,898.328L227.784,898.406L227.787,898.484L227.79,898.561L227.795,898.638L227.8,898.715L227.806,898.792L227.813,898.868L227.822,898.944L227.831,899.019L227.841,899.094L227.852,899.169L227.864,899.244L227.877,899.318L227.89,899.392L227.905,899.465L227.92,899.539L227.937,899.612L227.954,899.684L227.972,899.756L227.991,899.828L228.011,899.9L228.032,899.971L228.053,900.042L228.075,900.112L228.099,900.182L228.123,900.252L228.148,900.321L228.173,900.39L228.2,900.458L228.227,900.526L228.255,900.594L228.284,900.661L228.314,900.728L228.345,900.795L228.376,900.861L228.408,900.926L228.441,900.991L228.475,901.056L228.509,901.12L228.544,901.184L228.58,901.248L228.617,901.31L228.654,901.373L228.692,901.435L228.731,901.496L228.771,901.557L228.811,901.617L228.852,901.677L228.894,901.737L228.936,901.796L228.98,901.854L229.023,901.912L229.068,901.969L229.113,902.026L229.159,902.082L229.205,902.138L229.253,902.193L229.3,902.247L229.349,902.301L229.398,902.355L229.448,902.407L229.498,902.46L229.549,902.511L229.6,902.562L229.653,902.612L229.705,902.662L229.759,902.711L229.813,902.76L229.867,902.807L229.922,902.855L229.978,902.901L230.034,902.947L230.091,902.992L230.148,903.037L230.206,903.08L230.264,903.124L230.323,903.166L230.383,903.208L230.443,903.249L230.503,903.289L230.564,903.329L230.625,903.368L230.687,903.406L230.75,903.443L230.812,903.48L230.876,903.516L230.94,903.551L231.004,903.585L231.069,903.619L231.134,903.652L231.199,903.684L231.265,903.715L231.332,903.746L231.399,903.776L231.466,903.805L231.534,903.833L231.602,903.86L231.67,903.887L231.739,903.912L231.808,903.937L231.878,903.961L231.948,903.985L232.018,904.007L232.089,904.028L232.16,904.049L232.232,904.069L232.304,904.088L232.376,904.106L232.448,904.123L232.521,904.14L232.595,904.155L232.668,904.17L232.742,904.184L232.816,904.196L232.891,904.208L232.966,904.219L233.041,904.229L233.116,904.238L233.192,904.247L233.268,904.254L233.345,904.26L233.422,904.265L233.499,904.27L233.576,904.273L233.654,904.276L233.732,904.277L233.815,904.278L249.305,904.278L249.388,904.277L249.466,904.276L249.544,904.273L249.621,904.27L249.698,904.265L249.775,904.26L249.852,904.254L249.928,904.247L250.004,904.238L250.079,904.229L250.154,904.219L250.229,904.208L250.304,904.196L250.378,904.184L250.452,904.17L250.525,904.155L250.599,904.14L250.672,904.123L250.744,904.106L250.816,904.088L250.888,904.069L250.96,904.049L251.031,904.028L251.102,904.007L251.172,903.985L251.242,903.961L251.312,903.937L251.381,903.912L251.45,903.887L251.518,903.86L251.586,903.833L251.654,903.805L251.721,903.776L251.788,903.746L251.855,903.715L251.921,903.684L251.986,903.652L252.051,903.619L252.116,903.585L252.18,903.551L252.244,903.516L252.308,903.48L252.37,903.443L252.433,903.406L252.495,903.368L252.556,903.329L252.617,903.289L252.677,903.249L252.737,903.208L252.797,903.166L252.856,903.124L252.914,903.08L252.972,903.037L253.029,902.992L253.086,902.947L253.142,902.901L253.198,902.855L253.253,902.807L253.307,902.76L253.361,902.711L253.415,902.662L253.467,902.612L253.52,902.562L253.571,902.511L253.622,902.46L253.672,902.407L253.722,902.355L253.771,902.301L253.82,902.247L253.867,902.193L253.915,902.138L253.961,902.082L254.007,902.026L254.052,901.969L254.097,901.912L254.14,901.854L254.184,901.796L254.226,901.737L254.268,901.677L254.309,901.617L254.349,901.557L254.389,901.496L254.428,901.435L254.466,901.373L254.503,901.31L254.54,901.248L254.576,901.184L254.611,901.12L254.645,901.056L254.679,900.991L254.712,900.926L254.744,900.861L254.775,900.795L254.806,900.728L254.836,900.661L254.865,900.594L254.893,900.526L254.92,900.458L254.947,900.39L254.972,900.321L254.997,900.252L255.021,900.182L255.045,900.112L255.067,900.042L255.088,899.971L255.109,899.9L255.129,899.828L255.148,899.756L255.166,899.684L255.183,899.612L255.2,899.539L255.215,899.465L255.23,899.392L255.244,899.318L255.256,899.244L255.268,899.169L255.279,899.094L255.289,899.019L255.298,898.944L255.307,898.868L255.314,898.792L255.32,898.715L255.325,898.638L255.33,898.561L255.333,898.484L255.336,898.406L255.337,898.328L255.338,898.245L255.338,882.755L255.337,882.672L255.336,882.594L255.333,882.516L255.33,882.439L255.325,882.362L255.32,882.285L255.314,882.208L255.307,882.132L255.298,882.056L255.289,881.981L255.279,881.906L255.268,881.831L255.256,881.756L255.244,881.682L255.23,881.608L255.215,881.535L255.2,881.461L255.183,881.388L255.166,881.316L255.148,881.244L255.129,881.172L255.109,881.1L255.088,881.029L255.067,880.958L255.045,880.888L255.021,880.818L254.997,880.748L254.972,880.679L254.947,880.61L254.92,880.542L254.893,880.474L254.865,880.406L254.836,880.339L254.806,880.272L254.775,880.205L254.744,880.139L254.712,880.074L254.679,880.009L254.645,879.944L254.611,879.88L254.576,879.816L254.54,879.752L254.503,879.69L254.466,879.627L254.428,879.565L254.389,879.504L254.349,879.443L254.309,879.383L254.268,879.323L254.226,879.263L254.184,879.204L254.14,879.146L254.097,879.088L254.052,879.031L254.007,878.974L253.961,878.918L253.915,878.862L253.867,878.807L253.82,878.753L253.771,878.699L253.722,878.645L253.672,878.593L253.622,878.54L253.571,878.489L253.52,878.438L253.467,878.388L253.415,878.338L253.361,878.289L253.307,878.24L253.253,878.193L253.198,878.145L253.142,878.099L253.086,878.053L253.029,878.008L252.972,877.963L252.914,877.92L252.856,877.876L252.797,877.834L252.737,877.792L252.677,877.751L252.617,877.711L252.556,877.671L252.495,877.632L252.433,877.594L252.37,877.557L252.308,877.52L252.244,877.484L252.18,877.449L252.116,877.415L252.051,877.381L251.986,877.348L251.921,877.316L251.855,877.285L251.788,877.254L251.721,877.224L251.654,877.195L251.586,877.167L251.518,877.14L251.45,877.113L251.381,877.088L251.312,877.063L251.242,877.039L251.172,877.015L251.102,876.993L251.031,876.972L250.96,876.951L250.888,876.931L250.816,876.912L250.744,876.894L250.672,876.877L250.599,876.86L250.525,876.845L250.452,876.83L250.378,876.817L250.304,876.804L250.229,876.792L250.154,876.781L250.079,876.771L250.004,876.762L249.928,876.753L249.852,876.746L249.775,876.74L249.698,876.735L249.621,876.73L249.544,876.727L249.466,876.724L249.388,876.723L249.305,876.722L233.815,876.722Z" style="fill:rgb(46,58,65);"/>
        </g>
        <g transform="matrix(0.273333,0,0,0.910806,-4.71786,-509.376)">
            <text x="252.096px" y="859.026px" style="font-family:'SourceSansPro-Bold', 'Source Sans Pro', sans-serif;font-weight:700;font-size:24px;fill:rgb(46,58,65);">σ</text>
        </g>
    </g>
</svg>
