<?xml version="1.0" encoding="UTF-8" standalone="no"?>
<!DOCTYPE svg PUBLIC "-//W3C//DTD SVG 1.1//EN" "http://www.w3.org/Graphics/SVG/1.1/DTD/svg11.dtd">
<svg width="100%" height="100%" viewBox="0 0 72 36" version="1.1" xmlns="http://www.w3.org/2000/svg" xmlns:xlink="http://www.w3.org/1999/xlink" xml:space="preserve" xmlns:serif="http://www.serif.com/" style="fill-rule:evenodd;clip-rule:evenodd;stroke-linejoin:round;stroke-miterlimit:1.41421;">
    <g id="tanh" transform="matrix(2.14634,0,0,1.09793,-224.5,-273.5)">
        <g transform="matrix(1.08211,0,0,1.05771,-140.026,-676.391)">
            <path d="M257.06,882.75C257.06,878.473 255.324,875 253.185,875L229.935,875C227.796,875 226.06,878.473 226.06,882.75L226.06,898.25C226.06,902.527 227.796,906 229.935,906L253.185,906C255.324,906 257.06,902.527 257.06,898.25L257.06,882.75Z" style="fill:rgb(252,77,154);"/>
            <path d="M253.235,875.001L253.285,875.003L253.335,875.006L253.384,875.01L253.434,875.016L253.483,875.023L253.532,875.031L253.581,875.04L253.63,875.051L253.678,875.062L253.727,875.075L253.775,875.089L253.823,875.105L253.871,875.121L253.918,875.139L253.966,875.158L254.013,875.178L254.06,875.199L254.106,875.221L254.153,875.244L254.199,875.269L254.245,875.294L254.291,875.321L254.337,875.349L254.382,875.378L254.427,875.407L254.472,875.439L254.517,875.471L254.561,875.504L254.605,875.538L254.649,875.573L254.693,875.609L254.736,875.647L254.779,875.685L254.822,875.724L254.864,875.765L254.907,875.806L254.948,875.848L254.99,875.892L255.031,875.936L255.072,875.981L255.113,876.027L255.154,876.075L255.194,876.123L255.233,876.172L255.273,876.222L255.312,876.273L255.351,876.324L255.389,876.377L255.428,876.431L255.465,876.485L255.503,876.54L255.54,876.597L255.577,876.654L255.613,876.712L255.649,876.771L255.685,876.83L255.72,876.891L255.755,876.952L255.79,877.014L255.824,877.077L255.858,877.141L255.891,877.206L255.925,877.271L255.957,877.337L255.989,877.404L256.021,877.472L256.053,877.54L256.084,877.609L256.115,877.679L256.145,877.75L256.175,877.821L256.204,877.894L256.233,877.966L256.262,878.04L256.29,878.114L256.317,878.189L256.345,878.265L256.371,878.341L256.398,878.418L256.424,878.496L256.449,878.574L256.474,878.653L256.499,878.733L256.523,878.813L256.546,878.894L256.569,878.975L256.592,879.057L256.614,879.14L256.636,879.223L256.657,879.307L256.678,879.391L256.698,879.476L256.717,879.562L256.737,879.648L256.755,879.735L256.773,879.822L256.791,879.909L256.808,879.998L256.825,880.086L256.841,880.176L256.856,880.265L256.871,880.356L256.886,880.446L256.9,880.538L256.913,880.629L256.926,880.722L256.938,880.814L256.95,880.907L256.961,881.001L256.971,881.095L256.981,881.189L256.991,881.284L256.999,881.379L257.008,881.474L257.015,881.57L257.022,881.667L257.029,881.764L257.035,881.861L257.04,881.958L257.045,882.056L257.049,882.154L257.052,882.253L257.055,882.351L257.057,882.451L257.059,882.55L257.06,882.65L257.06,882.75L257.06,898.25L257.06,898.35L257.059,898.45L257.057,898.549L257.055,898.649L257.052,898.747L257.049,898.846L257.045,898.944L257.04,899.042L257.035,899.139L257.029,899.236L257.022,899.333L257.015,899.43L257.008,899.526L256.999,899.621L256.991,899.716L256.981,899.811L256.971,899.905L256.961,899.999L256.95,900.093L256.938,900.186L256.926,900.278L256.913,900.371L256.9,900.462L256.886,900.554L256.871,900.644L256.856,900.735L256.841,900.824L256.825,900.914L256.808,901.002L256.791,901.091L256.773,901.178L256.755,901.265L256.737,901.352L256.717,901.438L256.698,901.524L256.678,901.609L256.657,901.693L256.636,901.777L256.614,901.86L256.592,901.943L256.569,902.025L256.546,902.106L256.523,902.187L256.499,902.267L256.474,902.347L256.449,902.426L256.424,902.504L256.398,902.582L256.371,902.659L256.345,902.735L256.317,902.811L256.29,902.886L256.262,902.96L256.233,903.034L256.204,903.106L256.175,903.179L256.145,903.25L256.115,903.321L256.084,903.391L256.053,903.46L256.021,903.528L255.989,903.596L255.957,903.663L255.925,903.729L255.891,903.794L255.858,903.859L255.824,903.923L255.79,903.986L255.755,904.048L255.72,904.109L255.685,904.17L255.649,904.229L255.613,904.288L255.577,904.346L255.54,904.403L255.503,904.46L255.465,904.515L255.428,904.569L255.389,904.623L255.351,904.676L255.312,904.727L255.273,904.778L255.233,904.828L255.194,904.877L255.154,904.925L255.113,904.973L255.072,905.019L255.031,905.064L254.99,905.108L254.948,905.152L254.907,905.194L254.864,905.235L254.822,905.276L254.779,905.315L254.736,905.353L254.693,905.391L254.649,905.427L254.605,905.462L254.561,905.496L254.517,905.529L254.472,905.561L254.427,905.593L254.382,905.622L254.337,905.651L254.291,905.679L254.245,905.706L254.199,905.731L254.153,905.756L254.106,905.779L254.06,905.801L254.013,905.822L253.966,905.842L253.918,905.861L253.871,905.879L253.823,905.895L253.775,905.911L253.727,905.925L253.678,905.938L253.63,905.949L253.581,905.96L253.532,905.969L253.483,905.977L253.434,905.984L253.384,905.99L253.335,905.994L253.285,905.997L253.235,905.999L253.185,906L229.935,906L229.885,905.999L229.835,905.997L229.785,905.994L229.736,905.99L229.686,905.984L229.637,905.977L229.588,905.969L229.539,905.96L229.49,905.949L229.442,905.938L229.393,905.925L229.345,905.911L229.297,905.895L229.249,905.879L229.202,905.861L229.154,905.842L229.107,905.822L229.06,905.801L229.014,905.779L228.967,905.756L228.921,905.731L228.875,905.706L228.829,905.679L228.783,905.651L228.738,905.622L228.693,905.593L228.648,905.561L228.603,905.529L228.559,905.496L228.515,905.462L228.471,905.427L228.427,905.391L228.384,905.353L228.341,905.315L228.298,905.276L228.256,905.235L228.213,905.194L228.172,905.152L228.13,905.108L228.089,905.064L228.048,905.019L228.007,904.973L227.966,904.925L227.926,904.877L227.887,904.828L227.847,904.778L227.808,904.727L227.769,904.676L227.731,904.623L227.692,904.569L227.655,904.515L227.617,904.46L227.58,904.403L227.543,904.346L227.507,904.288L227.471,904.229L227.435,904.17L227.4,904.109L227.365,904.048L227.33,903.986L227.296,903.923L227.262,903.859L227.229,903.794L227.195,903.729L227.163,903.663L227.131,903.596L227.099,903.528L227.067,903.46L227.036,903.391L227.005,903.321L226.975,903.25L226.945,903.179L226.916,903.106L226.887,903.034L226.858,902.96L226.83,902.886L226.803,902.811L226.775,902.735L226.749,902.659L226.722,902.582L226.696,902.504L226.671,902.426L226.646,902.347L226.621,902.267L226.597,902.187L226.574,902.106L226.551,902.025L226.528,901.943L226.506,901.86L226.484,901.777L226.463,901.693L226.442,901.609L226.422,901.524L226.403,901.438L226.383,901.352L226.365,901.265L226.347,901.178L226.329,901.091L226.312,901.002L226.295,900.914L226.279,900.824L226.264,900.735L226.249,900.644L226.234,900.554L226.22,900.462L226.207,900.371L226.194,900.278L226.182,900.186L226.17,900.093L226.159,899.999L226.149,899.905L226.139,899.811L226.129,899.716L226.121,899.621L226.112,899.526L226.105,899.43L226.098,899.333L226.091,899.236L226.085,899.139L226.08,899.042L226.075,898.944L226.071,898.846L226.068,898.747L226.065,898.649L226.063,898.549L226.061,898.45L226.06,898.35L226.06,898.25L226.06,882.75L226.06,882.65L226.061,882.55L226.063,882.451L226.065,882.351L226.068,882.253L226.071,882.154L226.075,882.056L226.08,881.958L226.085,881.861L226.091,881.764L226.098,881.667L226.105,881.57L226.112,881.474L226.121,881.379L226.129,881.284L226.139,881.189L226.149,881.095L226.159,881.001L226.17,880.907L226.182,880.814L226.194,880.722L226.207,880.629L226.22,880.538L226.234,880.446L226.249,880.356L226.264,880.265L226.279,880.176L226.295,880.086L226.312,879.998L226.329,879.909L226.347,879.822L226.365,879.735L226.383,879.648L226.403,879.562L226.422,879.476L226.442,879.391L226.463,879.307L226.484,879.223L226.506,879.14L226.528,879.057L226.551,878.975L226.574,878.894L226.597,878.813L226.621,878.733L226.646,878.653L226.671,878.574L226.696,878.496L226.722,878.418L226.749,878.341L226.775,878.265L226.803,878.189L226.83,878.114L226.858,878.04L226.887,877.966L226.916,877.894L226.945,877.821L226.975,877.75L227.005,877.679L227.036,877.609L227.067,877.54L227.099,877.472L227.131,877.404L227.163,877.337L227.195,877.271L227.229,877.206L227.262,877.141L227.296,877.077L227.33,877.014L227.365,876.952L227.4,876.891L227.435,876.83L227.471,876.771L227.507,876.712L227.543,876.654L227.58,876.597L227.617,876.54L227.655,876.485L227.692,876.431L227.731,876.377L227.769,876.324L227.808,876.273L227.847,876.222L227.887,876.172L227.926,876.123L227.966,876.075L228.007,876.027L228.048,875.981L228.089,875.936L228.13,875.892L228.172,875.848L228.213,875.806L228.256,875.765L228.298,875.724L228.341,875.685L228.384,875.647L228.427,875.609L228.471,875.573L228.515,875.538L228.559,875.504L228.603,875.471L228.648,875.439L228.693,875.407L228.738,875.378L228.783,875.349L228.829,875.321L228.875,875.294L228.921,875.269L228.967,875.244L229.014,875.221L229.06,875.199L229.107,875.178L229.154,875.158L229.202,875.139L229.249,875.121L229.297,875.105L229.345,875.089L229.393,875.075L229.442,875.062L229.49,875.051L229.539,875.04L229.588,875.031L229.637,875.023L229.686,875.016L229.736,875.01L229.785,875.006L229.835,875.003L229.885,875.001L229.935,875L253.185,875L253.235,875.001ZM229.938,876.722L229.896,876.723L229.857,876.724L229.818,876.727L229.779,876.73L229.741,876.735L229.702,876.74L229.664,876.746L229.626,876.753L229.588,876.762L229.55,876.771L229.513,876.781L229.475,876.792L229.438,876.804L229.401,876.817L229.364,876.83L229.327,876.845L229.291,876.86L229.254,876.877L229.218,876.894L229.182,876.912L229.146,876.931L229.11,876.951L229.075,876.972L229.039,876.993L229.004,877.015L228.969,877.039L228.934,877.063L228.9,877.088L228.865,877.113L228.831,877.14L228.797,877.167L228.763,877.195L228.729,877.224L228.696,877.254L228.663,877.285L228.63,877.316L228.597,877.348L228.564,877.381L228.532,877.415L228.5,877.449L228.468,877.484L228.436,877.52L228.405,877.557L228.374,877.594L228.343,877.632L228.312,877.671L228.281,877.711L228.251,877.751L228.221,877.792L228.192,877.834L228.162,877.876L228.133,877.92L228.104,877.963L228.075,878.008L228.047,878.053L228.019,878.099L227.991,878.145L227.964,878.193L227.936,878.24L227.909,878.289L227.883,878.338L227.856,878.388L227.83,878.438L227.804,878.489L227.779,878.54L227.754,878.593L227.729,878.645L227.704,878.699L227.68,878.753L227.656,878.807L227.633,878.862L227.609,878.918L227.587,878.974L227.564,879.031L227.542,879.088L227.52,879.146L227.498,879.204L227.477,879.263L227.456,879.323L227.436,879.383L227.415,879.443L227.396,879.504L227.376,879.565L227.357,879.627L227.338,879.69L227.32,879.752L227.302,879.816L227.285,879.88L227.267,879.944L227.251,880.009L227.234,880.074L227.218,880.139L227.202,880.205L227.187,880.272L227.172,880.339L227.158,880.406L227.144,880.474L227.13,880.542L227.117,880.61L227.104,880.679L227.091,880.748L227.079,880.818L227.068,880.888L227.057,880.958L227.046,881.029L227.035,881.1L227.025,881.172L227.016,881.244L227.007,881.316L226.998,881.388L226.99,881.461L226.982,881.535L226.975,881.608L226.968,881.682L226.962,881.756L226.956,881.831L226.95,881.906L226.945,881.981L226.941,882.056L226.937,882.132L226.933,882.208L226.93,882.285L226.927,882.362L226.925,882.439L226.923,882.516L226.922,882.594L226.921,882.672L226.921,882.755L226.921,898.245L226.921,898.328L226.922,898.406L226.923,898.484L226.925,898.561L226.927,898.638L226.93,898.715L226.933,898.792L226.937,898.868L226.941,898.944L226.945,899.019L226.95,899.094L226.956,899.169L226.962,899.244L226.968,899.318L226.975,899.392L226.982,899.465L226.99,899.539L226.998,899.612L227.007,899.684L227.016,899.756L227.025,899.828L227.035,899.9L227.046,899.971L227.057,900.042L227.068,900.112L227.079,900.182L227.091,900.252L227.104,900.321L227.117,900.39L227.13,900.458L227.144,900.526L227.158,900.594L227.172,900.661L227.187,900.728L227.202,900.795L227.218,900.861L227.234,900.926L227.251,900.991L227.267,901.056L227.285,901.12L227.302,901.184L227.32,901.248L227.338,901.31L227.357,901.373L227.376,901.435L227.396,901.496L227.415,901.557L227.436,901.617L227.456,901.677L227.477,901.737L227.498,901.796L227.52,901.854L227.542,901.912L227.564,901.969L227.587,902.026L227.609,902.082L227.633,902.138L227.656,902.193L227.68,902.247L227.704,902.301L227.729,902.355L227.754,902.407L227.779,902.46L227.804,902.511L227.83,902.562L227.856,902.612L227.883,902.662L227.909,902.711L227.936,902.76L227.964,902.807L227.991,902.855L228.019,902.901L228.047,902.947L228.075,902.992L228.104,903.037L228.133,903.08L228.162,903.124L228.192,903.166L228.221,903.208L228.251,903.249L228.281,903.289L228.312,903.329L228.343,903.368L228.374,903.406L228.405,903.443L228.436,903.48L228.468,903.516L228.5,903.551L228.532,903.585L228.564,903.619L228.597,903.652L228.63,903.684L228.663,903.715L228.696,903.746L228.729,903.776L228.763,903.805L228.797,903.833L228.831,903.86L228.865,903.887L228.899,903.912L228.934,903.937L228.969,903.961L229.004,903.985L229.039,904.007L229.075,904.028L229.11,904.049L229.146,904.069L229.182,904.088L229.218,904.106L229.254,904.123L229.291,904.14L229.327,904.155L229.364,904.17L229.401,904.184L229.438,904.196L229.475,904.208L229.513,904.219L229.55,904.229L229.588,904.238L229.626,904.247L229.664,904.254L229.702,904.26L229.741,904.265L229.779,904.27L229.818,904.273L229.857,904.276L229.896,904.277L229.938,904.278L253.182,904.278L253.224,904.277L253.263,904.276L253.302,904.273L253.341,904.27L253.379,904.265L253.418,904.26L253.456,904.254L253.494,904.247L253.532,904.238L253.57,904.229L253.607,904.219L253.645,904.208L253.682,904.196L253.719,904.184L253.756,904.17L253.793,904.155L253.829,904.14L253.866,904.123L253.902,904.106L253.938,904.088L253.974,904.069L254.01,904.049L254.045,904.028L254.081,904.007L254.116,903.985L254.151,903.961L254.186,903.937L254.221,903.912L254.255,903.887L254.289,903.86L254.323,903.833L254.357,903.805L254.391,903.776L254.424,903.746L254.457,903.715L254.49,903.684L254.523,903.652L254.556,903.619L254.588,903.585L254.62,903.551L254.652,903.516L254.684,903.48L254.715,903.443L254.746,903.406L254.777,903.367L254.808,903.329L254.839,903.289L254.869,903.249L254.899,903.208L254.928,903.166L254.958,903.124L254.987,903.08L255.016,903.037L255.045,902.992L255.073,902.947L255.101,902.901L255.129,902.855L255.156,902.808L255.184,902.76L255.211,902.711L255.237,902.662L255.264,902.612L255.29,902.562L255.316,902.511L255.341,902.46L255.366,902.407L255.391,902.355L255.416,902.301L255.44,902.247L255.464,902.193L255.487,902.138L255.511,902.082L255.533,902.026L255.556,901.969L255.578,901.912L255.6,901.854L255.622,901.796L255.643,901.737L255.664,901.677L255.684,901.617L255.705,901.557L255.724,901.496L255.744,901.435L255.763,901.373L255.782,901.31L255.8,901.248L255.818,901.184L255.835,901.12L255.853,901.056L255.869,900.991L255.886,900.926L255.902,900.861L255.918,900.795L255.933,900.728L255.948,900.661L255.962,900.594L255.976,900.526L255.99,900.458L256.003,900.39L256.016,900.321L256.029,900.252L256.041,900.182L256.052,900.112L256.063,900.042L256.074,899.971L256.085,899.9L256.095,899.828L256.104,899.756L256.113,899.684L256.122,899.612L256.13,899.539L256.138,899.465L256.145,899.392L256.152,899.318L256.158,899.244L256.164,899.169L256.17,899.094L256.175,899.019L256.179,898.944L256.183,898.868L256.187,898.792L256.19,898.715L256.193,898.638L256.195,898.561L256.197,898.484L256.198,898.406L256.199,898.328L256.199,898.245L256.199,882.755L256.199,882.672L256.198,882.594L256.197,882.516L256.195,882.439L256.193,882.362L256.19,882.285L256.187,882.208L256.183,882.132L256.179,882.056L256.175,881.981L256.17,881.906L256.164,881.831L256.158,881.756L256.152,881.682L256.145,881.608L256.138,881.535L256.13,881.461L256.122,881.388L256.113,881.316L256.104,881.244L256.095,881.172L256.085,881.1L256.074,881.029L256.063,880.958L256.052,880.888L256.041,880.818L256.029,880.748L256.016,880.679L256.003,880.61L255.99,880.542L255.976,880.474L255.962,880.406L255.948,880.339L255.933,880.272L255.918,880.205L255.902,880.139L255.886,880.074L255.869,880.009L255.853,879.944L255.835,879.88L255.818,879.816L255.8,879.752L255.782,879.69L255.763,879.627L255.744,879.565L255.724,879.504L255.705,879.443L255.684,879.383L255.664,879.323L255.643,879.263L255.622,879.204L255.6,879.146L255.578,879.088L255.556,879.031L255.533,878.974L255.511,878.918L255.487,878.862L255.464,878.807L255.44,878.753L255.416,878.699L255.391,878.645L255.366,878.593L255.341,878.54L255.316,878.489L255.29,878.438L255.264,878.388L255.237,878.338L255.211,878.289L255.184,878.24L255.156,878.192L255.129,878.145L255.101,878.099L255.073,878.053L255.045,878.008L255.016,877.963L254.987,877.92L254.958,877.876L254.928,877.834L254.899,877.792L254.869,877.751L254.839,877.711L254.808,877.671L254.777,877.632L254.746,877.594L254.715,877.557L254.684,877.52L254.652,877.484L254.62,877.449L254.588,877.415L254.556,877.381L254.523,877.348L254.49,877.316L254.457,877.285L254.424,877.254L254.391,877.224L254.357,877.195L254.323,877.167L254.289,877.14L254.255,877.113L254.22,877.088L254.186,877.063L254.151,877.039L254.116,877.015L254.081,876.993L254.045,876.972L254.01,876.951L253.974,876.931L253.938,876.912L253.902,876.894L253.866,876.877L253.829,876.86L253.793,876.845L253.756,876.83L253.719,876.816L253.682,876.804L253.645,876.792L253.607,876.781L253.57,876.771L253.532,876.762L253.494,876.753L253.456,876.746L253.418,876.74L253.379,876.735L253.341,876.73L253.302,876.727L253.263,876.724L253.224,876.723L253.182,876.722L229.938,876.722Z" style="fill:rgb(46,58,65);"/>
        </g>
        <g transform="matrix(0.465909,0,0,0.910806,0.946519,-509.376)">
            <text x="234.576px" y="859.026px" style="font-family:'SourceSansPro-Bold', 'Source Sans Pro', sans-serif;font-weight:700;font-size:24px;fill:rgb(46,58,65);">t<tspan x="243.288px " y="859.026px ">a</tspan>nh</text>
        </g>
    </g>
</svg>
