<?xml version="1.0" encoding="UTF-8" standalone="no"?>
<!DOCTYPE svg PUBLIC "-//W3C//DTD SVG 1.1//EN" "http://www.w3.org/Graphics/SVG/1.1/DTD/svg11.dtd">
<svg width="100%" height="100%" viewBox="0 0 60 30" version="1.1" xmlns="http://www.w3.org/2000/svg" xmlns:xlink="http://www.w3.org/1999/xlink" xml:space="preserve" xmlns:serif="http://www.serif.com/" style="fill-rule:evenodd;clip-rule:evenodd;stroke-linejoin:round;stroke-miterlimit:1.41421;">
    <g id="matrix-tanh" transform="matrix(3.65854,0,0,1.09793,-374,-247)">
        <g transform="matrix(0.546667,0,0,0.910806,37.72,-1105.72)">
            <circle cx="133" cy="1476" r="15" style="fill:rgb(251,238,131);"/>
            <path d="M133.194,1461L133.387,1461.01L133.579,1461.01L133.771,1461.02L133.963,1461.03L134.153,1461.04L134.343,1461.06L134.533,1461.08L134.721,1461.1L134.909,1461.12L135.097,1461.15L135.283,1461.17L135.469,1461.2L135.654,1461.23L135.838,1461.27L136.021,1461.31L136.204,1461.34L136.386,1461.38L136.567,1461.43L136.747,1461.47L136.926,1461.52L137.104,1461.57L137.282,1461.62L137.458,1461.67L137.634,1461.73L137.809,1461.79L137.983,1461.85L138.155,1461.91L138.327,1461.98L138.498,1462.04L138.668,1462.11L138.836,1462.18L139.004,1462.25L139.171,1462.33L139.336,1462.4L139.501,1462.48L139.664,1462.56L139.826,1462.64L139.987,1462.73L140.147,1462.81L140.306,1462.9L140.464,1462.99L140.62,1463.08L140.776,1463.17L140.93,1463.27L141.082,1463.36L141.234,1463.46L141.384,1463.56L141.533,1463.66L141.681,1463.77L141.827,1463.87L141.972,1463.98L142.116,1464.09L142.258,1464.2L142.399,1464.31L142.539,1464.43L142.677,1464.54L142.814,1464.66L142.95,1464.78L143.083,1464.9L143.216,1465.02L143.347,1465.14L143.476,1465.27L143.605,1465.39L143.731,1465.52L143.856,1465.65L143.979,1465.78L144.101,1465.92L144.222,1466.05L144.34,1466.19L144.457,1466.32L144.573,1466.46L144.687,1466.6L144.799,1466.74L144.91,1466.88L145.018,1467.03L145.072,1467.1L145.126,1467.17L145.179,1467.25L145.231,1467.32L145.283,1467.39L145.335,1467.47L145.386,1467.54L145.437,1467.62L145.487,1467.69L145.537,1467.77L145.586,1467.84L145.636,1467.92L145.684,1467.99L145.732,1468.07L145.78,1468.15L145.827,1468.22L145.874,1468.3L145.92,1468.38L145.966,1468.46L146.011,1468.54L146.056,1468.62L146.101,1468.69L146.145,1468.77L146.188,1468.85L146.232,1468.93L146.274,1469.01L146.316,1469.09L146.358,1469.17L146.399,1469.26L146.44,1469.34L146.48,1469.42L146.52,1469.5L146.559,1469.58L146.598,1469.66L146.636,1469.75L146.674,1469.83L146.711,1469.91L146.748,1470L146.785,1470.08L146.82,1470.16L146.856,1470.25L146.891,1470.33L146.925,1470.42L146.959,1470.5L146.992,1470.59L147.025,1470.67L147.057,1470.76L147.089,1470.85L147.12,1470.93L147.151,1471.02L147.182,1471.1L147.211,1471.19L147.241,1471.28L147.269,1471.37L147.297,1471.45L147.325,1471.54L147.352,1471.63L147.379,1471.72L147.405,1471.81L147.431,1471.9L147.456,1471.99L147.48,1472.07L147.504,1472.16L147.527,1472.25L147.55,1472.34L147.573,1472.43L147.594,1472.52L147.616,1472.61L147.636,1472.7L147.656,1472.8L147.676,1472.89L147.695,1472.98L147.713,1473.07L147.731,1473.16L147.749,1473.25L147.766,1473.35L147.782,1473.44L147.797,1473.53L147.813,1473.62L147.827,1473.72L147.841,1473.81L147.854,1473.9L147.867,1474L147.879,1474.09L147.891,1474.18L147.902,1474.28L147.913,1474.37L147.922,1474.47L147.932,1474.56L147.941,1474.66L147.949,1474.75L147.956,1474.85L147.963,1474.94L147.97,1475.04L147.975,1475.13L147.98,1475.23L147.985,1475.32L147.989,1475.42L147.992,1475.52L147.995,1475.61L147.997,1475.71L147.999,1475.81L148,1475.9L148,1476L148,1476.1L147.999,1476.19L147.997,1476.29L147.995,1476.39L147.992,1476.48L147.989,1476.58L147.985,1476.68L147.98,1476.77L147.975,1476.87L147.97,1476.96L147.963,1477.06L147.956,1477.15L147.949,1477.25L147.941,1477.34L147.932,1477.44L147.922,1477.53L147.913,1477.63L147.902,1477.72L147.891,1477.82L147.879,1477.91L147.867,1478L147.854,1478.1L147.841,1478.19L147.827,1478.28L147.813,1478.38L147.797,1478.47L147.782,1478.56L147.766,1478.65L147.749,1478.75L147.731,1478.84L147.713,1478.93L147.695,1479.02L147.676,1479.11L147.656,1479.2L147.636,1479.3L147.616,1479.39L147.594,1479.48L147.573,1479.57L147.55,1479.66L147.527,1479.75L147.504,1479.84L147.48,1479.93L147.456,1480.02L147.431,1480.1L147.405,1480.19L147.379,1480.28L147.352,1480.37L147.325,1480.46L147.297,1480.55L147.269,1480.63L147.241,1480.72L147.211,1480.81L147.182,1480.9L147.151,1480.98L147.12,1481.07L147.089,1481.15L147.057,1481.24L147.025,1481.33L146.992,1481.41L146.959,1481.5L146.925,1481.58L146.891,1481.67L146.856,1481.75L146.82,1481.84L146.785,1481.92L146.748,1482L146.711,1482.09L146.674,1482.17L146.636,1482.25L146.598,1482.34L146.559,1482.42L146.52,1482.5L146.48,1482.58L146.44,1482.66L146.399,1482.75L146.358,1482.83L146.316,1482.91L146.274,1482.99L146.232,1483.07L146.188,1483.15L146.145,1483.23L146.101,1483.31L146.056,1483.38L146.011,1483.46L145.966,1483.54L145.92,1483.62L145.874,1483.7L145.827,1483.78L145.78,1483.85L145.732,1483.93L145.684,1484.01L145.636,1484.08L145.586,1484.16L145.537,1484.23L145.487,1484.31L145.437,1484.38L145.386,1484.46L145.335,1484.53L145.283,1484.61L145.231,1484.68L145.179,1484.75L145.126,1484.83L145.072,1484.9L145.018,1484.97L144.91,1485.12L144.799,1485.26L144.687,1485.4L144.573,1485.54L144.457,1485.68L144.34,1485.81L144.222,1485.95L144.101,1486.08L143.979,1486.22L143.856,1486.35L143.731,1486.48L143.605,1486.61L143.476,1486.73L143.347,1486.86L143.216,1486.98L143.083,1487.1L142.95,1487.22L142.814,1487.34L142.677,1487.46L142.539,1487.57L142.399,1487.69L142.258,1487.8L142.116,1487.91L141.972,1488.02L141.827,1488.13L141.681,1488.23L141.533,1488.34L141.384,1488.44L141.234,1488.54L141.082,1488.64L140.93,1488.73L140.776,1488.83L140.62,1488.92L140.464,1489.01L140.306,1489.1L140.147,1489.19L139.987,1489.27L139.826,1489.36L139.664,1489.44L139.501,1489.52L139.336,1489.6L139.171,1489.67L139.004,1489.75L138.836,1489.82L138.668,1489.89L138.498,1489.96L138.327,1490.03L138.155,1490.09L137.983,1490.15L137.809,1490.21L137.634,1490.27L137.458,1490.33L137.282,1490.38L137.104,1490.43L136.926,1490.48L136.747,1490.53L136.567,1490.57L136.386,1490.62L136.204,1490.66L136.021,1490.69L135.838,1490.73L135.654,1490.77L135.469,1490.8L135.283,1490.83L135.097,1490.85L134.909,1490.88L134.721,1490.9L134.533,1490.92L134.343,1490.94L134.153,1490.96L133.963,1490.97L133.771,1490.98L133.579,1490.99L133.387,1491L133.194,1491L133,1491L132.806,1491L132.613,1491L132.421,1490.99L132.229,1490.98L132.037,1490.97L131.847,1490.96L131.657,1490.94L131.467,1490.92L131.279,1490.9L131.091,1490.88L130.903,1490.85L130.717,1490.83L130.531,1490.8L130.346,1490.77L130.162,1490.73L129.979,1490.69L129.796,1490.66L129.614,1490.62L129.433,1490.57L129.253,1490.53L129.074,1490.48L128.896,1490.43L128.718,1490.38L128.542,1490.33L128.366,1490.27L128.191,1490.21L128.017,1490.15L127.845,1490.09L127.673,1490.03L127.502,1489.96L127.332,1489.89L127.164,1489.82L126.996,1489.75L126.829,1489.67L126.664,1489.6L126.499,1489.52L126.336,1489.44L126.174,1489.36L126.013,1489.27L125.853,1489.19L125.694,1489.1L125.536,1489.01L125.38,1488.92L125.224,1488.83L125.07,1488.73L124.918,1488.64L124.766,1488.54L124.616,1488.44L124.467,1488.34L124.319,1488.23L124.173,1488.13L124.028,1488.02L123.884,1487.91L123.742,1487.8L123.601,1487.69L123.461,1487.57L123.323,1487.46L123.186,1487.34L123.05,1487.22L122.917,1487.1L122.784,1486.98L122.653,1486.86L122.524,1486.73L122.395,1486.61L122.269,1486.48L122.144,1486.35L122.021,1486.22L121.899,1486.08L121.778,1485.95L121.66,1485.81L121.543,1485.68L121.427,1485.54L121.313,1485.4L121.201,1485.26L121.09,1485.12L120.982,1484.97L120.928,1484.9L120.874,1484.83L120.821,1484.75L120.769,1484.68L120.717,1484.61L120.665,1484.53L120.614,1484.46L120.563,1484.38L120.513,1484.31L120.463,1484.23L120.414,1484.16L120.364,1484.08L120.316,1484.01L120.268,1483.93L120.22,1483.85L120.173,1483.78L120.126,1483.7L120.08,1483.62L120.034,1483.54L119.989,1483.46L119.944,1483.38L119.899,1483.31L119.855,1483.23L119.812,1483.15L119.768,1483.07L119.726,1482.99L119.684,1482.91L119.642,1482.83L119.601,1482.75L119.56,1482.66L119.52,1482.58L119.48,1482.5L119.441,1482.42L119.402,1482.34L119.364,1482.25L119.326,1482.17L119.289,1482.09L119.252,1482L119.215,1481.92L119.18,1481.84L119.144,1481.75L119.109,1481.67L119.075,1481.58L119.041,1481.5L119.008,1481.41L118.975,1481.33L118.943,1481.24L118.911,1481.15L118.88,1481.07L118.849,1480.98L118.818,1480.9L118.789,1480.81L118.759,1480.72L118.731,1480.63L118.703,1480.55L118.675,1480.46L118.648,1480.37L118.621,1480.28L118.595,1480.19L118.569,1480.1L118.544,1480.02L118.52,1479.93L118.496,1479.84L118.473,1479.75L118.45,1479.66L118.427,1479.57L118.406,1479.48L118.384,1479.39L118.364,1479.3L118.344,1479.2L118.324,1479.11L118.305,1479.02L118.287,1478.93L118.269,1478.84L118.251,1478.75L118.234,1478.65L118.218,1478.56L118.203,1478.47L118.187,1478.38L118.173,1478.28L118.159,1478.19L118.146,1478.1L118.133,1478L118.121,1477.91L118.109,1477.82L118.098,1477.72L118.087,1477.63L118.078,1477.53L118.068,1477.44L118.059,1477.34L118.051,1477.25L118.044,1477.15L118.037,1477.06L118.03,1476.96L118.025,1476.87L118.02,1476.77L118.015,1476.68L118.011,1476.58L118.008,1476.48L118.005,1476.39L118.003,1476.29L118.001,1476.19L118,1476.1L118,1476L118,1475.9L118.001,1475.81L118.003,1475.71L118.005,1475.61L118.008,1475.52L118.011,1475.42L118.015,1475.32L118.02,1475.23L118.025,1475.13L118.03,1475.04L118.037,1474.94L118.044,1474.85L118.051,1474.75L118.059,1474.66L118.068,1474.56L118.078,1474.47L118.087,1474.37L118.098,1474.28L118.109,1474.18L118.121,1474.09L118.133,1474L118.146,1473.9L118.159,1473.81L118.173,1473.72L118.187,1473.62L118.203,1473.53L118.218,1473.44L118.234,1473.35L118.251,1473.25L118.269,1473.16L118.287,1473.07L118.305,1472.98L118.324,1472.89L118.344,1472.8L118.364,1472.7L118.384,1472.61L118.406,1472.52L118.427,1472.43L118.45,1472.34L118.473,1472.25L118.496,1472.16L118.52,1472.07L118.544,1471.99L118.569,1471.9L118.595,1471.81L118.621,1471.72L118.648,1471.63L118.675,1471.54L118.703,1471.45L118.731,1471.37L118.759,1471.28L118.789,1471.19L118.818,1471.1L118.849,1471.02L118.88,1470.93L118.911,1470.85L118.943,1470.76L118.975,1470.67L119.008,1470.59L119.041,1470.5L119.075,1470.42L119.109,1470.33L119.144,1470.25L119.18,1470.16L119.215,1470.08L119.252,1470L119.289,1469.91L119.326,1469.83L119.364,1469.75L119.402,1469.66L119.441,1469.58L119.48,1469.5L119.52,1469.42L119.56,1469.34L119.601,1469.26L119.642,1469.17L119.684,1469.09L119.726,1469.01L119.768,1468.93L119.812,1468.85L119.855,1468.77L119.899,1468.69L119.944,1468.62L119.989,1468.54L120.034,1468.46L120.08,1468.38L120.126,1468.3L120.173,1468.22L120.22,1468.15L120.268,1468.07L120.316,1467.99L120.364,1467.92L120.414,1467.84L120.463,1467.77L120.513,1467.69L120.563,1467.62L120.614,1467.54L120.665,1467.47L120.717,1467.39L120.769,1467.32L120.821,1467.25L120.874,1467.17L120.928,1467.1L120.982,1467.03L121.09,1466.88L121.201,1466.74L121.313,1466.6L121.427,1466.46L121.543,1466.32L121.66,1466.19L121.778,1466.05L121.899,1465.92L122.021,1465.78L122.144,1465.65L122.269,1465.52L122.395,1465.39L122.524,1465.27L122.653,1465.14L122.784,1465.02L122.917,1464.9L123.05,1464.78L123.186,1464.66L123.323,1464.54L123.461,1464.43L123.601,1464.31L123.742,1464.2L123.884,1464.09L124.028,1463.98L124.173,1463.87L124.319,1463.77L124.467,1463.66L124.616,1463.56L124.766,1463.46L124.918,1463.36L125.07,1463.27L125.224,1463.17L125.38,1463.08L125.536,1462.99L125.694,1462.9L125.853,1462.81L126.013,1462.73L126.174,1462.64L126.336,1462.56L126.499,1462.48L126.664,1462.4L126.829,1462.33L126.996,1462.25L127.164,1462.18L127.332,1462.11L127.502,1462.04L127.673,1461.98L127.845,1461.91L128.017,1461.85L128.191,1461.79L128.366,1461.73L128.542,1461.67L128.718,1461.62L128.896,1461.57L129.074,1461.52L129.253,1461.47L129.433,1461.43L129.614,1461.38L129.796,1461.34L129.979,1461.31L130.162,1461.27L130.346,1461.23L130.531,1461.2L130.717,1461.17L130.903,1461.15L131.091,1461.12L131.279,1461.1L131.467,1461.08L131.657,1461.06L131.847,1461.04L132.037,1461.03L132.229,1461.02L132.421,1461.01L132.613,1461.01L132.806,1461L133,1461L133.194,1461ZM132.813,1463L132.626,1463.01L132.44,1463.01L132.254,1463.02L132.069,1463.03L131.885,1463.04L131.701,1463.06L131.518,1463.08L131.336,1463.1L131.154,1463.12L130.973,1463.14L130.793,1463.17L130.614,1463.2L130.435,1463.23L130.257,1463.26L130.08,1463.3L129.904,1463.33L129.729,1463.37L129.554,1463.41L129.381,1463.46L129.208,1463.5L129.036,1463.55L128.865,1463.6L128.695,1463.65L128.526,1463.7L128.358,1463.76L128.191,1463.82L128.025,1463.88L127.86,1463.94L127.696,1464L127.533,1464.07L127.371,1464.14L127.21,1464.2L127.05,1464.28L126.891,1464.35L126.734,1464.42L126.577,1464.5L126.422,1464.58L126.268,1464.66L126.115,1464.74L125.963,1464.83L125.813,1464.91L125.663,1465L125.515,1465.09L125.368,1465.18L125.223,1465.27L125.079,1465.36L124.936,1465.46L124.794,1465.56L124.654,1465.65L124.515,1465.75L124.378,1465.86L124.242,1465.96L124.107,1466.06L123.974,1466.17L123.842,1466.28L123.712,1466.38L123.583,1466.5L123.456,1466.61L123.33,1466.72L123.206,1466.83L123.083,1466.95L122.962,1467.07L122.843,1467.18L122.725,1467.3L122.608,1467.42L122.494,1467.55L122.381,1467.67L122.269,1467.79L122.16,1467.92L122.052,1468.04L121.945,1468.17L121.841,1468.3L121.738,1468.43L121.637,1468.56L121.536,1468.69L121.488,1468.76L121.44,1468.82L121.392,1468.89L121.344,1468.95L121.297,1469.02L121.25,1469.09L121.204,1469.16L121.158,1469.22L121.113,1469.29L121.068,1469.36L121.023,1469.43L120.979,1469.5L120.936,1469.56L120.893,1469.63L120.85,1469.7L120.808,1469.77L120.767,1469.84L120.725,1469.91L120.685,1469.98L120.645,1470.05L120.605,1470.12L120.566,1470.18L120.527,1470.26L120.489,1470.32L120.451,1470.39L120.413,1470.46L120.377,1470.54L120.34,1470.61L120.305,1470.68L120.269,1470.75L120.234,1470.82L120.2,1470.89L120.166,1470.96L120.133,1471.03L120.1,1471.1L120.067,1471.17L120.036,1471.24L120.004,1471.31L119.973,1471.38L119.943,1471.46L119.913,1471.53L119.883,1471.6L119.855,1471.67L119.826,1471.74L119.798,1471.81L119.771,1471.88L119.744,1471.96L119.717,1472.03L119.691,1472.1L119.666,1472.17L119.641,1472.24L119.617,1472.31L119.593,1472.38L119.569,1472.46L119.546,1472.53L119.524,1472.6L119.502,1472.67L119.48,1472.74L119.459,1472.81L119.439,1472.88L119.419,1472.95L119.399,1473.03L119.38,1473.1L119.362,1473.17L119.344,1473.24L119.326,1473.31L119.309,1473.38L119.292,1473.45L119.276,1473.52L119.26,1473.6L119.245,1473.67L119.23,1473.74L119.216,1473.81L119.202,1473.88L119.189,1473.95L119.176,1474.02L119.164,1474.09L119.152,1474.16L119.14,1474.23L119.129,1474.3L119.119,1474.37L119.109,1474.44L119.099,1474.51L119.09,1474.58L119.081,1474.65L119.073,1474.73L119.065,1474.8L119.057,1474.87L119.051,1474.94L119.044,1475.01L119.038,1475.08L119.032,1475.15L119.027,1475.22L119.023,1475.29L119.018,1475.36L119.014,1475.43L119.011,1475.5L119.008,1475.57L119.006,1475.64L119.004,1475.71L119.002,1475.79L119.001,1475.86L119,1475.93L119,1476L119,1476.07L119.001,1476.14L119.002,1476.21L119.004,1476.29L119.006,1476.36L119.008,1476.43L119.011,1476.5L119.014,1476.57L119.018,1476.64L119.023,1476.71L119.027,1476.78L119.032,1476.85L119.038,1476.92L119.044,1476.99L119.051,1477.06L119.057,1477.13L119.065,1477.2L119.073,1477.28L119.081,1477.35L119.09,1477.42L119.099,1477.49L119.109,1477.56L119.119,1477.63L119.129,1477.7L119.14,1477.77L119.152,1477.84L119.164,1477.91L119.176,1477.98L119.189,1478.05L119.202,1478.12L119.216,1478.19L119.23,1478.26L119.245,1478.33L119.26,1478.4L119.276,1478.48L119.292,1478.55L119.309,1478.62L119.326,1478.69L119.344,1478.76L119.362,1478.83L119.38,1478.9L119.399,1478.97L119.419,1479.05L119.439,1479.12L119.459,1479.19L119.48,1479.26L119.502,1479.33L119.524,1479.4L119.546,1479.47L119.569,1479.54L119.593,1479.62L119.617,1479.69L119.641,1479.76L119.666,1479.83L119.691,1479.9L119.717,1479.97L119.744,1480.04L119.771,1480.12L119.798,1480.19L119.826,1480.26L119.855,1480.33L119.883,1480.4L119.913,1480.47L119.943,1480.54L119.973,1480.62L120.004,1480.69L120.036,1480.76L120.067,1480.83L120.1,1480.9L120.133,1480.97L120.166,1481.04L120.2,1481.11L120.234,1481.18L120.269,1481.25L120.305,1481.32L120.34,1481.39L120.377,1481.46L120.413,1481.54L120.451,1481.61L120.489,1481.68L120.527,1481.75L120.566,1481.82L120.605,1481.88L120.645,1481.95L120.685,1482.02L120.725,1482.09L120.767,1482.16L120.808,1482.23L120.85,1482.3L120.893,1482.37L120.936,1482.44L120.979,1482.51L121.023,1482.57L121.068,1482.64L121.113,1482.71L121.158,1482.78L121.204,1482.84L121.25,1482.91L121.297,1482.98L121.344,1483.05L121.392,1483.11L121.44,1483.18L121.488,1483.24L121.536,1483.31L121.637,1483.44L121.738,1483.57L121.841,1483.7L121.945,1483.83L122.052,1483.96L122.16,1484.08L122.269,1484.21L122.381,1484.33L122.494,1484.45L122.608,1484.58L122.725,1484.7L122.843,1484.82L122.962,1484.93L123.083,1485.05L123.206,1485.17L123.33,1485.28L123.456,1485.39L123.583,1485.51L123.712,1485.62L123.842,1485.72L123.974,1485.83L124.107,1485.94L124.242,1486.04L124.378,1486.14L124.515,1486.25L124.654,1486.35L124.794,1486.44L124.936,1486.54L125.079,1486.64L125.223,1486.73L125.368,1486.82L125.515,1486.91L125.663,1487L125.813,1487.09L125.963,1487.17L126.115,1487.26L126.268,1487.34L126.422,1487.42L126.577,1487.5L126.734,1487.58L126.891,1487.65L127.05,1487.72L127.21,1487.79L127.371,1487.86L127.533,1487.93L127.696,1488L127.86,1488.06L128.025,1488.12L128.191,1488.18L128.358,1488.24L128.526,1488.3L128.695,1488.35L128.865,1488.4L129.036,1488.45L129.208,1488.5L129.381,1488.54L129.554,1488.59L129.729,1488.63L129.904,1488.67L130.08,1488.7L130.257,1488.74L130.435,1488.77L130.614,1488.8L130.793,1488.83L130.973,1488.86L131.154,1488.88L131.336,1488.9L131.518,1488.92L131.701,1488.94L131.885,1488.96L132.069,1488.97L132.254,1488.98L132.44,1488.99L132.626,1489L132.813,1489L133,1489L133.187,1489L133.374,1489L133.56,1488.99L133.746,1488.98L133.931,1488.97L134.115,1488.96L134.299,1488.94L134.482,1488.92L134.664,1488.9L134.846,1488.88L135.027,1488.86L135.207,1488.83L135.386,1488.8L135.565,1488.77L135.743,1488.74L135.92,1488.7L136.096,1488.67L136.271,1488.63L136.446,1488.59L136.619,1488.54L136.792,1488.5L136.964,1488.45L137.135,1488.4L137.305,1488.35L137.474,1488.3L137.642,1488.24L137.809,1488.18L137.975,1488.12L138.14,1488.06L138.304,1488L138.467,1487.93L138.629,1487.86L138.79,1487.79L138.95,1487.72L139.109,1487.65L139.266,1487.58L139.423,1487.5L139.578,1487.42L139.732,1487.34L139.885,1487.26L140.037,1487.17L140.187,1487.09L140.337,1487L140.485,1486.91L140.632,1486.82L140.777,1486.73L140.921,1486.64L141.064,1486.54L141.206,1486.44L141.346,1486.35L141.485,1486.25L141.622,1486.14L141.758,1486.04L141.893,1485.94L142.026,1485.83L142.158,1485.72L142.288,1485.62L142.417,1485.51L142.544,1485.39L142.67,1485.28L142.794,1485.17L142.917,1485.05L143.038,1484.93L143.157,1484.82L143.275,1484.7L143.392,1484.58L143.506,1484.45L143.619,1484.33L143.731,1484.21L143.84,1484.08L143.948,1483.96L144.055,1483.83L144.159,1483.7L144.262,1483.57L144.363,1483.44L144.464,1483.31L144.512,1483.24L144.56,1483.18L144.608,1483.11L144.656,1483.05L144.703,1482.98L144.75,1482.91L144.796,1482.84L144.842,1482.78L144.887,1482.71L144.932,1482.64L144.977,1482.57L145.021,1482.51L145.064,1482.44L145.107,1482.37L145.15,1482.3L145.192,1482.23L145.233,1482.16L145.275,1482.09L145.315,1482.02L145.355,1481.95L145.395,1481.88L145.434,1481.82L145.473,1481.75L145.511,1481.68L145.549,1481.61L145.586,1481.54L145.623,1481.46L145.66,1481.39L145.695,1481.32L145.731,1481.25L145.766,1481.18L145.8,1481.11L145.834,1481.04L145.867,1480.97L145.9,1480.9L145.933,1480.83L145.964,1480.76L145.996,1480.69L146.027,1480.62L146.057,1480.54L146.087,1480.47L146.117,1480.4L146.145,1480.33L146.174,1480.26L146.202,1480.19L146.229,1480.12L146.256,1480.04L146.283,1479.97L146.309,1479.9L146.334,1479.83L146.359,1479.76L146.383,1479.69L146.407,1479.62L146.431,1479.54L146.454,1479.47L146.476,1479.4L146.498,1479.33L146.52,1479.26L146.541,1479.19L146.561,1479.12L146.581,1479.05L146.601,1478.97L146.62,1478.9L146.638,1478.83L146.656,1478.76L146.674,1478.69L146.691,1478.62L146.708,1478.55L146.724,1478.48L146.74,1478.4L146.755,1478.33L146.77,1478.26L146.784,1478.19L146.798,1478.12L146.811,1478.05L146.824,1477.98L146.836,1477.91L146.848,1477.84L146.86,1477.77L146.871,1477.7L146.881,1477.63L146.891,1477.56L146.901,1477.49L146.91,1477.42L146.919,1477.35L146.927,1477.28L146.935,1477.2L146.943,1477.13L146.949,1477.06L146.956,1476.99L146.962,1476.92L146.968,1476.85L146.973,1476.78L146.977,1476.71L146.982,1476.64L146.986,1476.57L146.989,1476.5L146.992,1476.43L146.994,1476.36L146.996,1476.29L146.998,1476.21L146.999,1476.14L147,1476.07L147,1476L147,1475.93L146.999,1475.86L146.998,1475.79L146.996,1475.71L146.994,1475.64L146.992,1475.57L146.989,1475.5L146.986,1475.43L146.982,1475.36L146.977,1475.29L146.973,1475.22L146.968,1475.15L146.962,1475.08L146.956,1475.01L146.949,1474.94L146.943,1474.87L146.935,1474.8L146.927,1474.73L146.919,1474.65L146.91,1474.58L146.901,1474.51L146.891,1474.44L146.881,1474.37L146.871,1474.3L146.86,1474.23L146.848,1474.16L146.836,1474.09L146.824,1474.02L146.811,1473.95L146.798,1473.88L146.784,1473.81L146.77,1473.74L146.755,1473.67L146.74,1473.6L146.724,1473.52L146.708,1473.45L146.691,1473.38L146.674,1473.31L146.656,1473.24L146.638,1473.17L146.62,1473.1L146.601,1473.03L146.581,1472.95L146.561,1472.88L146.541,1472.81L146.52,1472.74L146.498,1472.67L146.476,1472.6L146.454,1472.53L146.431,1472.46L146.407,1472.38L146.383,1472.31L146.359,1472.24L146.334,1472.17L146.309,1472.1L146.283,1472.03L146.256,1471.96L146.229,1471.88L146.202,1471.81L146.174,1471.74L146.145,1471.67L146.117,1471.6L146.087,1471.53L146.057,1471.46L146.027,1471.38L145.996,1471.31L145.964,1471.24L145.933,1471.17L145.9,1471.1L145.867,1471.03L145.834,1470.96L145.8,1470.89L145.766,1470.82L145.731,1470.75L145.695,1470.68L145.66,1470.61L145.623,1470.54L145.586,1470.46L145.549,1470.39L145.511,1470.32L145.473,1470.26L145.434,1470.18L145.395,1470.12L145.355,1470.05L145.315,1469.98L145.275,1469.91L145.233,1469.84L145.192,1469.77L145.15,1469.7L145.107,1469.63L145.064,1469.56L145.021,1469.5L144.977,1469.43L144.932,1469.36L144.887,1469.29L144.842,1469.22L144.796,1469.16L144.75,1469.09L144.703,1469.02L144.656,1468.95L144.608,1468.89L144.56,1468.82L144.512,1468.76L144.464,1468.69L144.363,1468.56L144.262,1468.43L144.159,1468.3L144.055,1468.17L143.948,1468.04L143.84,1467.92L143.731,1467.79L143.619,1467.67L143.506,1467.55L143.392,1467.42L143.275,1467.3L143.157,1467.18L143.038,1467.07L142.917,1466.95L142.794,1466.83L142.67,1466.72L142.544,1466.61L142.417,1466.5L142.288,1466.38L142.158,1466.28L142.026,1466.17L141.893,1466.06L141.758,1465.96L141.622,1465.86L141.485,1465.75L141.346,1465.65L141.206,1465.56L141.064,1465.46L140.921,1465.36L140.777,1465.27L140.632,1465.18L140.485,1465.09L140.337,1465L140.187,1464.91L140.037,1464.83L139.885,1464.74L139.732,1464.66L139.578,1464.58L139.423,1464.5L139.266,1464.42L139.109,1464.35L138.95,1464.28L138.79,1464.21L138.629,1464.14L138.467,1464.07L138.304,1464L138.14,1463.94L137.975,1463.88L137.809,1463.82L137.642,1463.76L137.474,1463.7L137.305,1463.65L137.135,1463.6L136.964,1463.55L136.792,1463.5L136.619,1463.46L136.446,1463.41L136.271,1463.37L136.096,1463.33L135.92,1463.3L135.743,1463.26L135.565,1463.23L135.386,1463.2L135.207,1463.17L135.027,1463.14L134.846,1463.12L134.664,1463.1L134.482,1463.08L134.299,1463.06L134.115,1463.04L133.931,1463.03L133.746,1463.02L133.56,1463.01L133.374,1463.01L133.187,1463L133,1463L132.813,1463Z" style="fill:rgb(46,58,65);"/>
        </g>
        <g transform="matrix(0.273333,0,0,0.910806,39.6409,-538.127)">
            <text x="240.675px" y="859.026px" style="font-family:'SourceSansPro-Bold', 'Source Sans Pro', sans-serif;font-weight:700;font-size:18px;fill:rgb(46,58,65);">t<tspan x="247.209px " y="859.026px ">a</tspan>nh</text>
        </g>
    </g>
</svg>
