<?xml version="1.0" encoding="UTF-8" standalone="no"?>
<!DOCTYPE svg PUBLIC "-//W3C//DTD SVG 1.1//EN" "http://www.w3.org/Graphics/SVG/1.1/DTD/svg11.dtd">
<svg width="100%" height="100%" viewBox="0 0 820 428" version="1.1" xmlns="http://www.w3.org/2000/svg" xmlns:xlink="http://www.w3.org/1999/xlink" xml:space="preserve" xmlns:serif="http://www.serif.com/" style="fill-rule:evenodd;clip-rule:evenodd;stroke-linejoin:round;stroke-miterlimit:1.41421;">
    <g id="Artboard1" transform="matrix(6.56,0,0,10.439,-131.2,918.634)">
        <rect x="20" y="-88" width="125" height="41" style="fill:#2e3239;"/>
        <clipPath id="_clip1">
            <rect x="20" y="-88" width="125" height="41"/>
        </clipPath>
        <g clip-path="url(#_clip1)">
            <g transform="matrix(0.399361,0,0,0.102979,16.0064,-89.7506)">
                <rect x="10" y="17" width="313" height="40" style="fill:#2e3239;"/>
            </g>
            <g transform="matrix(0.399361,0,0,0.122138,16.0064,-53.9619)">
                <rect x="10" y="17" width="313" height="40" style="fill:#2e3239;"/>
            </g>
            <g transform="matrix(0.152439,0,0,0.0957944,20,-88)">
                <rect x="0" y="43" width="820" height="334" style="fill:#2e3239;"/>
            </g>
            <g id="sigai-ucf" serif:id="sigai@ucf" transform="matrix(0.268535,0,0,0.0478972,-9.25618,-77.9416)">
                <g id="sigai" transform="matrix(0.567669,0,0,2,108.947,-210)">
                    <path d="M278.064,221.664c0,-1.536 -0.564,-2.784 -1.692,-3.744c-1.128,-0.96 -2.544,-1.836 -4.248,-2.628c-1.704,-0.792 -3.552,-1.608 -5.544,-2.448c-1.992,-0.84 -3.84,-1.872 -5.544,-3.096c-1.704,-1.224 -3.12,-2.748 -4.248,-4.572c-1.128,-1.824 -1.692,-4.152 -1.692,-6.984c0,-2.448 0.408,-4.572 1.224,-6.372c0.816,-1.8 1.98,-3.3 3.492,-4.5c1.512,-1.2 3.3,-2.088 5.364,-2.664c2.064,-0.576 4.368,-0.864 6.912,-0.864c2.928,0 5.688,0.252 8.28,0.756c2.592,0.504 4.728,1.236 6.408,2.196l-3.096,8.28c-1.056,-0.672 -2.64,-1.284 -4.752,-1.836c-2.112,-0.552 -4.392,-0.828 -6.84,-0.828c-2.304,0 -4.068,0.456 -5.292,1.368c-1.224,0.912 -1.836,2.136 -1.836,3.672c0,1.44 0.564,2.64 1.692,3.6c1.128,0.96 2.544,1.848 4.248,2.664c1.704,0.816 3.552,1.656 5.544,2.52c1.992,0.864 3.84,1.908 5.544,3.132c1.704,1.224 3.12,2.736 4.248,4.536c1.128,1.8 1.692,4.044 1.692,6.732c0,2.688 -0.444,5.004 -1.332,6.948c-0.888,1.944 -2.136,3.564 -3.744,4.86c-1.608,1.296 -3.552,2.256 -5.832,2.88c-2.28,0.624 -4.788,0.936 -7.524,0.936c-3.6,0 -6.768,-0.336 -9.504,-1.008c-2.736,-0.672 -4.752,-1.344 -6.048,-2.016l3.168,-8.424c0.528,0.288 1.212,0.6 2.052,0.936c0.84,0.336 1.788,0.648 2.844,0.936c1.056,0.288 2.172,0.528 3.348,0.72c1.176,0.192 2.388,0.288 3.636,0.288c2.928,0 5.172,-0.492 6.732,-1.476c1.56,-0.984 2.34,-2.484 2.34,-4.5Zm54.72,-12.744l18.792,0l0,22.464c-2.016,1.68 -4.428,2.904 -7.236,3.672c-2.808,0.768 -5.58,1.152 -8.316,1.152c-3.216,0 -6.204,-0.504 -8.964,-1.512c-2.76,-1.008 -5.148,-2.58 -7.164,-4.716c-2.016,-2.136 -3.6,-4.86 -4.752,-8.172c-1.152,-3.312 -1.728,-7.248 -1.728,-11.808c0,-4.752 0.684,-8.796 2.052,-12.132c1.368,-3.336 3.168,-6.048 5.4,-8.136c2.232,-2.088 4.74,-3.6 7.524,-4.536c2.784,-0.936 5.616,-1.404 8.496,-1.404c2.88,0 5.412,0.216 7.596,0.648c2.184,0.432 3.924,0.888 5.22,1.368l-2.016,8.28c-1.2,-0.48 -2.544,-0.852 -4.032,-1.116c-1.488,-0.264 -3.384,-0.396 -5.688,-0.396c-2.064,0 -3.96,0.312 -5.688,0.936c-1.728,0.624 -3.228,1.644 -4.5,3.06c-1.272,1.416 -2.256,3.228 -2.952,5.436c-0.696,2.208 -1.044,4.896 -1.044,8.064c0,3.024 0.336,5.628 1.008,7.812c0.672,2.184 1.608,3.984 2.808,5.4c1.2,1.416 2.604,2.46 4.212,3.132c1.608,0.672 3.324,1.008 5.148,1.008c1.248,0 2.472,-0.156 3.672,-0.468c1.2,-0.312 2.208,-0.78 3.024,-1.404l0,-9.504l-10.872,-1.152l0,-5.976Zm-27.432,26.28l-9.864,0l0,-50.4l9.864,0l0,50.4Zm107.928,0l-9.864,0l0,-50.4l9.864,0l0,50.4Zm-15.192,0l-10.368,0l-4.032,-11.16l-15.48,0l-3.816,11.16l-9.864,0l18.144,-50.76l7.272,0l18.144,50.76Zm-21.816,-38.232l-0.36,0l-1.512,7.992l-3.672,11.16l10.8,0l-3.744,-11.232l-1.512,-7.92Z" style="fill:#fff;"/>
                </g>
                <g id="at-ucf" transform="matrix(0.567669,0,0,2,108.947,-210)">
                    <path d="M460.728,225.84c-0.72,1.008 -1.5,1.992 -2.34,2.952c-0.84,0.96 -1.764,1.812 -2.772,2.556c-1.008,0.744 -2.112,1.332 -3.312,1.764c-1.2,0.432 -2.52,0.648 -3.96,0.648c-1.152,0 -2.256,-0.252 -3.312,-0.756c-1.056,-0.504 -1.968,-1.212 -2.736,-2.124c-0.768,-0.912 -1.38,-2.016 -1.836,-3.312c-0.456,-1.296 -0.684,-2.736 -0.684,-4.32c0,-2.976 0.48,-5.868 1.44,-8.676c0.96,-2.808 2.268,-5.292 3.924,-7.452c1.656,-2.16 3.576,-3.9 5.76,-5.22c2.184,-1.32 4.5,-1.98 6.948,-1.98c1.68,0 3.096,0.252 4.248,0.756c1.152,0.504 2.208,1.164 3.168,1.98l2.232,-2.304l5.04,0l-3.456,19.512c-0.384,2.256 -0.396,3.888 -0.036,4.896c0.36,1.008 1.164,1.512 2.412,1.512c1.248,0 2.472,-0.288 3.672,-0.864c1.2,-0.576 2.28,-1.464 3.24,-2.664c0.96,-1.2 1.74,-2.712 2.34,-4.536c0.6,-1.824 0.9,-3.984 0.9,-6.48c0,-3.6 -0.6,-6.672 -1.8,-9.216c-1.2,-2.544 -2.844,-4.644 -4.932,-6.3c-2.088,-1.656 -4.548,-2.868 -7.38,-3.636c-2.832,-0.768 -5.88,-1.152 -9.144,-1.152c-3.744,0 -7.224,0.672 -10.44,2.016c-3.216,1.344 -6.012,3.192 -8.388,5.544c-2.376,2.352 -4.236,5.148 -5.58,8.388c-1.344,3.24 -2.016,6.756 -2.016,10.548c0,3.744 0.564,7.104 1.692,10.08c1.128,2.976 2.772,5.508 4.932,7.596c2.16,2.088 4.836,3.696 8.028,4.824c3.192,1.128 6.852,1.692 10.98,1.692c1.392,0 2.976,-0.168 4.752,-0.504c1.776,-0.336 3.384,-0.84 4.824,-1.512l2.232,6.912c-1.968,0.96 -3.972,1.632 -6.012,2.016c-2.04,0.384 -4.38,0.576 -7.02,0.576c-4.656,0 -8.964,-0.672 -12.924,-2.016c-3.96,-1.344 -7.392,-3.336 -10.296,-5.976c-2.904,-2.64 -5.172,-5.916 -6.804,-9.828c-1.632,-3.912 -2.448,-8.436 -2.448,-13.572c0,-5.232 0.936,-9.96 2.808,-14.184c1.872,-4.224 4.392,-7.824 7.56,-10.8c3.168,-2.976 6.84,-5.268 11.016,-6.876c4.176,-1.608 8.592,-2.412 13.248,-2.412c4.416,0 8.52,0.636 12.312,1.908c3.792,1.272 7.08,3.096 9.864,5.472c2.784,2.376 4.968,5.28 6.552,8.712c1.584,3.432 2.376,7.332 2.376,11.7c0,3.072 -0.54,5.952 -1.62,8.64c-1.08,2.688 -2.568,5.016 -4.464,6.984c-1.896,1.968 -4.104,3.528 -6.624,4.68c-2.52,1.152 -5.22,1.728 -8.1,1.728c-1.2,0 -2.316,-0.132 -3.348,-0.396c-1.032,-0.264 -1.896,-0.708 -2.592,-1.332c-0.696,-0.624 -1.212,-1.44 -1.548,-2.448c-0.336,-1.008 -0.432,-2.256 -0.288,-3.744l-0.288,0Zm117.72,7.272c-1.536,1.104 -3.492,1.896 -5.868,2.376c-2.376,0.48 -4.812,0.72 -7.308,0.72c-3.024,0 -5.892,-0.468 -8.604,-1.404c-2.712,-0.936 -5.1,-2.448 -7.164,-4.536c-2.064,-2.088 -3.708,-4.8 -4.932,-8.136c-1.224,-3.336 -1.836,-7.38 -1.836,-12.132c0,-4.944 0.684,-9.084 2.052,-12.42c1.368,-3.336 3.144,-6.024 5.328,-8.064c2.184,-2.04 4.62,-3.504 7.308,-4.392c2.688,-0.888 5.376,-1.332 8.064,-1.332c2.88,0 5.316,0.192 7.308,0.576c1.992,0.384 3.636,0.84 4.932,1.368l-1.944,8.352c-1.104,-0.528 -2.412,-0.912 -3.924,-1.152c-1.512,-0.24 -3.348,-0.36 -5.508,-0.36c-3.984,0 -7.188,1.416 -9.612,4.248c-2.424,2.832 -3.636,7.224 -3.636,13.176c0,2.592 0.288,4.956 0.864,7.092c0.576,2.136 1.452,3.96 2.628,5.472c1.176,1.512 2.64,2.688 4.392,3.528c1.752,0.84 3.78,1.26 6.084,1.26c2.16,0 3.984,-0.216 5.472,-0.648c1.488,-0.432 2.784,-0.984 3.888,-1.656l2.016,8.064Zm-51.912,-48.312l9.36,0l0,32.544c0,3.264 -0.432,6.072 -1.296,8.424c-0.864,2.352 -2.064,4.296 -3.6,5.832c-1.536,1.536 -3.408,2.664 -5.616,3.384c-2.208,0.72 -4.632,1.08 -7.272,1.08c-12.768,0 -19.152,-5.832 -19.152,-17.496l0,-33.768l9.864,0l0,31.824c0,1.968 0.18,3.636 0.54,5.004c0.36,1.368 0.924,2.472 1.692,3.312c0.768,0.84 1.728,1.44 2.88,1.8c1.152,0.36 2.496,0.54 4.032,0.54c3.024,0 5.208,-0.84 6.552,-2.52c1.344,-1.68 2.016,-4.392 2.016,-8.136l0,-31.824Zm87.912,8.784l-20.016,0l0,12.456l18.432,0l0,8.784l-18.432,0l0,20.376l-9.864,0l0,-50.4l29.88,0l0,8.784Zm-151.488,15.48c-0.624,-0.528 -1.272,-0.936 -1.944,-1.224c-0.672,-0.288 -1.512,-0.432 -2.52,-0.432c-1.44,0 -2.772,0.408 -3.996,1.224c-1.224,0.816 -2.28,1.872 -3.168,3.168c-0.888,1.296 -1.572,2.748 -2.052,4.356c-0.48,1.608 -0.72,3.18 -0.72,4.716c0,1.584 0.324,2.88 0.972,3.888c0.648,1.008 1.764,1.512 3.348,1.512c0.672,0 1.392,-0.204 2.16,-0.612c0.768,-0.408 1.512,-0.948 2.232,-1.62c0.72,-0.672 1.416,-1.44 2.088,-2.304c0.672,-0.864 1.272,-1.776 1.8,-2.736l1.8,-9.936Z" style="fill:#ffca06;"/>
                </g>
            </g>
            <g transform="matrix(0.152439,0,0,0.0957944,-7.43902,-147.105)">
                <g id="date">
                    <text x="432px" y="902.6px" style="font-family:'PTSans-Bold', 'PT Sans', sans-serif;font-weight:700;font-size:36px;fill:#fff;">Ev<tspan x="467.712px " y="902.6px ">e</tspan>ry</text>
                    <text x="524.376px" y="902.6px" style="font-family:'PTSans-Bold', 'PT Sans', sans-serif;font-weight:700;font-size:36px;fill:#6ad1ff;">$day</text>
                    <text x="596.664px" y="902.6px" style="font-family:'PTSans-Bold', 'PT Sans', sans-serif;font-weight:700;font-size:36px;fill:#fff;">,<tspan x="602.388px 611.496px " y="902.6px 902.6px "> a</tspan>t</text>
                    <text x="651.024px" y="902.6px" style="font-family:'PTSans-Bold', 'PT Sans', sans-serif;font-weight:700;font-size:36px;fill:#6ad1ff;">$tim PM</text>
                </g>
            </g>
            <g transform="matrix(0.152439,0,0,0.0957944,-7.43902,-142.794)">
                <g id="room">
                    <text x="432px" y="902.6px" style="font-family:'PTSans-Bold', 'PT Sans', sans-serif;font-weight:700;font-size:36px;fill:#fff;">in</text>
                    <text x="470.412px" y="902.6px" style="font-family:'PTSans-Bold', 'PT Sans', sans-serif;font-weight:700;font-size:36px;fill:#fc4d9a;">$rom</text>
                </g>
            </g>
            <g id="logo" transform="matrix(0.0764528,0,0,0.0480438,22.698,-93.8199)">
                <path d="M216.567,360.426c55.578,0.266 110.454,27.689 143.935,73.009c32.584,44.106 43.424,103.535 27.934,156.763c-14.954,51.388 -53.942,95.021 -103.573,115.67c-53.74,22.358 -118.343,16.558 -167.47,-15.791c-42.607,-28.056 -72.368,-74.808 -79.315,-125.558c-7.689,-56.163 12.897,-115.497 54.424,-154.855c32.731,-31.021 77.038,-49.018 122.906,-49.238c0.386,-0.001 0.772,-0.001 1.159,0Zm-1.096,20c-49.271,0.234 -97.552,24.303 -127.339,64.123c-34.419,46.011 -41.668,111.317 -15.974,164.608c21.507,44.605 64.715,78.176 113.638,87.561c49.794,9.551 103.754,-6.207 140.612,-41.559c43.124,-41.363 60.545,-107.912 40.764,-166.317c-21.098,-62.293 -83.111,-108.095 -150.669,-108.416c-0.344,-0.001 -0.688,-0.001 -1.032,0Zm-63.033,163.964c-0.756,-11.353 1.441,-22.906 6.568,-33.063c10.493,-20.783 32.655,-34.85 56.533,-35.076c0.274,-0.001 0.548,-0.001 0.822,0c9.22,0.087 18.327,2.32 26.622,6.274l-2.42,4.191c-6.958,-3.2 -14.535,-5.068 -22.21,-5.41l0,16.196c18.808,1.186 35.877,15.837 39.447,34.447c2.283,11.901 -0.9,24.684 -8.303,34.268l-3.684,-3.836c6.058,-8.246 8.98,-18.865 7.162,-29.029c-3.012,-16.841 -18.434,-30.524 -36.26,-30.92c-0.324,-0.005 -0.647,-0.007 -0.971,-0.006c-7.496,0.071 -14.789,2.618 -20.906,6.876l-3.664,-3.815c2.127,-1.579 4.41,-2.952 6.825,-4.08c4.906,-2.292 10.234,-3.605 15.648,-3.911l0,-16.193c-20.531,0.911 -40.113,13.193 -49.687,31.329c-8.462,16.029 -8.916,36.076 -1.117,52.508c8.717,18.363 27.551,31.23 48.015,33.27l0,5.118c-2.192,-0.16 -4.386,-0.44 -6.574,-0.846c-19.612,-3.634 -37.118,-17.061 -45.791,-35.05c-2.821,-5.852 -4.678,-12.137 -5.574,-18.559l-16.079,1.607c1.326,10.056 4.509,19.864 9.526,28.708c20.11,35.45 69.499,52.046 108.178,30.718c19.657,-10.839 34.366,-30.239 39.406,-52.048c0.982,-4.251 1.585,-8.57 1.824,-12.907l4.923,0c-0.771,12.83 -4.355,25.495 -10.714,36.704c-14.163,24.967 -42.002,41.293 -71.272,42.675l0,12.425c39.768,-1.265 77.891,-28.929 90.001,-68.694c7.215,-23.693 4.921,-50.089 -6.297,-72.143c-2.293,-4.508 -4.962,-8.807 -7.956,-12.865l7.782,-6.326c3.351,4.514 6.349,9.314 8.94,14.368c17.688,34.514 14.768,78.579 -8.038,110.638c-23.581,33.147 -67.079,51.034 -107.807,43.088c-22.487,-4.388 -43.097,-16.578 -58.538,-33.612l7.587,-6.167c17.714,19.072 43.078,31.193 69.619,31.739l0,-12.359c-13.04,-0.104 -26.234,-3.218 -38.511,-9.89c-21.182,-11.513 -37.031,-32.352 -42.374,-55.806c-4.338,-19.047 -1.488,-39.371 7.173,-56.868l4.059,2.344c-0.299,0.598 -0.59,1.199 -0.873,1.805c-5.773,12.356 -8.127,26.198 -7.119,39.791l16.079,-1.608Zm28.521,-94.784c-11.568,4.473 -22.28,11.112 -31.335,19.592c-29.66,27.778 -39.391,74.716 -21.28,112.575c2.527,5.282 5.558,10.299 9.022,14.999l-7.545,6.133c-10.257,-13.842 -17.328,-30.13 -19.835,-47.626c-3.101,-21.632 0.572,-44.205 10.486,-63.695c17.637,-34.675 54.743,-58.142 94.393,-58.579c0.46,-0.004 0.92,-0.005 1.38,-0.004c29.716,0.14 58.83,13.475 78.988,35.447l-7.804,6.344c-18.06,-19.38 -44.053,-31.493 -70.589,-31.788c-0.418,-0.003 -0.836,-0.004 -1.254,-0.003c-10.277,0.048 -20.493,1.78 -30.196,5.011l3.655,11.423c8.513,-2.845 17.462,-4.363 26.406,-4.433c0.275,-0.002 0.549,-0.002 0.824,-0.002c32.179,0.156 63.206,20.043 76.777,49.09c4.406,9.43 6.938,19.679 7.617,30.061l-5.055,0c-1.21,-14.454 -6.308,-28.614 -14.68,-40.562l-13.321,9.159c1.99,2.703 3.761,5.57 5.281,8.579c8.758,17.349 8.955,38.794 0.513,56.305c-9.474,19.652 -29.643,33.397 -51.549,35.712l0,-4.902c1.736,-0.164 3.474,-0.411 5.208,-0.744c23.977,-4.599 43.874,-25.62 47.114,-49.853c2.478,-18.536 -4.499,-38.076 -18.218,-50.848c-1.851,-1.723 -3.815,-3.319 -5.873,-4.78l2.401,-4.158c4.501,3.142 8.613,6.839 12.186,10.998l13.444,-9.244c-4.017,-5.071 -8.662,-9.667 -13.883,-13.622c-13.484,-10.213 -30.305,-15.943 -47.204,-16.184c-0.43,-0.005 -0.861,-0.007 -1.292,-0.007c-25.942,0.124 -51.053,13.854 -65.762,34.95l-4.2,-2.426c5.307,-8.009 11.956,-15.148 19.783,-20.931c5.86,-4.329 12.291,-7.866 19.058,-10.545l-3.661,-11.442Zm2.308,63.529l3.489,3.633c-3.754,4.582 -6.459,10.008 -7.626,15.893c-2.422,12.213 1.694,25.51 10.614,34.22c10.368,10.124 26.812,13.488 40.441,7.915c2.843,-1.162 5.5,-2.705 7.928,-4.552l3.541,3.687c-11.677,8.693 -27.954,11.136 -41.756,5.493c-13.627,-5.57 -23.9,-18.645 -26.035,-33.213c-1.714,-11.697 2.036,-23.873 9.404,-33.076Z" style="fill:#ffca06;"/>
            </g>
        </g>
    </g>
</svg>
