<svg width="100%" height="100%" viewBox="0 0 1920 1080" version="1.1" xmlns="http://www.w3.org/2000/svg" xmlns:xlink="http://www.w3.org/1999/xlink" xml:space="preserve" xmlns:serif="http://www.serif.com/" style="fill-rule:evenodd;clip-rule:evenodd;stroke-linejoin:round;stroke-miterlimit:1.41421;">
    <rect id="Artboard1" x="0" y="0" width="1920" height="1080" style="fill:#2f3239;"/>
    <clipPath id="_clip1">
        <rect id="Artboard11" serif:id="Artboard1" x="0" y="0" width="1920" height="1080"/>
    </clipPath>
    <g clip-path="url(#_clip1)">
        <g id="sigai-logo">
            <g id="logo" transform="matrix(0.348285,0,0,0.348285,23.7815,793.484)">
                <path d="M216.567,360.426c55.578,0.266 110.454,27.689 143.935,73.009c32.584,44.106 43.424,103.535 27.934,156.763c-14.954,51.388 -53.942,95.021 -103.573,115.67c-53.74,22.358 -118.343,16.558 -167.47,-15.791c-42.607,-28.056 -72.368,-74.808 -79.315,-125.558c-7.689,-56.163 12.897,-115.497 54.424,-154.855c32.731,-31.021 77.038,-49.018 122.906,-49.238c0.386,-0.001 0.772,-0.001 1.159,0Zm-1.096,20c-49.271,0.234 -97.552,24.303 -127.339,64.123c-34.419,46.011 -41.668,111.317 -15.974,164.608c21.507,44.605 64.715,78.176 113.638,87.561c49.794,9.551 103.754,-6.207 140.612,-41.559c43.124,-41.363 60.545,-107.912 40.764,-166.317c-21.098,-62.293 -83.111,-108.095 -150.669,-108.416c-0.344,-0.001 -0.688,-0.001 -1.032,0Zm-63.033,163.964c-0.756,-11.353 1.441,-22.906 6.568,-33.063c10.493,-20.783 32.655,-34.85 56.533,-35.076c0.274,-0.001 0.548,-0.001 0.822,0c9.22,0.087 18.327,2.32 26.622,6.274l-2.42,4.191c-6.958,-3.2 -14.535,-5.068 -22.21,-5.41l0,16.196c18.808,1.186 35.877,15.837 39.447,34.447c2.283,11.901 -0.9,24.684 -8.303,34.268l-3.684,-3.836c6.058,-8.246 8.98,-18.865 7.162,-29.029c-3.012,-16.841 -18.434,-30.524 -36.26,-30.92c-0.324,-0.005 -0.647,-0.007 -0.971,-0.006c-7.496,0.071 -14.789,2.618 -20.906,6.876l-3.664,-3.815c2.127,-1.579 4.41,-2.952 6.825,-4.08c4.906,-2.292 10.234,-3.605 15.648,-3.911l0,-16.193c-20.531,0.911 -40.113,13.193 -49.687,31.329c-8.462,16.029 -8.916,36.076 -1.117,52.508c8.717,18.363 27.551,31.23 48.015,33.27l0,5.118c-2.192,-0.16 -4.386,-0.44 -6.574,-0.846c-19.612,-3.634 -37.118,-17.061 -45.791,-35.05c-2.821,-5.852 -4.678,-12.137 -5.574,-18.559l-16.079,1.607c1.326,10.056 4.509,19.864 9.526,28.708c20.11,35.45 69.499,52.046 108.178,30.718c19.657,-10.839 34.366,-30.239 39.406,-52.048c0.982,-4.251 1.585,-8.57 1.824,-12.907l4.923,0c-0.771,12.83 -4.355,25.495 -10.714,36.704c-14.163,24.967 -42.002,41.293 -71.272,42.675l0,12.425c39.768,-1.265 77.891,-28.929 90.001,-68.694c7.215,-23.693 4.921,-50.089 -6.297,-72.143c-2.293,-4.508 -4.962,-8.807 -7.956,-12.865l7.782,-6.326c3.351,4.514 6.349,9.314 8.94,14.368c17.688,34.514 14.768,78.579 -8.038,110.638c-23.581,33.147 -67.079,51.034 -107.807,43.088c-22.487,-4.388 -43.097,-16.578 -58.538,-33.612l7.587,-6.167c17.714,19.072 43.078,31.193 69.619,31.739l0,-12.359c-13.04,-0.104 -26.234,-3.218 -38.511,-9.89c-21.182,-11.513 -37.031,-32.352 -42.374,-55.806c-4.338,-19.047 -1.488,-39.371 7.173,-56.868l4.059,2.344c-0.299,0.598 -0.59,1.199 -0.873,1.805c-5.773,12.356 -8.127,26.198 -7.119,39.791l16.079,-1.608Zm28.521,-94.784c-11.568,4.473 -22.28,11.112 -31.335,19.592c-29.66,27.778 -39.391,74.716 -21.28,112.575c2.527,5.282 5.558,10.299 9.022,14.999l-7.545,6.133c-10.257,-13.842 -17.328,-30.13 -19.835,-47.626c-3.101,-21.632 0.572,-44.205 10.486,-63.695c17.637,-34.675 54.743,-58.142 94.393,-58.579c0.46,-0.004 0.92,-0.005 1.38,-0.004c29.716,0.14 58.83,13.475 78.988,35.447l-7.804,6.344c-18.06,-19.38 -44.053,-31.493 -70.589,-31.788c-0.418,-0.003 -0.836,-0.004 -1.254,-0.003c-10.277,0.048 -20.493,1.78 -30.196,5.011l3.655,11.423c8.513,-2.845 17.462,-4.363 26.406,-4.433c0.275,-0.002 0.549,-0.002 0.824,-0.002c32.179,0.156 63.206,20.043 76.777,49.09c4.406,9.43 6.938,19.679 7.617,30.061l-5.055,0c-1.21,-14.454 -6.308,-28.614 -14.68,-40.562l-13.321,9.159c1.99,2.703 3.761,5.57 5.281,8.579c8.758,17.349 8.955,38.794 0.513,56.305c-9.474,19.652 -29.643,33.397 -51.549,35.712l0,-4.902c1.736,-0.164 3.474,-0.411 5.208,-0.744c23.977,-4.599 43.874,-25.62 47.114,-49.853c2.478,-18.536 -4.499,-38.076 -18.218,-50.848c-1.851,-1.723 -3.815,-3.319 -5.873,-4.78l2.401,-4.158c4.501,3.142 8.613,6.839 12.186,10.998l13.444,-9.244c-4.017,-5.071 -8.662,-9.667 -13.883,-13.622c-13.484,-10.213 -30.305,-15.943 -47.204,-16.184c-0.43,-0.005 -0.861,-0.007 -1.292,-0.007c-25.942,0.124 -51.053,13.854 -65.762,34.95l-4.2,-2.426c5.307,-8.009 11.956,-15.148 19.783,-20.931c5.86,-4.329 12.291,-7.866 19.058,-10.545l-3.661,-11.442Zm2.308,63.529l3.489,3.633c-3.754,4.582 -6.459,10.008 -7.626,15.893c-2.422,12.213 1.694,25.51 10.614,34.22c10.368,10.124 26.812,13.488 40.441,7.915c2.843,-1.162 5.5,-2.705 7.928,-4.552l3.541,3.687c-11.677,8.693 -27.954,11.136 -41.756,5.493c-13.627,-5.57 -23.9,-18.645 -26.035,-33.213c-1.714,-11.697 2.036,-23.873 9.404,-33.076Z" style="fill:#ffca06;"/>
            </g>
            <path id="sigai" d="M197.743,990.255c0,-1.152 -0.423,-2.088 -1.269,-2.808c-0.846,-0.72 -1.908,-1.377 -3.186,-1.971c-1.278,-0.594 -2.664,-1.206 -4.158,-1.836c-1.494,-0.63 -2.88,-1.404 -4.158,-2.322c-1.278,-0.918 -2.34,-2.061 -3.186,-3.429c-0.846,-1.368 -1.269,-3.114 -1.269,-5.238c0,-1.836 0.306,-3.429 0.918,-4.779c0.612,-1.35 1.485,-2.475 2.619,-3.375c1.134,-0.9 2.475,-1.566 4.023,-1.998c1.548,-0.432 3.276,-0.648 5.184,-0.648c2.196,0 4.266,0.189 6.21,0.567c1.944,0.378 3.546,0.927 4.806,1.647l-2.322,6.21c-0.792,-0.504 -1.98,-0.963 -3.564,-1.377c-1.584,-0.414 -3.294,-0.621 -5.13,-0.621c-1.728,0 -3.051,0.342 -3.969,1.026c-0.918,0.684 -1.377,1.602 -1.377,2.754c0,1.08 0.423,1.98 1.269,2.7c0.846,0.72 1.908,1.386 3.186,1.998c1.278,0.612 2.664,1.242 4.158,1.89c1.494,0.648 2.88,1.431 4.158,2.349c1.278,0.918 2.34,2.052 3.186,3.402c0.846,1.35 1.269,3.033 1.269,5.049c0,2.016 -0.333,3.753 -0.999,5.211c-0.666,1.458 -1.602,2.673 -2.808,3.645c-1.206,0.972 -2.664,1.692 -4.374,2.16c-1.71,0.468 -3.591,0.702 -5.643,0.702c-2.7,0 -5.076,-0.252 -7.128,-0.756c-2.052,-0.504 -3.564,-1.008 -4.536,-1.512l2.376,-6.318c0.396,0.216 0.909,0.45 1.539,0.702c0.63,0.252 1.341,0.486 2.133,0.702c0.792,0.216 1.629,0.396 2.511,0.54c0.882,0.144 1.791,0.216 2.727,0.216c2.196,0 3.879,-0.369 5.049,-1.107c1.17,-0.738 1.755,-1.863 1.755,-3.375Zm41.04,-9.558l14.094,0l0,16.848c-1.512,1.26 -3.321,2.178 -5.427,2.754c-2.106,0.576 -4.185,0.864 -6.237,0.864c-2.412,0 -4.653,-0.378 -6.723,-1.134c-2.07,-0.756 -3.861,-1.935 -5.373,-3.537c-1.512,-1.602 -2.7,-3.645 -3.564,-6.129c-0.864,-2.484 -1.296,-5.436 -1.296,-8.856c0,-3.564 0.513,-6.597 1.539,-9.099c1.026,-2.502 2.376,-4.536 4.05,-6.102c1.674,-1.566 3.555,-2.7 5.643,-3.402c2.088,-0.702 4.212,-1.053 6.372,-1.053c2.16,0 4.059,0.162 5.697,0.486c1.638,0.324 2.943,0.666 3.915,1.026l-1.512,6.21c-0.9,-0.36 -1.908,-0.639 -3.024,-0.837c-1.116,-0.198 -2.538,-0.297 -4.266,-0.297c-1.548,0 -2.97,0.234 -4.266,0.702c-1.296,0.468 -2.421,1.233 -3.375,2.295c-0.954,1.062 -1.692,2.421 -2.214,4.077c-0.522,1.656 -0.783,3.672 -0.783,6.048c0,2.268 0.252,4.221 0.756,5.859c0.504,1.638 1.206,2.988 2.106,4.05c0.9,1.062 1.953,1.845 3.159,2.349c1.206,0.504 2.493,0.756 3.861,0.756c0.936,0 1.854,-0.117 2.754,-0.351c0.9,-0.234 1.656,-0.585 2.268,-1.053l0,-7.128l-8.154,-0.864l0,-4.482Zm-20.574,19.71l-7.398,0l0,-37.8l7.398,0l0,37.8Zm80.946,0l-7.398,0l0,-37.8l7.398,0l0,37.8Zm-11.394,0l-7.776,0l-3.024,-8.37l-11.61,0l-2.862,8.37l-7.398,0l13.608,-38.07l5.454,0l13.608,38.07Zm-16.362,-28.674l-0.27,0l-1.134,5.994l-2.754,8.37l8.1,0l-2.808,-8.424l-1.134,-5.94Z" style="fill:#fff;"/>
            <path id="at-ucf" d="M334.741,993.387c-0.541,0.756 -1.125,1.494 -1.755,2.214c-0.63,0.72 -1.323,1.359 -2.079,1.917c-0.756,0.558 -1.584,0.999 -2.484,1.323c-0.9,0.324 -1.89,0.486 -2.97,0.486c-0.864,0 -1.692,-0.189 -2.484,-0.567c-0.792,-0.378 -1.476,-0.909 -2.052,-1.593c-0.576,-0.684 -1.035,-1.512 -1.377,-2.484c-0.342,-0.972 -0.513,-2.052 -0.513,-3.24c0,-2.232 0.36,-4.401 1.08,-6.507c0.72,-2.106 1.701,-3.969 2.943,-5.589c1.242,-1.62 2.682,-2.925 4.32,-3.915c1.638,-0.99 3.375,-1.485 5.211,-1.485c1.26,0 2.322,0.189 3.186,0.567c0.864,0.378 1.656,0.873 2.376,1.485l1.674,-1.728l3.78,0l-2.592,14.634c-0.288,1.692 -0.297,2.916 -0.027,3.672c0.27,0.756 0.873,1.134 1.809,1.134c0.936,0 1.854,-0.216 2.754,-0.648c0.9,-0.432 1.71,-1.098 2.43,-1.998c0.72,-0.9 1.305,-2.034 1.755,-3.402c0.45,-1.368 0.675,-2.988 0.675,-4.86c0,-2.7 -0.45,-5.004 -1.35,-6.912c-0.9,-1.908 -2.133,-3.483 -3.699,-4.725c-1.566,-1.242 -3.411,-2.151 -5.535,-2.727c-2.124,-0.576 -4.41,-0.864 -6.858,-0.864c-2.808,0 -5.418,0.504 -7.83,1.512c-2.412,1.008 -4.509,2.394 -6.291,4.158c-1.782,1.764 -3.177,3.861 -4.185,6.291c-1.008,2.43 -1.512,5.067 -1.512,7.911c0,2.808 0.423,5.328 1.269,7.56c0.846,2.232 2.079,4.131 3.699,5.697c1.62,1.566 3.627,2.772 6.021,3.618c2.394,0.846 5.139,1.269 8.235,1.269c1.044,0 2.232,-0.126 3.564,-0.378c1.332,-0.252 2.538,-0.63 3.618,-1.134l1.674,5.184c-1.476,0.72 -2.979,1.224 -4.509,1.512c-1.53,0.288 -3.285,0.432 -5.265,0.432c-3.492,0 -6.723,-0.504 -9.693,-1.512c-2.97,-1.008 -5.544,-2.502 -7.722,-4.482c-2.178,-1.98 -3.879,-4.437 -5.103,-7.371c-1.224,-2.934 -1.836,-6.327 -1.836,-10.179c0,-3.924 0.702,-7.47 2.106,-10.638c1.404,-3.168 3.294,-5.868 5.67,-8.1c2.376,-2.232 5.13,-3.951 8.262,-5.157c3.132,-1.206 6.444,-1.809 9.936,-1.809c3.312,0 6.39,0.477 9.234,1.431c2.844,0.954 5.31,2.322 7.398,4.104c2.088,1.782 3.726,3.96 4.914,6.534c1.188,2.574 1.782,5.499 1.782,8.775c0,2.304 -0.405,4.464 -1.215,6.48c-0.81,2.016 -1.926,3.762 -3.348,5.238c-1.422,1.476 -3.078,2.646 -4.968,3.51c-1.89,0.864 -3.915,1.296 -6.075,1.296c-0.9,0 -1.737,-0.099 -2.511,-0.297c-0.774,-0.198 -1.422,-0.531 -1.944,-0.999c-0.522,-0.468 -0.909,-1.08 -1.161,-1.836c-0.252,-0.756 -0.324,-1.692 -0.216,-2.808l-0.216,0Zm88.29,5.454c-1.152,0.828 -2.619,1.422 -4.401,1.782c-1.782,0.36 -3.609,0.54 -5.481,0.54c-2.268,0 -4.419,-0.351 -6.453,-1.053c-2.034,-0.702 -3.825,-1.836 -5.373,-3.402c-1.548,-1.566 -2.781,-3.6 -3.699,-6.102c-0.918,-2.502 -1.377,-5.535 -1.377,-9.099c0,-3.708 0.513,-6.813 1.539,-9.315c1.026,-2.502 2.358,-4.518 3.996,-6.048c1.638,-1.53 3.465,-2.628 5.481,-3.294c2.016,-0.666 4.032,-0.999 6.048,-0.999c2.16,0 3.987,0.144 5.481,0.432c1.494,0.288 2.727,0.63 3.699,1.026l-1.458,6.264c-0.828,-0.396 -1.809,-0.684 -2.943,-0.864c-1.134,-0.18 -2.511,-0.27 -4.131,-0.27c-2.988,0 -5.391,1.062 -7.209,3.186c-1.818,2.124 -2.727,5.418 -2.727,9.882c0,1.944 0.216,3.717 0.648,5.319c0.432,1.602 1.089,2.97 1.971,4.104c0.882,1.134 1.98,2.016 3.294,2.646c1.314,0.63 2.835,0.945 4.563,0.945c1.62,0 2.988,-0.162 4.104,-0.486c1.116,-0.324 2.088,-0.738 2.916,-1.242l1.512,6.048Zm-38.934,-36.234l7.02,0l0,24.408c0,2.448 -0.324,4.554 -0.972,6.318c-0.648,1.764 -1.548,3.222 -2.7,4.374c-1.152,1.152 -2.556,1.998 -4.212,2.538c-1.656,0.54 -3.474,0.81 -5.454,0.81c-9.576,0 -14.364,-4.374 -14.364,-13.122l0,-25.326l7.398,0l0,23.868c0,1.476 0.135,2.727 0.405,3.753c0.27,1.026 0.693,1.854 1.269,2.484c0.576,0.63 1.296,1.08 2.16,1.35c0.864,0.27 1.872,0.405 3.024,0.405c2.268,0 3.906,-0.63 4.914,-1.89c1.008,-1.26 1.512,-3.294 1.512,-6.102l0,-23.868Zm65.934,6.588l-15.012,0l0,9.342l13.824,0l0,6.588l-13.824,0l0,15.282l-7.398,0l0,-37.8l22.41,0l0,6.588Zm-113.616,11.61c-0.468,-0.396 -0.954,-0.702 -1.458,-0.918c-0.504,-0.216 -1.134,-0.324 -1.89,-0.324c-1.08,0 -2.079,0.306 -2.997,0.918c-0.918,0.612 -1.71,1.404 -2.376,2.376c-0.666,0.972 -1.179,2.061 -1.539,3.267c-0.36,1.206 -0.54,2.385 -0.54,3.537c0,1.188 0.243,2.16 0.729,2.916c0.486,0.756 1.323,1.134 2.511,1.134c0.504,0 1.044,-0.153 1.62,-0.459c0.576,-0.306 1.134,-0.711 1.674,-1.215c0.54,-0.504 1.062,-1.08 1.566,-1.728c0.504,-0.648 0.954,-1.332 1.35,-2.052l1.35,-7.452Z" style="fill:#ffca06;"/>
        </g>
        <g transform="matrix(1,0,0,1,-395.509,1)">
            <text id="title" x="432px" y="581px" style="font-family:'PTSans-Bold', 'PT Sans', sans-serif;font-weight:700;font-size:120px;fill:#c5c8cf;">$title</text>
        </g>
        <g transform="matrix(1,0,0,1,-395.509,-836)">
            <text id="date" x="432px" y="933.2px" style="font-family:'PTSans-Bold', 'PT Sans', sans-serif;font-weight:700;font-size:72px;fill:#6ad1ff;">$date</text>
        </g>
        <g transform="matrix(1,0,0,1,-395.509,-746)">
            <text id="room" x="432px" y="933.2px" style="font-family:'PTSans-Bold', 'PT Sans', sans-serif;font-weight:700;font-size:72px;fill:#fc4d9a;">$room</text>
        </g>
    </g>
</svg>
